<svg xmlns="http://www.w3.org/2000/svg" width="32" height="32" viewBox="0 0 32 32">
    <path d="M10.8332 24.096C11.9853 23.8174 13.0942 23.3832 14.1292 22.8053C10.9679 20.1042 8.98235 16.2785 8.59315 12.1387C8.30161 8.06786 9.37097 4.01557 11.6332 0.618667C9.00409 1.36419 6.60979 2.77066 4.67848 4.704L5.41448 12.48C5.83677 16.8584 7.74965 20.959 10.8332 24.096Z" />
    <path d="M8.32649 24.5333C5.46778 21.1959 3.70945 17.0571 3.29182 12.6827L2.74782 7.02933C1.12312 9.43086 0.181539 12.2287 0.023722 15.1239C-0.134095 18.0191 0.497784 20.9028 1.85182 23.4667C3.90792 24.2848 6.11661 24.6487 8.32649 24.5333Z" />
    <path d="M25.9158 15.9147C25.0868 15.0919 24.1588 14.3753 23.1532 13.7813C22.6485 16.4228 21.4814 18.8929 19.7613 20.96C18.0411 23.0272 15.8243 24.6237 13.3185 25.6C10.262 26.7955 6.91505 27.0373 3.71848 26.2933C5.72289 28.6999 8.38953 30.4653 11.3878 31.3707L18.4385 26.464C22.0757 23.9179 24.7181 20.1899 25.9158 15.9147Z" />
    <path d="M11.0998 7.04C10.815 8.18822 10.6681 9.36632 10.6625 10.5493C13.5736 9.49951 16.7278 9.32181 19.7384 10.038C22.749 10.7542 25.4853 12.3331 27.6118 14.5813C29.2488 16.2882 30.5161 18.3144 31.3345 20.5333C31.7726 19.0621 31.9953 17.5351 31.9958 16C31.9947 14.5127 31.7828 13.0331 31.3665 11.6053L24.1452 8.21333C20.0706 6.29809 15.4507 5.88256 11.0998 7.04Z" />
    <path d="M25.0518 6.28267L30.2252 8.704C28.8832 6.08491 26.8449 3.88665 24.3345 2.35103C21.824 0.815405 18.9387 0.00190271 15.9958 0C15.5158 0 15.0465 5.5631e-08 14.5772 0.0746667C13.4718 1.47855 12.5605 3.02489 11.8678 4.672C16.3215 3.78093 20.9437 4.34561 25.0518 6.28267Z" />
    <path d="M19.6545 28.16L14.3212 31.904C14.8772 31.9666 15.4363 31.9986 15.9958 32C18.8582 31.9976 21.6675 31.2274 24.1309 29.7696C26.5943 28.3118 28.6215 26.2199 30.0012 23.712C29.59 21.6015 28.7435 19.5999 27.5158 17.8347C26.0394 22.0138 23.2901 25.6249 19.6545 28.16Z" />
    <path d="M10.8332 12.8C11.3783 16.2751 13.2238 19.4132 15.9958 21.5787C18.7793 19.4216 20.6306 16.2801 21.1692 12.8C17.8561 11.4501 14.1463 11.4501 10.8332 12.8Z" />
</svg>