<svg xmlns="http://www.w3.org/2000/svg" width="94" height="104" viewBox="0 0 94 104" fill="none">
    <g clip-path="url(#clip0_1_2233)">
        <path d="M86.6175 42.6288C80.5479 34.2305 71.5683 28.6901 61.3393 27.0339C60.7662 26.9459 60.1783 26.8579 59.5905 26.7992V0.138184L0.0837402 14.9858V42.4089L1.71507 41.9986V51.1593L0.0837402 51.5696V79.0075L17.4551 74.6691C17.8519 76.2226 18.337 77.7471 18.9101 79.2274L18.9837 79.418C23.9952 92.0816 35.4586 101.316 48.8912 103.485C50.9489 103.822 53.0505 103.983 55.1374 103.983C64.2492 103.983 73.1407 100.729 80.1511 94.8371C87.2496 88.8717 91.9672 80.5613 93.4516 71.4445C95.1122 61.2433 92.6874 50.998 86.6029 42.5995L86.6175 42.6288Z" fill="black" />
        <path d="M52.1244 58.795L40.6904 61.697V65.2148L48.6854 63.1921L40.6464 72.8511C40.0291 73.5839 40.2349 74.7417 41.0872 75.328C41.8222 75.8263 42.7774 75.7238 43.3065 75.0936L51.419 65.3468V73.0562L55.0639 72.1329V61.14C55.0639 59.6305 53.5795 58.4431 52.1244 58.8097V58.795Z" fill="#00C0B3" />
        <path d="M79.6836 54.0315V65.9036L76.0387 66.8272V53.7824C76.0387 52.9908 76.5532 52.3312 77.3027 52.1409C78.4784 51.8477 79.6982 52.8004 79.6982 54.0315H79.6836ZM24.0568 65.9036V79.9745L27.7015 79.0511V68.4979L35.1526 66.6073L31.1846 71.3708C30.6115 72.0597 30.685 73.1443 31.4197 73.7745C32.1545 74.4047 33.2274 74.3461 33.8005 73.672L38.7386 67.7358C40.5023 65.6107 38.283 62.3127 35.5494 63.0016L24.042 65.9184L24.0568 65.9036ZM69.9838 54.2808L58.4762 57.1974V71.2682L62.1211 70.3449V59.7917L69.5722 57.901L64.4138 64.0862L70.0719 67.9996C70.8069 68.4979 71.7621 68.3954 72.2912 67.7651C72.9083 67.0323 72.7026 65.8745 71.8502 65.2882L69.3665 63.5733L73.1583 59.0295C74.9218 56.9044 72.7026 53.6064 69.969 54.2953L69.9838 54.2808ZM89.6184 70.8432C86.8408 87.9332 71.9678 100.113 55.1401 100.113C53.2884 100.113 51.4072 99.9666 49.5261 99.6589C39.106 97.9732 30.5085 91.8173 25.3647 83.4774L28.6127 82.774C30.2734 85.2657 32.2868 87.5375 34.5795 89.4868C42.0161 90.5569 46.8954 90.1905 49.1293 88.3729C42.31 87.5962 35.182 85.6467 28.6421 82.774L31.4638 82.1583V82.1144L33.8594 81.5133C39.1502 83.4481 44.926 84.8552 50.6136 85.3828C50.8046 83.3748 50.114 80.7512 48.8648 77.7173L51.8921 76.9551C53.1855 80.2236 53.9057 83.1404 53.7146 85.588C56.3894 85.6907 59.0201 85.5734 61.548 85.2216C61.9888 81.9677 62.1651 78.3036 62.077 74.3754L65.178 73.584C65.3103 77.5415 65.1632 81.2495 64.7664 84.6061C67.015 84.0637 69.1608 83.3162 71.1448 82.2902C71.4388 80.7512 72.2176 79.007 73.1142 77.043C73.9078 75.2842 74.8189 73.2615 75.5979 70.9457L79.1691 70.0369C78.2432 73.2615 77.0088 76.0024 75.9653 78.3182C75.8036 78.6846 75.6273 79.0511 75.4802 79.4175C80.874 74.8885 83.8281 67.985 84.3129 58.8098C84.5482 54.2367 83.2548 49.7078 80.4772 46.058C78.7723 43.8303 76.7883 41.8076 74.5397 40.0927C76.1416 42.9361 77.3614 45.6331 78.2727 48.1981C77.6407 48.1394 76.994 48.1981 76.3621 48.3446C76.2592 48.3739 75.8036 48.4913 75.0982 48.6671C73.7314 44.9443 71.6445 40.8988 68.6318 36.5018C66.0304 35.2853 63.238 34.4058 60.2693 33.9221C58.2853 33.5996 56.3159 33.4824 54.3759 33.5264C57.5798 38.671 60.1957 45.0175 62.0622 52.0235C61.0775 52.2728 60.0488 52.5366 59.0053 52.815C57.0653 45.5745 54.3025 39.052 50.9956 34.054V22.5044L52.6271 22.0939V9.1078L7.11143 20.4523V33.4531L8.74285 33.0426V56.6258L7.11143 57.0363V70.0369L20.1328 66.7831V69.993L3.98105 74.0238V54.6032L5.61246 54.1927V37.0147L3.98105 37.4252V18.0192L55.6986 5.12109V24.5417L54.0966 24.9374V30.4337C56.2717 30.3751 58.491 30.507 60.725 30.8588C79.7424 33.9368 92.7048 51.877 89.6184 70.8432ZM61.0041 88.4315C59.2406 88.6367 57.4035 88.754 55.5075 88.754C54.6405 88.754 53.7586 88.7247 52.8622 88.6808C52.7445 88.8859 52.6271 89.1058 52.4948 89.2962C50.7165 91.9199 47.2333 93.1951 41.7662 93.1951C41.1931 93.1951 40.5758 93.1951 39.9585 93.1512C43.0154 94.8073 46.3957 95.9945 50.0257 96.5808C51.7452 96.8594 53.4501 96.9913 55.1401 96.9913C55.9778 96.9913 56.8008 96.9472 57.6238 96.8886C59.0935 95.0272 60.2399 92.0959 61.0041 88.417V88.4315ZM76.9206 88.3583C74.0695 87.8746 72.4087 87.0098 71.5857 85.6173C71.5857 85.588 71.5563 85.5734 71.5563 85.5441C69.3371 86.57 66.8975 87.3615 64.2816 87.8893C63.6789 91.2016 62.7824 94.0598 61.6508 96.3024C67.4266 95.0859 72.7026 92.301 76.9354 88.3435L76.9206 88.3583ZM86.9142 63.7492C85.5329 72.6606 81.5795 79.3295 75.0688 83.6093C74.8189 83.7706 74.5692 83.9318 74.3046 84.0785C74.6132 84.5181 75.7302 85.2216 79.5807 85.5441C83.1079 81.3229 85.5916 76.1343 86.5322 70.3301C86.8996 68.1022 87.0025 65.9036 86.8996 63.7344L86.9142 63.7492ZM40.4875 16.1431L48.6737 14.0912V19.0745L47.0422 19.485V51.0854L48.6737 50.6751V55.6731L40.4875 57.7252V52.727L42.1189 52.3167V39.0081L37.2103 40.2392V53.5478L38.8415 53.1375V58.1209L30.6555 60.1728V55.1894L32.2868 54.7791V24.8787L35.5642 22.3724L30.6555 23.589V18.6055L38.8415 16.5536V21.5369L37.2103 21.9474V35.2559L42.1189 34.0247V20.7161L40.4875 21.1266V16.1431ZM20.8236 26.0366L22.4548 25.6263V38.9349L17.5461 40.166V26.8574L19.1775 26.4471V21.4637L10.9914 23.5156V28.499L15.9001 27.2825L12.6228 29.7888V59.6891L10.9914 60.0996V65.0828L19.1775 63.0309V58.0475L17.5461 58.458V45.1494L22.4548 43.9181V57.2267L20.8236 57.6372V62.6352L29.0095 60.5833V55.5851L27.3781 55.9956V24.395L29.0095 23.9847V19.0013L20.8236 21.0533V26.0366Z" fill="white" />
    </g>
    <defs>
        <clipPath id="clip0_1_2233">
            <rect width="94" height="104" fill="white" />
        </clipPath>
    </defs>
    </svg>