<svg xmlns="http://www.w3.org/2000/svg" width="226" height="190" viewBox="0 0 226 190" fill="none">
    <g clip-path="url(#clip0_1_7)">
        <path d="M216.201 94.8898L213.511 93.2264L212.268 92.4581L210.809 92.5169L178.264 93.7822L177.493 93.8114L176.772 94.081L114.021 117.583L51.27 94.081L50.5486 93.8114L49.7775 93.7822L17.2328 92.5169L15.7734 92.4581L14.5312 93.2264L11.8408 94.8898L5.30412 98.93L11.8408 102.972L15.0538 104.958L15.9867 105.536L17.0799 105.648L47.435 108.763L111.923 140.239L114.021 141.263L116.121 140.239L180.607 108.763L210.962 105.648L212.055 105.536L212.988 104.958L216.201 102.972L222.738 98.93L216.201 94.8898Z" fill="#1B326C" />
        <path d="M210.859 92.8357L212.096 93.6028L214.776 95.2673L221.287 99.3044L214.776 103.342L211.576 105.34L210.646 105.918L209.558 106.03L179.322 109.15L115.09 140.647L112.998 141.675L110.908 140.647L46.6743 109.152L16.4295 106.032L15.3406 105.92L14.4205 105.34L11.2201 103.356L4.70922 99.3192L11.2201 95.2819L13.9 93.6177L15.1373 92.8486L16.5909 92.9055L49.0078 94.1719L49.7757 94.2011L50.4942 94.4709L112.998 117.976L175.504 94.4599L176.222 94.1901L176.991 94.1608L209.407 92.8945L210.861 92.8376M211.495 90.4319L210.762 90.4612L209.308 90.5181L176.892 91.7842L176.123 91.8137L175.74 91.8283L175.374 91.9642L174.655 92.234L112.998 115.433L51.3302 92.234L50.6116 91.9642L50.2448 91.8283L49.8617 91.8137L49.0938 91.7842L16.6769 90.5181L15.2234 90.4612L14.4902 90.4319L13.8724 90.8155L12.6461 91.577L9.96625 93.2468L3.45542 97.2841L0.199997 99.3027L3.45542 101.321L9.96625 105.359L13.1668 107.359L14.0961 107.937L14.5653 108.232L15.1152 108.289L16.2039 108.401L46.0179 111.477L109.862 142.776L111.953 143.802L112.998 144.314L114.043 143.802L116.134 142.776L179.986 111.477L209.8 108.401L210.888 108.289L211.438 108.232L211.904 107.944L212.833 107.366L216.034 105.379L222.544 101.341L225.8 99.3228L222.544 97.3043L216.034 93.267L213.348 91.577L212.111 90.808L211.493 90.4245L211.495 90.4319Z" fill="white" />
        <path d="M58.14 139.881L48.1777 42.1215L113.51 20.267L178.842 42.1215L169.407 134.704L168.88 139.881L113.51 168.716L58.14 139.881Z" fill="#002855" />
        <path d="M114.026 20.7322L179.35 42.5818L169.917 135.104L169.391 140.277L114.026 169.094L58.6629 140.277L48.7017 42.5818L114.026 20.7322ZM114.026 18.2333L113.265 18.4873L47.9406 40.3369L46.1372 40.9397L46.3209 42.8212L56.2818 140.517L56.4107 141.785L57.5469 142.376L112.919 171.191L114.022 171.767L115.125 171.191L170.494 142.376L171.63 141.785L171.759 140.517L172.286 135.343L181.722 42.8212L181.905 40.9397L180.102 40.3369L114.787 18.4964L114.026 18.2424V18.2333Z" fill="white" />
        <path d="M64.3346 135.85L55.3238 46.9527L113.51 27.3844L171.697 46.9527L162.941 133.331L162.686 135.85L113.51 161.599L64.3346 135.85Z" fill="white" />
        <path d="M157.363 132.626L113.51 155.498L69.6583 132.626L61.4489 51.9455L113.51 34.5019L165.572 51.9455L157.363 132.626Z" fill="#8C001A" />
        <path d="M113.51 155.498L69.6583 132.626L61.4489 51.9455L113.51 34.5019V155.498Z" fill="#E4002B" />
        <path d="M216.201 94.8898L213.511 93.2264L212.268 92.4581L210.809 92.5169L178.264 93.7822L177.493 93.8114L176.772 94.081L114.021 117.583L51.27 94.081L50.5486 93.8114L49.7775 93.7822L17.2328 92.5169L15.7734 92.4581L14.5312 93.2264L11.8408 94.8898L5.30412 98.93L11.8408 102.972L15.0538 104.958L15.9867 105.536L17.0799 105.648L47.435 108.763L111.923 140.239L114.021 141.263L116.121 140.239L180.607 108.763L210.962 105.648L212.055 105.536L212.988 104.958L216.201 102.972L222.738 98.93L216.201 94.8898Z" fill="#002855" />
        <path d="M114.02 135.163L179.281 104.773L210.488 101.609L179.132 104.037L114.02 133.027L48.9074 104.037L17.5536 101.609L48.7601 104.773L114.02 135.163Z" fill="#C1C6C8" />
        <path d="M114.021 133.129L179.033 103.99L210.342 101.55L213.55 99.5755L178.714 101.105L114.021 129.416L49.306 101.105L14.4914 99.5755L17.7001 101.55L49.0063 103.99L114.021 133.129Z" fill="#C1C6C8" />
        <path d="M114.021 136.179L179.182 104.705L210.342 101.54L213.55 99.5755L178.58 101.95L114.021 129.272L49.306 101.95L14.4914 99.5755L17.7001 101.54L49.0063 103.969L114.021 136.179Z" fill="#C1C6C8" />
        <path d="M114.021 129.062L178.58 101.582L213.55 99.1936L210.863 97.542L178.363 98.8L114.021 122.784L49.6791 98.8L17.1782 97.542L14.4914 99.1936L49.306 100.725L114.021 129.062Z" fill="white" />
        <path d="M113.51 122.784L49.4986 98.8L17.1645 97.542L14.4914 99.1936L49.1275 101.582L113.51 129.062V122.784Z" fill="#C1C6C8" />
        <path d="M113.51 136.179L48.6831 104.705L17.6836 101.54L14.4914 99.5755L49.1275 101.95L113.51 129.272V136.179Z" fill="white" />
        <path d="M49.1991 98.8085L17.1416 97.542L14.4914 99.2048L48.8312 101.609L49.1991 98.8085Z" fill="white" />
        <path d="M48.7539 104.659L17.6902 101.523L14.4914 99.5755L49.1991 101.929L48.7539 104.659Z" fill="#C1C6C8" />
        <path d="M210.878 97.542L213.549 99.3456L210.487 99.5766L210.878 97.542Z" fill="white" />
        <path d="M209.467 101.61L212.53 99.5755L209.59 99.7933L209.467 101.61Z" fill="#C1C6C8" />
        <path d="M114.02 135.163L179.281 104.773L210.488 101.609L179.132 104.037L114.02 133.027L48.9074 104.037L17.5536 101.609L48.7601 104.773L114.02 135.163Z" fill="#C1C6C8" />
        <path d="M114.021 133.129L179.033 103.99L210.342 101.55L213.55 99.5755L178.714 101.105L114.021 129.416L49.306 101.105L14.4914 99.5755L17.7001 101.55L49.0063 103.99L114.021 133.129Z" fill="#C1C6C8" />
        <path d="M114.021 136.179L179.182 104.705L210.342 101.54L213.55 99.5755L178.58 101.95L114.021 129.272L49.306 101.95L14.4914 99.5755L17.7001 101.54L49.0063 103.969L114.021 136.179Z" fill="#C1C6C8" />
        <path d="M114.021 129.062L178.58 101.582L213.55 99.1936L210.863 97.542L178.363 98.8L114.021 122.784L49.6791 98.8L17.1782 97.542L14.4914 99.1936L49.306 100.725L114.021 129.062Z" fill="white" />
        <path d="M113.51 122.784L49.4986 98.8L17.1645 97.542L14.4914 99.1936L49.1275 101.582L113.51 129.062V122.784Z" fill="#C1C6C8" />
        <path d="M113.51 136.179L48.6831 104.705L17.6836 101.54L14.4914 99.5755L49.1275 101.95L113.51 129.272V136.179Z" fill="white" />
        <path d="M49.1991 98.8085L17.1416 97.542L14.4914 99.2048L48.8312 101.609L49.1991 98.8085Z" fill="white" />
        <path d="M48.7539 104.659L17.6902 101.523L14.4914 99.5755L49.1991 101.929L48.7539 104.659Z" fill="#C1C6C8" />
        <path d="M200.279 58.9045H25.72V80.2568H200.279V58.9045Z" fill="white" />
        <path d="M58.3869 62.9715H50.2203V77.2064H58.3869V62.9715Z" fill="#1B326C" />
        <path d="M50.3867 81.2716C49.5308 81.2689 48.7106 80.9346 48.104 80.3407C47.4999 79.7441 47.1597 78.9374 47.1575 78.0954V63.0975C47.1599 62.2557 47.5001 61.4487 48.104 60.8522C48.7106 60.2583 49.5308 59.9239 50.3867 59.9213H59.2402C60.0961 59.9239 60.9163 60.2583 61.5231 60.8522C62.127 61.4487 62.4672 62.2557 62.4697 63.0975V78.0974C62.4674 78.9391 62.1273 79.7461 61.5231 80.3427C60.9163 80.9363 60.0961 81.2709 59.2402 81.2736H50.3867V81.2716ZM53.6162 66.2735V74.9231H56.0126V66.2718L53.6162 66.2735Z" fill="white" />
        <path d="M30.5889 74.6091C30.4022 74.2956 30.3088 73.9385 30.3185 73.577C30.4352 71.8256 31.5497 69.8647 32.6531 67.5926C33.0234 66.8431 33.4103 66.1292 33.7435 65.5103H29.8891C29.8891 65.5103 27.538 62.9715 29.6908 62.9715H37.6237L36.4816 64.977C36.4816 64.9859 33.5992 70.0919 32.6197 72.6342H50.22V75.1728H31.5144C31.324 75.1602 31.1398 75.1022 30.978 75.0039C30.8165 74.9054 30.6829 74.7699 30.5889 74.6091Z" fill="#1B326C" />
        <path d="M31.6026 78.2232H31.575C30.8645 78.2186 30.1674 78.0338 29.5529 77.6867C28.8849 77.3186 28.3293 76.7849 27.9424 76.14L30.4112 74.7379L27.9407 76.14C27.4824 75.3661 27.2425 74.4884 27.2458 73.5954V73.3753C27.3488 71.9449 27.7972 70.7359 28.2752 69.5969C28.4591 69.1785 28.6428 68.769 28.8414 68.3632C28.3699 68.1899 27.9487 67.9083 27.6135 67.5422C27.5728 67.4976 27.367 67.274 27.0987 66.9252C26.74 66.4701 26.4317 65.9792 26.1795 65.4609C25.8854 64.8694 25.7287 64.2222 25.72 63.5653C25.7183 63.0652 25.8229 62.5703 26.0268 62.1114C26.2737 61.5625 26.6596 61.0833 27.1482 60.7184C27.9025 60.1782 28.8205 59.8982 29.757 59.9227H37.6415C38.7444 59.9227 40.467 60.4913 41.0313 61.4212C41.3092 61.8773 41.4597 62.3963 41.4679 62.9263C41.4759 63.4565 41.3412 63.9795 41.0774 64.4433L39.9616 66.4102L39.9303 66.4675L39.8365 66.6373L39.5038 67.2419C39.226 67.7516 38.1544 68.456 37.7464 69.2339L37.5624 69.5737H50.1459C50.9771 69.5761 51.7737 69.8974 52.3628 70.4679C52.9492 71.0409 53.2796 71.8158 53.282 72.6243V75.1617C53.2796 75.9702 52.9492 76.7453 52.3628 77.3184C51.7737 77.8888 50.9771 78.2099 50.1459 78.2125H31.6026V78.2232Z" fill="white" />
        <path d="M142.093 62.9715H133.926V78.2232H142.093V62.9715Z" fill="#1B326C" />
        <path d="M134.089 81.2719C133.234 81.269 132.415 80.9353 131.809 80.3427C131.207 79.7471 130.867 78.9419 130.864 78.1017V63.0912C130.867 62.251 131.207 61.4458 131.809 60.8504C132.415 60.2576 133.234 59.9237 134.089 59.9213H142.951C143.806 59.9237 144.625 60.2576 145.231 60.8504C145.834 61.4458 146.174 62.251 146.176 63.0912V78.1036C146.174 78.9438 145.834 79.7492 145.231 80.3444C144.626 80.9375 143.806 81.2714 142.951 81.2736H134.089V81.2719ZM137.312 74.9354H139.728V66.2594H137.314V74.9335L137.312 74.9354Z" fill="white" />
        <path d="M163.53 77.2065H154.001L150.26 69.0723H159.777L163.53 77.2065Z" fill="#1B326C" />
        <path d="M154.017 81.2736C153.419 81.2723 152.835 81.0905 152.334 80.7502C151.834 80.4097 151.439 79.9253 151.197 79.3556L147.459 70.5299C147.252 70.041 147.166 69.5061 147.208 68.9734C147.249 68.441 147.418 67.9277 147.698 67.48C147.977 67.0326 148.36 66.665 148.811 66.4102C149.261 66.1557 149.766 66.0221 150.279 66.0219H159.769C160.366 66.0226 160.95 66.2037 161.451 66.5433C161.952 66.883 162.347 67.3667 162.589 67.9359L166.331 76.7616C166.537 77.251 166.624 77.7861 166.583 78.3188C166.542 78.8518 166.373 79.3653 166.094 79.8134C165.813 80.2611 165.43 80.6288 164.979 80.8833C164.528 81.1378 164.024 81.2713 163.511 81.2716H154.017V81.2736ZM156.027 74.8496H158.785L157.762 72.4478H155.011L156.027 74.8477V74.8496Z" fill="white" />
        <path d="M141.072 75.1722C141.183 75.152 155.312 59.9213 164.76 59.9213C166.581 59.9213 164.771 62.5297 164.771 62.5297C160.317 62.493 155.027 66.1103 150.443 69.8195C147.591 72.1156 144.879 74.5822 142.322 77.2065L141.072 75.1722Z" fill="#1B326C" />
        <path d="M142.351 80.2569C141.803 80.2567 141.265 80.1106 140.792 79.8336C140.318 79.5569 139.927 79.1589 139.656 78.6806L138.474 76.7657C138.207 76.3324 138.05 75.8403 138.016 75.3319C137.983 74.8236 138.074 74.315 138.282 73.8503C138.457 73.459 138.711 73.1084 139.028 72.8207L139.289 72.5583C139.531 72.3141 139.891 71.9516 140.344 71.5069C141.252 70.6141 142.538 69.3786 144.082 68.0047C147.178 65.2532 151.272 61.937 155.611 59.6047C158.516 58.0649 161.534 56.8952 164.719 56.8714C165.441 56.8614 166.153 57.0423 166.784 57.3962C167.546 57.8345 168.126 58.533 168.418 59.3643C168.562 59.7806 168.635 60.2187 168.634 60.6598C168.627 61.2191 168.527 61.7737 168.336 62.2997C168.21 62.6572 168.057 63.0049 167.88 63.34C167.699 63.6879 167.497 64.0245 167.276 64.3476C166.988 64.763 166.602 65.101 166.154 65.3321C165.705 65.5633 165.207 65.6808 164.703 65.6744H164.67C163.297 65.6541 161.283 66.3047 159.106 67.5309C156.927 68.7409 154.592 70.4466 152.378 72.2395C149.706 74.3846 147.159 76.6832 144.752 79.1234L144.606 79.2748L144.541 79.3439C144.404 79.4792 144.254 79.6013 144.094 79.7085L144.085 79.7231H144.074C143.878 79.8541 143.667 79.9623 143.446 80.0455C143.279 80.1082 143.107 80.1566 142.932 80.1894C142.744 80.2254 142.553 80.2438 142.362 80.244L142.351 80.2569Z" fill="white" />
        <path d="M92.0732 62.9715H83.9066V78.2232H92.0732V62.9715Z" fill="#1B326C" />
        <path d="M84.0677 81.2719C83.2134 81.2692 82.3947 80.9352 81.7892 80.3427C81.1862 79.7472 80.8469 78.9417 80.8444 78.1014V63.0917C80.8469 62.2514 81.1865 61.446 81.7892 60.8505C82.3947 60.2579 83.2134 59.9239 84.0677 59.9213H92.9331C93.7875 59.9239 94.6062 60.2579 95.2119 60.8505C95.8146 61.446 96.1542 62.2514 96.1567 63.0917V78.1034C96.1542 78.9436 95.8146 79.7491 95.2119 80.3444C94.6062 80.9372 93.7875 81.2711 92.9331 81.2736H84.0677V81.2719ZM87.2893 74.9349H89.7116V66.2602H87.2893V74.9349Z" fill="white" />
        <path d="M65.5327 75.1729V72.1225H83.9074V75.1729H65.5327Z" fill="#1B326C" />
        <path d="M65.597 78.2216C64.7682 78.2191 63.9739 77.8789 63.3864 77.275C62.8014 76.6684 62.4722 75.8478 62.4698 74.9919V72.302C62.472 71.4458 62.8014 70.6252 63.3864 70.0189C63.9739 69.415 64.7682 69.0748 65.597 69.0723H83.8422C84.6711 69.075 85.4654 69.415 86.053 70.0189C86.6378 70.6255 86.9672 71.4458 86.9694 72.302V74.9939C86.9672 75.8498 86.6378 76.6704 86.053 77.2767C85.4654 77.8806 84.6711 78.2208 83.8422 78.2233H65.597V78.2216Z" fill="white" />
        <path d="M74.1664 62.9715C72.8667 63.0527 71.845 64.1553 70.6269 65.5241C67.173 69.593 62.9915 77.2621 62.4698 78.2232H64.9441C65.7749 76.7524 67.0674 74.5338 68.5017 72.3136C69.5495 70.6541 70.6939 69.0628 71.9287 67.5481C72.9758 66.2568 74.0137 65.5753 74.1683 65.6602H83.907V62.9715H74.1664Z" fill="#1B326C" />
        <path d="M62.4989 81.2549C61.959 81.2537 61.4285 81.1084 60.9605 80.8331C60.4922 80.5579 60.1022 80.1622 59.8289 79.6853C59.5565 79.2067 59.4111 78.6638 59.4071 78.1099C59.4028 77.556 59.5401 77.0106 59.8054 76.5279C60.081 76.0282 61.2762 73.8664 62.8579 71.2957C64.4469 68.7177 66.3858 65.7533 68.3157 63.4948L68.3684 63.4352C69.0165 62.6807 69.7244 61.9825 70.485 61.3477C71.4811 60.5213 72.6986 60.024 73.9766 59.9213H74.1581H83.8747C84.6948 59.9237 85.4808 60.2575 86.0623 60.85C86.6406 61.4452 86.9666 62.25 86.969 63.0898V65.7309C86.9666 66.5707 86.6406 67.3758 86.0623 67.971C85.4808 68.5635 84.6948 68.8973 83.8747 68.8997H74.987C74.7381 69.1298 74.5061 69.378 74.2923 69.6426L74.2487 69.6965C73.1066 71.0836 72.0472 72.5398 71.0764 74.0576C69.6962 76.1638 68.4336 78.2999 67.6301 79.7077C67.3568 80.1838 66.967 80.5788 66.499 80.8533C66.0311 81.1278 65.5014 81.2726 64.9619 81.2736H62.4989V81.2549Z" fill="white" />
        <path d="M198.238 62.9715H190.072V78.2232H198.238V62.9715Z" fill="#1B326C" />
        <path d="M188.192 81.2719C187.337 81.2692 186.518 80.9355 185.913 80.3427C185.31 79.7473 184.97 78.9419 184.968 78.1017V63.0912C184.97 62.251 185.309 61.4456 185.913 60.8504C186.518 60.2576 187.337 59.9237 188.192 59.9213H197.056C197.91 59.9237 198.729 60.2576 199.335 60.8504C199.938 61.4458 200.277 62.251 200.28 63.0912V78.1036C200.277 78.9438 199.938 79.749 199.335 80.3444C198.729 80.937 197.91 81.2709 197.056 81.2736H188.192V81.2719ZM191.416 74.9335H193.835V66.2614H191.416V74.9354V74.9335Z" fill="white" />
        <path d="M172.718 75.1729V72.1225H191.093V75.1729H172.718Z" fill="#1B326C" />
        <path d="M172.783 78.2216C171.954 78.2188 171.159 77.8786 170.572 77.275C169.987 76.6681 169.658 75.8478 169.655 74.9919V72.302C169.658 71.446 169.987 70.6255 170.572 70.0189C171.159 69.415 171.954 69.075 172.783 69.0723H191.027C191.856 69.075 192.651 69.415 193.238 70.0189C193.823 70.6255 194.153 71.4458 194.155 72.302V74.9939C194.152 75.8498 193.823 76.6701 193.238 77.2767C192.651 77.8806 191.856 78.2208 191.027 78.2233H172.783V78.2216Z" fill="white" />
        <path d="M181.356 62.9715C180.055 63.0527 179.039 64.1553 177.813 65.5241C174.358 69.593 170.175 77.2621 169.655 78.2232H172.125C172.952 76.7524 174.249 74.5338 175.68 72.3136C176.729 70.6541 177.874 69.0626 179.11 67.5481C180.157 66.2568 181.198 65.5753 181.348 65.6602H191.092V62.9715H181.356Z" fill="#1B326C" />
        <path d="M168.662 81.2736C168.123 81.2726 167.592 81.127 167.124 80.8516C166.656 80.5762 166.266 80.1803 165.993 79.7032C165.721 79.2244 165.576 78.6809 165.571 78.1267C165.567 77.5728 165.705 77.0271 165.97 76.5439C166.243 76.0459 167.44 73.881 169.019 71.3092C170.608 68.728 172.546 65.7639 174.475 63.5042L174.534 63.439C175.181 62.6877 175.888 61.9919 176.646 61.3577C177.642 60.5262 178.862 60.025 180.143 59.9213H180.325H190.04C190.86 59.9237 191.646 60.2577 192.227 60.8505C192.805 61.4457 193.131 62.2512 193.133 63.0915V65.734C193.131 66.5745 192.805 67.3797 192.227 67.9752C191.646 68.568 190.86 68.902 190.04 68.9044H181.155C180.906 69.1346 180.674 69.383 180.461 69.6477L180.415 69.7016C179.275 71.088 178.217 72.5432 177.246 74.0594C175.868 76.1706 174.6 78.3095 173.801 79.7124C173.526 80.1886 173.135 80.5831 172.666 80.857C172.197 81.1307 171.666 81.2743 171.126 81.2736H168.662Z" fill="white" />
        <path d="M127.802 62.9715H119.636V78.2232H127.802V62.9715Z" fill="#1B326C" />
        <path d="M118.775 81.2719C117.921 81.2692 117.102 80.9352 116.496 80.3427C115.894 79.7472 115.554 78.9417 115.552 78.1014V63.0917C115.554 62.2514 115.894 61.446 116.496 60.8505C117.102 60.2579 117.921 59.9239 118.775 59.9213H127.641C128.495 59.9239 129.314 60.2579 129.919 60.8505C130.522 61.446 130.861 62.2514 130.864 63.0917V78.1034C130.861 78.9436 130.522 79.7489 129.919 80.3444C129.314 80.9372 128.495 81.2711 127.641 81.2736H118.775V81.2719ZM121.997 74.9349H124.419V66.2582H121.997V74.9329V74.9349Z" fill="white" />
        <path d="M117.984 62.6825C115.526 62.8029 111.463 66.1754 106.981 69.5139C104.266 71.5722 101.734 73.6325 100.185 74.9071V63.4015C100.185 63.4015 102.486 61.6792 105.349 59.5075C108.211 57.3358 101.637 57.9758 101.637 57.9758L98.1974 61.931V77.2065H101.052C102.561 75.9624 105.176 73.8448 107.985 71.7091C112.249 68.3958 116.818 65.1147 117.977 65.237H123.718V62.6825H117.984Z" fill="#1B326C" />
        <path d="M58.3869 62.9715H50.2203V77.2064H58.3869V62.9715Z" fill="#002855" />
        <path d="M30.5889 74.6091C30.4022 74.2956 30.3088 73.9385 30.3185 73.577C30.4352 71.8256 31.5497 69.8647 32.6531 67.5926C33.0234 66.8431 33.4103 66.1292 33.7435 65.5103H29.8891C29.8891 65.5103 27.538 62.9715 29.6908 62.9715H37.6237L36.4816 64.977C36.4816 64.9859 33.5992 70.0919 32.6197 72.6342H50.22V75.1728H31.5144C31.324 75.1602 31.1398 75.1022 30.978 75.0039C30.8165 74.9054 30.6829 74.7699 30.5889 74.6091Z" fill="#002855" />
        <path d="M142.093 62.9715H133.926V78.2232H142.093V62.9715Z" fill="#002855" />
        <path d="M163.53 77.2065H154.001L150.26 69.0723H159.777L163.53 77.2065Z" fill="#002855" />
        <path d="M141.072 75.1722C141.183 75.152 155.312 59.9213 164.76 59.9213C166.581 59.9213 164.771 62.5297 164.771 62.5297C160.317 62.493 155.027 66.1103 150.443 69.8195C147.591 72.1156 144.879 74.5822 142.322 77.2065L141.072 75.1722Z" fill="#002855" />
        <path d="M92.0732 62.9715H83.9066V78.2232H92.0732V62.9715Z" fill="#002855" />
        <path d="M65.5327 75.1729V72.1225H83.9074V75.1729H65.5327Z" fill="#002855" />
        <path d="M74.1664 62.9715C72.8667 63.0527 71.845 64.1553 70.6269 65.5241C67.173 69.593 62.9915 77.2621 62.4698 78.2232H64.9441C65.7749 76.7524 67.0674 74.5338 68.5017 72.3136C69.5495 70.6541 70.6939 69.0628 71.9287 67.5481C72.9758 66.2568 74.0137 65.5753 74.1683 65.6602H83.907V62.9715H74.1664Z" fill="#002855" />
        <path d="M197.217 62.9715H189.051V78.2232H197.217V62.9715Z" fill="#002855" />
        <path d="M170.676 75.1729V72.1225H189.051V75.1729H170.676Z" fill="#002855" />
        <path d="M179.314 62.9715C178.014 63.0527 176.997 64.1553 175.771 65.5241C172.316 69.593 168.133 77.2621 167.613 78.2232H170.09C170.918 76.7524 172.214 74.5338 173.646 72.3136C174.692 70.6544 175.835 69.0628 177.068 67.5481C178.116 66.2568 179.156 65.5753 179.307 65.6602H189.05V62.9715H179.314Z" fill="#002855" />
        <path d="M106.983 69.511C104.269 71.5695 101.737 73.6295 100.189 74.9038V63.3993C100.189 63.3993 102.49 61.6771 105.351 59.5056C107.151 58.1396 105.216 57.8878 103.53 57.8878C102.539 57.8878 101.637 57.9759 101.637 57.9759L98.1974 61.9305V77.2065H101.056C102.564 75.9628 105.178 73.8451 107.987 71.7115C112.177 68.4596 116.651 65.24 117.912 65.24H117.977H123.718V62.6838H117.985C115.527 62.8026 111.465 66.1694 106.983 69.511Z" fill="#002855" />
        <path d="M124.031 59.7757H118.1H118.031C115.024 59.9239 111.585 62.5421 107.225 65.8583C106.575 66.3529 105.921 66.8583 105.239 67.3621C104.38 68.0174 103.54 68.673 102.741 69.3063V64.6455C103.708 63.9141 105.222 62.7642 106.936 61.4552C109.055 59.835 108.883 58.1686 108.593 57.3185C107.743 54.8374 104.68 54.8374 103.376 54.8374C102.24 54.8374 101.211 54.9374 101.166 54.941L100.049 55.0502L99.3221 55.8911L95.8047 59.9646L95.1359 60.7406V80.2568H101.843L102.616 79.6143C103.961 78.5034 106.659 76.2814 109.619 74.0204C115.787 69.1932 117.829 68.1433 118.342 67.9285H126.781V59.7813L124.031 59.7757ZM124.031 65.1696H118.168H118.101C116.814 65.1696 112.231 68.4896 107.952 71.8356C105.077 74.0334 102.405 76.2148 100.855 77.4959H97.9342V61.7701L101.452 57.6963C101.452 57.6963 102.383 57.6055 103.387 57.6055C105.107 57.6055 107.087 57.8668 105.25 59.2722C102.321 61.509 99.9703 63.2827 99.9703 63.2827V75.1334C101.554 73.815 104.144 71.693 106.92 69.5783C111.504 66.1417 115.657 62.6681 118.17 62.5421H124.031V65.1696Z" fill="white" />
        <path d="M127.802 62.9715H119.636V78.2232H127.802V62.9715Z" fill="#002855" />
    </g>
    <defs>
        <clipPath id="clip0_1_7">
            <rect width="225.6" height="153.533" fill="white" transform="translate(0.199997 18.2333)" />
        </clipPath>
    </defs>
</svg>