<svg xmlns="http://www.w3.org/2000/svg" width="144" height="98" viewBox="0 0 144 98" fill="none">
    <g clip-path="url(#clip0_1_1523)">
        <path d="M137.873 48.9296L136.156 47.8678L135.363 47.3774L134.431 47.415L113.658 48.2226L113.166 48.2412L112.705 48.4133L72.6516 63.4143L32.5979 48.4133L32.1374 48.2412L31.6452 48.2226L10.872 47.415L9.94049 47.3774L9.14759 47.8678L7.43028 48.9296L3.25795 51.5084L7.43028 54.0884L9.48113 55.3561L10.0766 55.7247L10.7744 55.7962L30.15 57.785L71.3125 77.8756L72.6516 78.5298L73.9919 77.8756L115.153 57.785L134.529 55.7962L135.227 55.7247L135.822 55.3561L137.873 54.0884L142.045 51.5084L137.873 48.9296Z" fill="#1B326C" />
        <path d="M134.463 47.6187L135.253 48.1083L136.964 49.1707L141.119 51.7476L136.964 54.3246L134.921 55.6002L134.328 55.9692L133.633 56.0406L114.333 58.0319L73.3338 78.1366L71.9988 78.7926L70.665 78.1366L29.6645 58.033L10.3593 56.0419L9.66422 55.9703L9.0769 55.6002L7.03412 54.334L2.87823 51.7571L7.03412 49.1801L8.74467 48.1178L9.53445 47.6269L10.4623 47.6632L31.1539 48.4715L31.644 48.4902L32.1027 48.6624L71.9988 63.6659L111.896 48.6554L112.355 48.4832L112.845 48.4645L133.537 47.6562L134.464 47.6199M134.869 46.0843L134.401 46.103L133.473 46.1393L112.782 46.9475L112.292 46.9663L112.047 46.9757L111.813 47.0624L111.354 47.2346L71.9988 62.0425L32.6363 47.2346L32.1777 47.0624L31.9435 46.9757L31.699 46.9663L31.2088 46.9475L10.5172 46.1393L9.58939 46.103L9.12143 46.0843L8.72707 46.3292L7.94433 46.8153L6.23378 47.8811L2.07793 50.4581L0 51.7465L2.07793 53.035L6.23378 55.612L8.27671 56.8886L8.86985 57.2577L9.16933 57.4463L9.52037 57.4826L10.2153 57.554L29.2455 59.5171L69.997 79.4954L71.3319 80.1502L71.9988 80.4769L72.6657 80.1502L74.0007 79.4954L114.757 59.5171L133.787 57.554L134.482 57.4826L134.833 57.4463L135.13 57.2623L135.723 56.8933L137.766 55.6248L141.922 53.0478L144 51.7594L141.922 50.471L137.766 47.894L136.052 46.8153L135.262 46.3244L134.868 46.0796L134.869 46.0843Z" fill="white" />
        <path d="M36.9829 77.6471L30.6241 15.2475L72.3254 1.29785L114.027 15.2475L108.005 74.3428L107.668 77.6471L72.3254 96.0528L36.9829 77.6471Z" fill="#002855" />
        <path d="M72.6548 1.59504L114.351 15.5416L108.33 74.5983L107.994 77.9005L72.6548 96.2942L37.3168 77.9005L30.9585 15.5416L72.6548 1.59504ZM72.6548 0L72.169 0.162113L30.4728 14.1086L29.3216 14.4934L29.4389 15.6944L35.7969 78.0533L35.8792 78.8625L36.6044 79.2403L71.9483 97.6328L72.6525 98L73.3566 97.6328L108.698 79.2403L109.424 78.8625L109.506 78.0533L109.842 74.7511L115.865 15.6944L115.982 14.4934L114.831 14.1086L73.1406 0.167907L72.6548 0.00579431V0Z" fill="white" />
        <path d="M40.937 75.0749L35.1854 18.3317L72.3257 5.84131L109.466 18.3317L103.877 73.4666L103.714 75.0749L72.3257 91.5102L40.937 75.0749Z" fill="white" />
        <path d="M100.317 73.0169L72.3257 87.6161L44.3351 73.0169L39.095 21.5185L72.3257 10.3843L105.557 21.5185L100.317 73.0169Z" fill="#8C001A" />
        <path d="M72.3258 87.6161L44.3351 73.0169L39.095 21.5185L72.3258 10.3843V87.6161Z" fill="#E4002B" />
        <path d="M137.873 48.9296L136.156 47.8678L135.363 47.3774L134.431 47.415L113.658 48.2226L113.166 48.2412L112.705 48.4133L72.6516 63.4143L32.5979 48.4133L32.1374 48.2412L31.6452 48.2226L10.872 47.415L9.94049 47.3774L9.14759 47.8678L7.43028 48.9296L3.25795 51.5084L7.43028 54.0884L9.48113 55.3561L10.0766 55.7247L10.7744 55.7962L30.15 57.785L71.3125 77.8756L72.6516 78.5298L73.9919 77.8756L115.153 57.785L134.529 55.7962L135.227 55.7247L135.822 55.3561L137.873 54.0884L142.045 51.5084L137.873 48.9296Z" fill="#002855" />
        <path d="M72.6514 74.636L114.307 55.2381L134.226 53.2188L114.212 54.7686L72.6514 73.2725L31.0898 54.7686L11.0768 53.2188L30.9958 55.2381L72.6514 74.636Z" fill="#C1C6C8" />
        <path d="M72.6517 73.3376L114.149 54.7384L134.133 53.1805L136.181 51.9204L113.945 52.897L72.6517 70.9674L31.3443 52.897L9.12219 51.9204L11.1703 53.1805L31.153 54.7384L72.6517 73.3376Z" fill="#C1C6C8" />
        <path d="M72.6517 75.2846L114.244 55.1945L134.133 53.1745L136.181 51.9204L113.859 53.4359L72.6517 70.8758L31.3443 53.4359L9.12219 51.9204L11.1703 53.1745L31.153 54.7248L72.6517 75.2846Z" fill="#C1C6C8" />
        <path d="M72.6517 70.7418L113.859 53.201L136.181 51.6767L134.466 50.6226L113.721 51.4255L72.6517 66.7344L31.5824 51.4255L10.8372 50.6226L9.12219 51.6767L31.3443 52.6541L72.6517 70.7418Z" fill="white" />
        <path d="M72.3258 66.7344L31.4672 51.4255L10.8284 50.6226L9.12219 51.6767L31.2303 53.201L72.3258 70.7418V66.7344Z" fill="#C1C6C8" />
        <path d="M72.3258 75.2846L30.9467 55.1945L11.1598 53.1745L9.12219 51.9204L31.2303 53.4359L72.3258 70.8758V75.2846Z" fill="white" />
        <path d="M31.276 51.431L10.8138 50.6226L9.12219 51.6839L31.0412 53.2186L31.276 51.431Z" fill="white" />
        <path d="M30.9919 55.1654L11.164 53.1633L9.12219 51.9204L31.276 53.4225L30.9919 55.1654Z" fill="#C1C6C8" />
        <path d="M134.475 50.6226L136.18 51.7738L134.226 51.9212L134.475 50.6226Z" fill="white" />
        <path d="M133.575 53.2191L135.53 51.9204L133.653 52.0594L133.575 53.2191Z" fill="#C1C6C8" />
        <path d="M72.6514 74.636L114.307 55.2381L134.226 53.2188L114.212 54.7686L72.6514 73.2725L31.0898 54.7686L11.0768 53.2188L30.9958 55.2381L72.6514 74.636Z" fill="#C1C6C8" />
        <path d="M72.6517 73.3376L114.149 54.7384L134.133 53.1805L136.181 51.9204L113.945 52.897L72.6517 70.9674L31.3443 52.897L9.12219 51.9204L11.1703 53.1805L31.153 54.7384L72.6517 73.3376Z" fill="#C1C6C8" />
        <path d="M72.6517 75.2846L114.244 55.1945L134.133 53.1745L136.181 51.9204L113.859 53.4359L72.6517 70.8758L31.3443 53.4359L9.12219 51.9204L11.1703 53.1745L31.153 54.7248L72.6517 75.2846Z" fill="#C1C6C8" />
        <path d="M72.6517 70.7418L113.859 53.201L136.181 51.6767L134.466 50.6226L113.721 51.4255L72.6517 66.7344L31.5824 51.4255L10.8372 50.6226L9.12219 51.6767L31.3443 52.6541L72.6517 70.7418Z" fill="white" />
        <path d="M72.3258 66.7344L31.4672 51.4255L10.8284 50.6226L9.12219 51.6767L31.2303 53.201L72.3258 70.7418V66.7344Z" fill="#C1C6C8" />
        <path d="M72.3258 75.2846L30.9467 55.1945L11.1598 53.1745L9.12219 51.9204L31.2303 53.4359L72.3258 70.8758V75.2846Z" fill="white" />
        <path d="M31.276 51.431L10.8138 50.6226L9.12219 51.6839L31.0412 53.2186L31.276 51.431Z" fill="white" />
        <path d="M30.9919 55.1654L11.164 53.1633L9.12219 51.9204L31.276 53.4225L30.9919 55.1654Z" fill="#C1C6C8" />
        <path d="M127.71 25.9604H16.2894V39.5896H127.71V25.9604Z" fill="white" />
        <path d="M37.1406 28.5562H31.9279V37.6422H37.1406V28.5562Z" fill="#1B326C" />
        <path d="M32.0341 40.2373C31.4878 40.2356 30.9642 40.0222 30.577 39.6431C30.1914 39.2623 29.9743 38.7474 29.9728 38.2099V28.6368C29.9744 28.0994 30.1916 27.5844 30.577 27.2036C30.9642 26.8245 31.4878 26.6111 32.0341 26.6094H37.6852C38.2315 26.6111 38.7551 26.8245 39.1424 27.2036C39.5279 27.5844 39.745 28.0994 39.7466 28.6368V38.2111C39.7452 38.7484 39.528 39.2635 39.1424 39.6443C38.7551 40.0232 38.2315 40.2368 37.6852 40.2385H32.0341V40.2373ZM34.0955 30.664V36.185H35.6251V30.6629L34.0955 30.664Z" fill="white" />
        <path d="M19.3972 35.9844C19.278 35.7843 19.2184 35.5564 19.2246 35.3256C19.2991 34.2077 20.0105 32.9561 20.7148 31.5058C20.9511 31.0274 21.1981 30.5717 21.4107 30.1767H18.9505C18.9505 30.1767 17.4498 28.5562 18.8239 28.5562H23.8875L23.1585 29.8363C23.1585 29.842 21.3186 33.1011 20.6935 34.7239H31.9276V36.3442H19.9879C19.8664 36.3362 19.7488 36.2991 19.6456 36.2364C19.5425 36.1735 19.4572 36.087 19.3972 35.9844Z" fill="#1B326C" />
        <path d="M20.0442 38.2915H20.0266C19.5731 38.2885 19.1282 38.1706 18.7359 37.949C18.3095 37.714 17.9549 37.3734 17.7079 36.9618L19.2838 36.0668L17.7068 36.9618C17.4143 36.4678 17.2612 35.9075 17.2633 35.3375V35.1971C17.329 34.284 17.6152 33.5123 17.9203 32.7853C18.0377 32.5182 18.155 32.2568 18.2817 31.9978C17.9808 31.8872 17.7119 31.7075 17.498 31.4738C17.472 31.4453 17.3407 31.3026 17.1694 31.08C16.9404 30.7895 16.7436 30.4761 16.5827 30.1453C16.395 29.7678 16.2949 29.3547 16.2894 28.9353C16.2883 28.6162 16.3551 28.3003 16.4852 28.0074C16.6428 27.657 16.8891 27.3511 17.201 27.1182C17.6824 26.7733 18.2684 26.5946 18.8662 26.6103H23.8989C24.6028 26.6103 25.7023 26.9732 26.0625 27.5668C26.2399 27.8579 26.336 28.1892 26.3412 28.5275C26.3463 28.8659 26.2603 29.1997 26.092 29.4958L25.3797 30.7513L25.3598 30.7878L25.2999 30.8962L25.0875 31.2821C24.9102 31.6074 24.2262 32.0571 23.9658 32.5536L23.8484 32.7705H31.8804C32.4109 32.772 32.9194 32.9771 33.2954 33.3413C33.6697 33.707 33.8806 34.2016 33.8821 34.7177V36.3373C33.8806 36.8534 33.6697 37.3481 33.2954 37.7139C32.9194 38.078 32.4109 38.283 31.8804 38.2846H20.0442V38.2915Z" fill="white" />
        <path d="M90.5699 28.5562H85.3572V38.2913H90.5699V28.5562Z" fill="#1B326C" />
        <path d="M85.4612 40.2374C84.9156 40.2356 84.3928 40.0226 84.006 39.6444C83.6212 39.2641 83.4045 38.7502 83.4026 38.2139V28.6327C83.4044 28.0965 83.6212 27.5825 84.006 27.2024C84.3926 26.8241 84.9156 26.6109 85.4612 26.6094H91.1179C91.6635 26.6109 92.1864 26.8241 92.5732 27.2024C92.9578 27.5825 93.1746 28.0965 93.1764 28.6327V38.2151C93.175 38.7514 92.9581 39.2655 92.5732 39.6455C92.1865 40.024 91.6635 40.2371 91.1179 40.2385H85.4612V40.2374ZM87.5185 36.1929H89.0606V30.655H87.5197V36.1916L87.5185 36.1929Z" fill="white" />
        <path d="M104.253 37.6422H98.1711L95.7828 32.4502H101.858L104.253 37.6422Z" fill="#1B326C" />
        <path d="M98.1811 40.2385C97.7996 40.2377 97.4265 40.1217 97.107 39.9045C96.7876 39.6871 96.5354 39.3779 96.3812 39.0143L93.995 33.3809C93.8632 33.0688 93.8081 32.7274 93.8347 32.3874C93.8612 32.0475 93.9687 31.7199 94.1474 31.4341C94.3261 31.1485 94.5704 30.9139 94.858 30.7513C95.1457 30.5888 95.4677 30.5036 95.795 30.5034H101.852C102.234 30.5039 102.607 30.6195 102.926 30.8362C103.246 31.0531 103.498 31.3618 103.653 31.7251L106.041 37.3586C106.173 37.6709 106.228 38.0125 106.202 38.3525C106.175 38.6927 106.068 39.0205 105.89 39.3065C105.711 39.5923 105.466 39.8269 105.178 39.9894C104.89 40.1519 104.568 40.2371 104.241 40.2373H98.1811V40.2385ZM99.4641 36.1381H101.225L100.572 34.6051H98.8157L99.4641 36.1369V36.1381Z" fill="white" />
        <path d="M89.9185 36.344C89.9894 36.3311 99.0079 26.6094 105.038 26.6094C106.201 26.6094 105.045 28.2743 105.045 28.2743C102.202 28.2509 98.8255 30.5598 95.8999 32.9274C94.0796 34.393 92.3485 35.9674 90.7159 37.6425L89.9185 36.344Z" fill="#1B326C" />
        <path d="M90.7348 39.5893C90.385 39.5891 90.0415 39.4959 89.7394 39.3191C89.4372 39.1425 89.1873 38.8884 89.0147 38.5831L88.2601 37.3608C88.0897 37.0843 87.9893 36.7701 87.9678 36.4457C87.9464 36.1212 88.0047 35.7966 88.1373 35.4999C88.249 35.2502 88.4112 35.0264 88.6136 34.8428L88.7805 34.6753C88.9347 34.5194 89.1642 34.288 89.4539 34.0041C90.0335 33.4343 90.8541 32.6457 91.8393 31.7687C93.8155 30.0125 96.4292 27.8957 99.1983 26.407C101.053 25.4242 102.979 24.6776 105.012 24.6624C105.473 24.656 105.928 24.7714 106.33 24.9973C106.816 25.2771 107.187 25.7229 107.373 26.2535C107.465 26.5193 107.512 26.7989 107.511 27.0805C107.507 27.4375 107.442 27.7915 107.321 28.1272C107.24 28.3554 107.143 28.5774 107.03 28.7912C106.914 29.0133 106.786 29.2281 106.644 29.4344C106.46 29.6996 106.214 29.9153 105.928 30.0628C105.642 30.2104 105.324 30.2854 105.002 30.2813H104.981C104.105 30.2683 102.819 30.6836 101.429 31.4663C100.039 32.2386 98.5479 33.3273 97.1351 34.4718C95.4293 35.841 93.8039 37.3082 92.267 38.8658L92.1743 38.9624L92.1325 39.0065C92.045 39.0929 91.9495 39.1708 91.8475 39.2392L91.8416 39.2485H91.8348C91.7092 39.3322 91.5748 39.4012 91.4336 39.4543C91.3272 39.4943 91.2175 39.5252 91.1056 39.5462C90.9857 39.5692 90.8638 39.5809 90.7417 39.581L90.7348 39.5893Z" fill="white" />
        <path d="M58.6424 28.5562H53.4298V38.2913H58.6424V28.5562Z" fill="#1B326C" />
        <path d="M53.5326 40.2374C52.9873 40.2357 52.4647 40.0226 52.0782 39.6443C51.6933 39.2642 51.4768 38.7501 51.4752 38.2137V28.6331C51.4768 28.0967 51.6935 27.5826 52.0782 27.2025C52.4647 26.8242 52.9873 26.6111 53.5326 26.6094H59.1914C59.7367 26.6111 60.2593 26.8242 60.6459 27.2025C61.0306 27.5826 61.2474 28.0967 61.2489 28.6331V38.215C61.2474 38.7513 61.0306 39.2655 60.6459 39.6454C60.2593 40.0238 59.7367 40.237 59.1914 40.2385H53.5326V40.2374ZM55.5889 36.1925H57.1351V30.6555H55.5889V36.1925Z" fill="white" />
        <path d="M41.7018 36.3445V34.3975H53.4303V36.3445H41.7018Z" fill="#1B326C" />
        <path d="M41.7428 38.2901C41.2137 38.2886 40.7067 38.0714 40.3318 37.686C39.9584 37.2988 39.7482 36.775 39.7467 36.2287V34.5117C39.7481 33.9652 39.9584 33.4414 40.3318 33.0544C40.7067 32.6689 41.2137 32.4518 41.7428 32.4502H53.3886C53.9177 32.4519 54.4247 32.6689 54.7998 33.0544C55.1731 33.4416 55.3833 33.9652 55.3847 34.5117V36.2299C55.3833 36.7763 55.1731 37.3 54.7998 37.6871C54.4247 38.0725 53.9177 38.2897 53.3886 38.2913H41.7428V38.2901Z" fill="white" />
        <path d="M47.2126 28.5562C46.383 28.608 45.7308 29.3118 44.9533 30.1855C42.7487 32.7826 40.0797 37.6778 39.7467 38.2913H41.326C41.8563 37.3525 42.6813 35.9364 43.5968 34.5192C44.2656 33.46 44.9961 32.4442 45.7843 31.4774C46.4527 30.6532 47.1151 30.2181 47.2138 30.2723H53.43V28.5562H47.2126Z" fill="#1B326C" />
        <path d="M39.7653 40.2266C39.4206 40.2258 39.0821 40.1331 38.7833 39.9574C38.4844 39.7817 38.2354 39.5291 38.061 39.2247C37.8871 38.9193 37.7943 38.5727 37.7917 38.2191C37.789 37.8656 37.8767 37.5175 38.046 37.2094C38.2219 36.8904 38.9848 35.5105 39.9944 33.8697C41.0086 32.2242 42.2463 30.3319 43.4781 28.8903L43.5117 28.8523C43.9254 28.3707 44.3773 27.9251 44.8628 27.5199C45.4986 26.9924 46.2757 26.675 47.0914 26.6094H47.2073H53.4094C53.9329 26.6109 54.4346 26.824 54.8057 27.2022C55.1749 27.5821 55.3829 28.0958 55.3844 28.6318V30.3177C55.3829 30.8537 55.1749 31.3676 54.8057 31.7475C54.4346 32.1257 53.9329 32.3387 53.4094 32.3403H47.7364C47.5775 32.4871 47.4294 32.6456 47.293 32.8145L47.2651 32.8489C46.5362 33.7343 45.8599 34.6637 45.2403 35.6326C44.3593 36.977 43.5534 38.3404 43.0405 39.239C42.866 39.5429 42.6173 39.795 42.3185 39.9703C42.0199 40.1455 41.6817 40.2379 41.3374 40.2385H39.7653V40.2266Z" fill="white" />
        <path d="M126.407 28.5562H121.195V38.2913H126.407V28.5562Z" fill="#1B326C" />
        <path d="M119.995 40.2374C119.449 40.2357 118.927 40.0227 118.54 39.6444C118.155 39.2643 117.938 38.7502 117.937 38.2139V28.6327C117.938 28.0965 118.155 27.5824 118.54 27.2024C118.927 26.8241 119.449 26.6109 119.995 26.6094H125.653C126.198 26.6109 126.721 26.8241 127.107 27.2024C127.492 27.5825 127.709 28.0965 127.711 28.6327V38.2151C127.709 38.7514 127.492 39.2654 127.107 39.6455C126.721 40.0237 126.198 40.2368 125.653 40.2385H119.995V40.2374ZM122.053 36.1916H123.597V30.6563H122.053V36.1929V36.1916Z" fill="white" />
        <path d="M110.118 36.3445V34.3975H121.846V36.3445H110.118Z" fill="#1B326C" />
        <path d="M110.159 38.2901C109.63 38.2884 109.123 38.0713 108.748 37.686C108.375 37.2986 108.165 36.775 108.163 36.2287V34.5117C108.165 33.9653 108.375 33.4416 108.748 33.0544C109.123 32.6689 109.63 32.4519 110.159 32.4502H121.805C122.334 32.4519 122.841 32.6689 123.216 33.0544C123.589 33.4416 123.8 33.9652 123.801 34.5117V36.2299C123.799 36.7763 123.589 37.2999 123.216 37.6871C122.841 38.0725 122.334 38.2897 121.805 38.2913H110.159V38.2901Z" fill="white" />
        <path d="M115.631 28.5562C114.801 28.608 114.152 29.3118 113.37 30.1855C111.165 32.7826 108.495 37.6778 108.163 38.2913H109.739C110.267 37.3525 111.095 35.9364 112.009 34.5192C112.678 33.46 113.409 32.4441 114.198 31.4774C114.866 30.6532 115.53 30.2181 115.627 30.2723H121.846V28.5562H115.631Z" fill="#1B326C" />
        <path d="M107.529 40.2385C107.185 40.2379 106.846 40.145 106.547 39.9692C106.249 39.7934 106 39.5407 105.825 39.2361C105.652 38.9305 105.559 38.5836 105.556 38.2299C105.554 37.8763 105.641 37.528 105.81 37.2196C105.985 36.9017 106.749 35.5198 107.757 33.8783C108.771 32.2307 110.008 30.3387 111.24 28.8963L111.277 28.8548C111.69 28.3752 112.141 27.931 112.625 27.5263C113.261 26.9955 114.04 26.6756 114.858 26.6094H114.973H121.174C121.698 26.6109 122.199 26.8241 122.57 27.2025C122.939 27.5824 123.147 28.0966 123.149 28.6329V30.3196C123.147 30.8561 122.939 31.3701 122.57 31.7502C122.199 32.1286 121.698 32.3417 121.174 32.3433H115.503C115.345 32.4902 115.196 32.6488 115.06 32.8177L115.031 32.8522C114.303 33.7371 113.628 34.6659 113.008 35.6337C112.129 36.9813 111.319 38.3466 110.809 39.242C110.634 39.546 110.384 39.7978 110.085 39.9726C109.785 40.1473 109.446 40.239 109.102 40.2385H107.529Z" fill="white" />
        <path d="M81.4481 28.5562H76.2355V38.2913H81.4481V28.5562Z" fill="#1B326C" />
        <path d="M75.6862 40.2374C75.1409 40.2357 74.6183 40.0226 74.2317 39.6443C73.8469 39.2642 73.6302 38.7501 73.6288 38.2137V28.6331C73.6302 28.0967 73.8469 27.5826 74.2317 27.2025C74.6183 26.8242 75.1409 26.6111 75.6862 26.6094H81.3451C81.8904 26.6111 82.413 26.8242 82.7995 27.2025C83.1842 27.5826 83.4009 28.0967 83.4025 28.6331V38.215C83.4009 38.7513 83.1842 39.2653 82.7995 39.6454C82.413 40.0238 81.8904 40.237 81.3451 40.2385H75.6862V40.2374ZM77.7425 36.1925H79.2887V30.6543H77.7425V36.1913V36.1925Z" fill="white" />
        <path d="M75.1813 28.372C73.6125 28.4488 71.019 30.6015 68.1582 32.7324C66.4254 34.0463 64.809 35.3613 63.8204 36.175V28.8309C63.8204 28.8309 65.2892 27.7316 67.1163 26.3454C68.9432 24.9592 64.7472 25.3677 64.7472 25.3677L62.5515 27.8923V37.6426H64.3739C65.3369 36.8485 67.0057 35.4969 68.799 34.1336C71.5204 32.0188 74.437 29.9245 75.1767 30.0025H78.8411V28.372H75.1813Z" fill="#1B326C" />
        <path d="M37.1406 28.5562H31.9279V37.6422H37.1406V28.5562Z" fill="#002855" />
        <path d="M19.3972 35.9844C19.278 35.7843 19.2184 35.5564 19.2246 35.3256C19.2991 34.2077 20.0105 32.9561 20.7148 31.5058C20.9511 31.0274 21.1981 30.5717 21.4107 30.1767H18.9505C18.9505 30.1767 17.4498 28.5562 18.8239 28.5562H23.8875L23.1585 29.8363C23.1585 29.842 21.3186 33.1011 20.6935 34.7239H31.9276V36.3442H19.9879C19.8664 36.3362 19.7488 36.2991 19.6456 36.2364C19.5425 36.1735 19.4572 36.087 19.3972 35.9844Z" fill="#002855" />
        <path d="M90.5699 28.5562H85.3572V38.2913H90.5699V28.5562Z" fill="#002855" />
        <path d="M104.253 37.6422H98.1711L95.7828 32.4502H101.858L104.253 37.6422Z" fill="#002855" />
        <path d="M89.9185 36.344C89.9894 36.3311 99.0079 26.6094 105.038 26.6094C106.201 26.6094 105.045 28.2743 105.045 28.2743C102.202 28.2509 98.8255 30.5598 95.8999 32.9274C94.0796 34.393 92.3485 35.9674 90.7159 37.6425L89.9185 36.344Z" fill="#002855" />
        <path d="M58.6424 28.5562H53.4298V38.2913H58.6424V28.5562Z" fill="#002855" />
        <path d="M41.7018 36.3445V34.3975H53.4303V36.3445H41.7018Z" fill="#002855" />
        <path d="M47.2126 28.5562C46.383 28.608 45.7308 29.3118 44.9533 30.1855C42.7487 32.7826 40.0797 37.6778 39.7467 38.2913H41.326C41.8563 37.3525 42.6813 35.9364 43.5968 34.5192C44.2656 33.46 44.9961 32.4442 45.7843 31.4774C46.4527 30.6532 47.1151 30.2181 47.2138 30.2723H53.43V28.5562H47.2126Z" fill="#002855" />
        <path d="M125.756 28.5562H120.543V38.2913H125.756V28.5562Z" fill="#002855" />
        <path d="M108.815 36.3445V34.3975H120.543V36.3445H108.815Z" fill="#002855" />
        <path d="M114.328 28.5562C113.498 28.608 112.849 29.3118 112.067 30.1855C109.861 32.7826 107.192 37.6778 106.86 38.2913H108.44C108.969 37.3525 109.796 35.9364 110.71 34.5192C111.378 33.4601 112.107 32.4442 112.894 31.4774C113.563 30.6532 114.227 30.2181 114.323 30.2723H120.543V28.5562H114.328Z" fill="#002855" />
        <path d="M68.1597 32.7306C66.4271 34.0445 64.8109 35.3595 63.8225 36.1728V28.8295C63.8225 28.8295 65.2912 27.7302 67.1179 26.3442C68.2667 25.4722 67.0318 25.3115 65.955 25.3115C65.3225 25.3115 64.7469 25.3678 64.7469 25.3678L62.5515 27.892V37.6426H64.3759C65.3388 36.8488 67.0075 35.4971 68.8004 34.1352C71.4748 32.0595 74.3306 30.0044 75.1353 30.0044H75.1771H78.8411V28.3728H75.1818C73.6132 28.4486 71.0202 30.5977 68.1597 32.7306Z" fill="#002855" />
        <path d="M79.0413 26.5164H75.2551H75.2111C73.2918 26.611 71.0966 28.2822 68.3139 30.3989C67.8988 30.7146 67.4815 31.0372 67.0461 31.3587C66.498 31.777 65.9618 32.1955 65.4516 32.5997V29.6248C66.0688 29.1579 67.0356 28.424 68.1296 27.5884C69.4817 26.5543 69.3722 25.4906 69.1868 24.948C68.6444 23.3643 66.6895 23.3643 65.8571 23.3643C65.1317 23.3643 64.4752 23.4281 64.4467 23.4304L63.7333 23.5001L63.2695 24.0369L61.0243 26.637L60.5974 27.1322V39.5894H64.8783L65.3718 39.1793C66.2304 38.4702 67.9523 37.0519 69.8419 35.6087C73.7792 32.5275 75.0826 31.8574 75.4095 31.7203H80.7965V26.5199L79.0413 26.5164ZM79.0413 29.9593H75.299H75.2562C74.4345 29.9593 71.5092 32.0785 68.7777 34.2142C66.9427 35.6171 65.2374 37.0094 64.2481 37.8272H62.3835V27.7894L64.6287 25.1891C64.6287 25.1891 65.2233 25.1312 65.8642 25.1312C66.9619 25.1312 68.2259 25.2979 67.0533 26.195C65.1839 27.6227 63.6832 28.7549 63.6832 28.7549V36.3192C64.694 35.4776 66.347 34.1232 68.1189 32.7733C71.0454 30.5798 73.696 28.3626 75.3002 28.2822H79.0413V29.9593Z" fill="white" />
        <path d="M81.4481 28.5562H76.2355V38.2913H81.4481V28.5562Z" fill="#002855" />
    </g>
    <defs>
        <clipPath id="clip0_1_1523">
            <rect width="144" height="98" fill="white" />
        </clipPath>
    </defs>
  </svg>