<svg xmlns="http://www.w3.org/2000/svg" width="133" height="184" viewBox="0 0 133 184" fill="none">
    <g clip-path="url(#clip0_1458_1690)">
        <g filter="url(#filter0_d_1458_1690)">
            <path d="M0.601562 36.0917V-0.604538H132.628V36.0917C132.628 115.597 115.808 141.245 66.6148 183.39C17.4315 141.255 0.601562 115.638 0.601562 36.0917Z" fill="white" />
            <path d="M129.636 2.39078V36.091C129.636 113.636 113.238 139.505 66.6188 179.438C20.0094 139.505 3.60156 113.636 3.60156 36.091V2.39078H129.626H129.636Z" fill="#002F6C" />
            <path d="M71.0789 17.4008C73.4715 17.4008 75.1807 19.7433 74.4369 22.0155L69.0581 38.5742H63.0258L66.7958 26.9721L49.634 38.5539C48.5081 39.3079 47.0001 39.0968 46.1253 38.0612C45.1199 36.8548 45.3713 35.0452 46.6682 34.1704L63.6793 22.6991H50.4684L52.1878 17.4008H71.0789Z" fill="#41B6E6" />
            <path d="M115.524 20.7183L109.723 38.5838H103.691L110.065 18.9488C110.447 17.7725 111.553 16.9682 112.79 16.9682C114.74 16.9682 116.117 18.8683 115.514 20.7183H115.524ZM24.7285 17.4005L17.8516 38.5739H23.8839L29.0414 22.6988H41.3575L32.9726 28.359C31.7561 29.1734 31.3539 30.8324 32.1582 32.0591C32.9624 33.2855 34.6414 33.6173 35.8478 32.8029L46.2938 25.7553C50.0238 23.2418 48.2443 17.4005 43.74 17.4106H24.7285V17.4005ZM100.594 17.4005H81.5828L74.7059 38.5739H80.7382L85.8957 22.6988H98.2115L87.3134 30.0482L94.0493 38.0911C94.924 39.1267 96.432 39.3378 97.5583 38.5838C98.8651 37.7093 99.1165 35.8895 98.1009 34.693L95.1351 31.1541L103.148 25.7553C106.878 23.2418 105.099 17.4005 100.594 17.4106V17.4005Z" fill="white" />
            <path d="M60.6141 46.0756H45.6139V68.4554L33.6096 76.5488V46.0658H18.6094V74.357C18.6094 80.5 19.2226 86.6328 20.4794 92.6349L60.6141 65.5601V46.0556V46.0756Z" fill="white" />
            <path d="M20.4844 92.6545C20.6754 93.5795 20.8865 94.4944 21.1077 95.4092C23.0179 103.292 25.4709 110.299 28.5073 116.764C30.0455 120.051 31.7547 123.208 33.6247 126.285V91.0257L45.629 82.9326V142.582C50.0827 147.739 55.0794 152.817 60.6292 158.014V65.5696L20.4943 92.6444L20.4844 92.6545Z" fill="#41B6E6" />
            <path d="M114.648 46.0752H99.6373V68.4651L87.6331 76.5585V46.0752H72.6328V93.9113L114.648 65.5797V46.0752Z" fill="white" />
            <path d="M72.6328 93.9109V158.024C78.1826 152.826 83.1793 147.749 87.6331 142.591V91.0354L99.6373 82.942V126.294C101.507 123.218 103.206 120.061 104.755 116.773C107.791 110.309 110.234 103.291 112.154 95.4189C113.833 88.5319 114.648 81.4642 114.648 74.3762V65.5892L72.643 93.9208L72.6328 93.9109Z" fill="#41B6E6" />
        </g>
    </g>
    <defs>
        <filter id="filter0_d_1458_1690" x="-25.6911" y="-38.5266" width="192.699" height="244.67" filterUnits="userSpaceOnUse" color-interpolation-filters="sRGB">
            <feFlood flood-opacity="0" result="BackgroundImageFix" />
            <feColorMatrix in="SourceAlpha" type="matrix" values="0 0 0 0 0 0 0 0 0 0 0 0 0 0 0 0 0 0 127 0" result="hardAlpha" />
            <feOffset dx="4.04502" dy="-7.58441" />
            <feGaussianBlur stdDeviation="15.1688" />
            <feComposite in2="hardAlpha" operator="out" />
            <feColorMatrix type="matrix" values="0 0 0 0 1 0 0 0 0 1 0 0 0 0 1 0 0 0 0.2 0" />
            <feBlend mode="normal" in2="BackgroundImageFix" result="effect1_dropShadow_1458_1690" />
            <feBlend mode="normal" in="SourceGraphic" in2="effect1_dropShadow_1458_1690" result="shape" />
        </filter>
        <clipPath id="clip0_1458_1690">
            <rect width="132.734" height="183.3" fill="white" transform="translate(0.203125 0.133335)" />
        </clipPath>
    </defs>
</svg>