<svg xmlns="http://www.w3.org/2000/svg" width="158" height="182" viewBox="0 0 158 182" fill="none">
    <g clip-path="url(#clip0_1458_19919)">
        <path d="M28.8569 169.396C29.8681 167.597 30.1214 166.24 29.6343 165.249C29.4383 164.842 29.1706 164.734 28.98 164.715C28.6979 164.688 28.4323 164.832 28.1985 165.141C27.1369 166.526 25.6018 169.215 23.5066 173.355C22.8901 173.406 22.0902 173.521 21.1191 173.7C20.6165 173.792 20.1868 173.869 19.831 173.93C20.1223 173.394 20.4677 172.764 20.8647 172.04C21.516 170.852 21.9498 170.06 22.1918 169.609C23.1168 167.822 23.3179 166.486 22.807 165.528C22.6071 165.149 22.3446 165.05 22.16 165.035C21.8871 165.01 21.6329 165.144 21.4082 165.432L21.3959 165.447C20.8924 166.15 20.1376 167.42 19.1541 169.222C18.2291 170.915 17.3707 172.582 16.6004 174.181C16.5297 174.175 16.4497 174.169 16.3636 174.16C16.0406 174.129 15.9349 174.122 15.8825 174.121C15.6507 174.104 15.3277 174.113 15.1236 174.351C15.015 174.477 14.8692 174.757 15.1124 175.191C15.2714 175.493 15.4897 175.745 15.7656 175.948C15.0396 177.572 14.8949 177.978 14.8539 178.134C14.4631 179.504 14.5258 180.52 15.0447 181.242C15.2467 181.538 15.4744 181.611 15.6457 181.611C15.6661 181.611 15.6857 181.611 15.7041 181.607C15.9738 181.583 16.184 181.397 16.3266 181.062C16.9758 179.567 17.6865 178.049 18.4393 176.539C18.8761 176.506 19.8555 176.402 22.1856 176.119C21.8809 176.77 21.6533 177.315 21.5057 177.745C21.0605 179.072 21.1067 180.126 21.6359 180.865C21.8688 181.215 22.1303 181.267 22.3097 181.248C22.4892 181.231 22.7384 181.127 22.8974 180.744C23.6265 179.091 24.4265 177.431 25.2746 175.806C25.6448 175.798 25.977 175.823 26.2612 175.882L26.2909 175.887C26.5636 175.927 26.78 175.869 26.936 175.714C27.0889 175.561 27.1472 175.347 27.1093 175.076L27.0949 175.009C26.9564 174.532 26.6949 174.155 26.3176 173.88C26.6766 173.234 27.1166 172.461 27.6302 171.571C28.2568 170.485 28.6702 169.753 28.859 169.397" fill="#006628" />
        <path d="M41.7781 168.114C41.4613 166.889 40.7628 166.017 39.7013 165.523C38.7784 164.62 37.5016 164.436 35.8966 164.981C35.6473 165.071 35.392 165.184 35.1293 165.317C34.5818 165.598 34.0074 165.975 33.4146 166.445C32.5532 167.125 31.7184 167.951 30.9328 168.9C30.1391 169.859 29.4734 170.998 28.9556 172.283C28.4326 173.58 28.168 174.896 28.168 176.197C28.168 178.785 29.2222 180.483 31.3011 181.244C31.9143 181.467 32.5226 181.579 33.1245 181.579C33.8024 181.579 34.472 181.438 35.1293 181.157C35.5377 180.982 35.9417 180.755 36.3407 180.474C37.8758 179.387 39.2286 177.786 40.3638 175.714C41.0243 174.5 41.5052 173.222 41.7944 171.913C42.0888 170.576 42.0838 169.298 41.7781 168.114ZM39.1618 170.867C38.885 172.074 38.3979 173.319 37.7139 174.568C36.9395 175.983 36.073 177.133 35.1305 178C34.8966 178.216 34.6587 178.413 34.4157 178.592C33.2844 179.427 32.3727 179.709 31.699 179.418C31.3032 179.256 31.0344 178.813 30.9021 178.102C30.7514 177.289 30.8232 176.278 31.1185 175.096C31.4169 173.899 31.9369 172.719 32.661 171.59C33.4178 170.426 34.2453 169.451 35.1293 168.678C35.4679 168.383 35.8134 168.116 36.1673 167.881C37.3416 167.1 38.0431 166.913 38.4471 166.913C38.5855 166.913 38.6892 166.936 38.764 166.962C39.0502 167.064 39.2531 167.418 39.367 168.013C39.5025 168.721 39.4327 169.682 39.1609 170.865L39.1618 170.867Z" fill="#006628" />
        <path d="M53.8665 171.786C54.9004 170.171 55.166 168.617 54.6563 167.166C54.0942 165.566 52.9159 164.751 51.233 164.806C50.8258 164.83 50.2904 164.929 49.6105 165.11C49.2474 165.206 48.8434 165.324 48.3973 165.467C47.2035 165.847 46.2764 166.071 45.6395 166.134C45.2561 166.158 45.0703 166.338 44.9822 166.485C44.8919 166.635 44.8212 166.892 44.9923 167.254C45.2437 167.799 45.6622 168.186 46.22 168.397C45.254 169.941 44.3124 171.627 43.4183 173.417C42.4039 175.443 41.7281 177.047 41.4082 178.186C41.0492 179.483 41.162 180.455 41.7425 181.075L41.7537 181.086C41.9578 181.289 42.1506 181.345 42.3034 181.345C42.3538 181.345 42.3988 181.339 42.4389 181.33C42.5988 181.294 42.8141 181.183 42.9383 180.848C43.6972 179.046 44.3936 177.514 45.0088 176.285C45.4355 176.431 45.9031 176.462 46.4098 176.375C47.5439 176.162 48.6157 175.812 49.6105 175.332C50.0351 175.128 50.4453 174.899 50.8411 174.648C52.1712 173.803 53.1886 172.84 53.8665 171.786ZM49.6116 172.233C48.6988 172.816 47.6425 173.266 46.4487 173.58C46.6507 173.223 46.8825 172.817 47.1472 172.357C47.788 171.244 47.9624 170.945 47.9973 170.886C48.5778 169.898 48.9029 169.047 48.9818 168.3C49.1573 168.243 49.3664 168.171 49.6116 168.086L49.7192 168.048C50.1735 167.886 50.5581 167.756 50.8626 167.66C51.1509 167.57 51.4677 167.497 51.8061 167.443C52.079 167.4 52.3057 167.408 52.4616 167.467C52.5384 167.496 52.6247 167.548 52.6883 167.717C52.9937 168.524 52.481 169.621 51.1621 170.976C50.7038 171.447 50.1859 171.868 49.6105 172.234L49.6116 172.233Z" fill="#006628" />
        <path d="M69.5367 165.264C69.2422 164.972 68.9592 164.931 68.7778 164.948C68.5081 164.973 68.2742 165.128 68.0743 165.42C67.2486 166.707 65.7666 168.696 63.6673 171.328C62.5239 172.763 61.5456 174.043 60.7373 175.164C61.323 173.149 61.927 171.215 62.5412 169.38C62.8624 168.314 62.9679 167.513 62.8624 166.932C62.7526 166.324 62.3957 165.756 61.7947 165.236C61.482 164.976 61.1958 164.952 61.0123 164.98C60.7373 165.018 60.4984 165.185 60.3026 165.475C58.951 167.295 57.4412 169.575 55.8116 172.25C54.1514 174.979 53.1205 176.891 52.6611 178.093C52.1166 179.511 52.1637 180.578 52.8016 181.263C53.0139 181.507 53.2232 181.57 53.3852 181.57C53.4211 181.57 53.4538 181.568 53.4847 181.562C53.6519 181.535 53.8816 181.43 54.0251 181.08C54.9512 179 56.4618 176.307 58.5305 173.049C58.0054 174.895 57.6289 176.517 57.4044 177.896C57.1971 179.223 57.4412 180.258 58.1283 180.978L58.1027 181.073L58.1489 180.998C58.2658 181.118 58.3939 181.229 58.5366 181.332C58.7899 181.516 59.0185 181.507 59.1651 181.471C59.3898 181.412 59.5682 181.25 59.6943 180.987C60.7302 179.063 62.2644 176.775 64.2736 174.155C63.4561 175.907 62.9361 177.235 62.7002 178.171C62.3024 179.737 62.4419 180.77 63.126 181.332C63.3937 181.568 63.6346 181.574 63.7915 181.538C63.9473 181.501 64.1587 181.389 64.2848 181.067L64.2898 181.052C65.3637 177.976 67.182 174.062 69.6925 169.421C70.6248 167.715 70.5735 166.316 69.5355 165.263" fill="#006628" />
        <path d="M80.2396 166.237C80.094 165.875 79.8838 165.501 79.612 165.122C79.3812 164.811 79.1137 164.718 78.93 164.695C78.6347 164.658 78.3331 164.765 78.0295 165.013C77.1322 165.749 76.1508 166.76 75.0995 168.032C74.6966 168.52 74.2832 169.045 73.8607 169.607C72.4198 171.528 71.1522 173.418 70.0897 175.233C69.8662 175.212 69.6067 175.179 69.3144 175.136L69.2878 175.133C69.1441 175.12 68.7637 175.086 68.5401 175.353C68.294 175.646 68.45 176.031 68.5042 176.168C68.6385 176.479 68.8488 176.751 69.132 176.975C68.9474 177.334 68.7842 177.693 68.6447 178.047C68.134 179.402 68.1146 180.37 68.5832 181.006L68.5955 181.023C68.7513 181.216 68.9689 181.326 69.2057 181.326C69.4898 181.326 69.7339 181.153 69.8529 180.876C70.3082 179.893 70.8856 178.799 71.5706 177.615C72.0732 177.607 72.8362 177.55 73.8895 177.438C74.3571 177.39 74.7612 177.349 75.0995 177.315C75.3221 177.295 75.517 177.276 75.682 177.261C75.6484 177.727 75.6308 178.179 75.6308 178.614C75.6493 180.042 76.0533 180.941 76.8236 181.28C76.9753 181.35 77.1076 181.376 77.2203 181.376C77.3702 181.376 77.485 181.33 77.5671 181.278C77.7076 181.188 77.8758 181.004 77.8788 180.636C77.9229 179.668 78.0265 178.516 78.1885 177.204C78.3732 177.226 78.5404 177.257 78.687 177.297C79.0419 177.418 79.2654 177.313 79.3905 177.204C79.5177 177.094 79.652 176.883 79.5752 176.53C79.4541 175.876 79.0961 175.38 78.5301 175.076C78.9332 172.841 79.5116 170.584 80.2499 168.364C80.5187 167.579 80.5145 166.858 80.2407 166.237M75.9908 174.784C75.7436 174.803 75.4482 174.829 75.1007 174.865C74.8401 174.891 74.55 174.923 74.2288 174.961C73.833 175.007 73.4855 175.046 73.186 175.079C73.8186 174.122 74.4576 173.203 75.1007 172.323C75.7355 171.455 76.3743 170.627 77.0163 169.839C76.6195 171.272 76.2769 172.926 75.9908 174.783V174.784Z" fill="#006628" />
        <path d="M94.568 169.397C95.5793 167.598 95.8325 166.24 95.3452 165.25C95.1494 164.843 94.8817 164.735 94.6911 164.716C94.409 164.689 94.1434 164.832 93.9096 165.142C92.8481 166.527 91.3129 169.216 89.2176 173.355C88.6024 173.406 87.8014 173.522 86.8302 173.7C86.3276 173.793 85.897 173.87 85.541 173.931C85.8355 173.39 86.1809 172.758 86.5738 172.041C87.2404 170.827 87.6609 170.056 87.9009 169.609C88.827 167.823 89.0279 166.487 88.5161 165.529C88.3162 165.15 88.0537 165.051 87.8691 165.036C87.5953 165.011 87.342 165.145 87.1162 165.434L87.1041 165.449C86.5994 166.152 85.8446 167.421 84.8611 169.223C83.9382 170.913 83.0798 172.58 82.3074 174.182C82.2356 174.176 82.1567 174.17 82.0706 174.161C81.7598 174.131 81.647 174.123 81.5895 174.122C81.3578 174.104 81.0347 174.113 80.8307 174.351C80.7209 174.478 80.5763 174.758 80.8194 175.192C80.9773 175.493 81.1967 175.746 81.4726 175.948C80.7538 177.555 80.6051 177.966 80.5609 178.134C80.1702 179.504 80.2328 180.52 80.7517 181.242C80.9537 181.538 81.1814 181.611 81.3527 181.611C81.3731 181.611 81.3928 181.611 81.4111 181.607C81.6808 181.583 81.8911 181.397 82.0336 181.062C82.6849 179.565 83.3946 178.045 84.1464 176.539C84.5843 176.505 85.5626 176.402 87.8927 176.119C87.5891 176.77 87.3603 177.315 87.2127 177.745C86.7687 179.072 86.8149 180.126 87.3429 180.864C87.5767 181.214 87.8394 181.265 88.0178 181.248C88.1972 181.231 88.4464 181.127 88.6053 180.743C89.3345 179.091 90.1334 177.43 90.9826 175.806C91.3539 175.797 91.6852 175.823 91.9691 175.882L91.9989 175.887C92.2706 175.926 92.4882 175.869 92.644 175.714C92.7968 175.561 92.8554 175.345 92.8163 175.075L92.8019 175.009C92.6635 174.532 92.4031 174.154 92.0256 173.88C92.3834 173.236 92.8236 172.461 93.3372 171.571C93.965 170.486 94.3772 169.754 94.566 169.397" fill="#006628" />
        <path d="M105.424 165.523C104.5 164.62 103.224 164.436 101.619 164.981C101.37 165.071 101.115 165.184 100.853 165.317C100.305 165.598 99.7312 165.975 99.1375 166.445C98.2759 167.125 97.4411 167.952 96.6557 168.9C95.8618 169.859 95.1972 170.998 94.6783 172.283C94.1553 173.58 93.8906 174.896 93.8906 176.197C93.8906 178.785 94.9439 180.483 97.0238 181.244C97.6371 181.467 98.2462 181.579 98.8483 181.579C99.5262 181.579 100.195 181.438 100.853 181.157C101.26 180.982 101.664 180.755 102.063 180.474C103.599 179.387 104.951 177.786 106.087 175.714C106.747 174.5 107.229 173.222 107.517 171.913C107.813 170.576 107.806 169.297 107.501 168.114C107.184 166.888 106.485 166.016 105.425 165.523M104.885 170.867C104.608 172.074 104.121 173.319 103.438 174.568C102.662 175.983 101.796 177.133 100.854 178C100.62 178.216 100.381 178.413 100.139 178.592C99.0082 179.427 98.0965 179.709 97.4228 179.418C97.0268 179.256 96.7591 178.813 96.6259 178.102C96.474 177.289 96.5468 176.279 96.8421 175.097C97.1407 173.9 97.6607 172.72 98.3857 171.591C99.1425 170.427 99.9702 169.452 100.855 168.679C101.193 168.384 101.539 168.117 101.893 167.882C103.066 167.101 103.769 166.914 104.173 166.914C104.31 166.914 104.414 166.937 104.49 166.963C104.776 167.065 104.979 167.419 105.093 168.014C105.227 168.723 105.159 169.683 104.886 170.867L104.885 170.867Z" fill="#006628" />
        <path d="M121.436 166.415C121.436 166.06 121.375 165.726 121.253 165.426C121.031 164.872 120.7 164.756 120.46 164.756C120.064 164.756 119.654 164.756 116.282 170.955C115.562 172.278 114.892 173.294 114.292 173.978C113.757 174.587 113.204 174.883 112.604 174.883C112.358 174.883 112.123 174.788 111.89 174.59C111.678 174.411 111.579 174.173 111.579 173.838C111.579 173.602 111.636 173.337 111.746 173.05C111.865 172.738 112.004 172.457 112.158 172.215C112.331 171.944 112.592 171.534 112.938 170.983C113.283 170.438 113.592 169.934 113.862 169.48C114.528 168.329 114.865 167.299 114.865 166.414C114.865 166.059 114.804 165.726 114.683 165.424C114.459 164.87 114.129 164.755 113.89 164.755C113.704 164.755 113.434 164.83 113.202 165.177C113.117 165.295 112.929 165.567 112.628 166.01C112.331 166.444 112.121 166.752 111.998 166.931C111.875 167.112 111.677 167.404 111.404 167.806C111.122 168.222 110.918 168.542 110.78 168.781C110.648 169.01 110.476 169.303 110.264 169.66C110.037 170.042 109.87 170.357 109.755 170.622C109.649 170.864 109.535 171.138 109.404 171.457C109.269 171.789 109.172 172.099 109.118 172.382C109.064 172.665 109.035 172.932 109.035 173.173C109.035 174.243 109.45 175.106 110.271 175.74C111.054 176.345 112.023 176.652 113.148 176.652C113.268 176.652 113.389 176.648 113.51 176.637C112.954 178.024 112.691 178.949 112.691 179.517C112.691 179.993 112.787 180.401 112.975 180.734C113.074 180.909 113.335 181.372 113.791 181.372C113.951 181.372 114.242 181.307 114.409 180.879C115.585 178.249 117.613 174.412 120.434 169.479C121.109 168.313 121.437 167.31 121.437 166.413" fill="#006628" />
        <path d="M132.46 168.467C133.254 167.382 133.538 166.378 133.303 165.482L133.278 165.41C133.12 165.051 132.882 164.946 132.711 164.921C132.539 164.895 132.276 164.929 132.01 165.234C129.943 167.461 127.544 169.659 124.856 171.786C125.205 171.156 125.618 170.409 126.096 169.544C127.047 167.815 127.232 166.488 126.658 165.484C126.438 165.105 126.17 165.011 125.984 165C125.801 164.988 125.526 165.046 125.257 165.395C124.478 166.475 123.313 168.542 121.699 171.715C120.081 174.892 119.137 176.965 118.813 178.05C118.407 179.393 118.472 180.443 119.012 181.18C119.208 181.439 119.421 181.502 119.583 181.502C119.606 181.502 119.626 181.5 119.646 181.5C119.819 181.484 120.058 181.385 120.229 181.022L120.235 181.007C120.956 179.325 121.679 177.77 122.392 176.373C123.44 177.942 124.364 179.492 125.146 180.99L125.155 181.007C125.34 181.331 125.578 181.417 125.743 181.431C125.908 181.446 126.153 181.405 126.388 181.126L126.399 181.111C127.004 180.328 127.024 179.25 126.459 177.901C126.207 177.322 125.699 176.419 124.911 175.147C126.417 174.068 127.884 172.903 129.277 171.677C130.815 170.324 131.855 169.275 132.46 168.466" fill="#006628" />
        <path d="M141.784 166.237C141.638 165.874 141.428 165.501 141.156 165.122C140.924 164.811 140.656 164.718 140.474 164.695C140.181 164.658 139.877 164.764 139.574 165.013C138.676 165.749 137.695 166.76 136.644 168.032C136.241 168.52 135.827 169.045 135.405 169.607C133.963 171.528 132.696 173.419 131.634 175.233C131.41 175.212 131.151 175.179 130.858 175.136L130.83 175.133C130.686 175.121 130.306 175.086 130.083 175.353C129.837 175.646 129.992 176.031 130.047 176.168C130.181 176.479 130.392 176.751 130.675 176.975C130.49 177.336 130.327 177.693 130.188 178.049C129.677 179.403 129.658 180.371 130.126 181.008L130.138 181.025C130.295 181.22 130.512 181.326 130.749 181.326C130.885 181.326 131.222 181.281 131.396 180.876C131.85 179.895 132.427 178.8 133.113 177.617C133.614 177.609 134.378 177.55 135.431 177.44C135.899 177.39 136.303 177.349 136.642 177.317C136.864 177.295 137.058 177.278 137.224 177.261C137.19 177.728 137.173 178.181 137.173 178.616C137.192 180.044 137.595 180.941 138.365 181.281C138.517 181.352 138.65 181.378 138.762 181.378C138.912 181.378 139.027 181.332 139.109 181.28C139.251 181.19 139.418 181.006 139.422 180.638C139.466 179.668 139.57 178.516 139.732 177.205C139.916 177.226 140.082 177.257 140.23 177.298C140.585 177.418 140.808 177.313 140.934 177.205C141.061 177.094 141.195 176.885 141.118 176.532C140.997 175.877 140.639 175.381 140.073 175.077C140.476 172.842 141.053 170.585 141.792 168.365C142.062 167.58 142.058 166.859 141.784 166.238M137.534 174.785C137.287 174.803 136.991 174.83 136.644 174.866C136.383 174.892 136.093 174.924 135.772 174.962C135.376 175.008 135.027 175.047 134.729 175.08C135.361 174.123 136.001 173.204 136.644 172.325C137.278 171.457 137.917 170.629 138.558 169.841C138.163 171.275 137.819 172.928 137.534 174.785Z" fill="#006628" />
        <path d="M7.01271 172.348C6.76561 172.707 6.51327 172.596 6.51327 172.596C6.47755 172.57 6.44463 172.548 6.41489 172.53L6.52057 172.253C6.6169 172.262 6.67957 172.192 6.63748 171.975C6.50617 171.562 6.15432 171.182 5.63861 171.228C5.57707 171.221 5.50824 171.227 5.44464 171.239C5.30828 171.26 5.17397 171.318 5.04996 171.471C4.86627 171.693 4.87974 171.927 4.87974 171.927L4.88273 171.93C4.88161 171.959 4.88161 171.989 4.88273 172.018C4.83653 172.527 5.21606 172.875 5.62627 173.005C5.92874 173.062 5.9452 172.922 5.86214 172.769H6.16985C6.31949 173.006 6.1893 173.166 6.01384 173.342C5.82623 173.528 5.94314 173.599 6.26412 173.59C6.95023 173.405 7.08566 172.995 7.15543 172.738C7.22502 172.42 7.13991 172.239 7.01271 172.348Z" fill="#F4A8BB" />
        <path d="M2.87587 171.031C3.17535 170.938 3.81843 171.265 4.14241 171.477C4.46452 171.692 4.50137 171.61 4.64091 171.478C4.77222 171.335 4.64184 171.228 4.64184 171.228C4.64184 171.228 4.36706 170.898 3.67478 170.201C3.02365 169.328 4.34855 170.463 4.64091 170.979C4.84704 171.345 5.00398 171.116 5.14146 170.979C5.27259 170.81 5.16297 170.747 5.14146 170.73C4.30141 169.632 4.89006 168.741 4.89006 168.741C4.68393 168.301 4.35584 168.279 4.14148 168.244C3.92618 168.209 3.29431 168.177 2.51692 168.119C2.18265 168.143 1.89964 168.347 1.87495 168.696C1.82875 169.334 2.00327 170.194 2.01655 170.358C2.07491 171.074 2.6718 171.091 2.87494 171.03" fill="#F4A8BB" />
        <path d="M4.75923 173.343C4.829 172.945 4.80636 172.712 4.4577 172.796C4.11015 172.876 3.01065 173.342 3.01065 173.342C3.01065 173.342 2.78918 173.145 3.50915 172.846C4.23005 172.547 4.88549 172.433 4.50801 172.101C4.50801 172.101 3.81891 171.319 3.0086 171.355C2.8004 171.361 2.42312 171.344 2.06921 171.585C1.81894 171.759 1.59447 172.11 1.38516 172.473C1.00582 173.23 0.692875 173.976 1.50936 174.34C2.33483 174.7 3.47623 175.098 4.02598 174.605C4.37259 174.28 4.66907 173.757 4.75829 173.344" fill="#F4A8BB" />
        <path d="M5.8864 170.98C5.87705 170.979 5.99601 170.94 6.0699 170.797C6.22478 170.503 6.43091 169.934 6.63611 169.488C7.08822 168.541 6.48834 170.616 6.38471 170.981C6.28314 171.344 6.38471 171.229 6.38471 171.229C6.38471 171.229 6.61142 171.208 7.50983 170.857C8.97839 170.342 8.40208 169.115 8.02573 168.104C7.68922 166.979 7.08934 167.343 7.00928 167.375C6.74984 167.429 5.91614 167.779 5.51005 168.121C4.22181 169.42 5.51005 170.857 5.51005 170.857C5.70683 171.002 5.78371 170.988 5.8864 170.98Z" fill="#F4A8BB" />
        <path d="M10.382 170.981C9.97364 170.579 9.45476 170.355 9.13172 170.236C8.80868 170.115 8.62106 170.371 8.63228 170.485C8.4312 171.179 7.00885 171.355 7.00885 171.355C6.813 171.411 6.88371 171.558 6.88277 171.729C6.88277 171.901 7.00791 171.853 7.00791 171.853C7.00791 171.853 7.41288 171.838 8.13285 171.729C8.78099 171.692 8.34403 171.988 7.63342 171.978C7.25707 171.972 7.46825 172.667 7.38314 172.973C7.34311 173.123 7.46114 173.206 7.88257 173.223C8.50097 173.229 8.82102 173.129 9.38199 172.725C10.7725 171.558 10.4536 171.024 10.3829 170.983" fill="#F4A8BB" />
        <path d="M6.63635 173.716C6.34212 173.891 5.76263 173.839 5.76263 173.839C5.64366 173.802 5.58212 173.926 5.51235 174.337C5.43659 174.817 5.17603 174.714 5.38628 173.717C5.56772 172.859 5.01086 173.343 5.01086 173.343C5.01086 173.343 4.80996 173.84 4.78434 174.001C4.72579 174.309 4.47663 174.757 4.26134 174.836C3.87152 174.889 3.80175 175.014 3.76172 175.084C3.76172 175.58 3.93512 175.938 4.38629 176.453C4.8397 176.964 5.214 176.748 5.88683 176.203C6.55742 175.66 6.86213 174.718 6.88663 174.213C6.90926 173.711 6.70407 173.677 6.63635 173.716Z" fill="#F4A8BB" />
        <path d="M153.477 172.348C153.23 172.707 152.978 172.596 152.978 172.596C152.942 172.57 152.91 172.548 152.879 172.53L152.985 172.253C153.081 172.262 153.143 172.192 153.102 171.975C152.972 171.562 152.619 171.182 152.103 171.228C152.041 171.221 151.972 171.227 151.909 171.239C151.774 171.26 151.638 171.318 151.514 171.471C151.331 171.693 151.344 171.927 151.344 171.927L151.347 171.93C151.346 171.959 151.346 171.989 151.348 172.018C151.302 172.527 151.681 172.875 152.091 173.005C152.393 173.062 152.409 172.922 152.326 172.769H152.634C152.784 173.006 152.654 173.166 152.478 173.342C152.292 173.528 152.407 173.599 152.728 173.59C153.414 173.405 153.549 172.995 153.62 172.738C153.689 172.42 153.604 172.239 153.477 172.348Z" fill="#F4A8BB" />
        <path d="M149.339 171.031C149.639 170.938 150.281 171.265 150.606 171.477C150.928 171.692 150.965 171.61 151.104 171.478C151.236 171.335 151.105 171.228 151.105 171.228C151.105 171.228 150.831 170.898 150.138 170.201C149.488 169.328 150.812 170.463 151.105 170.979C151.311 171.345 151.468 171.116 151.606 170.979C151.737 170.81 151.627 170.747 151.606 170.73C150.766 169.632 151.355 168.741 151.355 168.741C151.149 168.301 150.82 168.279 150.606 168.244C150.391 168.209 149.759 168.177 148.982 168.119C148.647 168.143 148.364 168.347 148.34 168.696C148.294 169.334 148.468 170.194 148.481 170.358C148.538 171.074 149.136 171.091 149.339 171.03" fill="#F4A8BB" />
        <path d="M151.231 173.343C151.302 172.945 151.278 172.712 150.929 172.796C150.582 172.876 149.482 173.342 149.482 173.342C149.482 173.342 149.261 173.145 149.981 172.846C150.702 172.547 151.357 172.433 150.981 172.101C150.981 172.101 150.291 171.319 149.481 171.355C149.274 171.361 148.896 171.344 148.542 171.585C148.292 171.759 148.067 172.11 147.858 172.473C147.478 173.23 147.166 173.976 147.982 174.34C148.806 174.7 149.949 175.098 150.499 174.605C150.846 174.28 151.143 173.757 151.232 173.344" fill="#F4A8BB" />
        <path d="M152.351 170.98C152.342 170.979 152.46 170.94 152.535 170.797C152.689 170.503 152.895 169.934 153.101 169.488C153.553 168.541 152.953 170.616 152.851 170.981C152.748 171.344 152.851 171.229 152.851 171.229C152.851 171.229 153.076 171.208 153.975 170.857C155.443 170.342 154.868 169.115 154.49 168.104C154.154 166.979 153.554 167.343 153.474 167.375C153.215 167.429 152.381 167.779 151.975 168.121C150.687 169.42 151.975 170.857 151.975 170.857C152.172 171.002 152.249 170.988 152.351 170.98Z" fill="#F4A8BB" />
        <path d="M156.855 170.981C156.447 170.579 155.928 170.355 155.605 170.236C155.282 170.115 155.094 170.371 155.104 170.485C154.903 171.179 153.481 171.355 153.481 171.355C153.285 171.411 153.357 171.558 153.356 171.729C153.356 171.901 153.481 171.853 153.481 171.853C153.481 171.853 153.885 171.838 154.606 171.729C155.254 171.692 154.817 171.988 154.106 171.978C153.73 171.972 153.941 172.667 153.856 172.973C153.816 173.123 153.933 173.206 154.356 173.223C154.974 173.229 155.294 173.129 155.855 172.725C157.246 171.558 156.927 171.024 156.856 170.983" fill="#F4A8BB" />
        <path d="M153.101 173.716C152.807 173.891 152.227 173.839 152.227 173.839C152.108 173.802 152.046 173.926 151.977 174.337C151.901 174.817 151.641 174.714 151.851 173.717C152.033 172.859 151.476 173.343 151.476 173.343C151.476 173.343 151.275 173.84 151.249 174.001C151.19 174.309 150.941 174.757 150.726 174.836C150.336 174.889 150.265 175.014 150.227 175.084C150.227 175.58 150.399 175.938 150.851 176.453C151.304 176.964 151.679 176.748 152.351 176.203C153.022 175.66 153.327 174.718 153.351 174.213C153.374 173.711 153.169 173.677 153.101 173.716Z" fill="#F4A8BB" />
        <path d="M84.9715 155.311L83.1572 154.956C82.8116 154.888 74.6143 153.183 66.2354 146.147C57.027 138.413 53.7206 129.012 52.5701 124.097C51.5516 119.746 51.6543 115.172 51.8121 112.779C50.8778 112.726 49.7037 112.637 48.7037 112.486C46.7408 112.19 45.7604 111.948 45.7204 111.938L45.0896 111.781L44.7563 111.226C44.6517 111.051 42.1699 106.897 40.687 102.766C39.2562 98.7788 38.9434 96.3398 39.5342 93.7672C39.9956 91.76 41.6847 86.0781 43.2692 82.3779C44.2445 80.1012 45.1891 78.2491 45.7604 77.1817C45.5275 76.7715 45.3624 76.2684 45.3296 75.6756C45.3029 75.2009 45.3491 74.7887 45.4312 74.4388C44.1441 73.0886 41.8469 70.1212 41.3587 65.7516C40.9393 61.9952 41.0745 59.7268 41.2315 58.5685C39.7178 56.9909 35.6801 52.5621 33.8352 48.3935C30.0232 39.783 30.7872 31.7355 31.1113 29.4741C31.6416 25.7771 34.4012 18.5972 34.4012 18.5972C34.4012 18.5972 37.0319 26.4261 37.4943 27.5455C37.5579 27.7007 37.6236 27.8578 37.6892 28.016C37.7785 27.8783 37.8636 27.7465 37.9405 27.6231C38.363 26.9577 38.767 26.4414 39.0574 26.1006C39.1434 24.5749 39.8787 20.4002 41.3422 16.642C44.2836 9.0853 50.3283 6.31892 50.3283 6.31892C50.3283 6.31892 47.9478 14.3264 47.6341 16.303C49.9702 14.0764 53.1812 11.109 55.6774 9.37417C62.7261 4.47392 68.345 4.41677 68.345 4.41677C68.345 4.41677 55.9226 16.2613 50.4255 24.7443C45.7542 31.9538 42.8805 37.7196 42.0766 39.391C42.4591 40.7544 43.7462 44.681 46.5182 47.4822C47.8279 48.8057 49.0082 49.8467 49.9764 50.6344C49.7252 46.8853 49.8801 40.9258 51.6563 36.0664C54.7309 27.6495 60.9304 24.7668 60.9304 24.7668C60.9304 24.7668 57.7337 35.6949 58.6003 42.3208C59.1048 46.1812 59.7664 48.5669 60.2258 49.8763C61.1528 49.4773 62.4235 48.9915 63.8378 48.6252C65.2345 48.263 66.6068 48.0772 67.6509 47.9823C67.3832 46.0995 67.1821 42.8637 67.4825 38.6389C68.2293 28.1098 74.3128 22.98 74.3128 22.98L74.1968 27.5537C74.1959 27.6415 74.1005 36.4307 75.4102 40.9369C76.7649 45.5984 78.2325 47.866 80.1984 49.9241C81.8598 51.664 82.2199 51.6233 82.9747 51.5784L83.3755 51.5753C84.0021 51.5386 88.8777 50.7507 92.7061 50.1966C92.9093 49.8456 93.5922 48.5098 94.0332 47.2281C94.4536 46.0036 94.6352 44.829 94.7091 44.5362C92.9358 43.5259 89.8592 41.4696 86.8891 36.3683C81.2087 26.6128 86.0749 17.9655 86.0749 17.9655C86.0749 17.9655 87.3865 26.5659 92.6764 30.763C94.1245 31.911 94.753 32.4121 95.5725 32.9989C95.4863 30.8263 95.3797 28.0342 94.9971 25.4598C94.0701 19.2339 91.4631 13.2387 91.4631 13.2387C91.4631 13.2387 100.617 15.646 104.209 29.0914C106.533 37.7941 105.954 41.8309 105.708 45.5096C107.49 44.6719 109.721 43.5269 112.377 41.3697C116.098 38.3481 117.73 36.7531 118.48 35.7949C118.101 32.4273 116.315 24.528 110.185 17.1093C103.654 9.2048 90.3627 1.01762 90.3627 1.01762C90.3627 1.01762 101.834 1.07476 111.256 7.70368C114.825 10.214 117.194 12.4285 118.698 14.0325C118.854 12.9703 118.926 11.7549 118.926 10.5814C118.926 4.24533 117.709 0.152267 117.709 0.152267C117.709 0.152267 124.139 4.47595 125 12.8407C125.473 17.446 125.174 21.8564 125.044 23.2687C125.356 23.9095 125.959 25.1841 126.357 26.2383C126.458 26.5077 126.555 26.7854 126.646 27.0597C127.248 26.4801 127.949 25.7464 128.664 24.877C130.649 22.4626 131.613 20.9545 131.623 20.939L134.553 16.3235L134.509 21.782C134.507 22.087 134.409 29.3261 131.08 35.5306C127.532 42.1432 124.03 46.5138 119.368 50.1468C116.299 52.5377 113.968 54.057 112.636 54.8684C113.411 56.9113 114.466 60.9982 113.138 65.9802C111.304 72.8571 109.104 75.544 107.609 76.9665C107.005 77.542 106.391 78.0278 105.875 78.4012C106.879 80.2125 108.759 83.6729 110.26 86.819L110.591 87.5108C112.647 91.7947 114.773 96.2255 112.643 102.402C110.714 107.997 107.02 113.196 100.9 121.808C100.345 122.588 99.7702 123.397 99.1742 124.238C91.9441 134.44 89.1936 138.845 87.1527 144.825C85.1426 150.716 85.0339 153.446 85.0339 153.472L84.9756 155.312L84.9715 155.311ZM48.4545 75.0878L48.4452 75.098C48.4452 75.098 48.4514 75.0919 48.4545 75.0878Z" fill="#D8D9DF" />
        <path d="M47.2884 74.0522C47.2884 74.0522 43.5226 71.0257 42.9145 65.5784C42.3064 60.1312 42.9145 58.0556 42.9145 58.0556C42.9145 58.0556 37.4206 52.6297 35.268 47.7651C32.0529 40.5016 32.1401 33.3247 32.661 29.6928C33.1819 26.061 34.3121 22.1701 34.3121 22.1701C34.3121 22.1701 35.4423 26.6672 36.0504 28.1367C36.6585 29.6061 37.354 31.3358 37.354 31.3358C37.354 31.3358 38.5702 29.549 39.2655 28.454C39.9609 27.359 40.5977 26.7243 40.5977 26.7243C40.5977 26.7243 40.7136 21.5935 42.4519 17.2126C44.1902 12.8318 48.3037 8.68054 48.3037 8.68054C48.3037 8.68054 46.3337 13.9257 46.0434 16.4054C45.7542 18.884 45.6958 20.3833 45.6958 20.3833C45.6958 20.3833 52.3577 13.6389 56.5872 10.6419C60.8155 7.64376 65.045 5.91511 65.045 5.91511C65.045 5.91511 54.7903 15.139 49.1129 23.9007C43.4355 32.6625 40.4224 39.2341 40.4224 39.2341C40.4224 39.2341 41.6386 44.7682 45.4046 48.5735C49.1694 52.3777 51.8933 53.9339 51.8933 53.9339C51.8933 53.9339 50.2719 43.7313 53.1095 36.6401C55.9482 29.5501 58.6711 28.1091 58.6711 28.1091C58.6711 28.1091 56.1225 35.4299 57.0486 42.5211C57.9757 49.6113 59.4238 51.9747 59.4238 51.9747C59.4238 51.9747 61.5673 50.8215 64.2326 50.1297C66.897 49.4378 69.504 49.4378 69.504 49.4378C69.504 49.4378 68.4609 45.3448 69.0404 38.7729C69.6199 32.2012 72.632 27.5316 72.632 27.5316C72.632 27.5316 72.5161 36.5821 73.9066 41.3669C75.2974 46.1518 76.5136 48.6887 78.7156 50.994C80.9164 53.2992 82.1338 53.1838 83.1192 53.1266C84.1038 53.0686 94.0107 51.6276 94.0107 51.6276C94.0107 51.6276 95.2855 49.6685 95.9808 47.5928C96.6761 45.5171 96.9652 43.961 96.9652 43.961C96.9652 43.961 92.3892 42.2313 88.2173 35.5442C84.0464 28.8571 85.8421 22.2853 85.8421 22.2853C85.8421 22.2853 86.8851 28.1071 91.6939 31.9695C96.5017 35.832 97.6605 36.178 97.6605 36.178C97.6605 36.178 97.6605 30.0102 96.8495 25.2824C96.0382 20.5556 94.1265 16.1166 94.1265 16.1166C94.1265 16.1166 99.399 19.7484 102.006 28.5102C104.613 37.2728 103.802 45.4008 103.628 46.8418C103.454 48.2826 103.454 48.6286 103.454 48.6286C103.454 48.6286 108.263 47.0724 113.303 42.9793C118.343 38.8863 120.486 35.7728 120.486 35.7728C120.486 35.7728 119.965 26.4917 111.391 16.1156C102.817 5.73957 94.706 2.74146 94.706 2.74146C94.706 2.74146 103.338 4.0099 110.349 8.96734C117.358 13.9248 119.56 17.5566 119.56 17.5566C119.56 17.5566 120.603 13.9248 120.487 10.5235C120.373 7.12231 119.676 3.83641 119.676 3.83641C119.676 3.83641 122.863 7.6407 123.442 13.0021C124.021 18.3627 123.442 23.5507 123.442 23.5507C123.442 23.5507 124.369 25.3958 124.89 26.7785C125.411 28.1622 125.817 29.8337 125.817 29.8337C125.817 29.8337 127.787 28.3928 129.872 25.8559C131.958 23.3201 132.943 21.7628 132.943 21.7628C132.943 21.7628 132.884 28.8531 129.699 34.79C126.511 40.7282 123.21 45.1661 118.401 48.9132C113.594 52.6604 110.639 54.2166 110.639 54.2166C110.639 54.2166 113.362 59.0597 111.623 65.5733C109.885 72.0879 107.858 74.5667 106.526 75.8351C105.193 77.1036 103.803 77.8953 103.803 77.8953C103.803 77.8953 106.699 82.9823 108.843 87.4796C110.987 91.9756 113.189 96.0115 111.16 101.89C109.132 107.77 104.962 113.362 97.8934 123.334C90.8252 133.306 87.8133 138.034 85.6698 144.317C83.5264 150.601 83.468 153.425 83.468 153.425C83.468 153.425 75.4154 151.811 67.2468 144.951C59.0772 138.091 55.4858 129.675 54.0951 123.738C52.7043 117.801 53.5156 111.286 53.5156 111.286C53.5156 111.286 50.8502 111.228 48.9386 110.94C47.0269 110.651 46.0998 110.421 46.0998 110.421C46.0998 110.421 43.6089 106.271 42.1598 102.235C40.7116 98.2006 40.5956 96.1249 41.0593 94.1075C41.5228 92.0899 43.2026 86.4978 44.7091 82.9814C46.2158 79.4649 47.6638 76.9576 47.6638 76.9576C47.6638 76.9576 46.95 76.6198 46.8916 75.582C46.8342 74.5442 47.2874 74.0461 47.2874 74.0461" fill="#100E09" />
        <path d="M49.4752 70.767C49.4752 70.767 50.0834 69.4699 50.5613 68.2158C51.0392 66.9617 52.0381 65.1034 52.0381 65.1034C52.0381 65.1034 50.7345 64.7574 49.7356 64.2819C48.7358 63.8063 46.3462 62.595 46.3462 62.595C46.3462 62.595 45.8683 64.1512 46.9985 66.9617C48.1275 69.772 49.4752 70.767 49.4752 70.767ZM107.047 59.1796C107.047 59.1796 103.744 60.8654 100.094 62.0767C96.4445 63.287 93.7513 64.0656 88.7549 64.2379C83.7584 64.4105 80.3248 62.595 80.3248 62.595C80.3248 62.595 82.4108 62.8971 83.4969 62.941C84.5829 62.985 85.5829 62.6389 85.5829 62.0767C85.5829 61.5144 84.8444 61.2981 82.8016 61.3418C80.7597 61.3858 79.0214 61.3418 79.0214 61.3418C79.0214 61.3418 75.8924 60.2175 73.6341 57.9693C71.3738 55.7213 70.5923 52.8242 70.5923 52.8242C70.5923 52.8242 69.6366 52.6078 67.8551 52.8242C66.0738 53.0405 61.9459 53.8619 59.0344 56.1101C56.1227 58.3581 55.3197 61.2114 55.3197 61.2114C55.3197 61.2114 56.3842 60.9949 57.6878 60.8654C58.9912 60.7358 60.1646 61.0816 60.1646 61.0816C60.1646 61.0816 59.3389 61.3409 58.0354 61.7737C56.732 62.2062 55.1239 63.2001 53.2122 66.681C51.3007 70.1608 50.475 75.1335 50.475 75.1335L54.125 74.0956C54.125 74.0956 51.996 75.8253 49.8239 80.149C47.6517 84.4728 45.7832 89.4444 44.8704 92.514C44.6304 93.3232 44.4572 94.0303 44.332 94.6376C45.1289 94.4376 46.1678 93.9395 47.0866 92.7293C48.8825 90.3659 49.4034 89.3577 49.4034 89.3577C49.4034 89.3577 49.8095 92.1538 52.3579 93.5946C54.9065 95.0356 58.0642 95.3814 59.8455 96.2457C61.627 97.1101 62.0905 98.2633 62.0905 98.2633C62.0905 98.2633 64.9006 95.3814 69.854 92.7578C74.8073 90.1353 80.0645 90.9996 80.0645 90.9996C80.0645 90.9996 81.3678 89.7893 82.8016 86.4595C84.2354 83.1297 83.9307 79.6286 83.9307 79.6286C83.9307 79.6286 85.2342 81.9205 85.2342 84.4708C85.2342 87.0209 84.9737 90.0474 83.5399 92.7282C83.4385 92.918 83.3237 93.1038 83.2139 93.2916L83.221 93.2966C83.221 93.2966 79.528 102.068 78.2532 107.774C76.9784 113.481 76.5159 116.478 76.2832 119.534C76.0514 122.589 75.9354 125.068 75.9354 125.068L71.5902 120.283C71.5902 120.283 71.417 125.125 72.3429 131.235C73.2701 137.346 75.1816 142.246 75.1816 142.246C75.1816 142.246 69.2724 139.825 64.8697 132.273C60.4671 124.722 60.1779 121.436 60.1779 121.436L58.2898 125.405C59.3225 128.789 61.0813 132.62 64.0729 136.612C70.0693 144.611 79.3239 148.069 79.3239 148.069C79.3239 148.069 80.4971 142.535 82.2354 137.995C83.9727 133.456 87.0586 127.878 93.5761 119.75C100.093 111.622 102.005 109.114 102.309 104.142C102.613 99.1705 98.9202 90.4374 98.9202 90.4374L101.18 90.9129C101.18 90.9129 100.441 88.578 99.2679 85.5084C98.0947 82.439 96.5738 79.2827 96.5738 79.2827C96.5738 79.2827 95.14 79.2388 93.3576 78.9807C91.5763 78.7214 89.8389 78.4612 87.231 76.7427C84.6241 75.0242 83.7554 73.1874 83.7554 73.1874C83.7554 73.1874 88.795 76.4734 94.6179 76.7325C100.44 76.9917 104.09 72.5385 106.089 67.7831C108.088 63.0266 107.045 59.1796 107.045 59.1796H107.047ZM61.7489 68.4097C64.2687 66.485 67.8327 66.5503 67.8327 66.5503C67.8327 66.5503 64.4216 67.9556 62.2053 70.2036C59.9891 72.4516 59.4025 73.4894 59.4025 73.4894L58.8159 71.6088C58.8159 71.6088 59.2291 70.3331 61.7489 68.4097ZM53.7764 72.6253C53.7764 72.6253 54.4286 71.2854 54.7763 69.2097C55.1239 67.134 55.1239 66.681 55.1239 66.681C55.1239 66.681 55.9495 68.5616 55.9495 69.9015C55.9495 71.2414 55.8409 71.8251 55.8409 71.8251C55.8409 71.8251 55.3629 72.0844 54.8635 72.3007C54.363 72.5169 53.7764 72.6253 53.7764 72.6253ZM61.7428 81.2002C61.7428 81.2002 59.3092 83.2176 57.5719 85.235C55.8336 87.2524 54.1538 89.3567 54.1538 89.3567C54.1538 89.3567 55.1474 84.581 59.4394 79.8756C58.6979 78.0674 58.5565 75.9539 58.5565 75.9539L60.7819 78.5142C60.8322 78.4683 60.8793 78.4214 60.9306 78.3745C64.8944 74.7182 69.0182 74.1223 71.061 74.0804C71.341 73.265 71.6046 72.4752 71.7348 72.0334C72.0825 70.8517 72.3717 69.2086 72.3717 69.2086C72.3717 69.2086 72.7768 70.1312 73.067 72.1201C73.3562 74.1089 73.3562 76.5877 73.3562 76.5877L71.1317 76.9141C70.4856 78.0592 69.5648 79.3674 68.3156 80.4501C65.3897 82.987 61.7398 81.1991 61.7398 81.1991L61.7428 81.2002ZM73.7643 84.6012C73.7643 84.6012 72.7789 86.129 69.7668 86.6769C66.7547 87.2239 64.8432 86.129 64.8432 86.129C64.8432 86.129 67.6531 86.129 70.2303 84.2268C72.8087 82.3246 73.6197 80.7103 73.6197 80.7103C73.6197 80.7103 73.7643 82.6125 73.7643 83.4195V84.6012ZM99.4001 67.8259C96.2722 69.469 92.854 69.2097 92.854 69.2097C92.854 69.2097 93.4621 70.024 95.2867 70.0199C97.1121 70.0169 97.4885 69.8434 97.4885 69.8434C97.4885 69.8434 97.0835 71.2842 93.2018 72.2649C89.32 73.2447 88.4514 72.2649 88.4514 72.2649C88.4514 72.2649 88.5097 71.3425 91.0295 68.7198C93.5493 66.0973 95.9245 65.8952 97.75 65.7513C99.5745 65.6074 101.313 65.088 102.037 64.887C102.761 64.685 103.804 64.1951 103.804 64.1951C103.804 64.1951 102.529 66.1841 99.4013 67.827L99.4001 67.8259Z" fill="#006628" />
        <path d="M43.9349 22.8201C43.9349 22.8201 43.737 21.6955 43.737 20.1821C43.737 18.6689 43.9349 17.5014 43.9349 17.5014C43.9349 17.5014 43.0571 19.4322 42.8242 20.9894C42.5925 22.5455 42.694 24.1172 42.694 24.1172L43.9349 22.8201Z" fill="white" />
        <path d="M122.253 17.3717C122.209 14.9511 121.731 12.9183 121.731 12.9183C121.731 12.9183 121.582 15.5266 121.21 17.1338C120.928 18.3471 120.602 19.1871 120.602 19.1871L121.992 21.3484C121.992 21.3484 122.297 19.7922 122.253 17.3705" fill="white" />
        <path d="M53.4695 57.5371C53.4695 57.5371 45.909 54.2941 42.215 48.8898C38.522 43.4855 38.4349 40.9352 37.8266 40.5455C37.2185 40.1566 36.6534 39.8106 36.6534 39.8106C36.6534 39.8106 37.3919 39.6811 38 38.773C38.6081 37.8647 39.5639 35.487 40.9986 32.6339C42.4324 29.7806 43.6928 27.8346 45.6916 24.7651C47.6905 21.6955 49.8625 18.8852 49.8625 18.8852C49.8625 18.8852 46.4731 21.8251 44.0405 24.8507C41.6069 27.8775 39.7824 30.5143 38.4788 32.5899C37.1754 34.6645 36.3068 36.0483 36.3068 36.0483C36.3068 36.0483 35.7858 34.0155 35.3068 32.1572C34.8289 30.298 34.5243 28.8714 34.5243 28.8714C34.5243 28.8714 33.9604 34.8809 35.2196 39.8311C36.4791 44.7815 37.7836 49.2449 41.6067 53.3849C46.0014 58.1433 52.0346 60.7781 52.0346 60.7781L53.4684 57.5351L53.4695 57.5371Z" fill="white" />
        <path d="M54.8582 55.7643C54.8582 55.7643 55.2777 55.202 55.7996 54.6834C56.3217 54.1651 56.814 53.7039 56.814 53.7039C56.814 53.7039 55.3649 51.3691 54.8582 47.9392C54.3516 44.5095 54.2356 41.8288 54.2356 41.8288C54.2356 41.8288 53.164 45.4319 53.4685 49.5537C53.7721 53.6752 54.8593 55.7652 54.8593 55.7652" fill="white" />
        <path d="M128.018 30.1839C126.57 31.884 126.164 32.1442 126.164 32.1442L126.685 35.0555C126.685 35.0555 126.858 34.9975 128.162 32.7208C129.465 30.4441 130.161 27.6482 130.161 27.6482C130.161 27.6482 129.465 28.4839 128.017 30.185" fill="white" />
        <path d="M121.343 24.8088C118.649 19.1013 113.783 15.6431 113.783 15.6431C113.783 15.6431 116.65 19.837 119.562 25.5006C122.472 31.1642 122.561 36.6552 122.561 36.6552C122.561 36.6552 119.084 41.0219 115.999 43.4863C112.914 45.9506 108.395 48.6744 105.136 50.1438C101.877 51.6142 98.097 52.7276 98.097 52.7276C98.097 52.7276 98.5749 52.3051 99.3144 51.354C100.053 50.4029 100.878 47.5498 101.313 41.1075C101.748 34.6654 99.9225 31.0335 99.9225 31.0335C99.9225 31.0335 99.9657 32.5897 99.9225 35.0981C99.8785 37.6054 99.7051 40.2861 99.7051 40.2861C99.7051 40.2861 99.14 40.2861 95.8378 38.6432C92.5356 37.0003 89.3203 34.1031 89.3203 34.1031C89.3203 34.1031 90.2331 36.438 93.8401 39.4208C97.4468 42.4035 99.3144 42.7934 99.3144 42.7934C99.3144 42.7934 99.3144 44.4791 98.011 48.3273C96.7074 52.1756 95.5342 53.4286 95.0121 53.645C94.4903 53.8613 91.7099 54.4236 89.2331 54.8124C86.7565 55.2012 83.846 55.5042 82.0636 55.5042C80.2811 55.5042 77.501 54.2501 74.894 51.1805C72.287 48.111 70.9404 40.5443 70.9404 40.5443C70.9404 40.5443 70.7229 42.7923 70.9404 45.3874C71.1578 47.9814 71.6357 50.7908 73.7648 54.6389C75.8938 58.487 79.1951 59.2219 81.4113 59.1789C83.6275 59.1351 85.6694 59.2219 91.1878 58.0543C96.7065 56.8869 99.0087 56.239 105.135 53.5583C111.262 50.8775 115.606 47.6354 118.605 44.9975C121.603 42.3597 124.732 38.2095 124.732 38.2095C124.732 38.2095 124.775 37.8196 124.732 36.5227C124.689 35.2256 124.036 30.5131 121.343 24.8067" fill="white" />
        <path d="M61.0758 103.538C63.292 100.339 64.4212 98.7826 69.114 94.761C73.807 90.7403 80.0639 90.9996 80.0639 90.9996C80.0639 90.9996 74.807 90.1352 69.8525 92.7579C64.8992 95.3804 62.09 98.2633 62.09 98.2633C62.09 98.2633 61.6265 97.1101 59.8452 96.2457C58.0637 95.3815 54.906 95.0355 52.3565 93.5946C49.8081 92.1538 49.402 89.3576 49.402 89.3576C49.402 89.3576 48.881 90.367 47.0851 92.7304C46.1663 93.9406 45.1263 94.4386 44.3306 94.6385C43.9787 96.3336 44.0003 97.2275 44.0003 97.2275C44.0003 97.2275 45.9991 98.0061 48.9108 97.9633C51.8223 97.9203 54.2549 97.3142 54.2549 97.3142L55.8188 101.594C55.8188 101.594 54.6024 101.594 52.8653 102.589C51.127 103.584 51.0838 105.27 51.0838 105.27L50.8664 105.314C50.8664 105.314 50.3885 104.622 49.3025 103.628C48.2164 102.634 46.7827 101.898 45.7827 101.769C44.7829 101.639 45.4351 102.677 46.0433 104.233C46.6525 105.789 47.6944 107.302 47.6944 107.302C47.6944 107.302 48.7374 107.648 52.3002 107.908C55.863 108.167 57.9488 107.994 57.9488 107.994C57.9488 107.994 58.8616 106.741 61.0769 103.541" fill="white" />
        <path d="M77.0199 100.4C74.1956 102.925 72.2398 104.361 69.199 107.301C66.1572 110.241 65.2013 112.532 65.2013 112.532C65.2013 112.532 64.5932 111.885 63.8538 109.765C63.1155 107.646 62.854 105.01 62.854 105.01C62.854 105.01 62.1155 105.831 61.1597 107.43C60.2038 109.03 59.248 111.062 59.248 111.062L56.9888 111.192C56.9888 111.192 56.6842 112.446 56.8586 116.855C56.9457 119.064 57.2514 122.011 58.2871 125.408L60.1752 121.438C60.1752 121.438 60.4644 124.725 64.8682 132.275C69.2709 139.828 75.1801 142.248 75.1801 142.248C75.1801 142.248 73.2684 137.349 72.3413 131.238C71.4143 125.127 71.5886 120.285 71.5886 120.285L75.9339 125.07C75.9339 125.07 76.0497 122.591 76.2814 119.536C76.5132 116.481 76.9769 113.484 78.2505 107.776C79.5253 102.07 83.2183 93.2989 83.2183 93.2989L83.2121 93.2937C81.7724 95.7572 79.6454 98.0542 77.0208 100.4" fill="#EF7C00" />
    </g>
    <defs>
        <clipPath id="clip0_1458_19919">
            <rect width="156.667" height="181.733" fill="white" transform="translate(0.667969 0.133331)" />
        </clipPath>
    </defs>
</svg>