<svg xmlns="http://www.w3.org/2000/svg" width="114" height="192" viewBox="0 0 114 192" fill="none">
    <g clip-path="url(#clip0_1458_8811)">
        <path d="M69.4509 174.853H78.7143L79.5937 169.66C61.4018 169.66 65.7392 169.66 64.2984 169.66V191.176H77.0894V185.983H69.4509V183.015H77.1626C77.4749 181.175 77.679 179.966 78.0432 177.821H69.4509V174.853ZM107.667 185.983H103.512V174.853H107.667V185.983ZM103.512 169.66C101.5 171.689 100.373 172.826 98.3592 174.853V191.176H112.819V169.66H103.512ZM90.0191 185.983H85.7777L87.6642 174.853H90.0191V185.983ZM95.172 169.661H83.3347C83.3054 169.661 83.4707 168.76 80.5528 185.983H78.7104V191.176H96.7504V185.983H95.1705C95.1705 176.643 95.172 200.22 95.172 169.661ZM48.1518 191.176H53.3043V174.853H57.491V191.176H62.6424V169.66H48.1518V191.176ZM25.2565 185.983H21.1006V174.853H25.2565V185.983ZM15.9493 174.853V191.176H30.4079V169.66H21.1018L15.9504 174.853H15.9493ZM41.3379 180.79H37.1832V174.853H41.3379V180.79ZM46.4904 181.443V169.66H32.0318V191.176H37.1832V185.983H41.9877C43.7447 184.209 44.7319 183.216 46.4904 181.443ZM1.29688 169.66V174.853H5.17271V191.176H10.3241V174.853H13.6411L18.8203 169.66H1.29688Z" fill="#006628" />
        <path d="M59.6097 158.786L57.7941 158.424C57.4486 158.356 49.243 156.623 40.8575 149.473C31.6407 141.615 28.3308 132.062 27.1791 127.068C26.1586 122.647 26.2626 117.999 26.42 115.567C25.4849 115.513 24.3095 115.422 23.3086 115.268C21.3447 114.966 20.3628 114.722 20.3228 114.711L19.6917 114.552L19.3581 113.988C19.2526 113.81 16.7685 109.589 15.2846 105.39C13.8532 101.339 13.5397 98.8605 14.132 96.2473C14.5937 94.2067 16.2855 88.4344 17.8704 84.6742C18.847 82.3615 19.7916 80.4786 20.364 79.3936C20.1305 78.9773 19.9652 78.4664 19.9332 77.8627C19.9065 77.3802 19.953 76.9609 20.0345 76.6065C18.7456 75.2345 16.447 72.2197 15.9584 67.7801C15.5394 63.9631 15.6742 61.6585 15.8304 60.4819C14.316 58.8795 10.2734 54.3795 8.42687 50.1434C4.61118 41.3936 5.37563 33.217 5.70126 30.9189C6.23222 27.163 8.99516 19.8661 8.99516 19.8661C8.99516 19.8661 11.6277 27.8218 12.092 28.9582C12.156 29.1157 12.2215 29.2761 12.2867 29.4365C12.3762 29.2976 12.4615 29.1629 12.5389 29.0375C12.962 28.3611 13.3661 27.8367 13.6571 27.4904C13.7424 25.9404 14.4802 21.6977 15.9439 17.8795C18.8885 10.2014 24.9376 7.39003 24.9376 7.39003C24.9376 7.39003 22.5563 15.5264 22.2413 17.5345C24.5803 15.2717 27.7942 12.2567 30.292 10.4939C37.3473 5.51394 42.971 5.456 42.971 5.456C42.971 5.456 30.5373 17.4914 25.0351 26.1116C20.3587 33.4379 17.4834 39.2967 16.6778 40.9935C17.0606 42.3789 18.348 46.3683 21.1231 49.2147C22.4348 50.5598 23.6155 51.6166 24.5841 52.4169C24.3335 48.6068 24.4881 42.5516 26.2653 37.6134C29.3432 29.0606 35.5473 26.1319 35.5473 26.1319C35.5473 26.1319 32.3479 37.236 33.2152 43.9694C33.7195 47.8927 34.3826 50.3158 34.843 51.6462C35.7702 51.2404 37.043 50.7471 38.4587 50.3739C39.8555 50.0061 41.2297 49.8172 42.2744 49.7202C42.0063 47.8065 41.8063 44.5192 42.1064 40.2267C42.8534 29.5281 48.9428 24.3151 48.9428 24.3151L48.8267 28.9621C48.8255 29.051 48.7307 37.9825 50.0409 42.5609C51.3964 47.2971 52.8655 49.6017 54.8335 51.6932C56.4972 53.4615 56.8575 53.4199 57.6124 53.3738L58.0142 53.3711C58.6412 53.3334 63.5217 52.5331 67.3537 51.9695C67.5564 51.6124 68.2408 50.2554 68.6811 48.9534C69.1027 47.7092 69.2841 46.5153 69.3576 46.2175C67.5819 45.1918 64.5025 43.1014 61.5297 37.9178C55.8447 28.0052 60.7146 19.2179 60.7146 19.2179C60.7146 19.2179 62.0275 27.9568 67.3229 32.2209C68.7718 33.3882 69.4017 33.8961 70.221 34.4932C70.1341 32.2856 70.0287 29.4488 69.6444 26.8326C68.7173 20.5063 66.1075 14.4145 66.1075 14.4145C66.1075 14.4145 75.2695 16.8607 78.8651 30.5227C81.1922 39.3656 80.6129 43.4681 80.3661 47.2067C82.1501 46.3549 84.3821 45.1918 87.0413 43.0003C90.7649 39.93 92.398 38.3102 93.1491 37.3357C92.769 33.9138 90.9823 25.888 84.8452 18.3486C78.3062 10.3214 65.0041 2.00169 65.0041 2.00169C65.0041 2.00169 76.4864 2.05966 85.9166 8.79573C89.4881 11.347 91.8603 13.5964 93.364 15.2258C93.5201 14.1463 93.5936 12.9118 93.5936 11.719C93.5936 5.28078 92.3755 1.12162 92.3755 1.12162C92.3755 1.12162 98.8116 5.51529 99.6721 14.0142C100.146 18.6936 99.8469 23.1763 99.7162 24.6103C100.029 25.2612 100.633 26.5563 101.03 27.6278C101.132 27.9014 101.229 28.183 101.32 28.462C101.922 27.8733 102.625 27.1277 103.34 26.2438C105.328 23.7908 106.291 22.2583 106.3 22.2422L109.234 17.5534L109.191 23.0994C109.188 23.4095 109.09 30.7654 105.759 37.0687C102.207 43.7874 98.7008 48.2297 94.0366 51.9198C90.9637 54.3498 88.6315 55.893 87.2973 56.7176C88.0739 58.7933 89.1305 62.9458 87.8004 68.0079C85.9646 74.996 83.7616 77.725 82.2659 79.1713C81.6603 79.7561 81.0467 80.2493 80.5302 80.6295C81.535 82.4705 83.4176 85.9855 84.9184 89.1823L85.2508 89.886C87.308 94.239 89.4375 98.7405 87.3041 105.018C85.3735 110.703 81.6763 115.985 75.551 124.736C74.9946 125.53 74.4195 126.352 73.8233 127.205C66.5863 137.571 63.8325 142.048 61.7914 148.124C59.7792 154.11 59.6711 156.884 59.6699 156.911L59.6112 158.781L59.6097 158.786ZM23.0606 77.2683L23.0511 77.2791C23.0511 77.2791 23.0579 77.2722 23.0606 77.2683Z" fill="#D8D9DF" />
        <path d="M21.8907 76.216C21.8907 76.216 18.1215 73.1407 17.5118 67.6054C16.9035 62.0701 17.5118 59.9609 17.5118 59.9609C17.5118 59.9609 12.0137 54.4472 9.85875 49.5051C6.64069 42.1249 6.72751 34.8321 7.24928 31.142C7.77076 27.4519 8.90083 23.4976 8.90083 23.4976C8.90083 23.4976 10.0324 28.0664 10.6407 29.5596C11.249 31.0531 11.9456 32.8106 11.9456 32.8106C11.9456 32.8106 13.1624 30.9951 13.8587 29.882C14.5553 28.7686 15.1918 28.1245 15.1918 28.1245C15.1918 28.1245 15.3076 22.9112 17.0475 18.4596C18.7873 14.008 22.9046 9.79093 22.9046 9.79093C22.9046 9.79093 20.9328 15.1213 20.6433 17.6402C20.3538 20.1592 20.2951 21.682 20.2951 21.682C20.2951 21.682 26.9636 14.8288 31.1967 11.7829C35.429 8.73697 39.6625 6.97949 39.6625 6.97949C39.6625 6.97949 29.3982 16.3518 23.7159 25.2551C18.0335 34.1584 15.0181 40.8364 15.0181 40.8364C15.0181 40.8364 16.2365 46.4591 20.0054 50.3258C23.7734 54.1913 26.5005 55.7734 26.5005 55.7734C26.5005 55.7734 24.8768 45.4065 27.7173 38.2014C30.5579 30.9966 33.2835 29.5327 33.2835 29.5327C33.2835 29.5327 30.7324 36.9724 31.6598 44.176C32.5872 51.3811 34.0373 53.7827 34.0373 53.7827C34.0373 53.7827 36.1828 52.6116 38.85 51.9082C41.517 51.2061 44.1267 51.2061 44.1267 51.2061C44.1267 51.2061 43.0832 47.047 43.6624 40.3686C44.2429 33.6918 47.258 28.9467 47.258 28.9467C47.258 28.9467 47.1421 38.1436 48.5335 43.0049C49.9252 47.8661 51.1433 50.4446 53.346 52.787C55.5489 55.1293 56.767 55.012 57.753 54.9539C58.7388 54.8947 68.6534 53.4311 68.6534 53.4311C68.6534 53.4311 69.929 51.4392 70.6253 49.3312C71.3207 47.222 71.6114 45.6411 71.6114 45.6411C71.6114 45.6411 67.0309 43.8836 62.8549 37.0883C58.6802 30.2941 60.4775 23.6161 60.4775 23.6161C60.4775 23.6161 61.5207 29.5327 66.3346 33.4559C71.1471 37.3807 72.3079 37.7324 72.3079 37.7324C72.3079 37.7324 72.3079 31.4656 71.4952 26.6621C70.6842 21.8586 68.7696 17.3491 68.7696 17.3491C68.7696 17.3491 74.0463 21.0392 76.6561 29.9424C79.2658 38.847 78.4531 47.1047 78.2798 48.5698C78.1049 50.0334 78.1049 50.3851 78.1049 50.3851C78.1049 50.3851 82.9174 48.8042 87.9636 44.6451C93.008 40.486 95.1535 37.3229 95.1535 37.3229C95.1535 37.3229 94.632 27.8925 86.0501 17.3491C77.4685 6.80566 69.35 3.75972 69.35 3.75972C69.35 3.75972 77.9903 5.04819 85.0068 10.0861C92.0234 15.124 94.2263 18.8141 94.2263 18.8141C94.2263 18.8141 95.2696 15.124 95.1535 11.6683C95.0373 8.21271 94.3422 4.87297 94.3422 4.87297C94.3422 4.87297 97.5312 8.73831 98.1114 14.1859C98.6918 19.6335 98.1114 24.9046 98.1114 24.9046C98.1114 24.9046 99.04 26.7794 99.5617 28.1849C100.084 29.5908 100.489 31.2902 100.489 31.2902C100.489 31.2902 102.461 29.8251 104.548 27.2484C106.636 24.6714 107.62 23.0893 107.62 23.0893C107.62 23.0893 107.563 30.2929 104.373 36.3268C101.183 42.3608 97.8779 46.8704 93.0655 50.6778C88.253 54.4849 85.2951 56.0658 85.2951 56.0658C85.2951 56.0658 88.0196 60.9867 86.2809 67.6054C84.5411 74.2242 82.5117 76.7431 81.1775 78.0328C79.8436 79.3213 78.4519 80.1261 78.4519 80.1261C78.4519 80.1261 81.3511 85.2948 83.4966 89.8648C85.6418 94.4337 87.8448 98.5335 85.8154 104.508C83.7861 110.483 79.6101 116.165 72.5361 126.299C65.462 136.432 62.4467 141.236 60.3012 147.62C58.156 154.004 58.0985 156.875 58.0985 156.875C58.0985 156.875 50.0384 155.236 41.8625 148.264C33.6865 141.294 30.0907 132.742 28.6993 126.708C27.3076 120.674 28.1203 114.057 28.1203 114.057C28.1203 114.057 25.4531 113.998 23.5399 113.705C21.6252 113.412 20.6981 113.178 20.6981 113.178C20.6981 113.178 18.2042 108.961 16.7553 104.86C15.3064 100.76 15.1903 98.6508 15.6534 96.6009C16.1177 94.551 17.7989 88.8687 19.3064 85.296C20.814 81.7232 22.2631 79.1746 22.2631 79.1746C22.2631 79.1746 21.5479 78.8307 21.4904 77.7769C21.4332 76.7216 21.8868 76.216 21.8868 76.216" fill="#100E09" />
        <path d="M24.0799 72.8767C24.0799 72.8767 24.6882 71.5586 25.1673 70.2851C25.6449 69.0115 26.6455 67.1217 26.6455 67.1217C26.6455 67.1217 25.3406 66.7701 24.3415 66.2876C23.3406 65.8036 20.9486 64.5732 20.9486 64.5732C20.9486 64.5732 20.4695 66.1556 21.6008 69.01C22.7311 71.866 24.0799 72.8755 24.0799 72.8755M81.7045 61.1016C81.7045 61.1016 78.3996 62.8145 74.7451 64.0449C71.0921 65.2753 68.3955 66.0652 63.3949 66.2418C58.3932 66.4169 54.9574 64.572 54.9574 64.572C54.9574 64.572 57.0456 64.8791 58.133 64.9237C59.2201 64.9683 60.221 64.6163 60.221 64.0449C60.221 63.4735 59.4818 63.2539 57.4376 63.2982C55.3938 63.3428 53.6539 63.2982 53.6539 63.2982C53.6539 63.2982 50.5227 62.1554 48.2611 59.8708C45.9995 57.5866 45.2164 54.6429 45.2164 54.6429C45.2164 54.6429 44.2599 54.4233 42.4759 54.6429C40.6934 54.8626 36.5613 55.6971 33.6475 57.9814C30.7335 60.2659 29.929 63.1662 29.929 63.1662C29.929 63.1662 30.9936 62.9465 32.2985 62.8145C33.6034 62.6825 34.7776 63.0342 34.7776 63.0342C34.7776 63.0342 33.9518 63.2982 32.6469 63.7375C31.3421 64.1769 29.7329 65.1879 27.8197 68.7242C25.9065 72.2608 25.0805 77.3136 25.0805 77.3136L28.7335 76.2582C28.7335 76.2582 26.6028 78.0157 24.428 82.408C22.2532 86.8018 20.3842 91.8531 19.4701 94.973C19.2301 95.7952 19.0565 96.5135 18.9312 97.131C19.7291 96.9274 20.7685 96.4219 21.6891 95.1927C23.4861 92.7911 24.0079 91.7669 24.0079 91.7669C24.0079 91.7669 24.4135 94.6079 26.9658 96.0729C29.5169 97.5365 32.6775 97.8882 34.46 98.767C36.2425 99.6457 36.7068 100.817 36.7068 100.817C36.7068 100.817 39.5192 97.8882 44.4774 95.2226C49.4353 92.5579 54.6972 93.4367 54.6972 93.4367C54.6972 93.4367 56.0021 92.2063 57.4376 88.8232C58.8735 85.4405 58.568 81.8824 58.568 81.8824C58.568 81.8824 59.8726 84.2113 59.8726 86.803C59.8726 89.3949 59.6124 92.4702 58.1769 95.1942C58.0741 95.3869 57.9609 95.5755 57.8501 95.7671L57.8581 95.7724C57.8581 95.7724 54.1609 104.684 52.8854 110.483C51.6098 116.282 51.1455 119.328 50.9135 122.432C50.6812 125.537 50.5654 128.055 50.5654 128.055L46.2158 123.194C46.2158 123.194 46.0424 128.114 46.9695 134.322C47.8981 140.531 49.8101 145.51 49.8101 145.51C49.8101 145.51 43.8955 143.049 39.4887 135.376C35.0819 127.703 34.7921 124.365 34.7921 124.365L32.9029 128.397C33.937 131.837 35.6967 135.728 38.6922 139.785C44.6934 147.911 53.9568 151.426 53.9568 151.426C53.9568 151.426 55.131 145.803 56.8708 141.19C58.6092 136.578 61.6978 130.911 68.221 122.652C74.7439 114.393 76.6583 111.844 76.9626 106.793C77.2669 101.741 73.5712 92.8665 73.5712 92.8665L75.8325 93.349C75.8325 93.349 75.0932 90.977 73.9193 87.8571C72.7439 84.7384 71.2228 81.5308 71.2228 81.5308C71.2228 81.5308 69.7872 81.4862 68.0047 81.2234C66.2222 80.9591 64.4823 80.6963 61.8726 78.9499C59.2631 77.2031 58.3932 75.3364 58.3932 75.3364C58.3932 75.3364 63.4376 78.6748 69.2654 78.9391C75.0932 79.2031 78.7466 74.6773 80.7477 69.8442C82.7477 65.0114 81.7045 61.1016 81.7045 61.1016ZM36.3651 70.4805C38.8884 68.5249 42.4546 68.591 42.4546 68.591C42.4546 68.591 39.0404 70.0196 36.8229 72.3039C34.6043 74.5884 34.017 75.6423 34.017 75.6423L33.43 73.7312C33.43 73.7312 33.8437 72.4362 36.3651 70.4805ZM28.3853 74.7635C28.3853 74.7635 29.0378 73.4023 29.3859 71.2931C29.7344 69.1839 29.7344 68.723 29.7344 68.723C29.7344 68.723 30.5601 70.6341 30.5601 71.9968C30.5601 73.3592 30.452 73.9521 30.452 73.9521C30.452 73.9521 29.9732 74.2152 29.4742 74.4349C28.9738 74.6546 28.3868 74.7635 28.3868 74.7635H28.3853ZM36.3586 83.4768C36.3586 83.4768 33.9237 85.5267 32.1838 87.5767C30.444 89.6266 28.7628 91.7642 28.7628 91.7642C28.7628 91.7642 29.7584 86.9122 34.0543 82.1306C33.3127 80.2919 33.1699 78.145 33.1699 78.145L35.398 80.7475C35.4487 80.7017 35.4967 80.6532 35.5474 80.6062C39.5139 76.8916 43.6421 76.2852 45.6875 76.2436C45.9675 75.4145 46.2318 74.6127 46.3612 74.1637C46.7094 72.9629 46.9989 71.2931 46.9989 71.2931C46.9989 71.2931 47.4045 72.2311 47.6955 74.2514C47.9849 76.2717 47.9849 78.7906 47.9849 78.7906L45.7595 79.1223C45.1124 80.2853 44.1918 81.6143 42.9417 82.7154C40.0131 85.2924 36.3598 83.4768 36.3598 83.4768H36.3586ZM48.3918 86.9326C48.3918 86.9326 47.406 88.485 44.3906 89.0417C41.3752 89.5984 39.462 88.485 39.462 88.485C39.462 88.485 42.2744 88.485 44.8549 86.5524C47.4353 84.6198 48.2477 82.9794 48.2477 82.9794C48.2477 82.9794 48.3932 84.9123 48.3932 85.7329V86.9338L48.3918 86.9326ZM74.05 69.8876C70.9188 71.5574 67.4977 71.2931 67.4977 71.2931C67.4977 71.2931 68.106 72.1207 69.9327 72.1165C71.759 72.1138 72.1368 71.9375 72.1368 71.9375C72.1368 71.9375 71.7312 73.4023 67.8459 74.3969C63.9609 75.393 63.0909 74.3969 63.0909 74.3969C63.0909 74.3969 63.1496 73.4604 65.6711 70.7945C68.194 68.1286 70.5703 67.9239 72.397 67.7781C74.2233 67.6315 75.9632 67.1044 76.6876 66.8994C77.4124 66.6946 78.4556 66.196 78.4556 66.196C78.4556 66.196 77.1801 68.2175 74.0488 69.8861L74.05 69.8876Z" fill="#006628" />
        <path d="M18.5376 24.1564C18.5376 24.1564 18.34 23.0133 18.34 21.477C18.34 19.9406 18.5376 18.7532 18.5376 18.7532C18.5376 18.7532 17.6582 20.7156 17.4262 22.2965C17.1939 23.8774 17.2956 25.4745 17.2956 25.4745L18.5376 24.1564Z" fill="white" />
        <path d="M96.9263 18.6224C96.8821 16.1627 96.403 14.098 96.403 14.098C96.403 14.098 96.2552 16.7477 95.8827 18.3811C95.6012 19.6143 95.2729 20.4675 95.2729 20.4675L96.6647 22.6644C96.6647 22.6644 96.9689 21.082 96.9263 18.6224Z" fill="white" />
        <path d="M28.0837 59.4342C28.0837 59.4342 20.516 56.1392 16.8188 50.6485C13.1231 45.1575 13.0351 42.5646 12.4265 42.1695C11.8182 41.7748 11.2526 41.4231 11.2526 41.4231C11.2526 41.4231 11.9916 41.2908 12.6002 40.3689C13.2085 39.4459 14.1664 37.0305 15.6007 34.1303C17.0363 31.2312 18.297 29.254 20.297 26.1353C22.297 23.0154 24.4718 20.1608 24.4718 20.1608C24.4718 20.1608 21.0789 23.1474 18.644 26.223C16.2079 29.2986 14.3827 31.978 13.0778 34.0872C11.7729 36.1952 10.903 37.6022 10.903 37.6022C10.903 37.6022 10.3812 35.5373 9.9024 33.6478C9.42477 31.7583 9.119 30.3094 9.119 30.3094C9.119 30.3094 8.55485 36.416 9.81559 41.4458C11.0763 46.4756 12.3812 51.0109 16.2079 55.2185C20.6066 60.0543 26.6454 62.731 26.6454 62.731L28.081 59.4357L28.0837 59.4342Z" fill="white" />
        <path d="M29.4746 57.633C29.4746 57.633 29.895 57.0616 30.4168 56.5345C30.9383 56.0075 31.4319 55.5384 31.4319 55.5384C31.4319 55.5384 29.9818 53.1665 29.4746 49.6811C28.9676 46.196 28.8517 43.4721 28.8517 43.4721C28.8517 43.4721 27.7789 47.1325 28.0832 51.3216C28.3874 55.5088 29.4746 57.633 29.4746 57.633Z" fill="white" />
        <path d="M102.696 31.64C101.245 33.3679 100.84 33.6322 100.84 33.6322L101.362 36.5905C101.362 36.5905 101.535 36.5312 102.84 34.2185C104.145 31.9043 104.84 29.0633 104.84 29.0633C104.84 29.0633 104.145 29.9124 102.695 31.64" fill="white" />
        <path d="M96.0124 26.178C93.3158 20.3787 88.4447 16.8651 88.4447 16.8651C88.4447 16.8651 91.3158 21.1267 94.2299 26.8816C97.1436 32.6366 97.2304 38.2162 97.2304 38.2162C97.2304 38.2162 93.7508 42.6531 90.6634 45.157C87.576 47.6613 83.0518 50.4283 79.7908 51.9227C76.5289 53.4163 72.7449 54.5482 72.7449 54.5482C72.7449 54.5482 73.224 54.1184 73.963 53.152C74.7022 52.1855 75.528 49.2853 75.963 42.7407C76.3979 36.1947 74.5716 32.5043 74.5716 32.5043C74.5716 32.5043 74.6142 34.0867 74.5716 36.6341C74.5274 39.1826 74.3541 41.9063 74.3541 41.9063C74.3541 41.9063 73.7882 41.9063 70.4836 40.2365C67.1787 38.5667 63.9607 35.623 63.9607 35.623C63.9607 35.623 64.8732 37.9953 68.4836 41.0263C72.094 44.0574 73.963 44.4537 73.963 44.4537C73.963 44.4537 73.963 46.1666 72.6581 50.0763C71.3535 53.9861 70.1793 55.2612 69.6575 55.4796C69.136 55.6993 66.3527 56.2707 63.8724 56.6655C61.3936 57.0606 58.4795 57.3691 56.697 57.3691C54.9145 57.3691 52.1314 56.0956 49.5216 52.9769C46.9122 49.8582 45.5643 42.1691 45.5643 42.1691C45.5643 42.1691 45.3471 44.4537 45.5643 47.0899C45.7818 49.7259 46.2597 52.5806 48.3916 56.4904C50.5225 60.4002 53.8271 61.1469 56.0445 61.1038C58.2635 61.0592 60.3062 61.1469 65.8297 59.9608C71.3535 58.7747 73.6575 58.1159 79.7908 55.392C85.9229 52.6683 90.2711 49.373 93.2731 46.6936C96.2737 44.0143 99.4052 39.7959 99.4052 39.7959C99.4052 39.7959 99.4491 39.3996 99.4052 38.0815C99.3611 36.7634 98.7087 31.9748 96.0136 26.1768" fill="white" />
        <path d="M35.6925 106.176C37.91 102.925 39.0413 101.343 43.7378 97.2581C48.4341 93.1718 54.6969 93.4361 54.6969 93.4361C54.6969 93.4361 49.4347 92.5573 44.4768 95.2232C39.5189 97.8876 36.7065 100.818 36.7065 100.818C36.7065 100.818 36.2422 99.6466 34.4597 98.7678C32.6757 97.8891 29.5163 97.5386 26.964 96.0735C24.4129 94.6099 24.0061 91.7674 24.0061 91.7674C24.0061 91.7674 23.4843 92.7932 21.6873 95.1948C20.7667 96.424 19.7273 96.9307 18.9294 97.1342C18.5771 98.8567 18.5984 99.7639 18.5984 99.7639C18.5984 99.7639 20.5999 100.555 23.5124 100.51C26.4262 100.467 28.8626 99.8513 28.8626 99.8513L30.4277 104.2C30.4277 104.2 29.2108 104.2 27.4709 105.211C25.7311 106.222 25.6872 107.935 25.6872 107.935L25.4698 107.98C25.4698 107.98 24.9921 107.276 23.9033 106.267C22.8159 105.256 21.3818 104.509 20.3809 104.379C19.3803 104.246 20.0328 105.3 20.641 106.883C21.2496 108.463 22.2944 110.001 22.2944 110.001C22.2944 110.001 23.3388 110.353 26.9038 110.617C30.4703 110.881 32.5583 110.705 32.5583 110.705C32.5583 110.705 33.4709 109.431 35.6899 106.18" fill="white" />
        <path d="M51.6528 102.987C48.8256 105.551 46.8686 107.011 43.825 109.998C40.7806 112.986 39.8239 115.313 39.8239 115.313C39.8239 115.313 39.2156 114.654 38.4763 112.502C37.7371 110.349 37.4757 107.67 37.4757 107.67C37.4757 107.67 36.7365 108.504 35.7797 110.13C34.8233 111.755 33.8666 113.82 33.8666 113.82L31.6052 113.952C31.6052 113.952 31.3009 115.227 31.4743 119.707C31.5611 121.952 31.8666 124.946 32.9045 128.397L34.794 124.363C34.794 124.363 35.0834 127.703 39.4902 135.376C43.897 143.05 49.8117 145.509 49.8117 145.509C49.8117 145.509 47.8985 140.531 46.9711 134.322C46.0425 128.113 46.2173 123.193 46.2173 123.193L50.5669 128.055C50.5669 128.055 50.6831 125.536 50.9151 122.432C51.1474 119.327 51.6102 116.282 52.8857 110.483C54.1625 104.683 57.8584 95.7723 57.8584 95.7723L57.8516 95.7669C56.4108 98.2708 54.2813 100.604 51.6543 102.988" fill="#EF7C00" />
    </g>
    <defs>
        <clipPath id="clip0_1458_8811">
            <rect width="112.8" height="191.133" fill="white" transform="translate(0.600098 0.433334)" />
        </clipPath>
    </defs>
</svg>