<svg xmlns="http://www.w3.org/2000/svg" width="46" height="46" viewBox="0 0 46 46" fill="none">
    <circle cx="23" cy="23" r="22.8091" fill="#002848" stroke="#002848" stroke-width="0.381818" />
    <path d="M35 8.80307L34.0724 8.04092C33.7695 9.04858 33.3904 9.95741 32.8609 10.6707C32.6074 10.1251 32.2451 9.58521 31.7897 9.07526C31.719 8.18646 31.5406 7.29099 31.2367 6.43218L30.2978 6C30.2866 6.52884 30.208 7.08212 30.0779 7.59429C29.24 7.00768 28.2922 6.57328 27.2455 6.27553L26.3011 6.94546C28.3022 7.90649 30.2866 10.4262 30.3258 13.1004C29.8514 13.4326 29.3309 13.7537 28.77 14.0603C28.5412 12.1394 27.6786 9.91965 26.4447 8.91528L25.6796 9.36747C25.996 10.1141 26.2068 10.8885 26.2786 11.685L25.0537 11.4651C25.0705 12.6127 25.3644 13.7115 26.0565 14.738C25.9892 14.9714 25.9096 15.1936 25.8187 15.4036C25.3151 15.5958 24.789 15.7802 24.2494 15.9546C23.4766 14.8158 23.2511 12.6127 23.5629 10.6907L22.5927 10.5129C21.4485 12.1095 20.9718 14.0226 20.8652 16.3946C20.5545 16.3924 20.2505 16.3702 19.9589 16.3279C19.3576 14.5869 19.1927 12.3438 19.444 10.7318L18.4759 10.5451C17.5629 11.8128 17.0738 13.5093 16.8506 15.4747C16.3065 15.0969 15.8051 14.6181 15.3542 14.0437C15.5617 11.3684 17.4215 8.47532 19.5831 7.03879L18.8618 6.39552C17.8859 6.67994 17.0626 7.11323 16.3222 7.63429C16.2583 7.14767 16.2392 6.53884 16.2931 6.00111L15.1029 6.6566C14.8539 7.38209 14.5185 8.70752 14.4254 9.52413C14.1629 9.86739 13.915 10.2352 13.6817 10.624C13.4764 9.97632 13.3351 8.99416 13.3149 8.09202L12.3861 8.9775C11.4888 11.8328 12.21 15.3714 13.9857 17.3367C13.6245 19.9965 14.2627 22.1351 15.5471 23.4884C14.947 24.5138 14.4445 25.6804 14.0182 26.9636L15.2207 30.6299H16.7575C16.8495 35.255 19.3475 38.7858 23.1154 41C24.6275 35.2083 27.7279 31.4698 31.6147 28.6656L29.8502 23.3139C31.0538 20.9986 31.5328 18.4133 31.5216 16.1924C33.4195 14.5603 34.9989 12.1528 34.9989 8.80307H35Z" fill="#C1C5C8" />
    <path d="M34 8.39666L33.7243 8.16304C33.4262 9.1974 32.8848 10.1419 32.147 11.001C31.937 10.1722 31.4526 9.35577 30.7772 8.619C30.7292 7.81826 30.5472 6.7738 30.3407 6.11006L30.1052 6C30.1052 6.365 30.0103 7.09949 29.8294 7.73515C28.9665 7.04334 27.9328 6.46945 26.8277 6.09322L26.601 6.25606C28.6272 7.41059 30.4155 10.343 30.238 12.7418C29.5124 13.2753 28.6997 13.7661 27.8179 14.2164C27.7665 12.3971 26.9382 9.83643 25.881 8.83242L25.7214 8.92787C26.0976 9.8162 26.332 11.1796 26.2584 12.5554C25.7951 12.1623 25.5037 11.7715 25.3341 11.4649L25.0036 11.4043C25.1108 12.2825 25.4769 13.3191 26.0429 14.0569C25.9458 14.4523 25.8163 14.833 25.6488 15.1879C24.9768 15.4529 24.278 15.7 23.558 15.9291C22.522 14.7083 22.3077 12.2858 22.5298 10.4395L22.2999 10.3968C21.1958 12.0287 20.8453 14.3411 20.8252 16.2818C20.228 16.3143 19.6542 16.2795 19.1038 16.1706C18.6071 14.7275 18.2152 12.6733 18.4385 10.4777L18.2085 10.4328C17.2842 11.867 16.8879 13.8548 16.7729 15.6933C15.8085 15.1811 15.0204 14.4321 14.3963 13.5864C14.5895 10.7057 16.4146 7.80703 18.414 6.38858L18.2052 6.19991C17.1983 6.57726 16.2852 7.13319 15.468 7.88902C15.3575 7.21405 15.3396 6.44923 15.3776 6.08872L14.9981 6.30548C14.7458 7.16014 14.4935 8.22481 14.4064 9.05586C13.9286 9.67472 13.4943 10.3845 13.1047 11.1908C12.6951 10.1094 12.5031 9.07721 12.5098 8.34386L12.2631 8.63248C11.7875 10.9674 11.3209 16.1279 16.9829 18.4763C16.9047 18.6133 16.8232 18.7626 16.7573 18.8907C15.7236 18.5099 14.7736 17.9327 13.9118 17.142C13.6562 19.2927 14.2233 21.5804 15.6198 22.9326C14.9299 24.0321 14.4209 25.1552 14.0067 26.5029L15.0628 29.7733H16.6971C16.7038 34.2701 18.8292 37.7808 22.3434 40C23.7042 34.8305 26.6122 31.0569 30.5506 28.0707L28.827 22.7608C30.036 20.363 30.4914 18.1562 30.5026 16.0627C29.518 16.795 28.4463 17.4296 27.2753 17.954L27.1257 17.4913C32.5377 14.943 33.8862 11.4222 33.9978 8.39666H34Z" fill="#002856" />
    <path d="M26.0617 22.713H28.5455C29.1679 21.6979 29.8275 19.8283 29.9549 18.3543C28.4643 19.2801 26.71 19.9554 25.03 20.43L25.5836 18.7465C24.3332 19.1888 22.3556 19.6411 20.768 19.6122L20.2483 18L19.0351 19.4908C18.7611 19.4506 18.4792 19.396 18.1895 19.3292C17.6799 20.108 17.1961 21.386 16.9143 22.4634H17.7915C16.6775 23.7536 15.8183 25.3168 15.2489 27.0215H17.849L18.1196 27.8437L16.6595 28.3975L15.5951 28.0766L16.0292 29.3958H18.6303C20.0126 27.6365 21.6272 26.4209 23.7266 25.7847C24.4053 25.1296 24.7695 24.2628 24.8823 23.2288C25.4878 24.3886 25.074 25.4349 24.3648 26.5524C22.3341 26.9925 20.4038 28.3685 19.1693 30.2671H17.9257C18.0384 33.9929 19.512 37.0457 22.2608 39C23.7029 34.4107 26.6333 30.8832 30 28.2693L28.6109 24.0678L26.0605 22.713H26.0617ZM20.5933 23.5508L19.1445 24.5781L19.9371 23.1898L19.202 22.4634C21.0882 22.4634 22.5563 22.0522 23.695 21.1832C23.2474 22.4634 22.2518 23.5508 20.5933 23.5508ZM27.8081 21.699H25.9016L25.9816 21.4874C26.9141 21.1765 27.6311 20.8668 28.3234 20.4634C28.2287 20.8701 27.9931 21.3837 27.807 21.699H27.8081ZM15.0032 19.3559C15.5083 19.7158 16.187 20.0289 16.7846 20.2239C16.5197 20.7609 16.2479 21.543 16.1002 22.4634C15.3527 21.7826 14.9536 20.469 15.0043 19.3548L15.0032 19.3559Z" fill="#EA0029" />
    <path d="M22.2603 31.8338C22.4157 31.1699 22.6653 30.5603 23 30H18C18.0204 30.6231 18.0885 31.2263 18.1952 31.7961L19.0426 31.4814C19.3104 33.1343 20.0388 34.6378 21.2062 36C20.8171 34.5008 20.7264 32.9943 20.9295 31.4814L22.2603 31.8348V31.8338Z" fill="white" />
    <path d="M15.3692 27.7988L15.8337 29H18.6173C19.0757 28.5029 19.4896 28.1225 20 27.7106L19.3726 26.0875H17.4915L17.0716 25L15.3233 26.0875C15.1943 26.3583 15.111 26.5552 15 26.8392H17.7824L18.0719 27.5878L16.5094 28.092L15.3704 27.7999L15.3692 27.7988Z" fill="white" />
    <path d="M17 23H18L17.2224 22C17.1439 22.319 17.0643 22.6578 17.0013 23H17Z" fill="white" />
    <path d="M20.4585 21.5301L20.3179 21.1549L19 22C20.6793 22 21.9862 21.6789 23 21L20.4585 21.5301Z" fill="white" />
    <path fill-rule="evenodd" clip-rule="evenodd" d="M32.1229 12.635C31.9608 11.0947 31.3851 9.87782 30.3878 9C30.9862 10.0852 31.6548 11.3992 31.5018 13.2039C30.4127 14.1296 29.0504 14.9583 27.5681 15.6321C27.6542 14.6293 27.5908 13.5574 27.3539 12.616C27.3245 13.7203 27.1046 15.0119 26.6184 16.0358C25.4953 16.4831 24.3246 16.84 23.1698 17.0832C22.5204 16.2522 22.3119 14.9316 22.1316 13.6879C21.9254 14.8412 21.922 16.6571 22.4104 18C26.7544 17.265 31.7149 14.9148 33 11.6278C32.7473 11.9714 32.4515 12.3071 32.1217 12.6339L32.1229 12.635Z" fill="white" />
    <path fill-rule="evenodd" clip-rule="evenodd" d="M19 17.1564C18.5573 16.1668 18.3314 14.8676 18.2915 13.6262C18.1626 14.182 17.964 15.8114 18.1352 17.116C16.2938 16.5166 15.0342 15.5095 14.1637 14.2844C14.2493 12.2137 14.8939 11.0725 15.3275 10C14.6132 10.7063 13.9458 12 13.6435 13.4464C13.3868 12.9722 13.1746 12.4752 13 11.963C13.1073 14.2932 14.3292 16.7161 18.1911 18C18.474 17.6872 18.7763 17.3722 19 17.1564Z" fill="white" />
    </svg>