<svg xmlns="http://www.w3.org/2000/svg" width="72" height="122" viewBox="0 0 72 122" fill="none">
    <g clip-path="url(#clip0_1_2273)">
        <path d="M43.9474 111.332H49.8601L50.4215 108.017C38.8096 108.017 41.5782 108.017 40.6585 108.017V121.75H48.823V118.436H43.9474V116.541H48.8697C49.069 115.367 49.1993 114.596 49.4318 113.226H43.9474V111.332ZM68.3404 118.436H65.6885V111.332H68.3404V118.436ZM65.6885 108.017C64.4042 109.312 63.6846 110.038 62.3995 111.332V121.75H71.6293V108.017H65.6885ZM57.076 118.436H54.3687L55.5728 111.332H57.076V118.436ZM60.3651 108.018H52.8093C52.7906 108.018 52.8962 107.442 51.0337 118.436H49.8577V121.75H61.3725V118.436H60.3641C60.3641 112.474 60.3651 127.524 60.3651 108.018ZM30.3521 121.75H33.641V111.332H36.3133V121.75H39.6015V108.017H30.3521V121.75ZM15.7381 118.436H13.0855V111.332H15.7381V118.436ZM9.79734 111.332V121.75H19.0262V108.017H13.0862L9.7981 111.332H9.79734ZM26.0029 115.121H23.3509V111.332H26.0029V115.121ZM29.2917 115.538V108.017H20.0628V121.75H23.3509V118.436H26.4176C27.5391 117.304 28.1693 116.67 29.2917 115.538ZM0.444763 108.017V111.332H2.9187V121.75H6.20682V111.332H8.32407L11.63 108.017H0.444763Z" fill="#006628" />
        <path d="M37.6659 101.076L36.5069 100.845C36.2864 100.802 31.0488 99.6954 25.6964 95.1315C19.8133 90.1162 17.7006 84.0187 16.9655 80.8306C16.3141 78.0088 16.3805 75.0417 16.4809 73.4899C15.884 73.4555 15.1338 73.397 14.4949 73.2988C13.2414 73.1063 12.6146 72.9506 12.5891 72.9435L12.1863 72.8421L11.9733 72.4816C11.906 72.3681 10.3204 69.6738 9.37324 66.994C8.45958 64.408 8.25949 62.826 8.63755 61.158C8.93221 59.8555 10.0121 56.171 11.0237 53.7709C11.6471 52.2947 12.25 51.0928 12.6154 50.4003C12.4664 50.1346 12.3608 49.8085 12.3404 49.4231C12.3234 49.1152 12.3531 48.8475 12.4051 48.6213C11.5824 47.7456 10.1152 45.8212 9.80331 42.9874C9.53589 40.551 9.62194 39.08 9.72161 38.329C8.75499 37.3062 6.17458 34.4338 4.99596 31.73C2.56041 26.145 3.04836 20.9259 3.2562 19.459C3.59511 17.0616 5.3587 12.404 5.3587 12.404C5.3587 12.404 7.03907 17.4821 7.33543 18.2075C7.37628 18.308 7.41808 18.4104 7.45968 18.5128C7.5168 18.4241 7.57127 18.3382 7.62063 18.2581C7.8907 17.8264 8.14866 17.4917 8.33438 17.2706C8.38885 16.2812 8.85977 13.5732 9.79405 11.136C11.6736 6.23508 15.5347 4.44056 15.5347 4.44056C15.5347 4.44056 14.0147 9.63398 13.8137 10.9158C15.3066 9.4714 17.3581 7.54698 18.9524 6.42175C23.4558 3.24306 27.0454 3.20608 27.0454 3.20608C27.0454 3.20608 19.109 10.8883 15.597 16.3905C12.612 21.0669 10.7767 24.8065 10.2625 25.8896C10.5069 26.7739 11.3286 29.3203 13.0999 31.1372C13.9372 31.9957 14.6909 32.6703 15.3091 33.1811C15.1491 30.7491 15.2478 26.8841 16.3822 23.7321C18.3468 18.2728 22.3069 16.4035 22.3069 16.4035C22.3069 16.4035 20.2647 23.4912 20.8183 27.7891C21.1402 30.2933 21.5634 31.84 21.8573 32.6892C22.4491 32.4301 23.2616 32.1153 24.1652 31.8771C25.0568 31.6423 25.9339 31.5217 26.6008 31.4598C26.4296 30.2383 26.302 28.1401 26.4935 25.4001C26.9703 18.5712 30.8572 15.2438 30.8572 15.2438L30.7831 18.21C30.7823 18.2667 30.7218 23.9677 31.5581 26.8901C32.4234 29.9131 33.361 31.3842 34.6172 32.7192C35.6791 33.8479 35.9091 33.8213 36.391 33.7919L36.6474 33.7902C37.0476 33.7661 40.1629 33.2553 42.6088 32.8955C42.7382 32.6676 43.1751 31.8014 43.4561 30.9704C43.7252 30.1762 43.841 29.4141 43.8879 29.224C42.7545 28.5693 40.7889 27.2351 38.8914 23.9264C35.2627 17.5992 38.3711 11.9903 38.3711 11.9903C38.3711 11.9903 39.2091 17.5683 42.5892 20.2901C43.514 21.0351 43.9161 21.3593 44.439 21.7405C44.3836 20.3313 44.3163 18.5206 44.071 16.8507C43.4792 12.8127 41.8134 8.92427 41.8134 8.92427C41.8134 8.92427 47.6615 10.4857 49.9565 19.2061C51.4419 24.8505 51.0722 27.4691 50.9146 29.8554C52.0533 29.3117 53.478 28.5693 55.1754 27.1705C57.5521 25.2108 58.5946 24.1769 59.074 23.5548C58.8314 21.3706 57.6909 16.2478 53.7736 11.4354C49.5998 6.31163 41.1091 1.0012 41.1091 1.0012C41.1091 1.0012 48.4382 1.0382 54.4575 5.33782C56.7372 6.9663 58.2513 8.40209 59.2111 9.44215C59.3108 8.75308 59.3577 7.96508 59.3577 7.20373C59.3577 3.09424 58.5802 0.439453 58.5802 0.439453C58.5802 0.439453 62.6884 3.24392 63.2376 8.66877C63.54 11.6556 63.3492 14.5169 63.2658 15.4322C63.4651 15.8477 63.8507 16.6744 64.1045 17.3583C64.1694 17.5329 64.2314 17.7127 64.2893 17.8907C64.6734 17.515 65.1222 17.0391 65.5788 16.4749C66.8476 14.9091 67.4626 13.931 67.4685 13.9207L69.3412 10.9278L69.3132 14.4678C69.3115 14.6657 69.2493 19.361 67.1228 23.3844C64.8557 27.673 62.6176 30.5084 59.6404 32.8638C57.679 34.4149 56.1904 35.3999 55.3388 35.9263C55.8345 37.2511 56.5089 39.9017 55.6599 43.1328C54.4881 47.5933 53.082 49.3352 52.1273 50.2584C51.7407 50.6317 51.349 50.9465 51.0194 51.1891C51.6607 52.3642 52.8624 54.6079 53.8203 56.6484L54.0325 57.0976C55.3456 59.8761 56.7048 62.7494 55.3432 66.7565C54.1108 70.3852 51.7509 73.7566 47.8412 79.3423C47.486 79.849 47.1189 80.3738 46.7384 80.9183C42.119 87.5347 40.3613 90.3923 39.0584 94.2705C37.7741 98.0918 37.705 99.8622 37.7043 99.8794L37.6668 101.073L37.6659 101.076ZM14.3366 49.0437L14.3306 49.0506C14.3306 49.0506 14.3349 49.0462 14.3366 49.0437Z" fill="#D8D9DF" />
        <path d="M13.5896 48.3718C13.5896 48.3718 11.1837 46.4088 10.7945 42.8756C10.4062 39.3425 10.7945 37.9962 10.7945 37.9962C10.7945 37.9962 7.28511 34.4768 5.90961 31.3222C3.85553 26.6115 3.91094 21.9565 4.24399 19.6011C4.57685 17.2457 5.29817 14.7217 5.29817 14.7217C5.29817 14.7217 6.02043 17.638 6.40871 18.5911C6.79698 19.5444 7.24161 20.6662 7.24161 20.6662C7.24161 20.6662 8.01834 19.5073 8.46279 18.7968C8.90742 18.0861 9.31366 17.675 9.31366 17.675C9.31366 17.675 9.38761 14.3474 10.4981 11.506C11.6087 8.66453 14.2368 5.97275 14.2368 5.97275C14.2368 5.97275 12.9781 9.37509 12.7934 10.9829C12.6086 12.5908 12.5711 13.5628 12.5711 13.5628C12.5711 13.5628 16.8276 9.18843 19.5296 7.24423C22.231 5.30001 24.9333 4.17822 24.9333 4.17822C24.9333 4.17822 18.3816 10.1605 14.7546 15.8435C11.1275 21.5265 9.20283 25.789 9.20283 25.789C9.20283 25.789 9.98051 29.378 12.3862 31.8461C14.7913 34.3134 16.532 35.3233 16.532 35.3233C16.532 35.3233 15.4956 28.7061 17.3087 24.1071C19.1218 19.5083 20.8616 18.5739 20.8616 18.5739C20.8616 18.5739 19.2332 23.3227 19.8252 27.9207C20.4172 32.5197 21.3427 34.0526 21.3427 34.0526C21.3427 34.0526 22.7122 33.3051 24.4147 32.8561C26.117 32.4079 27.7828 32.4079 27.7828 32.4079C27.7828 32.4079 27.1167 29.7532 27.4864 25.4904C27.8569 21.2286 29.7815 18.1998 29.7815 18.1998C29.7815 18.1998 29.7075 24.0702 30.5956 27.1731C31.484 30.2761 32.2614 31.9219 33.6674 33.417C35.0735 34.9121 35.851 34.8373 36.4804 34.8002C37.1096 34.7624 43.4381 33.8282 43.4381 33.8282C43.4381 33.8282 44.2523 32.5568 44.6968 31.2112C45.1406 29.865 45.3262 28.8559 45.3262 28.8559C45.3262 28.8559 42.4025 27.7341 39.737 23.3966C37.0722 19.0599 38.2194 14.7973 38.2194 14.7973C38.2194 14.7973 38.8853 18.5739 41.958 21.0781C45.0298 23.5832 45.7708 23.8077 45.7708 23.8077C45.7708 23.8077 45.7708 19.8076 45.252 16.7416C44.7344 13.6755 43.5123 10.7971 43.5123 10.7971C43.5123 10.7971 46.8804 13.1525 48.5462 18.8354C50.212 24.5192 49.6932 29.7901 49.5826 30.7252C49.471 31.6594 49.471 31.8839 49.471 31.8839C49.471 31.8839 52.5428 30.8748 55.7637 28.2201C58.9836 25.5653 60.353 23.5464 60.353 23.5464C60.353 23.5464 60.0202 17.527 54.5424 10.7971C49.0648 4.06726 43.8828 2.12305 43.8828 2.12305C43.8828 2.12305 49.3978 2.94547 53.8765 6.16114C58.3551 9.37683 59.7613 11.7322 59.7613 11.7322C59.7613 11.7322 60.4272 9.37681 60.353 7.1711C60.2789 4.96538 59.8352 2.83364 59.8352 2.83364C59.8352 2.83364 61.8708 5.30087 62.2411 8.77808C62.6116 12.2553 62.2411 15.6198 62.2411 15.6198C62.2411 15.6198 62.8338 16.8165 63.1668 17.7136C63.4999 18.6109 63.7588 19.6957 63.7588 19.6957C63.7588 19.6957 65.0174 18.7605 66.3494 17.1158C67.6822 15.4709 68.3106 14.4611 68.3106 14.4611C68.3106 14.4611 68.2739 19.0591 66.2378 22.9106C64.2015 26.762 62.092 29.6405 59.0203 32.0708C55.9485 34.5008 54.0605 35.5099 54.0605 35.5099C54.0605 35.5099 55.7995 38.6509 54.6897 42.8756C53.5792 47.1004 52.2839 48.7082 51.4322 49.5314C50.5808 50.3539 49.6925 50.8676 49.6925 50.8676C49.6925 50.8676 51.5431 54.1667 52.9125 57.0838C54.2818 60 55.6879 62.617 54.3926 66.4306C53.0973 70.2442 50.4318 73.871 45.9164 80.3393C41.4011 86.8077 39.4764 89.8738 38.1069 93.9487C36.7376 98.0239 36.701 99.8562 36.701 99.8562C36.701 99.8562 31.5562 98.8102 26.3375 94.3601C21.1188 89.9107 18.8236 84.4523 17.9355 80.6009C17.0471 76.7494 17.5659 72.5257 17.5659 72.5257C17.5659 72.5257 15.8634 72.4876 14.6422 72.301C13.4201 72.1136 12.8283 71.9647 12.8283 71.9647C12.8283 71.9647 11.2365 69.2729 10.3117 66.6551C9.38685 64.0381 9.31271 62.6919 9.60831 61.3834C9.90467 60.0749 10.9778 56.448 11.94 54.1675C12.9023 51.887 13.8273 50.2602 13.8273 50.2602C13.8273 50.2602 13.3708 50.0407 13.3341 49.3681C13.2976 48.6944 13.5871 48.3718 13.5871 48.3718" fill="#100E09" />
        <path d="M14.9872 46.2405C14.9872 46.2405 15.3755 45.3991 15.6813 44.5862C15.9862 43.7733 16.6248 42.5671 16.6248 42.5671C16.6248 42.5671 15.7919 42.3426 15.1542 42.0346C14.5154 41.7257 12.9886 40.9403 12.9886 40.9403C12.9886 40.9403 12.6827 41.9504 13.4048 43.7724C14.1263 45.5953 14.9872 46.2397 14.9872 46.2397M51.7689 38.7244C51.7689 38.7244 49.6594 39.8178 47.3267 40.6031C44.995 41.3885 43.2738 41.8927 40.0819 42.0054C36.8893 42.1172 34.6963 40.9396 34.6963 40.9396C34.6963 40.9396 36.0292 41.1356 36.7233 41.164C37.4172 41.1925 38.056 40.9678 38.056 40.6031C38.056 40.2384 37.5842 40.0982 36.2794 40.1265C34.9748 40.1549 33.8643 40.1265 33.8643 40.1265C33.8643 40.1265 31.8656 39.3971 30.422 37.9388C28.9785 36.4808 28.4786 34.6019 28.4786 34.6019C28.4786 34.6019 27.8681 34.4616 26.7294 34.6019C25.5916 34.7421 22.9541 35.2747 21.0942 36.7328C19.2342 38.191 18.7207 40.0422 18.7207 40.0422C18.7207 40.0422 19.4002 39.902 20.2332 39.8178C21.0661 39.7335 21.8156 39.958 21.8156 39.958C21.8156 39.958 21.2885 40.1265 20.4556 40.4069C19.6227 40.6874 18.5955 41.3327 17.3743 43.5899C16.1532 45.8473 15.6259 49.0725 15.6259 49.0725L17.9576 48.3989C17.9576 48.3989 16.5976 49.5207 15.2094 52.3243C13.8213 55.1288 12.6283 58.353 12.0448 60.3445C11.8916 60.8693 11.7808 61.3278 11.7008 61.7219C12.2101 61.592 12.8736 61.2693 13.4612 60.4847C14.6082 58.9518 14.9413 58.298 14.9413 58.298C14.9413 58.298 15.2002 60.1114 16.8293 61.0466C18.4577 61.9808 20.475 62.2052 21.6128 62.7661C22.7506 63.327 23.0469 64.0746 23.0469 64.0746C23.0469 64.0746 24.8421 62.2052 28.0069 60.5038C31.1715 58.8029 34.5302 59.3638 34.5302 59.3638C34.5302 59.3638 35.3631 58.5785 36.2794 56.4191C37.1959 54.2599 37.0009 51.9888 37.0009 51.9888C37.0009 51.9888 37.8336 53.4753 37.8336 55.1295C37.8336 56.784 37.6676 58.747 36.7513 60.4857C36.6857 60.6087 36.6134 60.729 36.5427 60.8513L36.5478 60.8547C36.5478 60.8547 34.1879 66.5427 33.3737 70.2446C32.5595 73.9462 32.2632 75.8905 32.1151 77.8716C31.9668 79.8537 31.8929 81.4608 31.8929 81.4608L29.1165 78.3576C29.1165 78.3576 29.0059 81.4986 29.5976 85.4608C30.1904 89.4242 31.4108 92.6021 31.4108 92.6021C31.4108 92.6021 27.6355 91.0311 24.8226 86.1337C22.0098 81.2361 21.8248 79.1052 21.8248 79.1052L20.619 81.6791C21.279 83.8746 22.4022 86.3582 24.3143 88.9476C28.1448 94.135 34.0576 96.3786 34.0576 96.3786C34.0576 96.3786 34.8071 92.7895 35.9176 89.8449C37.0272 86.9009 38.9986 83.2835 43.1624 78.0118C47.326 72.7402 48.5479 71.1134 48.7421 67.8892C48.9364 64.6647 46.5774 58.9999 46.5774 58.9999L48.0208 59.3079C48.0208 59.3079 47.549 57.7938 46.7996 55.8024C46.0494 53.8117 45.0784 51.7643 45.0784 51.7643C45.0784 51.7643 44.1621 51.7358 43.0243 51.5681C41.8866 51.3994 40.776 51.2317 39.1102 50.1169C37.4446 49.002 36.8893 47.8105 36.8893 47.8105C36.8893 47.8105 40.1092 49.9414 43.8291 50.1101C47.549 50.2786 49.8809 47.3898 51.1582 44.3048C52.4348 41.22 51.7689 38.7244 51.7689 38.7244ZM22.8289 44.711C24.4395 43.4627 26.7158 43.5049 26.7158 43.5049C26.7158 43.5049 24.5365 44.4168 23.1211 45.8748C21.7049 47.333 21.3301 48.0057 21.3301 48.0057L20.9554 46.7859C20.9554 46.7859 21.2194 45.9592 22.8289 44.711ZM17.7354 47.4448C17.7354 47.4448 18.1518 46.5759 18.3741 45.2296C18.5965 43.8834 18.5965 43.5892 18.5965 43.5892C18.5965 43.5892 19.1236 44.809 19.1236 45.6788C19.1236 46.5484 19.0545 46.9269 19.0545 46.9269C19.0545 46.9269 18.7489 47.0948 18.4304 47.235C18.111 47.3753 17.7363 47.4448 17.7363 47.4448H17.7354ZM22.8247 53.0065C22.8247 53.0065 21.2705 54.3149 20.16 55.6234C19.0494 56.9319 17.9763 58.2963 17.9763 58.2963C17.9763 58.2963 18.6118 55.1993 21.3539 52.1472C20.8805 50.9736 20.7894 49.6032 20.7894 49.6032L22.2116 51.2643C22.2439 51.2351 22.2746 51.2042 22.3069 51.1742C24.8387 48.8031 27.4738 48.4161 28.7793 48.3895C28.958 47.8603 29.1267 47.3485 29.2094 47.062C29.4316 46.2955 29.6164 45.2296 29.6164 45.2296C29.6164 45.2296 29.8753 45.8284 30.061 47.1179C30.2458 48.4075 30.2458 50.0153 30.2458 50.0153L28.8253 50.227C28.4122 50.9694 27.8246 51.8176 27.0267 52.5205C25.1574 54.1653 22.8255 53.0065 22.8255 53.0065H22.8247ZM30.5054 55.2123C30.5054 55.2123 29.8762 56.2032 27.9515 56.5586C26.0268 56.9139 24.8056 56.2032 24.8056 56.2032C24.8056 56.2032 26.6008 56.2032 28.2479 54.9696C29.8949 53.7361 30.4135 52.689 30.4135 52.689C30.4135 52.689 30.5064 53.9227 30.5064 54.4466V55.213L30.5054 55.2123ZM46.883 44.3325C44.8844 45.3983 42.7008 45.2296 42.7008 45.2296C42.7008 45.2296 43.089 45.7579 44.255 45.7552C45.4207 45.7535 45.6619 45.641 45.6619 45.641C45.6619 45.641 45.403 46.5759 42.923 47.2108C40.4432 47.8466 39.8879 47.2108 39.8879 47.2108C39.8879 47.2108 39.9254 46.613 41.5348 44.9114C43.1452 43.2097 44.662 43.0791 45.8279 42.986C46.9937 42.8924 48.1042 42.556 48.5666 42.4251C49.0292 42.2944 49.6951 41.9762 49.6951 41.9762C49.6951 41.9762 48.881 43.2665 46.8823 44.3316L46.883 44.3325Z" fill="#006628" />
        <path d="M11.4493 15.1422C11.4493 15.1422 11.3232 14.4126 11.3232 13.432C11.3232 12.4513 11.4493 11.6934 11.4493 11.6934C11.4493 11.6934 10.888 12.9459 10.7399 13.955C10.5917 14.9641 10.6565 15.9835 10.6565 15.9835L11.4493 15.1422Z" fill="white" />
        <path d="M61.485 11.6101C61.4568 10.0401 61.151 8.72217 61.151 8.72217C61.151 8.72217 61.0566 10.4134 60.8189 11.4561C60.6392 12.2432 60.4297 12.7878 60.4297 12.7878L61.318 14.1901C61.318 14.1901 61.5122 13.1801 61.485 11.6101Z" fill="white" />
        <path d="M17.5428 37.6599C17.5428 37.6599 12.7124 35.5567 10.3525 32.052C7.99357 28.5471 7.9374 26.8921 7.54894 26.6399C7.16067 26.3879 6.79963 26.1634 6.79963 26.1634C6.79963 26.1634 7.2713 26.079 7.65977 25.4906C8.04804 24.9014 8.65948 23.3597 9.57503 21.5085C10.4913 19.658 11.2961 18.396 12.5726 16.4053C13.8492 14.4139 15.2374 12.5918 15.2374 12.5918C15.2374 12.5918 13.0717 14.4981 11.5175 16.4613C9.96254 18.4244 8.79754 20.1347 7.96463 21.481C7.13173 22.8265 6.57646 23.7246 6.57646 23.7246C6.57646 23.7246 6.24341 22.4066 5.93779 21.2005C5.63292 19.9944 5.43774 19.0696 5.43774 19.0696C5.43774 19.0696 5.07765 22.9675 5.88237 26.178C6.6871 29.3885 7.52 32.2833 9.96254 34.969C12.7703 38.0557 16.6248 39.7642 16.6248 39.7642L17.5411 37.6609L17.5428 37.6599Z" fill="white" />
        <path d="M18.4304 36.5105C18.4304 36.5105 18.6988 36.1458 19.0318 35.8094C19.3647 35.473 19.6797 35.1736 19.6797 35.1736C19.6797 35.1736 18.7542 33.6596 18.4304 31.4349C18.1068 29.2104 18.0328 27.4717 18.0328 27.4717C18.0328 27.4717 17.348 29.8081 17.5423 32.482C17.7365 35.1547 18.4304 36.5105 18.4304 36.5105Z" fill="white" />
        <path d="M65.1675 19.9191C64.2417 21.022 63.9828 21.1907 63.9828 21.1907L64.3158 23.079C64.3158 23.079 64.4265 23.0412 65.2594 21.565C66.0923 20.0878 66.536 18.2744 66.536 18.2744C66.536 18.2744 66.0923 18.8164 65.1667 19.9191" fill="white" />
        <path d="M60.9017 16.4326C59.1804 12.731 56.0712 10.4883 56.0712 10.4883C56.0712 10.4883 57.9039 13.2084 59.7639 16.8818C61.6237 20.5552 61.6792 24.1166 61.6792 24.1166C61.6792 24.1166 59.4581 26.9487 57.4874 28.5469C55.5167 30.1454 52.629 31.9116 50.5475 32.8655C48.4654 33.8188 46.0501 34.5413 46.0501 34.5413C46.0501 34.5413 46.3559 34.267 46.8276 33.6501C47.2995 33.0332 47.8266 31.182 48.1042 27.0046C48.3818 22.8263 47.2161 20.4707 47.2161 20.4707C47.2161 20.4707 47.2433 21.4808 47.2161 23.1068C47.1879 24.7335 47.0772 26.472 47.0772 26.472C47.0772 26.472 46.716 26.472 44.6067 25.4062C42.4972 24.3403 40.4431 22.4614 40.4431 22.4614C40.4431 22.4614 41.0256 23.9756 43.3301 25.9103C45.6346 27.845 46.8276 28.098 46.8276 28.098C46.8276 28.098 46.8276 29.1913 45.9947 31.6869C45.162 34.1825 44.4125 34.9964 44.0794 35.1358C43.7466 35.2761 41.9699 35.6408 40.3868 35.8928C38.8046 36.1449 36.9445 36.3419 35.8067 36.3419C34.669 36.3419 32.8925 35.529 31.2267 33.5383C29.5611 31.5477 28.7008 26.6397 28.7008 26.6397C28.7008 26.6397 28.5621 28.098 28.7008 29.7807C28.8396 31.4632 29.1447 33.2854 30.5054 35.781C31.8656 38.2766 33.9749 38.7533 35.3903 38.7257C36.8066 38.6973 38.1105 38.7533 41.6361 37.9962C45.162 37.239 46.6326 36.8186 50.5475 35.0799C54.4616 33.3414 57.237 31.238 59.1532 29.5277C61.0685 27.8175 63.0673 25.1249 63.0673 25.1249C63.0673 25.1249 63.0953 24.872 63.0673 24.0306C63.0392 23.1893 62.6227 20.1328 60.9024 16.4319" fill="white" />
        <path d="M22.3998 67.4956C23.8152 65.4205 24.5373 64.4106 27.5351 61.803C30.5327 59.1947 34.5302 59.3634 34.5302 59.3634C34.5302 59.3634 31.1714 58.8025 28.0068 60.5041C24.8421 62.2048 23.047 64.0751 23.047 64.0751C23.047 64.0751 22.7506 63.3276 21.6128 62.7667C20.4741 62.2058 18.4575 61.982 16.8284 61.0469C15.2 60.1127 14.9403 58.2983 14.9403 58.2983C14.9403 58.2983 14.6073 58.9531 13.4602 60.486C12.8726 61.2706 12.2092 61.594 11.6999 61.7239C11.475 62.8234 11.4886 63.4025 11.4886 63.4025C11.4886 63.4025 12.7662 63.9074 14.6253 63.8789C16.4851 63.8514 18.0403 63.4582 18.0403 63.4582L19.0392 66.2343C19.0392 66.2343 18.2625 66.2343 17.152 66.8797C16.0414 67.5248 16.0134 68.6182 16.0134 68.6182L15.8746 68.6466C15.8746 68.6466 15.5697 68.1975 14.8747 67.5531C14.1806 66.9079 13.2653 66.4313 12.6264 66.348C11.9877 66.2635 12.4042 66.9364 12.7924 67.9463C13.1809 68.9553 13.8478 69.9369 13.8478 69.9369C13.8478 69.9369 14.5144 70.1614 16.79 70.3301C19.0665 70.4988 20.3992 70.3861 20.3992 70.3861C20.3992 70.3861 20.9817 69.573 22.3981 67.4981" fill="white" />
        <path d="M32.5869 65.4594C30.7823 67.0965 29.5331 68.0282 27.5904 69.9346C25.6472 71.8418 25.0365 73.3274 25.0365 73.3274C25.0365 73.3274 24.6482 72.9067 24.1764 71.5329C23.7045 70.1591 23.5377 68.4489 23.5377 68.4489C23.5377 68.4489 23.0658 68.9813 22.4552 70.0189C21.8447 71.0563 21.234 72.3743 21.234 72.3743L19.7906 72.4585C19.7906 72.4585 19.5963 73.2724 19.707 76.1319C19.7624 77.5651 19.9574 79.4758 20.6199 81.6789L21.8259 79.1042C21.8259 79.1042 22.0107 81.2358 24.8236 86.1335C27.6364 91.0318 31.4117 92.6016 31.4117 92.6016C31.4117 92.6016 30.1905 89.4238 29.5986 85.4606C29.0059 81.4974 29.1174 78.3574 29.1174 78.3574L31.8938 81.4603C31.8938 81.4603 31.9679 79.8525 32.116 77.8714C32.2643 75.8893 32.5597 73.946 33.3739 70.2443C34.1888 66.5425 36.5479 60.8545 36.5479 60.8545L36.5436 60.8511C35.6239 62.4493 34.2646 63.9385 32.5879 65.4604" fill="#EF7C00" />
    </g>
    <defs>
        <clipPath id="clip0_1_2273">
            <rect width="72" height="122" fill="white" />
        </clipPath>
    </defs>
  </svg>