<svg xmlns="http://www.w3.org/2000/svg" width="125" height="190" viewBox="0 0 125 190" fill="none">
    <g clip-path="url(#clip0_1458_16440)">
        <path d="M124.1 15.1819L119.108 11.054C117.478 16.5117 115.438 21.4341 112.589 25.2972C111.225 22.3426 109.275 19.4182 106.825 16.6562C106.444 11.8423 105.484 6.99224 103.849 2.34079L98.7964 0C98.7362 2.86429 98.3137 5.86095 97.6134 8.63498C93.1043 5.45781 88.0039 3.10499 82.372 1.49233L77.2896 5.12082C88.0581 10.3259 98.7362 23.9733 98.9474 38.4572C96.3942 40.2566 93.5934 41.9954 90.5751 43.6564C89.3439 33.2524 84.702 21.2296 78.0623 15.7897L73.9455 18.2389C75.6478 22.2826 76.7826 26.4768 77.1689 30.791L70.5774 29.5998C70.6678 35.8158 72.2495 41.7671 75.9736 47.3269C75.6115 48.5907 75.183 49.7942 74.6939 50.9314C71.9838 51.9725 69.153 52.9715 66.2494 53.9162C62.0907 47.7481 60.8771 35.8158 62.5552 25.4056L57.3341 24.4427C51.1772 33.09 48.6117 43.4518 48.0382 56.299C46.3664 56.287 44.7306 56.1667 43.1613 55.938C39.9259 46.5085 39.0385 34.3594 40.3907 25.6283L35.1813 24.6174C30.2678 31.4831 27.6362 40.6716 26.4349 51.3166C23.5074 49.2705 20.8093 46.6772 18.3828 43.5662C19.4993 29.0761 29.5074 13.4068 41.1391 5.62628L37.2577 2.14221C32.0064 3.68268 27.5757 6.02946 23.5919 8.85162C23.2477 6.216 23.1453 2.91844 23.4349 0.00603146L17.0306 3.55629C15.6907 7.48567 13.8856 14.6644 13.3849 19.0874C11.9722 20.9465 10.6382 22.9385 9.38275 25.0446C8.27823 21.5365 7.51751 16.2169 7.4088 11.3308L2.41087 16.1267C-2.41783 31.5915 1.46328 50.7571 11.0186 61.4017C9.07488 75.8076 12.5094 87.3909 19.4208 94.7203C16.1914 100.274 13.4873 106.593 11.1935 113.543L17.6643 133.4H25.9339C26.429 158.451 39.8714 177.574 60.147 189.567C68.2836 158.198 84.9677 137.949 105.883 122.761L96.3879 93.7754C102.865 81.2352 105.442 67.2326 105.382 55.2038C115.595 46.3643 124.094 33.3246 124.094 15.1819H124.1Z" fill="#C1C5C8" />
        <path d="M122.06 16.9125L120.569 15.6613C118.957 21.201 116.028 26.2594 112.037 30.8606C110.901 26.4217 108.28 22.0491 104.627 18.1032C104.367 13.8147 103.383 8.22096 102.266 4.6662L100.992 4.07674C100.992 6.03156 100.479 9.96524 99.5001 13.3696C94.8325 9.66451 89.2408 6.59095 83.2626 4.57599L82.0366 5.44813C92.9967 11.6314 102.671 27.3361 101.71 40.1837C97.7854 43.0409 93.3892 45.6692 88.6188 48.0811C88.341 38.3373 83.8603 24.6234 78.1416 19.2462L77.2781 19.7574C79.3131 24.5151 80.5814 31.8171 80.1829 39.1851C77.6769 37.08 76.1007 34.9868 75.1829 33.3448L73.3955 33.0201C73.9752 37.7237 75.9556 43.2755 79.0174 47.227C78.4919 49.3444 77.7914 51.3833 76.8856 53.284C73.2504 54.7034 69.4702 56.0266 65.5756 57.2538C59.9716 50.7157 58.8121 37.7416 60.0138 27.8533L58.7698 27.6247C52.7977 36.3643 50.9017 48.7487 50.793 59.1426C47.5622 59.3168 44.4585 59.1303 41.4813 58.5469C38.7944 50.8181 36.6746 39.8169 37.8823 28.0578L36.6383 27.8172C31.6384 35.4983 29.4947 46.1443 28.8727 55.9908C23.6555 53.2479 19.3923 49.2361 16.0166 44.7067C17.0613 29.279 26.9345 13.7546 37.7496 6.15786L36.6204 5.14736C31.1734 7.16835 26.234 10.1457 21.8138 14.1937C21.2158 10.5788 21.1193 6.48268 21.3245 4.5519L19.2716 5.71278C17.9068 10.2901 16.5421 15.9921 16.0711 20.4429C13.4863 23.7573 11.1374 27.5585 9.0299 31.8771C6.81397 26.0851 5.77521 20.5572 5.81146 16.6297L4.477 18.1754C1.90452 30.6804 -0.619729 58.3183 30.0082 70.8955C29.5855 71.6293 29.1444 72.4291 28.7882 73.1149C23.1965 71.0757 18.0575 67.9842 13.3959 63.7498C12.0132 75.2681 15.0806 87.5203 22.635 94.7624C18.903 100.651 16.1496 106.666 13.9091 113.883L19.6218 131.399H28.4622C28.4985 155.482 39.9958 174.284 59.0053 186.169C66.3665 158.483 82.0971 138.273 103.401 122.28L94.0777 93.842C100.617 81.0004 103.081 69.1813 103.142 57.9694C97.8154 61.8911 92.0185 65.2897 85.6841 68.0985L84.8748 65.6203C114.15 51.9727 121.445 33.1162 122.048 16.9125H122.06Z" fill="#002856" />
        <path d="M76.5102 90.6925H89.7978C93.1275 85.2081 96.6558 75.1061 97.3376 67.1416C89.3635 72.1442 79.9785 75.7925 70.9911 78.3571L73.9527 69.2605C67.2637 71.6507 56.6839 74.0947 48.1912 73.9382L45.4107 65.2272L38.9208 73.2822C37.455 73.0654 35.9469 72.7703 34.397 72.4091C31.6707 76.6172 29.0829 83.5225 27.5752 89.3439H32.2677C26.3084 96.3152 21.7122 104.761 18.6662 113.972H32.5754L34.0229 118.415L26.212 121.407L20.5181 119.673L22.8401 126.802H36.7553C44.1502 117.295 52.7874 110.728 64.0184 107.29C67.6494 103.75 69.5977 99.0665 70.201 93.4796C73.44 99.7466 71.2263 105.4 67.4325 111.438C56.5693 113.816 46.243 121.251 39.6384 131.509H32.9857C33.5887 151.641 41.4721 168.136 56.1772 178.695C63.8918 153.898 79.5682 134.838 97.5788 120.715L90.1476 98.013L76.5039 90.6925H76.5102ZM47.2563 95.2196L39.5059 100.77L43.7459 93.2691L39.8135 89.3439C49.9043 89.3439 57.7577 87.1224 63.8496 82.4266C61.4552 89.3439 56.1291 95.2196 47.2563 95.2196ZM85.8531 85.2141H75.6537L76.082 84.0703C81.0702 82.3908 84.9062 80.7171 88.6097 78.5378C88.103 80.7351 86.8425 83.5103 85.8471 85.2141H85.8531ZM17.3515 72.5537C20.0536 74.4982 23.6847 76.1898 26.8815 77.2433C25.4641 80.1451 24.0103 84.3711 23.2202 89.3439C19.2214 85.6657 17.0861 78.5677 17.3575 72.5477L17.3515 72.5537Z" fill="#EA0029" />
        <path d="M55.5725 141.725C56.3969 137.89 57.7209 134.37 59.4963 131.134H32.9749C33.0832 134.733 33.4442 138.216 34.0101 141.507L38.5053 139.69C39.9258 149.236 43.7892 157.919 49.9817 165.786C47.9175 157.127 47.4362 148.427 48.5135 139.69L55.5725 141.731V141.725Z" fill="white" />
        <path d="M20.5522 119.237L22.89 126.378H36.8975C39.2046 123.422 41.2872 121.161 43.8557 118.712L40.6982 109.062H31.2324L29.1194 102.597L20.3214 109.062C19.6719 110.673 19.2529 111.843 18.6943 113.531H32.6959L34.1531 117.982L26.2899 120.98L20.5582 119.243L20.5522 119.237Z" fill="white" />
        <path d="M27.5352 89.008H32.2954L28.5938 85.6107C28.2204 86.6943 27.8412 87.8456 27.5412 89.008H27.5352Z" fill="white" />
        <path d="M48.4533 85.8149L47.617 83.2662L39.7749 89.008C49.7672 89.008 57.5435 86.826 63.5762 82.2135L48.4533 85.8149Z" fill="white" />
        <path fill-rule="evenodd" clip-rule="evenodd" d="M109.236 38.783C108.375 30.4102 105.314 23.796 100.011 19.0245C103.193 24.9234 106.748 32.0656 105.934 41.8751C100.144 46.9071 92.9012 51.4117 85.0201 55.0738C85.4781 49.6234 85.1406 43.797 83.8814 38.6799C83.7248 44.682 82.5558 51.7029 79.9711 57.2685C73.9997 59.6997 67.7754 61.6396 61.6358 62.9614C58.1831 58.4447 57.0746 51.2661 56.1164 44.5063C55.0198 50.7752 55.0019 60.6455 57.5986 67.945C80.6939 63.9496 107.067 51.1753 113.9 33.3083C112.556 35.1757 110.984 37.0007 109.23 38.777L109.236 38.783Z" fill="white" />
        <path fill-rule="evenodd" clip-rule="evenodd" d="M38.4156 62.6084C36.0575 57.1452 34.8541 49.9728 34.6415 43.1196C33.9546 46.1883 32.897 55.1835 33.8089 62.3857C23.9997 59.0764 17.2901 53.5167 12.653 46.7537C13.1089 35.3219 16.5426 29.0221 18.8521 23.1013C15.0475 27.0005 11.4923 34.1423 9.88181 42.127C8.51431 39.5094 7.38382 36.7659 6.45386 33.9378C7.02529 46.8021 13.5344 60.1777 34.1065 67.2655C35.6136 65.5385 37.2242 63.7998 38.4156 62.6084Z" fill="white" />
    </g>
    <defs>
        <clipPath id="clip0_1458_16440">
            <rect width="123.767" height="189.567" fill="white" transform="translate(0.333252)" />
        </clipPath>
    </defs>
</svg>