<svg xmlns="http://www.w3.org/2000/svg" width="142" height="196" viewBox="0 0 142 196" fill="none">
    <g clip-path="url(#clip0_1458_15065)">
        <path fill-rule="evenodd" clip-rule="evenodd" d="M108.501 54.2325C111.836 47.9811 113.088 41.3966 112.715 34.1375C112.472 29.4171 111.676 24.985 110.297 20.9545C111.617 23.9481 112.671 27.0985 113.35 30.2143C115.413 39.6356 112.976 49.4779 107.831 55.4947C108.05 55.0788 108.273 54.6582 108.496 54.2376L108.501 54.2325ZM104.982 76.1034C100.322 80.9654 97.3219 76.4018 97.5354 72.909C97.5354 72.909 97.5597 70.5364 100.953 66.7405C97.9092 73.1389 100.866 77.522 104.982 76.1034ZM88.6863 103.526C88.6863 103.526 90.8949 98.6442 92.1667 96.712C93.4435 94.7748 95.6957 93.0333 95.6957 93.0333C95.6957 93.0333 97.4142 95.4988 95.8072 98.2575C97.4092 96.8587 98.3702 95.2102 98.3702 95.2102C96.2783 101.882 89.7736 102.494 89.7736 102.494L90.8659 100.943L88.6863 103.531V103.526ZM96.6667 64.6713C96.6667 64.6713 89.9678 73.3101 91.5697 76.3722C94.0744 76.9396 93.5404 81.2786 96.6667 83.1718C92.8659 82.9859 93.3123 79.5028 90.5454 78.1285C87.0215 76.3773 86.4678 74.2981 86.4678 74.2981C86.4678 74.2981 87.7493 75.619 89.6184 75.7952C88.9678 72.9922 92.8609 68.7901 96.6617 64.6763L96.6667 64.6713ZM89.4338 78.5001C86.3466 78.0648 80.7207 78.7838 76.7643 77.3165C78.7547 78.8523 89.628 81.7237 92.2783 81.2397C91.5987 78.999 89.4338 78.5001 89.4338 78.5001ZM71.1045 3.92645C53.6102 3.92645 39.3777 18.2689 39.3777 35.8985C39.3777 53.5283 53.6102 67.8704 71.1045 67.8704C88.5988 67.8704 102.827 53.5283 102.827 35.8985C102.827 18.2689 88.5988 3.92645 71.1045 3.92645ZM71.1045 70.6294C60.7311 70.6294 51.4207 65.9774 45.0959 58.6448C49.45 65.4588 54.1681 70.6733 54.1392 73.4813C56.7507 72.5471 59.1002 71.192 59.6924 69.8811C60.5562 67.9731 59.2651 75.1443 54.6974 77.5267C59.5662 76.8613 65.8133 78.3095 69.3326 74.4498C67.8959 82.2863 56.8527 80.3199 50.7218 84.4924C50.5276 84.6442 50.3287 84.7858 50.1248 84.9329C51.2704 85.9356 52.1245 87.183 52.5372 88.7922C54.2021 95.2542 54.911 93.9336 55.6778 97.2206C56.4449 100.508 55.0372 101.286 58.275 106.358C61.5175 111.431 63.5369 114.434 65.0512 115.78C66.5658 117.13 68.4882 119.747 68.6774 120.632C68.8666 121.518 66.6388 125.225 64.3377 126.434C62.4739 126.913 60.5272 126.174 60.5272 126.174C60.5272 126.174 60.304 126.057 59.9156 125.861C58.6292 125.23 55.6098 124.218 53.0809 123.944C54.1731 124.878 55.0662 125.754 55.343 126.4C56.2701 128.547 54.1392 127.442 53.4886 127.515C48.8191 128.068 48.7947 124.58 40.1009 123.66C32.4507 122.848 22.8781 119.17 20.5047 111.94L20.4561 111.949C19.7569 109.21 18.4221 109.264 17.8688 111.524C13.8981 131.678 23.514 166.619 71.0948 181.426C118.675 166.619 128.291 131.678 124.321 111.524C123.768 109.264 122.432 109.205 121.734 111.949L121.685 111.94C119.316 119.17 109.739 122.853 102.089 123.66C93.3949 124.58 93.3705 128.072 88.701 127.515C88.0504 127.437 85.9195 128.547 86.8466 126.4C87.1281 125.754 88.0165 124.873 89.1087 123.944C86.5794 124.218 83.5601 125.235 82.274 125.861C81.8856 126.057 81.6624 126.174 81.6624 126.174C81.6624 126.174 79.7157 126.913 77.8516 126.434C75.5461 125.221 73.323 121.518 73.5122 120.632C73.7014 119.747 75.6238 117.13 77.1381 115.78C78.6527 114.434 80.677 111.431 83.9146 106.358C87.1574 101.286 85.7447 100.508 86.5115 97.2206C87.2786 93.9336 87.9872 95.2542 89.6524 88.7922C90.0648 87.1877 90.9192 85.9356 92.0648 84.9329C91.8609 84.7909 91.662 84.6442 91.4678 84.4924C85.3369 80.3199 74.2937 82.2863 72.8569 74.4498C76.3762 78.3095 82.6284 76.8566 87.4921 77.5267C82.9245 75.1443 81.6331 67.9731 82.4972 69.8811C83.0944 71.192 85.4389 72.5471 88.0504 73.4813C88.0261 70.6733 92.7396 65.4638 97.0937 58.6498C90.7686 65.9825 81.4585 70.6344 71.0851 70.6344L71.1045 70.6294ZM79.5944 125.861C79.5944 125.861 76.0461 125.773 74.5945 121.307C75.9878 119.967 76.3373 119.033 76.3373 119.033L74.1384 120.593C74.1384 120.593 77.1674 116.655 78.5508 115.148C79.9342 113.642 78.4099 117.981 78.4099 117.981C78.4099 117.981 80.1527 119.439 78.7547 119.449C77.3566 119.458 77.6527 122.76 79.4732 123.464C78.7547 122.99 78.8419 121.351 78.8419 121.351C78.8419 121.351 79.9392 123.606 81.4099 123.445C84.3902 123.122 88.1524 122.672 91.72 122.75C83.7643 123.445 81.6381 125.641 79.5605 125.372L79.5944 125.866V125.861ZM63.4496 119.449C62.0515 119.439 63.794 117.981 63.794 117.981C63.794 117.981 62.2747 113.647 63.6534 115.148C65.0319 116.655 68.0608 120.593 68.0608 120.593L65.862 119.033C65.862 119.033 66.2114 119.967 67.6045 121.307C66.1531 125.773 62.6048 125.861 62.6048 125.861L62.6388 125.367C60.5612 125.641 58.435 123.445 50.479 122.745C54.0469 122.667 57.809 123.117 60.7894 123.44C62.2601 123.601 63.3573 121.347 63.3573 121.347C63.3573 121.347 63.4446 122.985 62.7261 123.46C64.5512 122.755 64.8427 119.453 63.4446 119.444L63.4496 119.449ZM52.4303 102.494C52.4303 102.494 45.926 101.882 43.8337 95.2102C43.8337 95.2102 44.7998 96.8587 46.3967 98.2575C44.7851 95.4988 46.5083 93.0333 46.5083 93.0333C46.5083 93.0333 48.7608 94.7798 50.0372 96.712C51.314 98.6442 53.5179 103.526 53.5179 103.526L51.3384 100.938L52.4303 102.489V102.494ZM41.2465 66.7405C44.6445 70.5364 44.6638 72.909 44.6638 72.909C44.8774 76.4018 41.8774 80.9654 37.2175 76.1034C41.3387 77.522 44.2948 73.1389 41.2465 66.7405ZM45.5326 64.6763C49.3334 68.7851 53.2265 72.9922 52.5762 75.7952C54.445 75.619 55.7264 74.2981 55.7264 74.2981C55.7264 74.2981 55.1681 76.3773 51.6488 78.1285C48.887 79.5028 49.3334 82.9859 45.5279 83.1718C48.6588 81.2836 48.1249 76.9446 50.6248 76.3722C52.2265 73.3148 45.5279 64.6713 45.5279 64.6713L45.5326 64.6763ZM65.4349 77.3212C63.4446 78.8573 52.5712 81.7287 49.921 81.2444C50.6005 79.004 52.7604 78.5052 52.7604 78.5052C55.8527 78.0698 61.4739 78.7888 65.4299 77.3212H65.4349ZM28.8538 30.2143C29.5333 27.0985 30.5866 23.9481 31.9071 20.9545C30.5333 24.9901 29.7325 29.4218 29.4897 34.1375C29.1206 41.3966 30.3681 47.9811 33.7032 54.2325C33.9314 54.6531 34.1496 55.0738 34.3681 55.4897C29.2225 49.4729 26.7858 39.6356 28.8488 30.2096L28.8538 30.2143ZM5.57303 54.2376C9.62632 52.1828 14.1263 50.3191 18.995 48.6803C20.4707 50.4903 22.1453 52.1194 23.9221 53.6162C22.6549 53.7824 20.9464 53.8656 18.4074 53.5182C21.4947 56.2577 27.2229 56.204 29.4264 57.774C31.0963 58.723 32.5816 59.6525 33.9021 60.5427C40.9746 66.2806 41.96 70.967 40.5766 73.0704C40.7998 72.1997 39.6445 69.6461 37.9603 68.487C36.4264 67.4353 35.3924 70.8496 35.47 73.1879C35.0573 72.865 34.6449 72.4639 34.2515 71.9892C34.2661 68.5212 33.7275 63.6001 31.2518 60.6602C29.2955 60.0536 26.3538 64.6565 25.0773 70.3507C25.3101 69.3773 24.985 67.1221 24.985 67.1221C24.985 67.1221 22.4364 71.3339 23.0433 75.6727C23.0337 77.5854 20.8248 78.1822 19.029 75.6925C17.3398 73.3541 11.9175 64.1137 5.57303 60.8411V54.2325V54.2376ZM30.6839 79.4589C30.6839 79.4589 28.7275 77.4192 28.2518 74.7287C27.7712 72.0432 27.98 66.4961 30.446 64.0943C30.0333 69.0446 32.5963 70.0473 31.2275 75.761C31.4653 74.5918 32.543 73.3638 32.4993 74.0241C32.4557 74.6848 32.5963 77.5169 33.8777 79.2632C31.9457 78.6321 30.1063 76.6022 30.1063 76.6022L30.6885 79.4639L30.6839 79.4589ZM15.4804 101.731C14.2719 101.075 12.4514 100.748 10.5244 100.65C13.6406 99.1675 18.2765 97.6509 23.1599 97.3136C29.6303 96.9517 31.6256 103.56 41.5376 105.801C40.426 104.94 38.8874 103.047 36.965 100.86C41.5279 104.363 44.8191 107.576 49.9063 108.515C49.9063 108.515 46.7898 104.964 46.2948 102.797C53.7508 105.121 56.8913 107.586 60.5662 112.194C64.3183 116.895 46.9986 113.065 46.9986 113.065L51.9743 115.628C41.0036 116.112 38.0379 117.795 39.3677 120.305C32.7515 121.254 25.8974 111.402 25.8974 111.402C25.8974 111.402 25.8005 112.776 26.6113 114.713C21.4804 108.545 23.3928 98.4972 23.3928 98.4972C22.6549 99.6419 22.0627 100.743 21.5726 101.804V101.785C21.5726 101.785 10.5873 104.451 5.56836 108.711C7.30619 104.416 13.0487 102.107 15.4757 101.721L15.4804 101.731ZM135.709 128.855C132.636 147.776 119.991 174.744 71.1094 189.957C22.2229 174.744 9.58268 147.776 6.50508 128.855C6.11667 125.964 5.83052 119.84 9.72825 116.802C9.72825 132.935 14.2329 167.622 71.1094 185.325C127.986 167.622 132.49 132.935 132.49 116.802C136.388 119.84 136.102 125.964 135.714 128.855H135.709ZM120.637 101.79C120.637 101.79 131.622 104.456 136.641 108.716C134.903 104.421 129.16 102.112 126.733 101.726C127.942 101.071 129.762 100.743 131.69 100.645C128.573 99.1625 123.937 97.6462 119.054 97.3085C112.579 96.9467 110.588 103.555 100.676 105.796C101.788 104.935 103.327 103.042 105.249 100.855C100.686 104.358 97.3945 107.571 92.3076 108.511C92.3076 108.511 95.4238 104.959 95.9189 102.792C88.4628 105.116 85.3223 107.581 81.6477 112.189C77.8956 116.89 95.215 113.06 95.215 113.06L90.2396 115.623C101.21 116.108 104.176 117.79 102.846 120.3C109.462 121.249 116.316 111.397 116.316 111.397C116.316 111.397 116.418 112.771 115.603 114.708C120.734 108.54 118.821 98.4925 118.821 98.4925C119.559 99.6372 120.151 100.738 120.641 101.799C120.641 101.794 120.641 101.79 120.641 101.78L120.637 101.79ZM109.715 74.0194C109.671 73.3591 110.744 74.5867 110.986 75.7559C109.613 70.0426 112.181 69.0396 111.768 64.0892C114.234 66.4961 114.442 72.0382 113.962 74.7237C113.481 77.4092 111.53 79.4541 111.53 79.4541L112.113 76.5925C112.113 76.5925 110.273 78.6274 108.341 79.2534C109.622 77.5072 109.763 74.675 109.719 74.0144L109.715 74.0194ZM136.641 60.8411V54.2325C132.587 52.1781 128.088 50.3144 123.219 48.6756C121.743 50.4856 120.069 52.1144 118.292 53.6112C119.559 53.7777 121.268 53.8606 123.806 53.5135C120.714 56.2527 114.986 56.199 112.787 57.7693C111.122 58.7183 109.637 59.6475 108.312 60.538C101.239 66.2759 100.254 70.962 101.637 73.0654C101.414 72.1947 102.569 69.6414 104.254 68.482C105.788 67.4303 106.822 70.8445 106.744 73.1829C107.156 72.86 107.569 72.4588 107.962 71.9845C107.948 68.5162 108.486 63.5951 110.962 60.6552C112.918 60.0486 115.86 64.6518 117.137 70.3457C116.899 69.3722 117.229 67.1171 117.229 67.1171C117.229 67.1171 119.777 71.3289 119.171 75.668C119.18 77.5804 121.384 78.1772 123.185 75.6874C124.874 73.3491 130.296 64.1087 136.641 60.8364V60.8411Z" fill="white" />
        <path fill-rule="evenodd" clip-rule="evenodd" d="M138.79 49.9229C134.834 47.9172 130.543 46.127 125.999 44.5322C127.597 41.5728 128.65 38.1683 128.868 34.1327C126.897 38.5741 124.684 42.0031 122.402 44.7181C122.019 42.6832 120.602 40.888 120.835 37.9481C117.869 41.3086 121.699 45.4909 118.733 48.4798C116.048 50.8474 113.388 52.4567 111.024 53.7581C113.068 50.6665 113.966 47.032 114.519 42.9424C115.063 38.9263 114.83 34.563 113.83 29.9746C112.961 26.0125 111.553 22.0793 109.753 18.4645C108.092 14.7321 109.922 12.0172 107.248 6.58257C107.01 6.09831 106.709 6.14722 106.806 6.60704C107.777 11.1759 105.797 10.4372 106.195 12.482C105.699 11.7776 105.19 11.1025 104.665 10.4519C104.602 10.3736 104.539 10.3002 104.476 10.222C104.374 10.0997 104.277 9.97741 104.175 9.85999C103.966 9.61541 103.758 9.37083 103.539 9.12625C103.471 9.05287 103.408 8.97949 103.34 8.90611C103.248 8.80339 103.151 8.70067 103.059 8.60285C103.005 8.54904 102.957 8.49033 102.903 8.43162C101 6.44071 98.8209 4.68948 96.3502 3.222C94.9522 2.39528 94.5784 2.94315 95.8163 4.01445C102.622 9.89423 107.194 17.897 108.855 26.7117C105.995 17.6476 101.059 15.6175 102.802 18.0976C106.233 22.9796 111.083 35.6637 106.422 49.1206C105.131 51.9971 103.418 54.8098 101.253 57.637C104.442 52.8873 105.039 46.5426 104.874 42.8984C105.335 40.6335 105.578 38.2905 105.578 35.8937C105.568 16.7475 90.1078 1.16748 71.1038 1.16748C52.0995 1.16748 36.6389 16.7475 36.6389 35.8984C36.6389 38.2955 36.8817 40.6386 37.3428 42.9034C37.1779 46.5476 37.7748 52.8921 40.964 57.642C38.7991 54.8195 37.0856 52.0018 35.7945 49.1257C31.1392 35.6684 35.9837 22.9843 39.4157 18.1025C41.1582 15.6224 36.2265 17.6476 33.3624 26.7167C35.0177 17.9019 39.5953 9.90403 46.396 4.01932C47.6339 2.94805 47.2601 2.40018 45.862 3.22687C43.391 4.68948 41.2115 6.44071 39.3088 8.43652C39.2555 8.49033 39.2068 8.54904 39.1535 8.60285C39.0563 8.70557 38.9643 8.80339 38.8721 8.90611C38.8041 8.97949 38.7408 9.05287 38.6729 9.12625C38.4593 9.36593 38.2458 9.61051 38.037 9.85999C37.935 9.98228 37.8381 10.0997 37.7362 10.222C37.6729 10.3002 37.6099 10.3736 37.5466 10.4519C37.0226 11.1025 36.513 11.7776 36.0177 12.482C36.4157 10.4372 34.4354 11.1807 35.4061 6.60704C35.503 6.14722 35.2022 6.09831 34.9644 6.58257C32.2945 12.0172 34.1196 14.7321 32.4597 18.4645C30.6586 22.0793 29.2462 26.0125 28.3821 29.9746C27.3774 34.558 27.1443 38.9215 27.6929 42.9424C28.2462 47.0367 29.1442 50.6665 31.1879 53.7581C28.8238 52.4567 26.1636 50.8474 23.4794 48.4798C20.5134 45.4909 24.3435 41.3086 21.3775 37.9481C21.6056 40.883 20.1932 42.6832 19.8095 44.7181C17.528 42.0031 15.3145 38.5694 13.3438 34.1327C13.5623 38.1683 14.6156 41.5778 16.2126 44.5322C11.6693 46.122 7.37816 47.9172 3.42182 49.9229L0.78125 51.2583V116.802C0.78125 131.413 4.30056 144.024 11.538 155.363C22.6979 172.841 42.2601 186.034 69.6911 194.57L71.1038 195.01L72.5162 194.57C99.9472 186.034 119.509 172.841 130.669 155.363C137.907 144.024 141.426 131.409 141.426 116.802V51.2633L138.785 49.9276L138.79 49.9229ZM108.505 54.2324C111.84 47.981 113.092 41.3966 112.719 34.1374C112.476 29.417 111.68 24.985 110.301 20.9544C111.621 23.948 112.675 27.0984 113.355 30.2142C115.417 39.6356 112.981 49.4778 107.835 55.4946C108.054 55.0787 108.277 54.6581 108.5 54.2375L108.505 54.2324ZM104.986 76.1033C100.326 80.9657 97.3259 76.4017 97.5394 72.9089C97.5394 72.9089 97.5638 70.5363 100.957 66.7404C97.9132 73.1388 100.87 77.5219 104.986 76.1033ZM88.6904 103.526C88.6904 103.526 90.8989 98.6441 92.1707 96.7119C93.4475 94.7747 95.6997 93.0332 95.6997 93.0332C95.6997 93.0332 97.4182 95.4988 95.8113 98.2578C97.4132 96.8586 98.3745 95.2101 98.3745 95.2101C96.2823 101.882 89.7776 102.494 89.7776 102.494L90.8699 100.943L88.6904 103.531V103.526ZM96.6707 64.6712C96.6707 64.6712 89.9718 73.31 91.5738 76.3722C94.0784 76.9398 93.5444 81.2785 96.6707 83.1718C92.8699 82.9858 93.3163 79.5028 90.5495 78.1284C87.0255 76.3772 86.4719 74.2983 86.4719 74.2983C86.4719 74.2983 87.7533 75.6189 89.6224 75.7951C88.9718 72.9922 92.8649 68.7901 96.6657 64.6762L96.6707 64.6712ZM89.4379 78.5001C89.4379 78.5001 91.6028 78.9989 92.2823 81.2396C89.6321 81.7189 78.7587 78.8475 76.7684 77.3164C80.7247 78.7837 86.3506 78.0647 89.4379 78.5001ZM71.1038 3.9264C88.5981 3.9264 102.826 18.2688 102.826 35.8984C102.826 53.5282 88.5931 67.8706 71.1038 67.8706C53.6142 67.8706 39.3767 53.5282 39.3767 35.8984C39.3767 18.2688 53.6092 3.9264 71.1038 3.9264ZM71.1038 70.6293C81.4772 70.6293 90.7873 65.9824 97.1124 58.6447C92.758 65.4587 88.0398 70.6733 88.0691 73.4762C85.4575 72.542 83.1081 71.1872 82.5158 69.876C81.6517 67.9683 82.9429 75.1395 87.5108 77.5219C82.6468 76.8565 76.3946 78.3044 72.8753 74.445C74.3123 82.2812 85.3556 80.3148 91.4865 84.4877C91.6804 84.6391 91.8796 84.781 92.0834 84.9277C90.9379 85.9304 90.0834 87.1778 89.671 88.7874C88.0058 95.2493 87.302 93.9284 86.5302 97.2158C85.7633 100.503 87.171 101.281 83.9332 106.353C80.6907 111.426 78.6714 114.429 77.1568 115.775C75.6424 117.125 73.7201 119.742 73.5308 120.627C73.3413 121.513 75.5645 125.221 77.8703 126.429C79.7344 126.908 81.6811 126.17 81.6811 126.17C81.6811 126.17 81.9042 126.052 82.2926 125.856C83.5788 125.225 86.5981 124.213 89.1271 123.939C88.0351 124.873 87.1417 125.749 86.8652 126.394C85.9379 128.542 88.0691 127.436 88.7194 127.51C93.3892 128.062 93.4135 124.575 102.107 123.655C109.758 122.843 119.33 119.165 121.704 111.935L121.752 111.945C122.451 109.205 123.786 109.259 124.339 111.519C128.31 131.673 118.694 166.614 71.1135 181.421C23.5327 166.614 13.9168 131.673 17.8875 111.519C18.4408 109.259 19.7755 109.2 20.4747 111.945L20.523 111.935C22.8921 119.165 32.4694 122.848 40.1196 123.655C48.8134 124.575 48.8377 128.068 53.5073 127.51C54.1578 127.432 56.2887 128.542 55.3617 126.394C55.0849 125.749 54.1918 124.868 53.0995 123.939C55.6285 124.213 58.6478 125.23 59.9343 125.856C60.3227 126.052 60.5459 126.17 60.5459 126.17C60.5459 126.17 62.4923 126.908 64.3563 126.429C66.6621 125.216 68.8853 121.513 68.6961 120.627C68.5066 119.742 66.5845 117.125 65.0699 115.775C63.5555 114.429 61.5312 111.426 58.2934 106.353C55.0509 101.281 56.4636 100.503 55.6965 97.2158C54.9296 93.9284 54.2258 95.2493 52.5559 88.7874C52.1432 87.1829 51.2891 85.9304 50.1432 84.9277C50.3474 84.7858 50.5462 84.6391 50.7404 84.4877C56.8713 80.3148 67.9146 82.2812 69.3513 74.445C65.832 78.3044 59.5799 76.8515 54.7161 77.5219C59.2837 75.1395 60.5749 67.9683 59.7108 69.876C59.1188 71.1872 56.7694 72.542 54.1578 73.4762C54.1821 70.6685 49.4686 65.4587 45.1145 58.64C51.4393 65.9723 60.7497 70.6246 71.1231 70.6246L71.1038 70.6293ZM79.5935 125.861C79.5935 125.861 76.0452 125.773 74.5938 121.307C75.9869 119.967 76.3363 119.033 76.3363 119.033L74.1375 120.593C74.1375 120.593 77.1664 116.655 78.5498 115.149C79.9336 113.642 78.4093 117.981 78.4093 117.981C78.4093 117.981 80.1518 119.438 78.7537 119.448C77.3559 119.458 77.6521 122.76 79.4722 123.464C78.7537 122.99 78.8413 121.351 78.8413 121.351C78.8413 121.351 79.9382 123.606 81.4092 123.445C84.3896 123.122 88.1514 122.672 91.7193 122.75C83.7633 123.445 81.6371 125.641 79.5595 125.372L79.5935 125.866V125.861ZM63.4486 119.448C62.0505 119.438 63.7934 117.981 63.7934 117.981C63.7934 117.981 62.274 113.647 63.6525 115.149C65.0312 116.655 68.0602 120.593 68.0602 120.593L65.8613 119.033C65.8613 119.033 66.2108 119.967 67.6038 121.307C66.1525 125.773 62.6042 125.861 62.6042 125.861L62.6381 125.367C60.5605 125.641 58.4343 123.445 50.4783 122.745C54.0462 122.667 57.8081 123.117 60.7884 123.44C62.2594 123.601 63.3563 121.346 63.3563 121.346C63.3563 121.346 63.4439 122.985 62.7254 123.46C64.5505 122.755 64.8417 119.453 63.4439 119.443L63.4486 119.448ZM52.4297 102.494C52.4297 102.494 45.925 101.882 43.8331 95.2101C43.8331 95.2101 44.7988 96.8586 46.396 98.2578C44.7844 95.4988 46.5076 93.0332 46.5076 93.0332C46.5076 93.0332 48.7598 94.7797 50.0366 96.7119C51.3131 98.6441 53.5169 103.526 53.5169 103.526L51.3374 100.938L52.4297 102.489V102.494ZM41.2455 66.7404C44.6435 70.5363 44.6629 72.9089 44.6629 72.9089C44.8767 76.4017 41.8767 80.9657 37.2168 76.1033C41.3378 77.5219 44.2941 73.1388 41.2455 66.7404ZM45.5319 64.6762C49.3327 68.7854 53.2258 72.9922 52.5752 75.7951C54.4443 75.6189 55.7258 74.2983 55.7258 74.2983C55.7258 74.2983 55.1675 76.3772 51.6482 78.1284C48.886 79.5028 49.3327 82.9858 45.527 83.1718C48.6579 81.2835 48.1239 76.9445 50.6239 76.3722C52.2258 73.3148 45.527 64.6712 45.527 64.6712L45.5319 64.6762ZM65.434 77.3211C63.4439 78.8572 52.5706 81.7287 49.92 81.2443C50.5996 79.0039 52.7598 78.5051 52.7598 78.5051C55.8517 78.0697 61.4729 78.7887 65.4293 77.3211H65.434ZM28.8528 30.2142C29.5326 27.0984 30.5859 23.948 31.9061 20.9544C30.5323 24.99 29.7315 29.4217 29.4887 34.1374C29.1199 41.3966 30.3674 47.981 33.7022 54.2324C33.9304 54.6531 34.1489 55.0737 34.3674 55.4896C29.2219 49.4728 26.7852 39.6356 28.8481 30.2095L28.8528 30.2142ZM5.57237 54.2375C9.62565 52.1828 14.1253 50.319 18.9941 48.6805C20.4697 50.4902 22.1446 52.1193 23.9211 53.6161C22.6543 53.7823 20.9454 53.8655 18.4068 53.5181C21.494 56.2576 27.2219 56.2039 29.4257 57.7739C31.0956 58.7229 32.5809 59.6524 33.9014 60.5426C40.9737 66.2808 41.9593 70.967 40.5759 73.0704C40.7991 72.1996 39.6439 69.6461 37.9593 68.4869C36.4254 67.4352 35.3914 70.8495 35.469 73.1878C35.0566 72.8649 34.6439 72.4638 34.2508 71.9891C34.2655 68.5212 33.7265 63.6 31.2508 60.6601C29.2948 60.0535 26.3531 64.6568 25.0763 70.3507C25.3095 69.3772 24.984 67.122 24.984 67.122C24.984 67.122 22.4357 71.3339 23.0423 75.6726C23.0327 77.5853 20.8242 78.1822 19.028 75.6924C17.3388 73.354 11.9168 64.1136 5.57237 60.8411V54.2324V54.2375ZM30.6829 79.4588C30.6829 79.4588 28.7269 77.4191 28.2512 74.7286C27.7705 72.0432 27.979 66.496 30.4451 64.0942C30.0326 69.0445 32.5956 70.0472 31.2265 75.7609C31.4644 74.5917 32.542 73.3638 32.4983 74.0241C32.4547 74.6847 32.5956 77.5168 33.8771 79.2631C31.945 78.6323 30.1053 76.6021 30.1053 76.6021L30.6879 79.4638L30.6829 79.4588ZM15.4797 101.731C14.2709 101.075 12.4508 100.748 10.5237 100.65C13.64 99.1675 18.2755 97.6512 23.1589 97.3135C29.6296 96.9516 31.6246 103.56 41.5369 105.801C40.4254 104.94 38.8864 103.047 36.9643 100.86C41.5273 104.363 44.8184 107.576 49.9054 108.516C49.9054 108.516 46.7891 104.964 46.2941 102.797C53.7501 105.12 56.8907 107.586 60.5652 112.194C64.3177 116.895 46.998 113.065 46.998 113.065L51.9733 115.628C41.003 116.112 38.037 117.795 39.3671 120.304C32.7508 121.253 25.8968 111.401 25.8968 111.401C25.8968 111.401 25.7998 112.776 26.6103 114.713C21.4794 108.545 23.3921 98.4974 23.3921 98.4974C22.6543 99.6418 22.062 100.743 21.5717 101.804V101.784C21.5717 101.784 10.5867 104.45 5.56738 108.711C7.30522 104.416 13.0477 102.107 15.4747 101.721L15.4797 101.731ZM135.708 128.855C132.635 147.776 119.99 174.744 71.1085 189.957C22.2222 174.744 9.58201 147.776 6.50441 128.855C6.11601 125.964 5.82954 119.84 9.72758 116.802C9.72758 132.935 14.2322 167.622 71.1085 185.325C127.985 167.622 132.49 132.935 132.49 116.802C136.387 119.84 136.101 125.964 135.713 128.855H135.708ZM120.636 101.789C120.636 101.789 120.636 101.799 120.636 101.809C120.145 100.748 119.553 99.6468 118.815 98.5021C118.815 98.5021 120.728 108.55 115.597 114.718C116.408 112.781 116.311 111.407 116.311 111.407C116.311 111.407 109.461 121.253 102.84 120.309C104.175 117.8 101.209 116.117 90.234 115.633L95.2093 113.069C95.2093 113.069 77.8899 116.9 81.6421 112.199C85.3216 107.591 88.4572 105.126 95.9132 102.802C95.4182 104.969 92.3019 108.52 92.3019 108.52C97.3889 107.581 100.68 104.367 105.243 100.865C103.321 103.047 101.782 104.94 100.67 105.806C110.583 103.565 112.573 96.9563 119.048 97.3185C123.932 97.6559 128.563 99.1725 131.684 100.655C129.762 100.752 127.936 101.075 126.728 101.735C129.155 102.117 134.897 104.431 136.635 108.726C131.616 104.465 120.631 101.799 120.631 101.799L120.636 101.789ZM109.714 74.0193C109.67 73.359 110.743 74.5867 110.985 75.7558C109.612 70.0425 112.18 69.0395 111.767 64.0891C114.233 66.496 114.442 72.0381 113.961 74.7236C113.481 77.4091 111.529 79.4541 111.529 79.4541L112.112 76.5924C112.112 76.5924 110.272 78.6273 108.34 79.2533C109.622 77.5071 109.762 74.6749 109.719 74.0143L109.714 74.0193ZM136.64 60.8411C130.295 64.1086 124.873 73.349 123.184 75.6924C121.383 78.1822 119.179 77.5903 119.17 75.6726C119.777 71.3339 117.228 67.122 117.228 67.122C117.228 67.122 116.898 69.3772 117.136 70.3507C115.864 64.6615 112.917 60.0586 110.961 60.6601C108.486 63.6 107.947 68.5212 107.961 71.9891C107.568 72.4685 107.156 72.8649 106.743 73.1878C106.821 70.8495 105.787 67.4352 104.253 68.4869C102.568 69.6461 101.413 72.1996 101.636 73.0704C100.253 70.967 101.238 66.2808 108.311 60.5426C109.636 59.6477 111.121 58.7229 112.787 57.7739C114.985 56.1989 120.713 56.2576 123.806 53.5181C121.267 53.8655 119.553 53.7776 118.291 53.6161C120.068 52.1193 121.743 50.4902 123.218 48.6805C128.087 50.319 132.587 52.1828 136.64 54.2375V60.8461V60.8411Z" fill="#262424" />
        <path fill-rule="evenodd" clip-rule="evenodd" d="M9.72785 116.802C9.72785 132.935 14.2325 167.622 71.1091 185.325V189.962C22.2225 174.749 9.58228 147.781 6.50468 128.86C6.11627 125.969 5.83012 119.845 9.72785 116.807V116.802Z" fill="#8F1E22" />
        <path fill-rule="evenodd" clip-rule="evenodd" d="M97.5376 72.909C97.5376 72.909 97.5616 70.5364 100.955 66.7404C97.9114 73.1389 100.867 77.5219 104.984 76.1033C100.324 80.9657 97.3238 76.4017 97.5376 72.909ZM123.211 48.6803C121.735 50.4903 120.061 52.1194 118.284 53.6162C119.551 53.7824 121.26 53.8656 123.799 53.5182C120.706 56.2577 114.979 56.204 112.78 57.774C111.115 58.7229 109.629 59.6525 108.304 60.5427C101.231 66.2809 100.246 70.967 101.63 73.0704C101.406 72.1997 102.562 69.6461 104.246 68.487C105.78 67.4353 106.814 70.8495 106.736 73.1879C107.149 72.865 107.561 72.4638 107.955 71.9892C107.94 68.5212 108.479 63.6001 110.954 60.6602C112.911 60.0536 115.852 64.6568 117.129 70.3507C116.891 69.3772 117.221 67.1221 117.221 67.1221C117.221 67.1221 119.77 71.3339 119.163 75.6727C119.172 77.5854 121.376 78.1822 123.177 75.6924C124.867 73.3541 130.289 64.1137 136.633 60.8411V54.2325C132.58 52.1781 128.08 50.3144 123.211 48.6756V48.6803ZM121.745 111.945L121.697 111.935C119.328 119.165 109.75 122.848 102.101 123.655C93.4067 124.575 93.3824 128.068 88.7125 127.51C88.0623 127.432 85.9311 128.542 86.8584 126.395C87.1399 125.749 88.0283 124.869 89.1203 123.939C86.5913 124.213 83.572 125.23 82.2858 125.856C81.8974 126.052 81.6739 126.17 81.6739 126.17C81.6739 126.17 79.7276 126.908 77.8635 126.429C75.5577 125.216 73.3345 121.513 73.524 120.627C73.7132 119.742 75.6356 117.125 77.15 115.775C78.6646 114.429 80.6886 111.426 83.9264 106.354C87.1689 101.281 85.7565 100.503 86.5233 97.2158C87.2905 93.9285 87.999 95.2494 89.6639 88.7875C90.0766 87.1829 90.931 85.9305 92.0766 84.9278C91.8727 84.7858 91.6736 84.6391 91.4794 84.4877C85.3488 80.3148 74.3055 82.2813 72.8685 74.445C76.3878 78.3044 82.6399 76.8516 87.504 77.5219C82.9361 75.1396 81.6449 67.9684 82.509 69.8761C83.106 71.1872 85.4507 72.5421 88.0623 73.4763C88.038 70.6686 92.7512 65.4588 97.1056 58.6447C90.7805 65.9774 81.4701 70.6293 71.0967 70.6293V181.426C118.677 166.619 128.294 131.678 124.323 111.524C123.769 109.264 122.435 109.205 121.735 111.949L121.745 111.945Z" fill="#8F1E22" />
        <path fill-rule="evenodd" clip-rule="evenodd" d="M59.8832 33.3937C61.9315 32.8459 63.9072 32.1953 65.7809 31.4615C61.281 21.3699 62.7763 12.3644 63.9265 8.2016C59.9315 9.26797 56.2716 11.1855 53.1601 13.7487C52.8203 15.3484 51.6261 23.0087 56.6844 34.1373C57.752 33.9221 58.82 33.6727 59.8879 33.3937H59.8832Z" fill="#262424" />
        <path fill-rule="evenodd" clip-rule="evenodd" d="M43.4665 29.1531C42.923 31.3742 42.627 33.693 42.627 36.0853C42.627 39.2651 43.1464 42.3275 44.0975 45.1895C44.0392 40.8501 44.8934 37.3865 45.2087 36.2615C44.8205 35.2926 43.8161 32.5287 43.4665 29.1531Z" fill="#262424" />
        <path fill-rule="evenodd" clip-rule="evenodd" d="M78.1338 23.9038C77.3281 21.898 75.3767 15.8569 77.2601 7.89326C75.3184 7.47255 73.3041 7.24754 71.2408 7.24754C69.5469 7.24754 67.8917 7.40407 66.2751 7.69269C65.2898 10.7989 63.0373 20.2055 67.7118 30.6641C71.9546 28.7906 75.5612 26.4717 78.1338 23.9085V23.9038Z" fill="#8F1E22" />
        <path fill-rule="evenodd" clip-rule="evenodd" d="M54.5687 34.5303C50.8159 26.067 50.4907 19.5751 50.7479 15.9842C48.9276 17.8677 47.3545 20.0006 46.0923 22.3294C44.4612 27.4172 46.3205 33.2583 47.0197 35.1467C49.4323 35.1564 51.9712 34.951 54.5637 34.5303H54.5687Z" fill="#8F1E22" />
        <path fill-rule="evenodd" clip-rule="evenodd" d="M99.5837 32.1808C98.0544 20.832 89.9528 11.5673 79.2833 8.41217C78.9581 9.79163 78.7593 11.1124 78.6523 12.3549C80.5504 12.9272 85.2832 14.6148 89.9384 18.2983C93.5497 21.1549 97.535 25.6115 99.5837 32.1859V32.1808Z" fill="#262424" />
        <path fill-rule="evenodd" clip-rule="evenodd" d="M88.7126 20.0003C84.7226 16.8257 80.577 15.2016 78.5674 14.5364C78.5627 19.1199 79.7569 22.3534 80.1743 23.3464C89.64 27.6901 95.7319 36.999 95.7319 47.1833C95.7319 48.6704 95.6007 50.138 95.3485 51.5811C96.8678 49.194 98.0424 46.567 98.8142 43.7741C99.4018 33.7999 96.0037 25.8019 88.7126 20.0003Z" fill="#262424" />
        <path fill-rule="evenodd" clip-rule="evenodd" d="M69.9647 58.5712C67.0763 59.0993 64.2026 59.3587 61.4164 59.3587C58.6303 59.3587 55.8925 59.0895 53.3535 58.5662C58.2562 62.5333 64.4747 64.9157 71.2365 64.9157C79.3817 64.9157 86.7358 61.4621 91.9493 55.9442C93.0656 53.1513 93.6335 50.2113 93.6335 47.1882C93.6335 46.4984 93.5996 45.8089 93.5413 45.1288C89.4736 51.439 80.4983 56.6585 69.9647 58.5712Z" fill="#262424" />
        <path fill-rule="evenodd" clip-rule="evenodd" d="M61.755 46.2783C73.5505 44.1309 83.8415 39.5327 89.5304 33.9026C87.1084 30.3219 83.7153 27.3524 79.6087 25.4008C75.3029 29.6811 68.3616 33.3155 60.4152 35.4287C55.9056 36.6321 51.3427 37.2581 47.1535 37.2581H47.1052C46.7021 38.8577 45.8817 42.8691 46.3137 47.4623C51.2021 47.6385 56.4979 47.2373 61.755 46.2783Z" fill="#262424" />
        <path fill-rule="evenodd" clip-rule="evenodd" d="M69.5958 56.5021C80.8816 54.4474 90.2163 48.5286 92.9832 41.7096C92.4785 39.6159 91.692 37.6055 90.6531 35.732C84.6098 41.4991 74.0908 46.1755 62.1252 48.3524C57.5526 49.1839 52.951 49.6096 48.5919 49.6096C47.922 49.6096 47.2618 49.5998 46.6016 49.5803C46.7085 50.1772 46.8394 50.7737 46.9996 51.3756C47.917 52.8429 48.956 54.2272 50.1112 55.5042C55.6692 57.4266 62.5765 57.7835 69.6008 56.5069L69.5958 56.5021Z" fill="#8F1E22" />
        <path fill-rule="evenodd" clip-rule="evenodd" d="M104.987 76.1043C100.326 80.9671 97.3265 76.4027 97.54 72.9096C97.54 72.9096 97.5643 70.5368 100.958 66.7405C97.9138 73.1396 100.87 77.523 104.987 76.1043Z" fill="white" />
        <path d="M71.1039 162.725C74.0116 162.725 76.3611 165.092 76.3611 168.022V174.616H87.948L86.5549 155.588L87.948 148.451H82.1568L71.1089 135.155L60.0606 148.451H54.2695L55.6629 155.588L54.2695 174.616H65.8564V168.022C65.8564 165.092 68.2059 162.725 71.1136 162.725H71.1039Z" fill="white" />
        <mask id="mask0_1458_15065" style="mask-type:luminance" maskUnits="userSpaceOnUse" x="50" y="123" width="22" height="56">
            <path d="M71.1035 123.044H50.5459V178.247H71.1035V123.044Z" fill="white" />
        </mask>
        <g mask="url(#mask0_1458_15065)">
            <path d="M71.1029 162.725C74.0107 162.725 76.3601 165.092 76.3601 168.022V174.617H87.947L86.5539 155.588L87.947 148.451H82.1559L71.1079 135.155L60.0597 148.451H54.2686L55.6619 155.588L54.2686 174.617H65.8555V168.022C65.8555 165.092 68.2049 162.725 71.1126 162.725H71.1029Z" fill="#262424" />
        </g>
    </g>
    <defs>
        <clipPath id="clip0_1458_15065">
            <rect width="141" height="194.267" fill="white" transform="translate(0.5 0.866669)" />
        </clipPath>
    </defs>
</svg>