<svg xmlns="http://www.w3.org/2000/svg" width="223" height="190" viewBox="0 0 223 190" fill="none">
    <g clip-path="url(#clip0_1_7)">
        <path d="M136.795 177.527C134.177 177.527 131.505 177.865 128.95 177.462C122.417 176.429 115.941 175.106 109.635 173C100.751 170.032 92.7209 165.389 84.6349 160.822C73.2794 154.413 61.8964 148.056 50.5319 141.668C46.0579 139.156 41.6023 136.606 37.1219 134.1C27.6486 128.801 18.1689 123.521 8.68606 118.237C6.30687 116.912 3.91842 115.599 1.52993 114.285C0.124045 113.51 0.0622522 113.194 1.23642 112.062C6.73016 106.763 12.2208 101.458 17.7517 96.196C18.7283 95.2675 18.9689 94.7755 17.6312 93.8867C13.9295 91.4292 10.3422 88.8001 6.70855 86.2442C5.22542 85.2017 5.20688 85.1189 6.44899 83.9472C12.6813 78.0733 18.901 72.1838 25.1735 66.35C26.0079 65.5719 26.0389 65.1444 25.2788 64.2895C22.1824 60.8051 19.1883 57.2346 16.1172 53.7316C15.6661 53.215 15.666 53.0089 16.1759 52.5446C23.7892 45.5974 31.3782 38.6286 38.9697 31.6599C44.034 27.01 49.092 22.3569 54.1503 17.7008C55.5686 16.3938 57.0485 15.1423 58.3802 13.7521C59.2362 12.8571 59.7336 13.094 60.3825 13.9122C63.6856 18.0792 67.0133 22.2277 70.332 26.3857C73.0477 29.7903 75.7791 33.1852 78.4672 36.6083C79.1225 37.4417 79.552 37.6816 80.4512 36.768C87.8824 29.2365 96.4534 23.3043 106.177 19.0786C114.291 15.5541 122.767 13.377 131.6 12.5618C143.249 11.4885 154.589 12.9035 165.639 16.646C173.132 19.1834 180 22.9444 186.551 27.3235C188.426 28.5784 190.326 29.8055 192.261 30.968C193.169 31.5124 193.521 32.0751 193.284 33.1885C191.229 42.8881 189.223 52.6 187.224 62.3089C185.998 68.2719 184.814 74.2442 183.6 80.2073C183.483 80.7855 183.563 81.2929 183.776 81.8436C185.667 86.7363 186.467 91.8106 186.192 97.0387C186.146 97.9215 186.439 98.2966 187.187 98.6595C198.515 104.115 209.82 109.62 221.16 115.051C222.334 115.614 222.464 115.943 221.741 117.087C216.794 124.926 212.221 132.999 206.746 140.5C197.783 152.783 186.804 162.796 173.033 169.559C161.619 175.165 149.516 177.865 136.785 177.518L136.795 177.527ZM138.741 170.733C153.387 170.712 167.848 166.038 180.816 156.744C187.376 152.045 193.049 146.435 198.135 140.217C202.921 134.361 206.777 127.888 210.75 121.491C212.481 118.705 212.481 118.692 209.462 117.232C199.658 112.486 189.857 107.738 180.043 103.011C179.008 102.513 178.356 102.116 178.641 100.634C179.778 94.7108 179.175 88.9075 176.762 83.3474C176.286 82.2496 176.144 81.2839 176.397 80.0721C179.333 65.9964 182.231 51.914 185.046 37.8138C185.701 34.5385 186.155 35.584 183.244 33.6097C182.691 33.2346 182.114 32.8962 181.561 32.5241C165.586 21.8187 148.073 17.4735 128.928 19.9889C116.275 21.6527 104.833 26.3701 94.5471 33.8526C89.1645 37.7677 84.3845 42.3377 80.2255 47.5257C79.4994 48.43 79.0266 48.5344 78.2419 47.5687C77.1172 46.1816 75.903 44.8409 74.8246 43.4355C69.8469 36.931 64.6248 30.6174 59.5575 24.1867C58.853 23.295 58.3802 23.2367 57.6728 24.0452C57.4377 24.313 57.1257 24.5098 56.863 24.7557C46.7561 34.0802 36.6555 43.411 26.5363 52.7199C25.7422 53.449 25.6247 53.9407 26.4001 54.8205C29.3139 58.1296 32.0979 61.5494 35.0148 64.8551C35.8182 65.7654 35.6141 66.227 34.8294 66.9557C29.005 72.3683 23.2362 77.8426 17.3964 83.2427C16.4138 84.15 16.5775 84.596 17.5663 85.2816C21.194 87.8004 24.7844 90.3715 28.3777 92.9334C29.9998 94.0895 29.9968 94.111 28.5135 95.5442C23.4925 100.391 18.4656 105.232 13.4444 110.075C11.7296 111.73 11.7234 111.751 13.7349 112.883C33.6245 124.074 53.5167 135.259 73.4093 146.441C80.8867 150.645 88.3857 154.806 95.8448 159.038C108.729 166.351 122.501 170.506 138.735 170.737L138.741 170.733Z" fill="#FBFCFC" />
        <path d="M138.739 170.737C122.505 170.509 108.733 166.351 95.8487 159.038C88.3895 154.803 80.8875 150.642 73.4131 146.442C53.5205 135.259 33.6279 124.071 13.7386 112.884C11.724 111.752 11.7302 111.73 13.4482 110.075C18.4694 105.229 23.4963 100.391 28.5173 95.5444C30.0006 94.1112 30.0036 94.09 28.3815 92.9335C24.7848 90.3717 21.1974 87.7976 17.5701 85.2821C16.5813 84.5962 16.4206 84.1501 17.4001 83.2432C23.24 77.8428 29.0058 72.3685 34.8332 66.9559C35.6179 66.2272 35.822 65.7689 35.0186 64.8557C32.1018 61.5495 29.3177 58.1298 26.4039 54.8207C25.6285 53.9412 25.7456 53.4491 26.5401 52.7201C36.6623 43.4112 46.7629 34.0804 56.8668 24.7559C57.1295 24.513 57.4415 24.3132 57.6766 24.0458C58.387 23.2399 58.8598 23.2952 59.5613 24.1873C64.6286 30.6209 69.8503 36.9315 74.8281 43.4357C75.9064 44.8444 77.121 46.1821 78.2457 47.5689C79.0304 48.5379 79.5032 48.4302 80.2293 47.5258C84.3913 42.3379 89.1683 37.7679 94.5509 33.8531C104.837 26.3737 116.279 21.6529 128.932 19.9891C148.076 17.4707 165.59 21.8189 181.564 32.5242C182.117 32.8964 182.695 33.2347 183.248 33.6098C186.159 35.5845 185.702 34.5387 185.05 37.814C182.235 51.9146 179.337 65.9966 176.401 80.0723C176.148 81.2811 176.29 82.2468 176.766 83.3476C179.176 88.908 179.781 94.711 178.644 100.634C178.36 102.114 179.012 102.51 180.047 103.012C189.857 107.741 199.662 112.486 209.466 117.232C212.481 118.693 212.484 118.705 210.754 121.491C206.781 127.888 202.924 134.365 198.138 140.217C193.052 146.439 187.379 152.045 180.82 156.744C167.852 166.035 153.394 170.709 138.745 170.734L138.739 170.737ZM139.36 165.733C141.952 165.933 146.238 165.37 150.48 164.543C159.614 162.762 168.074 159.389 175.796 154.112C180.007 151.23 183.987 148.102 187.577 144.523C194.035 138.08 199.211 130.643 203.923 122.881C204.779 121.473 204.513 120.455 203.023 119.732C197.9 117.238 192.756 114.784 187.623 112.311C183.186 110.171 178.712 108.098 174.331 105.85C172.329 104.823 172.403 104.574 172.999 102.393C174.726 96.0948 174.473 89.9535 171.442 84.0551C170.839 82.8804 170.938 81.6778 171.185 80.46C172.128 75.7976 173.07 71.1355 174.025 66.4731C175.644 58.5543 177.34 50.6503 178.867 42.7159C180.069 36.4547 180.443 38.2355 175.941 34.874C175.737 34.7203 175.499 34.6126 175.276 34.4833C167.376 29.9412 159.052 26.6444 149.952 25.2513C139.975 23.7256 130.165 24.3254 120.456 26.8565C111.545 29.1784 103.657 33.6744 96.136 38.7889C93.4848 40.5909 91.2105 42.9466 88.8097 45.0995C85.7477 47.8489 83.3902 51.1733 81.1036 54.5622C79.7009 56.6442 79.0707 56.6138 77.5535 54.7037C73.793 49.974 70.0731 45.2132 66.2693 40.5173C63.9148 37.6112 61.7673 34.5416 59.1844 31.8201C58.4982 31.0944 57.837 30.7839 56.9348 31.5434C53.5578 34.379 50.304 37.365 47.0998 40.3728C43.1419 44.0879 39.165 47.7843 35.1667 51.4592C32.1726 54.2149 32.5898 54.2978 34.8302 57.0197C36.8448 59.4675 39.0012 61.7987 41.0374 64.228C42.5083 65.9843 42.5113 66.6978 40.8307 68.1001C39.1743 69.4839 37.6974 71.0401 36.1339 72.51C32.6577 75.776 29.1909 79.0543 25.6964 82.3021C24.7199 83.2094 24.7046 84.0213 25.718 84.864C26.1136 85.1897 26.5091 85.5187 26.9292 85.814C29.8677 87.8744 32.8245 89.9134 35.7537 91.9894C37.444 93.1887 37.4843 93.7914 36.0321 95.2614C34.3387 96.9713 32.6454 98.6845 30.9028 100.342C27.8192 103.273 24.646 106.115 21.7258 109.211C20.5795 110.426 20.6384 110.958 22.0597 111.828C23.1534 112.496 24.3027 113.071 25.4244 113.695C30.7144 116.654 36.0104 119.6 41.2878 122.577C48.2122 126.483 55.112 130.428 62.0364 134.325C68.3425 137.874 74.6952 141.349 80.9894 144.916C88.2198 149.016 95.3666 153.275 102.776 157.052C113.699 162.618 125.289 165.635 139.366 165.733H139.36Z" fill="#C81219" />
        <path d="M139.36 165.733C125.283 165.631 113.693 162.615 102.77 157.051C95.3609 153.274 88.2171 149.015 80.9837 144.916C74.6866 141.345 68.3368 137.873 62.0307 134.324C55.1029 130.428 48.2035 126.479 41.2821 122.576C36.0048 119.599 30.7088 116.653 25.4187 113.695C24.3004 113.067 23.1478 112.495 22.0541 111.828C20.6324 110.961 20.5738 110.429 21.7201 109.211C24.64 106.114 27.8135 103.276 30.8972 100.342C32.6398 98.6841 34.3361 96.9709 36.0264 95.261C37.4787 93.7911 37.4384 93.1883 35.748 91.9891C32.8222 89.91 29.8651 87.8741 26.9236 85.8136C26.5034 85.5183 26.1079 85.1926 25.7124 84.8636C24.6989 84.0209 24.7142 83.209 25.6907 82.3017C29.1852 79.0539 32.6521 75.7757 36.1283 72.5097C37.6947 71.0397 39.1686 69.4836 40.8246 68.0998C42.5057 66.6944 42.4997 65.9806 41.0317 64.2277C38.9955 61.795 36.8387 59.4642 34.8241 57.0193C32.5812 54.2974 32.164 54.2113 35.1611 51.4589C39.1593 47.784 43.1329 44.0871 47.0942 40.3721C50.2984 37.3646 53.5551 34.3786 56.9291 31.5431C57.8314 30.7832 58.4926 31.0941 59.1788 31.8197C61.7587 34.5413 63.9091 37.6138 66.2636 40.517C70.0671 45.2128 73.7873 49.9737 77.5478 54.7033C79.065 56.6134 79.6953 56.6409 81.0979 54.5618C83.3845 51.1729 85.742 47.8516 88.804 45.0992C91.2019 42.9433 93.4791 40.5905 96.1303 38.7885C103.651 33.6741 111.543 29.178 120.451 26.8561C130.159 24.3251 139.966 23.7253 149.946 25.251C159.046 26.644 167.37 29.9375 175.271 34.483C175.493 34.6122 175.731 34.7199 175.935 34.8737C180.437 38.2348 180.063 36.4543 178.861 42.7156C177.338 50.6533 175.638 58.5569 174.019 66.4727C173.068 71.1318 172.122 75.7972 171.18 80.4596C170.933 81.6774 170.834 82.88 171.436 84.0547C174.47 89.9531 174.721 96.0944 172.994 102.393C172.397 104.573 172.32 104.82 174.325 105.85C178.707 108.098 183.178 110.171 187.618 112.311C192.75 114.787 197.895 117.238 203.018 119.732C204.507 120.458 204.773 121.472 203.917 122.881C199.205 130.643 194.029 138.079 187.571 144.522C183.981 148.105 180.001 151.233 175.79 154.111C168.068 159.388 159.608 162.762 150.475 164.543C146.232 165.37 141.947 165.933 139.354 165.733H139.36ZM59.256 101.489C58.4743 101.873 58.0661 101.424 57.6276 101.233C53.5704 99.4897 49.5166 97.7401 45.4845 95.9377C44.6654 95.5719 44.1493 95.6243 43.4822 96.279C39.416 100.265 35.2969 104.201 31.1905 108.15C29.8528 109.436 29.8464 109.429 31.3853 110.293C54.757 123.431 78.1441 136.551 101.497 149.726C107.698 153.225 114.231 155.963 121.069 157.789C126.219 159.164 131.555 159.945 136.96 159.801C141.962 159.665 146.887 159.502 151.843 158.272C164.407 155.147 174.971 148.819 183.926 139.672C185.847 137.71 187.494 135.481 189.373 133.472C192.07 130.594 193.971 127.159 196.282 124.01C196.643 123.521 196.674 123.201 195.936 122.881C194.212 122.134 192.565 121.214 190.872 120.396C182.696 116.438 174.511 112.505 166.347 108.519C165.516 108.113 165.161 108.147 164.747 109.042C163.736 111.229 162.191 113.123 160.492 114.75C157.378 117.733 153.774 120.058 149.659 121.586C141.789 124.505 134.064 124.289 126.445 120.808C121.186 118.406 117.503 114.261 113.996 109.826C103.255 96.2423 92.3855 82.76 81.5677 69.2344C73.8153 59.547 66.0659 49.8567 58.3105 40.1723C57.887 39.6435 57.6243 38.8929 56.6914 39.7664C51.6361 44.5024 46.5289 49.1893 41.4213 53.8733C40.828 54.4174 40.6858 54.7557 41.3067 55.4755C47.264 62.3796 53.1719 69.3298 59.0859 76.2741C59.259 76.4769 59.6049 76.6585 59.3362 77.1012C58.8418 77.1383 58.5515 76.7383 58.2023 76.4861C55.2515 74.3458 52.285 72.2267 49.3745 70.031C48.5524 69.4097 48.0491 69.4683 47.3196 70.1632C43.0803 74.195 38.8041 78.1901 34.5152 82.1662C33.7584 82.8674 33.607 83.261 34.5924 83.9593C37.3858 85.9399 40.1851 87.9112 42.9258 89.9684C46.4792 92.6349 50.2088 95.0705 53.8484 97.6201C55.6313 98.8687 57.3896 100.154 59.2467 101.486L59.256 101.489ZM109.475 97.1247C108.832 83.215 115.843 71.7962 127.81 66.9035C134.75 64.065 141.863 63.8002 148.911 66.3591C155.86 68.8808 161.422 73.2387 165.176 80.1243C165.396 79.2909 165.531 78.8664 165.618 78.4359C166.752 72.8725 167.874 67.3061 169.011 61.7431C170.342 55.2233 171.674 48.7065 173.034 42.1931C173.303 40.9014 173.12 40.0988 171.804 39.3081C157.974 31.0109 143.078 28.3506 127.304 31.3369C108.505 34.8952 94.1773 45.1482 83.9375 61.1648C83.3722 62.0506 83.3196 62.65 84.0241 63.5729C91.4739 73.3 98.8587 83.0765 106.259 92.8411C107.251 94.1509 108.23 95.4701 109.472 97.128L109.475 97.1247ZM148.686 75.4559C137.473 75.0778 128.666 84.4176 128.478 94.7508C128.29 105.145 136.546 114.707 148.086 114.857C159.284 115.005 168.204 106.074 168.214 94.9413C168.223 84.0547 158.774 75.2008 148.683 75.4529L148.686 75.4559Z" fill="#0A2673" />
        <path d="M59.2592 101.489C57.3991 100.157 55.6438 98.8717 53.8609 97.6231C50.2183 95.0738 46.4918 92.6379 42.9383 89.9717C40.1976 87.9142 37.3983 85.9428 34.6053 83.9626C33.6195 83.2644 33.771 82.8707 34.5281 82.1695C38.8196 78.193 43.0928 74.195 47.3321 70.1665C48.0645 69.4713 48.5649 69.413 49.387 70.0343C52.2945 72.23 55.264 74.3488 58.2148 76.4895C58.564 76.7446 58.8573 77.1446 59.3487 77.1045C59.6174 76.6614 59.2715 76.4802 59.0984 76.277C53.1844 69.3331 47.2765 62.3826 41.3193 55.4784C40.6983 54.759 40.8405 54.4207 41.4338 53.8762C46.538 49.1893 51.6456 44.5057 56.7039 39.7697C57.6338 38.8962 57.8995 39.6497 58.323 40.1756C66.0784 49.86 73.8278 59.5503 81.5802 69.2377C92.398 82.76 103.268 96.2456 114.008 109.829C117.515 114.264 121.199 118.409 126.457 120.811C134.077 124.293 141.802 124.508 149.672 121.589C153.787 120.061 157.39 117.736 160.505 114.753C162.201 113.126 163.749 111.232 164.759 109.045C165.173 108.147 165.529 108.116 166.36 108.522C174.523 112.505 182.708 116.441 190.884 120.399C192.577 121.217 194.224 122.14 195.948 122.884C196.684 123.204 196.653 123.524 196.294 124.013C193.983 127.159 192.083 130.597 189.385 133.476C187.504 135.484 185.86 137.71 183.938 139.676C174.984 148.821 164.419 155.151 151.856 158.275C146.9 159.509 141.975 159.672 136.972 159.804C131.565 159.948 126.232 159.167 121.081 157.792C114.243 155.966 107.708 153.229 101.51 149.729C78.1566 136.554 54.7725 123.435 31.3978 110.297C29.8589 109.433 29.8653 109.439 31.2034 108.153C35.3098 104.204 39.4285 100.271 43.4947 96.2823C44.1652 95.6272 44.6779 95.5748 45.497 95.941C49.5291 97.743 53.5829 99.493 57.6401 101.237C58.0789 101.424 58.4834 101.876 59.2685 101.492L59.2592 101.489Z" fill="#FBFCFC" />
        <path d="M109.474 97.1251C108.232 95.4676 107.252 94.1484 106.261 92.8382C98.8605 83.0739 91.4757 73.2974 84.0262 63.57C83.3188 62.6475 83.3744 62.0477 83.9397 61.1623C94.1794 45.1457 108.507 34.8923 127.306 31.3344C143.079 28.348 157.976 31.0083 171.806 39.3056C173.122 40.0959 173.308 40.8984 173.036 42.1901C171.673 48.704 170.345 55.2204 169.013 61.7401C167.876 67.3036 166.754 72.87 165.62 78.4334C165.534 78.8639 165.398 79.2883 165.178 80.1217C161.424 73.2358 155.862 68.8783 148.913 66.3565C141.865 63.7976 134.752 64.0591 127.813 66.9006C115.846 71.7967 108.835 83.2154 109.477 97.1221L109.474 97.1251Z" fill="#FBFCFC" />
        <path d="M148.688 75.4557C158.776 75.2002 168.228 84.0541 168.219 94.944C168.21 106.077 159.289 115.008 148.091 114.86C136.551 114.709 128.295 105.148 128.483 94.7535C128.672 84.4203 137.478 75.0802 148.691 75.4586L148.688 75.4557Z" fill="#ED6D00" />
    </g>
    <defs>
        <clipPath id="clip0_1_7">
            <rect width="222.467" height="166.067" fill="white" transform="translate(0 12)" />
        </clipPath>
    </defs>
</svg>