<svg xmlns="http://www.w3.org/2000/svg" width="142" height="106" viewBox="0 0 142 106" fill="none">
    <g clip-path="url(#clip0_1_1606)">
        <path d="M87.3145 105.655C85.6439 105.655 83.9381 105.871 82.3071 105.614C78.1376 104.954 74.0038 104.11 69.9784 102.766C64.3081 100.871 59.1823 97.9075 54.0211 94.9924C46.7729 90.9015 39.5071 86.844 32.2532 82.7668C29.3975 81.1631 26.5534 79.5357 23.6936 77.9358C17.6468 74.5537 11.596 71.1832 5.54308 67.8109C4.02445 66.9648 2.49991 66.1266 0.975342 65.2883C0.0779659 64.7936 0.0385235 64.5916 0.787992 63.8691C4.29463 60.487 7.79932 57.1008 11.3297 53.7419C11.953 53.1493 12.1066 52.8352 11.2527 52.2679C8.88998 50.6993 6.6002 49.0212 4.28084 47.3897C3.33417 46.7243 3.32233 46.6715 4.11517 45.9235C8.09321 42.1742 12.0633 38.415 16.067 34.6913C16.5996 34.1946 16.6193 33.9218 16.1342 33.3761C14.1578 31.152 12.2467 28.8729 10.2863 26.637C9.9984 26.3072 9.99838 26.1757 10.3238 25.8793C15.1834 21.4449 20.0274 16.9968 24.8731 12.5486C28.1056 9.58068 31.3341 6.61058 34.5628 3.63859C35.4681 2.80438 36.4127 2.00549 37.2628 1.11819C37.8091 0.546876 38.1266 0.698119 38.5408 1.22036C40.6492 3.88015 42.7732 6.52808 44.8915 9.18218C46.625 11.3553 48.3684 13.5222 50.0843 15.7072C50.5025 16.2392 50.7766 16.3923 51.3506 15.8091C56.0939 11.0018 61.5648 7.21531 67.7714 4.51807C72.9506 2.26839 78.3605 0.878759 83.9991 0.358417C91.4345 -0.32668 98.6726 0.57651 105.726 2.96534C110.508 4.58492 114.892 6.98561 119.074 9.78076C120.271 10.5818 121.484 11.365 122.718 12.107C123.298 12.4545 123.523 12.8137 123.371 13.5244C122.06 19.7156 120.78 25.9147 119.504 32.1118C118.721 35.918 117.965 39.7302 117.19 43.5364C117.115 43.9055 117.167 44.2293 117.303 44.5808C118.51 47.7038 119.021 50.9428 118.845 54.2798C118.815 54.8433 119.003 55.0827 119.48 55.3143C126.71 58.7967 133.927 62.3104 141.165 65.7771C141.914 66.1363 141.997 66.3463 141.536 67.0767C138.378 72.0803 135.459 77.2332 131.964 82.0208C126.243 89.861 119.235 96.2526 110.445 100.569C103.16 104.148 95.4344 105.871 87.3086 105.649L87.3145 105.655ZM88.5571 101.319C97.9055 101.305 107.136 98.3216 115.413 92.3895C119.6 89.39 123.221 85.8095 126.468 81.8404C129.523 78.1027 131.984 73.9706 134.52 69.8877C135.625 68.1091 135.625 68.1012 133.698 67.1689C127.44 64.14 121.184 61.1092 114.92 58.0919C114.259 57.7741 113.843 57.5209 114.025 56.5745C114.75 52.7939 114.366 49.0897 112.826 45.5407C112.522 44.8399 112.431 44.2236 112.593 43.4501C114.467 34.4656 116.316 25.4768 118.113 16.4767C118.531 14.3861 118.821 15.0534 116.963 13.7932C116.61 13.5538 116.241 13.3378 115.888 13.1003C105.692 6.26708 94.5134 3.4935 82.2933 5.0991C74.2167 6.16112 66.9135 9.17223 60.348 13.9482C56.9123 16.4473 53.8613 19.3643 51.2066 22.6758C50.7431 23.253 50.4413 23.3196 49.9404 22.7032C49.2225 21.8178 48.4475 20.9621 47.7592 20.065C44.5819 15.9132 41.2486 11.8832 38.0142 7.77856C37.5645 7.20939 37.2628 7.17217 36.8112 7.68824C36.6611 7.85916 36.462 7.9848 36.2943 8.14174C29.8431 14.0935 23.3959 20.0494 16.9368 25.9912C16.43 26.4566 16.355 26.7704 16.8499 27.332C18.7098 29.4442 20.4868 31.6271 22.3487 33.7371C22.8615 34.3181 22.7312 34.6128 22.2303 35.0779C18.5126 38.5328 14.8304 42.027 11.1028 45.4738C10.4757 46.053 10.5802 46.3377 11.2113 46.7753C13.5269 48.383 15.8186 50.0242 18.1122 51.6594C19.1476 52.3974 19.1457 52.4111 18.1989 53.3259C14.994 56.4195 11.7853 59.5093 8.58035 62.601C7.48574 63.6571 7.48181 63.6709 8.76572 64.3932C21.4612 71.5365 34.1584 78.6759 46.8558 85.8135C51.6286 88.4967 56.4152 91.1528 61.1764 93.8538C69.4006 98.5217 78.1909 101.174 88.553 101.321L88.5571 101.319Z" fill="#FBFCFC" />
        <path d="M88.5575 101.321C78.1954 101.176 69.405 98.5223 61.1808 93.8542C56.4197 91.1512 51.6311 88.4952 46.8602 85.8139C34.1628 78.6763 21.4654 71.5349 8.77014 64.3938C7.48423 63.6712 7.48818 63.6575 8.58474 62.6014C11.7898 59.5078 14.9985 56.4201 18.2034 53.3263C19.1501 52.4115 19.152 52.398 18.1167 51.6598C15.8209 50.0245 13.5311 48.3815 11.2157 46.7759C10.5846 46.338 10.4821 46.0533 11.1073 45.4744C14.8348 42.0274 18.5151 38.5332 22.2347 35.0783C22.7356 34.6132 22.8659 34.3206 22.3531 33.7377C20.4913 31.6274 18.7142 29.4446 16.8543 27.3324C16.3594 26.7711 16.4342 26.457 16.9413 25.9916C23.4023 20.0498 29.8495 14.0939 36.2988 8.14211C36.4665 7.98707 36.6656 7.85954 36.8156 7.68885C37.2691 7.17444 37.5709 7.20976 38.0187 7.77917C41.2531 11.8857 44.5861 15.9138 47.7634 20.0654C48.4517 20.9646 49.227 21.8184 49.9448 22.7036C50.4457 23.3221 50.7475 23.2534 51.211 22.6761C53.8676 19.3647 56.9167 16.4477 60.3524 13.9488C66.918 9.17473 74.2212 6.16149 82.2977 5.09947C94.5176 3.49198 105.696 6.26745 115.893 13.1006C116.246 13.3382 116.615 13.5541 116.968 13.7936C118.826 15.054 118.534 14.3864 118.118 16.4771C116.321 25.4774 114.471 34.466 112.597 43.4505C112.436 44.2221 112.526 44.8384 112.83 45.5411C114.368 49.0903 114.755 52.7943 114.029 56.5752C113.848 57.5194 114.264 57.7725 114.925 58.0926C121.186 61.1115 127.444 64.1404 133.702 67.1693C135.627 68.1019 135.629 68.1097 134.525 69.8881C131.988 73.9712 129.527 78.1052 126.472 81.8408C123.226 85.812 119.605 89.3904 115.418 92.3899C107.14 98.3201 97.9118 101.304 88.5615 101.32L88.5575 101.321ZM88.954 98.1276C90.6086 98.2554 93.3441 97.896 96.0521 97.3681C101.882 96.2314 107.282 94.0779 112.211 90.7096C114.899 88.8703 117.439 86.8737 119.731 84.589C123.853 80.4765 127.157 75.7299 130.164 70.7754C130.711 69.8762 130.541 69.2265 129.59 68.7651C126.32 67.1733 123.037 65.6068 119.76 64.0285C116.928 62.6623 114.073 61.3393 111.276 59.9044C109.998 59.2487 110.045 59.0896 110.426 57.6979C111.528 53.6776 111.367 49.7576 109.432 45.9927C109.047 45.2428 109.11 44.4753 109.268 43.6979C109.87 40.7219 110.471 37.7461 111.081 34.7701C112.114 29.7156 113.197 24.6705 114.171 19.606C114.938 15.6094 115.177 16.7461 112.303 14.6005C112.173 14.5024 112.021 14.4336 111.879 14.3511C106.836 11.4519 101.523 9.34755 95.7149 8.45834C89.3465 7.48451 83.0847 7.86736 76.8878 9.48291C71.1997 10.965 66.1646 13.8348 61.3642 17.0993C59.672 18.2495 58.2203 19.7532 56.6878 21.1274C54.7334 22.8824 53.2286 25.0043 51.769 27.1674C50.8737 28.4964 50.4714 28.4769 49.503 27.2577C47.1027 24.2388 44.7283 21.2 42.3003 18.2026C40.7975 16.3476 39.4268 14.3883 37.7781 12.6512C37.3401 12.188 36.918 11.9898 36.3421 12.4746C34.1866 14.2845 32.1097 16.1905 30.0645 18.1104C27.5382 20.4817 24.9997 22.8411 22.4477 25.1868C20.5365 26.9458 20.8028 26.9986 22.2328 28.736C23.5187 30.2985 24.8952 31.7865 26.1949 33.3371C27.1338 34.4581 27.1357 34.9135 26.0629 35.8087C25.0057 36.6919 24.063 37.6852 23.065 38.6235C20.8462 40.7082 18.6333 42.8007 16.4027 44.8737C15.7794 45.4529 15.7697 45.9711 16.4166 46.509C16.669 46.7169 16.9215 46.9269 17.1897 47.1154C19.0653 48.4306 20.9526 49.732 22.8223 51.0572C23.9012 51.8226 23.927 52.2074 23 53.1456C21.9191 54.2371 20.8383 55.3306 19.726 56.3886C17.7577 58.2595 15.7323 60.0732 13.8683 62.0498C13.1366 62.8252 13.1743 63.1649 14.0815 63.7203C14.7796 64.1463 15.5132 64.5135 16.2291 64.912C19.6057 66.8004 22.9862 68.6807 26.3547 70.581C30.7745 73.0741 35.1786 75.5927 39.5985 78.0796C43.6236 80.3449 47.6786 82.5631 51.6961 84.8403C56.3113 87.4569 60.8731 90.1755 65.6025 92.5861C72.5744 96.1392 79.9724 98.0648 88.9578 98.1276H88.954Z" fill="#C81219" />
        <path d="M88.9534 98.1271C79.968 98.0624 72.57 96.1368 65.5981 92.5857C60.8687 90.175 56.3088 87.4564 51.6917 84.8398C47.6723 82.5607 43.6193 80.3445 39.5941 78.0791C35.1721 75.5922 30.7682 73.0715 26.3503 70.5805C22.9818 68.6803 19.6013 66.7999 16.2247 64.9115C15.5109 64.5109 14.7752 64.1458 14.0771 63.7198C13.1696 63.1663 13.1322 62.8268 13.8639 62.0493C15.7276 60.0727 17.7533 58.2609 19.7216 56.3881C20.8339 55.3301 21.9167 54.2366 22.9956 53.1452C23.9226 52.2069 23.8968 51.8222 22.8179 51.0567C20.9504 49.7296 19.0628 48.4301 17.1853 47.1149C16.9171 46.9264 16.6646 46.7185 16.4122 46.5085C15.7653 45.9706 15.775 45.4524 16.3984 44.8733C18.6289 42.8002 20.8418 40.7077 23.0606 38.623C24.0605 37.6847 25.0013 36.6915 26.0583 35.8082C27.1313 34.9112 27.1275 34.4555 26.1905 33.3366C24.8908 31.7839 23.5141 30.2961 22.2282 28.7356C20.7965 26.9982 20.5302 26.9432 22.4433 25.1863C24.9953 22.8406 27.5317 20.481 30.0601 18.1097C32.1053 16.19 34.1841 14.284 36.3377 12.4741C36.9136 11.9891 37.3357 12.1875 37.7737 12.6507C39.4204 14.3879 40.7931 16.3491 42.2959 18.2021C44.7237 21.1995 47.0983 24.2383 49.4986 27.2573C50.4671 28.4765 50.8693 28.494 51.7646 27.167C53.2242 25.0038 54.729 22.8838 56.6834 21.127C58.214 19.7508 59.6676 18.2491 61.3598 17.0989C66.1602 13.8344 71.1974 10.9645 76.8834 9.48244C83.08 7.86689 89.34 7.48405 95.7105 8.45788C101.519 9.34708 106.832 11.4493 111.875 14.3507C112.017 14.4332 112.169 14.5019 112.299 14.6C115.173 16.7454 114.934 15.609 114.167 19.6055C113.195 24.6722 112.11 29.717 111.076 34.7696C110.469 37.7435 109.865 40.7214 109.264 43.6975C109.106 44.4748 109.043 45.2424 109.428 45.9922C111.364 49.7571 111.524 53.6771 110.421 57.6974C110.041 59.0892 109.992 59.2463 111.271 59.9039C114.068 61.3388 116.922 62.6619 119.756 64.028C123.032 65.6082 126.316 67.1728 129.586 68.7647C130.536 69.2281 130.706 69.8758 130.16 70.7749C127.152 75.7294 123.849 80.476 119.727 84.5885C117.435 86.8754 114.894 88.8717 112.206 90.7091C107.278 94.0775 101.878 96.2309 96.0477 97.3676C93.3397 97.8955 90.6042 98.2549 88.9496 98.1271H88.9534ZM37.823 57.1204C37.324 57.3657 37.0635 57.0791 36.7836 56.9573C34.1939 55.8443 31.6064 54.7275 29.0326 53.5771C28.5098 53.3436 28.1804 53.377 27.7546 53.7949C25.1592 56.3391 22.53 58.8516 19.9088 61.3723C19.055 62.1927 19.0509 62.1887 20.0332 62.7403C34.9513 71.1262 49.8792 79.5003 64.7855 87.9099C68.7437 90.1437 72.9132 91.8908 77.2778 93.0567C80.5656 93.9343 83.9715 94.4328 87.421 94.3406C90.614 94.2543 93.7579 94.1502 96.9214 93.3651C104.941 91.3705 111.684 87.3308 117.399 81.4928C118.626 80.2404 119.677 78.8173 120.876 77.5353C122.598 75.6981 123.811 73.5053 125.286 71.4953C125.517 71.1831 125.537 70.979 125.065 70.7749C123.965 70.298 122.914 69.711 121.833 69.1888C116.614 66.6624 111.39 64.1518 106.179 61.6077C105.649 61.3486 105.422 61.3701 105.158 61.9414C104.513 63.3372 103.526 64.5462 102.442 65.5848C100.454 67.4888 98.1539 68.9728 95.5271 69.9485C90.5037 71.8113 85.573 71.6738 80.7094 69.4519C77.3526 67.9188 75.0018 65.2726 72.7632 62.4421C65.9078 53.7715 58.9695 45.1658 52.0645 36.5324C47.1161 30.349 42.1697 24.1637 37.2195 17.9822C36.9491 17.6446 36.7815 17.1655 36.186 17.723C32.9592 20.746 29.6993 23.7377 26.4391 26.7275C26.0604 27.0747 25.9697 27.2907 26.366 27.7501C30.1685 32.157 33.9395 36.5933 37.7144 41.0258C37.8249 41.1553 38.0457 41.2712 37.8742 41.5538C37.5586 41.5775 37.3733 41.3221 37.1504 41.1612C35.2669 39.795 33.3734 38.4424 31.5156 37.0409C30.9909 36.6443 30.6696 36.6817 30.204 37.1253C27.4981 39.6988 24.7686 42.2488 22.031 44.7867C21.548 45.2343 21.4513 45.4856 22.0803 45.9313C23.8633 47.1955 25.6501 48.4538 27.3995 49.7669C29.6676 51.4689 32.0482 53.0236 34.3714 54.651C35.5094 55.4479 36.6316 56.2684 37.817 57.1183L37.823 57.1204ZM69.8779 54.3347C69.4675 45.4562 73.9426 38.1676 81.5812 35.0446C86.0108 33.2328 90.5511 33.0638 95.0498 34.6971C99.4854 36.3067 103.035 39.0883 105.432 43.4834C105.572 42.9514 105.658 42.6805 105.714 42.4057C106.437 38.8546 107.153 35.3016 107.879 31.7507C108.729 27.5892 109.579 23.4295 110.447 19.272C110.619 18.4475 110.502 17.9352 109.662 17.4305C100.834 12.1344 91.3261 10.4364 81.2577 12.3425C69.2587 14.6138 60.1132 21.1583 53.5772 31.3816C53.2163 31.947 53.1827 32.3296 53.6324 32.9187C58.3876 39.1275 63.1013 45.3678 67.8248 51.6005C68.4579 52.4366 69.0831 53.2786 69.876 54.3369L69.8779 54.3347ZM94.9057 40.5036C87.7485 40.2623 82.1276 46.2238 82.0073 52.8195C81.887 59.4542 87.1569 65.5573 94.5232 65.6535C101.671 65.7476 107.364 60.0471 107.37 52.9411C107.376 45.9922 101.345 40.3407 94.9038 40.5017L94.9057 40.5036Z" fill="#0A2673" />
        <path d="M37.8236 57.1207C36.6363 56.2708 35.5159 55.4501 34.3779 54.6531C32.0529 53.026 29.6742 51.4711 27.406 49.7693C25.6566 48.456 23.8698 47.1977 22.0871 45.9337C21.4578 45.488 21.5545 45.2367 22.0378 44.7892C24.7771 42.251 27.5047 39.6991 30.2106 37.1277C30.6781 36.6839 30.9975 36.6467 31.5222 37.0433C33.3781 38.4448 35.2735 39.7972 37.157 41.1636C37.3799 41.3265 37.5671 41.5818 37.8808 41.5562C38.0523 41.2734 37.8315 41.1577 37.721 41.028C33.9461 36.5957 30.1751 32.1592 26.3726 27.7523C25.9763 27.2931 26.067 27.0771 26.4457 26.7296C29.7037 23.7379 32.9639 20.7484 36.1926 17.7255C36.7861 17.1679 36.9557 17.6489 37.226 17.9846C42.1763 24.1661 47.1227 30.3514 52.0711 36.5348C58.976 45.1661 65.9143 53.7739 72.7698 62.4443C75.0084 65.275 77.3594 67.921 80.716 69.4541C85.5796 71.6763 90.5103 71.8138 95.5337 69.9507C98.1605 68.9752 100.46 67.4912 102.448 65.587C103.531 64.5486 104.519 63.3394 105.164 61.9438C105.428 61.3706 105.655 61.351 106.186 61.6101C111.396 64.152 116.621 66.6649 121.84 69.1912C122.92 69.7132 123.971 70.3023 125.072 70.7771C125.541 70.9814 125.522 71.1855 125.293 71.4975C123.818 73.5059 122.605 75.7003 120.883 77.5378C119.682 78.8195 118.633 80.2407 117.406 81.4952C111.69 87.333 104.947 91.3729 96.928 93.3673C93.7645 94.1546 90.6208 94.2586 87.4276 94.343C83.9762 94.4352 80.5722 93.9367 77.2844 93.0591C72.9198 91.893 68.7484 90.1461 64.7921 87.9121C49.8858 79.5027 34.9598 71.1287 20.0397 62.7427C19.0575 62.1911 19.0615 62.1951 19.9156 61.3744C22.5368 58.854 25.1658 56.3434 27.7612 53.7974C28.1892 53.3792 28.5164 53.3458 29.0392 53.5795C31.6129 54.7297 34.2005 55.8467 36.7902 56.9597C37.0703 57.0794 37.3285 57.3679 37.8296 57.1226L37.8236 57.1207Z" fill="#FBFCFC" />
        <path d="M69.8784 54.3353C69.0855 53.2773 68.4603 52.4352 67.8272 51.5989C63.1037 45.3664 58.3899 39.1261 53.635 32.9171C53.1834 32.3282 53.2189 31.9454 53.5797 31.3802C60.1158 21.1569 69.261 14.6122 81.2603 12.3412C91.3285 10.435 100.837 12.133 109.665 17.4291C110.505 17.9336 110.623 18.4459 110.45 19.2704C109.58 23.4281 108.732 27.5875 107.882 31.7491C107.156 35.3002 106.44 38.8532 105.716 42.4044C105.661 42.6791 105.574 42.9501 105.434 43.482C103.038 39.0867 99.4877 36.3053 95.0521 34.6957C90.5535 33.0624 86.0134 33.2293 81.5838 35.043C73.9452 38.1681 69.4701 45.4567 69.8803 54.3334L69.8784 54.3353Z" fill="#FBFCFC" />
        <path d="M94.9052 40.5037C101.345 40.3406 107.378 45.9921 107.372 52.9431C107.366 60.0492 101.672 65.7497 94.5243 65.6556C87.158 65.5593 81.8881 59.4563 82.0084 52.8215C82.1289 46.2258 87.7497 40.2641 94.9071 40.5056L94.9052 40.5037Z" fill="#ED6D00" />
    </g>
    <defs>
        <clipPath id="clip0_1_1606">
            <rect width="142" height="106" fill="white" />
        </clipPath>
    </defs>
  </svg>