<svg xmlns="http://www.w3.org/2000/svg" width="32" height="32" viewBox="0 0 32 32">
    <path d="M8 23C9.65685 23 11 21.6569 11 20C11 18.3431 9.65685 17 8 17C6.34315 17 5 18.3431 5 20C5 21.6569 6.34315 23 8 23Z" />
    <path d="M13.26 24H8.5C7.57174 24 6.6815 24.3687 6.02513 25.0251C5.36875 25.6815 5 26.5717 5 27.5C5 28.4283 5.36875 29.3185 6.02513 29.9749C6.6815 30.6313 7.57174 31 8.5 31H17C17.2109 30.9998 17.4163 30.933 17.5869 30.8091C17.7576 30.6852 17.8846 30.5105 17.95 30.31C22.14 17.31 23.72 12.31 24.48 10H17.48L13.26 24Z" />
    <path d="M25.9999 5.39988C26.1533 4.97189 26.2186 4.51728 26.1917 4.06342C26.1648 3.60955 26.0464 3.16582 25.8435 2.75892C25.6407 2.35203 25.3576 1.99039 25.0113 1.69578C24.665 1.40117 24.2626 1.17968 23.8285 1.04465C23.3944 0.909611 22.9374 0.863819 22.4851 0.91003C22.0328 0.95624 21.5945 1.0935 21.1966 1.31354C20.7988 1.53358 20.4495 1.83185 20.17 2.1904C19.8904 2.54895 19.6863 2.96037 19.5699 3.39988L18.1299 7.99988H25.1299L25.9999 5.39988Z" />
</svg>