<svg xmlns="http://www.w3.org/2000/svg" width="32" height="32" viewBox="0 0 32 32">
    <path d="M7.55032 14.4798H7.49032L1.85032 11.0698C0.903116 13.7501 0.743493 16.6456 1.39034 19.4138C2.03719 22.1819 3.46343 24.7069 5.50032 26.6898L9.92032 21.7598L7.55032 14.4798Z" />
    <path d="M23.83 12.3398L29.29 9.0598C28.0987 6.78409 26.343 4.85242 24.191 3.44988C22.039 2.04734 19.563 1.22092 17 1.0498V7.3798L23.83 12.3398Z" />
    <path d="M11.23 23.5601H11.02L7 28.0001C9.53907 29.9166 12.6246 30.9708 15.8055 31.0085C18.9865 31.0463 22.0961 30.0657 24.68 28.2101L20.52 23.5701L11.23 23.5601Z" />
    <path d="M14.9996 7.3798V1.0498C12.4094 1.22408 9.90881 2.06763 7.7423 3.49794C5.5758 4.92826 3.8176 6.89637 2.63965 9.2098L7.99965 12.4398L14.9996 7.3798Z" />
    <path d="M16 9.12012L9.45996 13.8801L11.96 21.5601H20.04L22.54 13.8801L16 9.12012Z" />
    <path d="M31 16.0002C30.9975 14.2633 30.6895 12.5403 30.09 10.9102L24.52 14.2502L22 22.1402L26.29 26.9302C27.7793 25.526 28.9654 23.832 29.7754 21.9523C30.5854 20.0726 31.0022 18.047 31 16.0002Z" />
</svg>