<svg xmlns="http://www.w3.org/2000/svg" width="32" height="32" viewBox="0 0 32 32">
    <path d="M1 21C1 21.2652 1.10536 21.5196 1.29289 21.7071C1.48043 21.8946 1.73478 22 2 22H5V23C5 23.2652 5.10536 23.5196 5.29289 23.7071C5.48043 23.8946 5.73478 24 6 24C6.26522 24 6.51957 23.8946 6.70711 23.7071C6.89464 23.5196 7 23.2652 7 23V22H9V23C9 23.2652 9.10536 23.5196 9.29289 23.7071C9.48043 23.8946 9.73478 24 10 24C10.2652 24 10.5196 23.8946 10.7071 23.7071C10.8946 23.5196 11 23.2652 11 23V22H21V23C21 23.2652 21.1054 23.5196 21.2929 23.7071C21.4804 23.8946 21.7348 24 22 24C22.2652 24 22.5196 23.8946 22.7071 23.7071C22.8946 23.5196 23 23.2652 23 23V22H25V23C25 23.2652 25.1054 23.5196 25.2929 23.7071C25.4804 23.8946 25.7348 24 26 24C26.2652 24 26.5196 23.8946 26.7071 23.7071C26.8946 23.5196 27 23.2652 27 23V22C27.8681 21.962 28.7022 21.6518 29.3842 21.1134C30.0663 20.5749 30.5616 19.8356 30.8 19H1V21Z" />
    <path d="M28.9404 14.2202L19.0004 8.3802C18.3523 8.07079 17.6275 7.9589 16.9162 8.05848C16.2049 8.15805 15.5387 8.46469 15.0004 8.9402C13.3704 10.4402 6.00043 10.2402 5.00043 8.8802C4.70963 8.49559 4.30201 8.2156 3.83867 8.08218C3.37533 7.94877 2.88123 7.96912 2.43043 8.1402C2.00105 8.31261 1.63429 8.61158 1.37887 8.99739C1.12345 9.3832 0.99146 9.83759 1.00043 10.3002V17.0002H30.9004C30.7874 16.4251 30.5545 15.8803 30.2168 15.4013C29.879 14.9223 29.4441 14.5198 28.9404 14.2202Z" />
</svg>