<svg xmlns="http://www.w3.org/2000/svg" width="46" height="47" viewBox="0 0 46 47" fill="none">
    <path d="M41.3859 0H4.63594C3.66127 0 2.72652 0.395088 2.03732 1.09835C1.34812 1.80161 0.960938 2.75544 0.960938 3.75V17.5242C0.960938 38.5266 18.3758 45.4945 21.8625 46.6781C22.6072 46.9365 23.4147 46.9365 24.1594 46.6781C27.6506 45.4945 45.0609 38.5266 45.0609 17.5242V3.75C45.0609 2.75544 44.6737 1.80161 43.9846 1.09835C43.2954 0.395088 42.3606 0 41.3859 0ZM33.4985 16.3266L20.636 29.4516C20.4653 29.6259 20.2627 29.7642 20.0396 29.8586C19.8165 29.9529 19.5774 30.0015 19.3359 30.0015C19.0945 30.0015 18.8554 29.9529 18.6323 29.8586C18.4092 29.7642 18.2066 29.6259 18.0359 29.4516L12.5234 23.8266C12.1786 23.4747 11.9849 22.9976 11.9849 22.5C11.9849 22.0024 12.1786 21.5253 12.5234 21.1734C12.8682 20.8216 13.3358 20.624 13.8234 20.624C14.311 20.624 14.7787 20.8216 15.1235 21.1734L19.3359 25.4719L30.8984 13.6734C31.0691 13.4992 31.2718 13.361 31.4949 13.2668C31.7179 13.1725 31.957 13.124 32.1984 13.124C32.4399 13.124 32.6789 13.1725 32.902 13.2668C33.1251 13.361 33.3277 13.4992 33.4985 13.6734C33.6692 13.8476 33.8046 14.0545 33.897 14.2821C33.9894 14.5097 34.037 14.7536 34.037 15C34.037 15.2464 33.9894 15.4903 33.897 15.7179C33.8046 15.9455 33.6692 16.1524 33.4985 16.3266Z" fill="#FF5542" />
</svg>