<svg xmlns="http://www.w3.org/2000/svg" width="32" height="32" viewBox="0 0 32 32" fill="000000">
    <path d="M11.9398 14.9998H14.9998V1.0498C12.9929 1.18431 11.0336 1.72106 9.23838 2.62812C7.44314 3.53519 5.84867 4.79404 4.5498 6.3298C6.51765 6.85098 8.27957 7.96033 9.60011 9.50959C10.9206 11.0589 11.7369 12.9742 11.9398 14.9998Z" />
    <path d="M6.6698 9.50986C5.66292 8.78128 4.49778 8.30152 3.2698 8.10986C1.97127 10.1875 1.20849 12.5549 1.0498 14.9999H9.9298C9.79245 13.91 9.43212 12.8601 8.87125 11.9155C8.31038 10.971 7.561 10.1521 6.6698 9.50986Z" />
    <path d="M20.05 14.9998C20.3049 12.5496 21.4465 10.2771 23.26 8.6098C24.4531 7.52084 25.8953 6.74137 27.46 6.3398C26.1609 4.80104 24.5652 3.53963 22.7681 2.63078C20.971 1.72193 19.0093 1.18425 17 1.0498V14.9998H20.05Z" />
    <path d="M22.0703 14.9999H31.0003C30.8401 12.5567 30.0812 10.1904 28.7903 8.10986C27.2461 8.35321 25.8088 9.04925 24.6603 10.1099C23.2428 11.3799 22.3245 13.1137 22.0703 14.9999Z" />
    <path d="M9.9298 17H1.0498C1.21118 19.4399 1.97014 21.8026 3.2598 23.88C4.17706 23.7387 5.06326 23.4411 5.8798 23C6.97901 22.3887 7.91859 21.5268 8.62227 20.4843C9.32596 19.4418 9.77392 18.2481 9.9298 17Z" />
    <path d="M11.9298 17C11.7701 18.6068 11.2237 20.151 10.3373 21.5006C9.45091 22.8502 8.25088 23.9651 6.8398 24.75C6.11829 25.1519 5.34886 25.4611 4.5498 25.67C5.84422 27.2149 7.4367 28.4831 9.23216 29.3989C11.0276 30.3147 12.9892 30.8592 14.9998 31V17H11.9298Z" />
    <path d="M20.06 17H17V31C19.0126 30.8644 20.9771 30.3242 22.776 29.4118C24.575 28.4994 26.1715 27.2336 27.47 25.69C26.2617 25.3863 25.1217 24.857 24.11 24.13C22.9694 23.2953 22.0187 22.2282 21.3206 20.9992C20.6225 19.7702 20.1928 18.4072 20.06 17Z" />
    <path d="M22.0703 17C22.279 18.7186 23.0436 20.3219 24.2477 21.5657C25.4518 22.8095 27.0294 23.6257 28.7403 23.89C30.0488 21.8141 30.825 19.4476 31.0003 17H22.0703Z" />
</svg>