<svg xmlns="http://www.w3.org/2000/svg" width="64" height="64" viewBox="0 0 64 64" fill="none">
    <path d="M18.0076 11.094C15.6637 11.6666 15.4693 8.16941 17.7873 7.95382C18.2482 7.91095 18.734 7.94167 19.1976 7.94168L44.6011 7.94103C45.1833 7.94011 45.7781 7.90702 46.3588 7.94128C48.3143 8.0605 48.381 10.9478 46.3055 11.0697C46.2258 11.0744 46.137 11.0638 46.0633 11.094V12.1859C46.0592 12.7129 45.8526 13.233 46.3588 13.2559C46.5486 13.2567 46.7416 13.265 46.931 13.2559L51.338 13.2546C53.3293 13.2542 54.3905 12.692 54.2736 15.0496C53.9413 21.7541 49.9798 26.7089 43.5942 28.4822C43.1248 28.622 42.6608 28.7414 42.178 28.8276C41.8583 28.999 41.5753 29.3259 41.2961 29.5622C40.3225 30.3867 39.3052 30.9192 38.2018 31.5467C38.2082 31.6877 38.2332 31.8534 38.2018 31.9909V32.1759C37.7821 34.866 36.7166 36.5177 34.23 37.8394C33.4967 38.0732 32.2497 38.3754 31.4901 38.1865C30.961 38.2131 30.4103 37.9782 29.9066 37.8394C29.7717 37.667 28.9198 37.2625 28.6862 37.0927C27.082 35.927 26.3883 34.2844 26.0901 32.3837C26.0851 32.2844 26.0885 32.1849 26.0901 32.0854C26.0766 31.9464 26.0855 31.8069 26.0901 31.6674C24.7906 31.065 23.6438 30.3417 22.5876 29.3719C22.37 29.1721 22.1392 28.9185 21.8523 28.8276C21.3437 28.6372 20.811 28.4951 20.2917 28.3356C18.719 28.0414 16.5556 26.8231 15.2985 25.8651C11.8308 23.2227 9.45853 18.5461 9.7469 14.1291C9.82266 12.9686 11.155 13.2545 11.9575 13.255L14.8228 13.2561C15.6995 13.256 17.0937 13.1577 17.9048 13.2559H18.0076V11.6632V11.094ZM19.1843 25.9779C19.4645 26.0379 19.679 26.1187 19.9296 26.2579C19.9193 26.0105 19.4653 25.2749 19.3361 25.0117C17.8466 21.9787 18.005 18.5687 18.0076 15.2804H17.2166L13.4541 15.2796C12.8271 15.279 12.1927 15.2445 11.567 15.2804C12.2912 19.6851 13.7211 23.2286 18.0768 25.3849C18.4448 25.567 18.8625 25.721 19.1843 25.9779ZM46.0633 15.2804L46.064 18.0862C46.0623 20.7265 45.7982 23.043 44.508 25.4361C44.3697 25.6926 44.1557 25.9849 44.0686 26.2579C44.3676 26.1899 44.6512 26.0864 44.9377 25.9779C49.2496 23.9919 52.2856 20.2365 52.2451 15.2804H47.1031H46.0633Z" fill="#FF5542" />
    <path d="M44.7345 11.0945C45.0569 11.1368 45.8407 11.0208 46.0634 11.0945V12.1865C46.0593 12.7134 45.8527 13.2335 46.3589 13.2564C46.5487 13.2573 46.7417 13.2655 46.931 13.2564L51.338 13.2552C53.3294 13.2548 54.3905 12.6925 54.2737 15.0502C53.9414 21.7547 49.9799 26.7094 43.5943 28.4828C43.1249 28.6225 42.6609 28.7419 42.178 28.8281C41.8584 28.9995 41.5754 29.3264 41.2962 29.5628C40.3225 30.3873 39.3053 30.9198 38.2019 31.5473C38.2083 31.6883 38.2333 31.8539 38.2019 31.9914V32.1764C37.7822 34.8665 36.7167 36.5183 34.23 37.8399C33.4968 38.0738 32.2498 38.3759 31.4902 38.187C30.961 38.2136 30.4104 37.9788 29.9067 37.8399C29.7718 37.6675 28.9199 37.263 28.6863 37.0933C27.082 35.9275 26.3884 34.2849 26.0902 32.3843C26.0852 32.2849 26.0885 32.1854 26.0902 32.0859C26.0859 31.5593 26.5075 31.8789 26.8292 31.9914C29.0842 32.0189 30.18 32.2329 32.3743 31.5784C37.4883 30.0529 41.6653 25.7453 42.2622 20.3424C42.3923 19.1645 42.3507 17.9934 42.3502 16.811L42.3497 12.1865C42.3667 11.8215 42.3592 11.4596 42.3497 11.0945C43.1444 11.0932 43.9398 11.1073 44.7345 11.0945ZM46.0634 15.2809L46.064 18.0868C46.0624 20.727 45.7983 23.0435 44.508 25.4367C44.3698 25.6932 44.1558 25.9854 44.0687 26.2584C44.3677 26.1904 44.6513 26.0869 44.9378 25.9784C49.2497 23.9924 52.2857 20.237 52.2452 15.2809H47.1032H46.0634Z" fill="#FF5542" />
    <path d="M46.931 13.2564L51.338 13.2552C53.3294 13.2548 54.3905 12.6926 54.2736 15.0502C53.9414 21.7547 49.9799 26.7094 43.5942 28.4828C43.737 27.9751 45.1469 26.5709 44.9377 25.9784C49.2496 23.9924 52.2856 20.2371 52.2451 15.2809H47.1031C47.1025 14.9628 47.1615 13.5051 47.0929 13.2943L46.931 13.2564Z" fill="#FF5542" />
    <path d="M35.5055 33.4167C36.3961 33.1184 37.4849 32.7969 38.2019 32.1758C37.7821 34.8659 36.7166 36.5177 34.23 37.8393C33.4968 38.0732 32.2498 38.3753 31.4901 38.1864C30.961 38.213 30.4104 37.9782 29.9067 37.8393C29.7718 37.6669 28.9199 37.2624 28.6863 37.0927C27.082 35.9269 26.3884 34.2843 26.0901 32.3837C26.398 32.3757 27.6333 33.0215 28.0519 33.1772C30.2033 33.9767 33.2922 33.9045 35.5055 33.4167Z" fill="#FF5542" />
    <path d="M35.5055 33.4167C36.3961 33.1184 37.4849 32.7969 38.2019 32.1758C37.7821 34.8659 36.7166 36.5177 34.23 37.8393C33.4967 38.0732 32.2497 38.3753 31.4901 38.1864C31.7869 37.981 32.1554 37.8638 32.4667 37.6777C33.9585 36.7864 35.0649 35.0937 35.5055 33.4167Z" fill="#FF5542" />
    <path d="M26.8292 31.991C27.301 32.1342 27.719 32.4131 28.1927 32.5532C30.6747 33.2876 33.4942 33.1778 35.9548 32.401C36.7203 32.1593 37.4375 31.7756 38.2019 31.5469C38.1952 31.6798 38.1644 31.8644 38.2019 31.991V32.176C37.4849 32.7971 36.3962 33.1186 35.5055 33.4169C33.2922 33.9047 30.2033 33.9769 28.0519 33.1774C27.6333 33.0218 26.398 32.3759 26.0902 32.3839C26.0852 32.2845 26.0885 32.185 26.0902 32.0855C26.0859 31.5589 26.5075 31.8785 26.8292 31.991Z" fill="#FF5542" />
    <path d="M44.7345 11.0945C45.0569 11.1368 45.8406 11.0208 46.0634 11.0945V12.1865H42.3496C42.3666 11.8215 42.3591 11.4596 42.3496 11.0945C43.1444 11.0932 43.9397 11.1073 44.7345 11.0945Z" fill="#FF5542" />
    <path d="M44.0686 26.258C44.3676 26.19 44.6512 26.0865 44.9377 25.978C45.1469 26.5705 43.737 27.9747 43.5942 28.4824C43.1249 28.6222 42.6609 28.7415 42.178 28.8278C42.191 28.7995 43.8846 26.4959 44.0686 26.258Z" fill="#FF5542" />
    <path d="M46.3589 13.2559C46.5486 13.2567 46.7416 13.265 46.931 13.2559L47.0929 13.2937C47.1615 13.5045 47.1025 14.9622 47.1031 15.2804H46.0634C46.1017 14.6259 46.05 13.9646 46.08 13.3079C46.1526 13.2581 46.2701 13.2642 46.3589 13.2559Z" fill="#FF5542" />
    <path d="M18.0076 11.094C15.6637 11.6666 15.4693 8.16941 17.7873 7.95382C18.2482 7.91095 18.734 7.94167 19.1976 7.94168L44.6011 7.94103C45.1833 7.94011 45.7781 7.90702 46.3588 7.94128C48.3143 8.0605 48.381 10.9478 46.3055 11.0697C46.2258 11.0744 46.137 11.0638 46.0633 11.094C45.8406 11.0202 45.0568 11.1363 44.7345 11.094C43.9397 11.1067 43.1443 11.0926 42.3496 11.094L20.7492 11.0943C20.3505 11.0943 18.2103 11.0489 18.0076 11.094Z" fill="#FF5542" />
    <path d="M45.2837 7.94141C45.6444 7.96624 45.9986 7.97647 46.3589 7.94141C48.3144 8.06062 48.381 10.9479 46.3055 11.0698C46.2259 11.0745 46.137 11.0639 46.0634 11.0941C45.8406 11.0203 45.0569 11.1364 44.7345 11.0941C46.2121 10.0384 46.8187 9.52696 45.2837 7.94141Z" fill="#FF5542" />
    <path d="M20.2917 28.3357C18.719 28.0415 16.5556 26.8232 15.2985 25.8652C11.8308 23.2229 9.45853 18.5462 9.7469 14.1292C9.82266 12.9687 11.155 13.2546 11.9575 13.2551L14.8228 13.2562C15.6995 13.2561 17.0937 13.1579 17.9048 13.256H18.0076C18.0346 13.4922 18.0482 15.135 18.0076 15.2805H17.2166L13.4541 15.2797C12.8271 15.2791 12.1927 15.2446 11.567 15.2805C12.2912 19.6852 13.7211 23.2287 18.0768 25.385C18.4448 25.5671 18.8625 25.7211 19.1843 25.978C19.0712 26.4034 20.275 27.9515 20.2917 28.3357Z" fill="#FF5542" />
    <path d="M17.9048 13.2559H18.0076C18.0346 13.4921 18.0482 15.1349 18.0076 15.2804H17.2166V13.2559C17.4463 13.2606 17.6752 13.2665 17.9048 13.2559Z" fill="#FF5542" />
    <path d="M18.0076 11.0942C18.2103 11.0491 20.3504 11.0945 20.7492 11.0945L42.3496 11.0942C42.3591 11.4592 42.3666 11.8211 42.3496 12.1861H18.0076C18.0181 12.0492 18.0684 11.7834 18.0076 11.6634V11.0942Z" fill="#FF5542" />
    <path d="M20.2917 28.3358C20.2749 27.9515 19.0712 26.4034 19.1843 25.978C19.4644 26.038 19.6789 26.1189 19.9296 26.258C19.9779 26.2938 21.8223 28.7264 21.8523 28.8278C21.3437 28.6374 20.8109 28.4953 20.2917 28.3358Z" fill="#FF5542" />
    <path d="M31.4901 38.1865C32.2497 38.3754 33.4967 38.0732 34.23 37.8394C34.1758 41.3802 34.7391 42.4009 36.4822 45.1555C36.5792 45.1719 36.6531 45.1694 36.7503 45.1555C39.6607 45.1172 39.5906 45.2617 39.5906 48.2839C39.5906 49.6772 39.5718 51.073 39.5896 52.4661C41.26 52.3249 42.0808 54.0209 41.0838 55.0877C40.5162 55.6952 39.7113 55.633 38.9557 55.6131C37.904 55.6505 36.8361 55.6139 35.783 55.614L25.8397 55.6137C24.9353 55.6136 23.6556 55.8507 22.9377 55.1701C21.695 53.9917 22.6873 52.4499 24.5351 52.4661L24.534 48.6719C24.5345 46.6334 24.1155 45.0036 26.9502 45.1821C27.176 45.1964 27.4478 45.2547 27.6605 45.1555C29.2962 43.3012 29.9008 40.9585 29.9066 38.5369V37.8394C30.4103 37.9782 30.961 38.2131 31.4901 38.1865Z" fill="#FF5542" />
    <path d="M39.5896 52.4663C41.26 52.325 42.0808 54.021 41.0838 55.0879C40.5162 55.6954 39.7113 55.6332 38.9557 55.6133C37.904 55.6507 36.8361 55.614 35.783 55.6142L25.8397 55.6139C24.9353 55.6138 23.6556 55.8509 22.9377 55.1703C21.695 53.9919 22.6873 52.45 24.5351 52.4663H32.1696H37.9316H39.5896Z" fill="#002848" />
    <path d="M39.5896 52.4663C41.26 52.325 42.0809 54.021 41.0839 55.0879C40.5163 55.6954 39.7114 55.6332 38.9558 55.6133C38.6795 55.5473 38.3513 55.5977 38.0695 55.6133C39.0659 54.1413 39.2531 53.8974 37.9316 52.4663H39.5896Z" fill="#002848" />
    <path d="M31.4901 38.1865C32.2497 38.3754 33.4967 38.0732 34.23 37.8394C34.1758 41.3802 34.7391 42.4009 36.4822 45.1555C34.1303 45.1265 31.7745 45.1556 29.4221 45.1555C28.8355 45.1579 28.247 45.1699 27.6605 45.1555C29.2962 43.3012 29.9008 40.9585 29.9066 38.5369V37.8394C30.4103 37.9782 30.961 38.2131 31.4901 38.1865Z" fill="#FF5542" />
    <path d="M29.9066 38.5367C30.132 38.4037 30.4803 38.7188 30.6981 38.8035C31.359 39.06 32.1401 39.0656 32.8381 39.007C32.191 41.7032 30.991 43.6626 28.6922 45.1553C28.9326 45.147 29.1836 45.1236 29.4221 45.1553C28.8355 45.1577 28.247 45.1697 27.6605 45.1553C29.2962 43.3011 29.9008 40.9583 29.9066 38.5367Z" fill="#FF5542" />
    <path d="M36.7504 45.1553C39.6608 45.1171 39.5907 45.2616 39.5907 48.2837C39.5907 49.6771 39.5719 51.0728 39.5897 52.4659H37.9317H32.1697C32.4183 52.3703 33.4694 51.6663 33.7264 51.4888C35.7746 50.0743 36.9223 47.6342 36.7504 45.1553Z" fill="#FF5542" />
  </svg>