<svg xmlns="http://www.w3.org/2000/svg" width="155" height="106" viewBox="0 0 155 106" fill="none">
    <g clip-path="url(#clip0_1281_34561)">
        <path d="M90.0391 61.9843V39.2321H92.5697V62.0161C92.5697 62.6959 92.7724 63.2377 93.1783 63.6414C93.5839 64.0449 94.1285 64.2468 94.8119 64.2468H99.6488V39.2321H102.179V64.2468H103.909C104.4 64.2468 104.785 64.3955 105.062 64.693C105.361 64.969 105.511 65.3515 105.511 65.84V66.7642H94.8439C93.3918 66.7642 92.228 66.3286 91.3523 65.4576C90.4768 64.5867 90.0391 63.4288 90.0391 61.9843ZM108.047 62.1436V59.69L110.577 60.9645V62.1755C110.577 62.8553 110.78 63.3971 111.186 63.8006C111.592 64.2043 112.136 64.4061 112.82 64.4061H115.414C116.098 64.4061 116.642 64.2043 117.048 63.8006C117.454 63.3971 117.656 62.8553 117.656 62.1755V54.2728H112.916C111.464 54.2728 110.3 53.8373 109.424 52.9663C108.549 52.0952 108.111 50.9375 108.111 49.4929V39.2321H110.641V49.5248C110.641 50.2046 110.844 50.7463 111.25 51.1499C111.656 51.5535 112.2 51.7553 112.884 51.7553H117.656V39.2321H120.187V62.1436C120.187 63.5882 119.749 64.746 118.874 65.617C117.998 66.488 116.834 66.9235 115.382 66.9235H112.852C111.4 66.9235 110.236 66.488 109.36 65.617C108.485 64.746 108.047 63.5882 108.047 62.1436ZM132.189 39.2321C133.641 39.2321 134.805 39.6676 135.68 40.5386C136.556 41.4097 136.993 42.5674 136.993 44.012V49.461C136.993 50.9056 136.556 52.0635 135.68 52.9344C134.805 53.8054 133.641 54.2409 132.189 54.2409H127.384V66.7642H124.853V39.2321H132.189ZM127.384 51.7553H132.221C132.904 51.7553 133.449 51.5535 133.854 51.1499C134.26 50.7463 134.462 50.2046 134.462 49.5248V43.9482C134.462 43.2684 134.26 42.7268 133.854 42.3231C133.449 41.9195 132.904 41.7177 132.221 41.7177H127.384V51.7553ZM141.06 62.1436V43.8526C141.06 42.4081 141.497 41.2503 142.372 40.3793C143.248 39.5083 144.412 39.0727 145.864 39.0727H148.395C149.847 39.0727 151.011 39.5083 151.886 40.3793C152.762 41.2503 153.199 42.4081 153.199 43.8526V47.7403L150.668 46.4656V43.8208C150.668 43.141 150.466 42.5993 150.06 42.1956C149.655 41.792 149.11 41.5902 148.427 41.5902H145.832C145.149 41.5902 144.604 41.792 144.199 42.1956C143.792 42.5993 143.589 43.141 143.589 43.8208V62.1755C143.589 62.8553 143.792 63.3971 144.199 63.8006C144.604 64.2043 145.149 64.4061 145.832 64.4061H148.427C149.11 64.4061 149.655 64.2043 150.06 63.8006C150.466 63.3971 150.668 62.8553 150.668 62.1755V60.0087L153.199 61.2832V62.1436C153.199 63.5882 152.762 64.746 151.886 65.617C151.011 66.488 149.847 66.9235 148.395 66.9235H145.864C144.412 66.9235 143.248 66.488 142.372 65.617C141.497 64.746 141.06 63.5882 141.06 62.1436Z" fill="#007AFB" />
        <mask id="mask0_1281_34561" style="mask-type:luminance" maskUnits="userSpaceOnUse" x="89" y="38" width="65" height="30">
            <path d="M153.903 38.3285H89.2188V67.6988H153.903V38.3285Z" fill="white" />
            <path d="M90.0391 61.9844V39.2322H92.5697V62.0162C92.5697 62.6959 92.7724 63.2377 93.1783 63.6414C93.5839 64.045 94.1285 64.2468 94.8119 64.2468H99.6488V39.2322H102.179V64.2468H103.909C104.4 64.2468 104.785 64.3955 105.062 64.693C105.361 64.9691 105.511 65.3515 105.511 65.84V66.7643H94.8439C93.3918 66.7643 92.228 66.3286 91.3523 65.4577C90.4768 64.5867 90.0391 63.4289 90.0391 61.9844ZM108.047 62.1436V59.69L110.577 60.9646V62.1756C110.577 62.8553 110.78 63.3971 111.186 63.8007C111.592 64.2044 112.136 64.4061 112.82 64.4061H115.414C116.098 64.4061 116.642 64.2044 117.048 63.8007C117.454 63.3971 117.656 62.8553 117.656 62.1756V54.2728H112.916C111.464 54.2728 110.3 53.8373 109.424 52.9664C108.549 52.0953 108.111 50.9376 108.111 49.4929V39.2322H110.641V49.5248C110.641 50.2046 110.844 50.7464 111.25 51.15C111.656 51.5535 112.2 51.7554 112.884 51.7554H117.656V39.2322H120.187V62.1436C120.187 63.5883 119.749 64.746 118.874 65.6171C117.998 66.488 116.834 66.9235 115.382 66.9235H112.852C111.4 66.9235 110.236 66.488 109.36 65.6171C108.485 64.746 108.047 63.5883 108.047 62.1436ZM132.189 39.2322C133.641 39.2322 134.805 39.6676 135.68 40.5386C136.556 41.4097 136.993 42.5674 136.993 44.012V49.461C136.993 50.9056 136.556 52.0635 135.68 52.9345C134.805 53.8054 133.641 54.2409 132.189 54.2409H127.384V66.7643H124.853V39.2322H132.189ZM127.384 51.7554H132.221C132.904 51.7554 133.449 51.5535 133.854 51.15C134.26 50.7464 134.462 50.2046 134.462 49.5248V43.9482C134.462 43.2684 134.26 42.7268 133.854 42.3231C133.449 41.9195 132.904 41.7177 132.221 41.7177H127.384V51.7554ZM141.06 62.1436V43.8526C141.06 42.4082 141.497 41.2503 142.372 40.3793C143.248 39.5084 144.412 39.0728 145.864 39.0728H148.395C149.847 39.0728 151.011 39.5084 151.886 40.3793C152.762 41.2503 153.199 42.4082 153.199 43.8526V47.7403L150.668 46.4657V43.8209C150.668 43.1411 150.466 42.5993 150.06 42.1956C149.655 41.792 149.11 41.5902 148.427 41.5902H145.832C145.149 41.5902 144.604 41.792 144.199 42.1956C143.792 42.5993 143.589 43.1411 143.589 43.8209V62.1756C143.589 62.8553 143.792 63.3971 144.199 63.8007C144.604 64.2044 145.149 64.4061 145.832 64.4061H148.427C149.11 64.4061 149.655 64.2044 150.06 63.8007C150.466 63.3971 150.668 62.8553 150.668 62.1756V60.0087L153.199 61.2832V62.1436C153.199 63.5883 152.762 64.746 151.886 65.6171C151.011 66.488 149.847 66.9235 148.395 66.9235H145.864C144.412 66.9235 143.248 66.488 142.372 65.6171C141.497 64.746 141.06 63.5883 141.06 62.1436Z" fill="black" />
        </mask>
        <g mask="url(#mask0_1281_34561)">
            <path d="M90.0405 39.2321V38.5429H89.3477V39.2321H90.0405ZM92.5711 39.2321H93.264V38.5429H92.5711V39.2321ZM99.6503 64.2468V64.9361H100.343V64.2468H99.6503ZM99.6503 39.2321V38.5429H98.9574V39.2321H99.6503ZM102.181 39.2321H102.874V38.5429H102.181V39.2321ZM102.181 64.2468H101.488V64.9361H102.181V64.2468ZM105.064 64.693L104.556 65.162L104.573 65.1806L104.592 65.198L105.064 64.693ZM105.512 66.7642V67.4535H106.205V66.7642H105.512ZM90.7334 61.9844V39.2321H89.3477V61.9844H90.7334ZM90.0405 39.9214H92.5711V38.5429H90.0405V39.9214ZM91.8782 39.2321V62.0161H93.264V39.2321H91.8782ZM91.8782 62.0161C91.8782 62.8413 92.1297 63.5716 92.6898 64.1288L93.6697 63.154C93.4182 62.9038 93.264 62.5507 93.264 62.0161H91.8782ZM92.6898 64.1288C93.2499 64.6859 93.9838 64.9361 94.8133 64.9361V63.5575C94.2761 63.5575 93.921 63.404 93.6697 63.154L92.6898 64.1288ZM94.8133 64.9361H99.6503V63.5575H94.8133V64.9361ZM100.343 64.2468V39.2321H98.9574V64.2468H100.343ZM99.6503 39.9214H102.181V38.5429H99.6503V39.9214ZM101.488 39.2321V64.2468H102.874V39.2321H101.488ZM102.181 64.9361H103.911V63.5575H102.181V64.9361ZM103.911 64.9361C104.252 64.9361 104.436 65.0333 104.556 65.162L105.571 64.2238C105.136 63.7578 104.552 63.5575 103.911 63.5575V64.9361ZM104.592 65.198C104.722 65.3175 104.819 65.5008 104.819 65.84H106.205C106.205 65.2021 106.004 64.6206 105.535 64.1878L104.592 65.198ZM104.819 65.84V66.7642H106.205V65.84H104.819ZM105.512 66.0748H94.8454V67.4535H105.512V66.0748ZM94.8454 66.0748C93.5427 66.0748 92.5671 65.6898 91.8438 64.9703L90.864 65.9451C91.8918 66.9676 93.2437 67.4535 94.8454 67.4535V66.0748ZM91.8438 64.9703C91.1206 64.2508 90.7334 63.2801 90.7334 61.9844H89.3477C89.3477 63.5777 89.836 64.9226 90.864 65.9451L91.8438 64.9703ZM108.048 59.69L108.361 59.075L107.355 58.5683V59.69H108.048ZM110.579 60.9645H111.272V60.5409L110.892 60.3496L110.579 60.9645ZM117.658 54.2728H118.351V53.5835H117.658V54.2728ZM108.112 39.2321V38.5429H107.419V39.2321H108.112ZM110.643 39.2321H111.336V38.5429H110.643V39.2321ZM117.658 51.7554V52.4446H118.351V51.7554H117.658ZM117.658 39.2321V38.5429H116.965V39.2321H117.658ZM120.188 39.2321H120.881V38.5429H120.188V39.2321ZM108.741 62.1436V59.69H107.355V62.1436H108.741ZM107.735 60.3049L110.266 61.5796L110.892 60.3496L108.361 59.075L107.735 60.3049ZM109.886 60.9645V62.1755H111.272V60.9645H109.886ZM109.886 62.1755C109.886 63.0007 110.137 63.7308 110.697 64.2881L111.677 63.3132C111.426 63.0632 111.272 62.7099 111.272 62.1755H109.886ZM110.697 64.2881C111.258 64.8452 111.992 65.0953 112.821 65.0953V63.7168C112.284 63.7168 111.929 63.5634 111.677 63.3132L110.697 64.2881ZM112.821 65.0953H115.416V63.7168H112.821V65.0953ZM115.416 65.0953C116.245 65.0953 116.979 64.8452 117.539 64.2881L116.559 63.3132C116.308 63.5634 115.953 63.7168 115.416 63.7168V65.0953ZM117.539 64.2881C118.099 63.7308 118.351 63.0007 118.351 62.1755H116.965C116.965 62.7099 116.811 63.0632 116.559 63.3132L117.539 64.2881ZM118.351 62.1755V54.2728H116.965V62.1755H118.351ZM117.658 53.5835H112.917V54.9621H117.658V53.5835ZM112.917 53.5835C111.615 53.5835 110.639 53.1984 109.916 52.4789L108.936 53.4536C109.963 54.4761 111.316 54.9621 112.917 54.9621V53.5835ZM109.916 52.4789C109.192 51.7594 108.805 50.7887 108.805 49.4929H107.419C107.419 51.0863 107.908 52.4311 108.936 53.4536L109.916 52.4789ZM108.805 49.4929V39.2321H107.419V49.4929H108.805ZM108.112 39.9214H110.643V38.5429H108.112V39.9214ZM109.95 39.2321V49.5248H111.336V39.2321H109.95ZM109.95 49.5248C109.95 50.35 110.201 51.0801 110.762 51.6373L111.741 50.6625C111.49 50.4125 111.336 50.0592 111.336 49.5248H109.95ZM110.762 51.6373C111.322 52.1944 112.056 52.4446 112.885 52.4446V51.0661C112.348 51.0661 111.993 50.9127 111.741 50.6625L110.762 51.6373ZM112.885 52.4446H117.658V51.0661H112.885V52.4446ZM118.351 51.7554V39.2321H116.965V51.7554H118.351ZM117.658 39.9214H120.188V38.5429H117.658V39.9214ZM119.496 39.2321V62.1436H120.881V39.2321H119.496ZM119.496 62.1436C119.496 63.4395 119.108 64.4101 118.385 65.1297L119.365 66.1043C120.393 65.0819 120.881 63.737 120.881 62.1436H119.496ZM118.385 65.1297C117.662 65.8491 116.686 66.2342 115.384 66.2342V67.6128C116.985 67.6128 118.337 67.127 119.365 66.1043L118.385 65.1297ZM115.384 66.2342H112.853V67.6128H115.384V66.2342ZM112.853 66.2342C111.55 66.2342 110.575 65.8491 109.852 65.1297L108.872 66.1043C109.899 67.127 111.251 67.6128 112.853 67.6128V66.2342ZM109.852 65.1297C109.128 64.4101 108.741 63.4395 108.741 62.1436H107.355C107.355 63.737 107.844 65.0819 108.872 66.1043L109.852 65.1297ZM127.385 54.2409V53.5516H126.692V54.2409H127.385ZM127.385 66.7642V67.4535H128.078V66.7642H127.385ZM124.855 66.7642H124.162V67.4535H124.855V66.7642ZM124.855 39.2321V38.5429H124.162V39.2321H124.855ZM127.385 51.7554H126.692V52.4446H127.385V51.7554ZM127.385 41.7177V41.0284H126.692V41.7177H127.385ZM132.19 39.9214C133.493 39.9214 134.468 40.3066 135.191 41.026L136.171 40.0512C135.144 39.0287 133.792 38.5429 132.19 38.5429V39.9214ZM135.191 41.026C135.915 41.7456 136.302 42.7161 136.302 44.012H137.687C137.687 42.4187 137.199 41.0737 136.171 40.0512L135.191 41.026ZM136.302 44.012V49.461H137.687V44.012H136.302ZM136.302 49.461C136.302 50.7569 135.915 51.7275 135.191 52.447L136.171 53.4219C137.199 52.3994 137.687 51.0543 137.687 49.461H136.302ZM135.191 52.447C134.468 53.1665 133.493 53.5516 132.19 53.5516V54.9302C133.792 54.9302 135.144 54.4443 136.171 53.4219L135.191 52.447ZM132.19 53.5516H127.385V54.9302H132.19V53.5516ZM126.692 54.2409V66.7642H128.078V54.2409H126.692ZM127.385 66.0748H124.855V67.4535H127.385V66.0748ZM125.548 66.7642V39.2321H124.162V66.7642H125.548ZM124.855 39.9214H132.19V38.5429H124.855V39.9214ZM127.385 52.4446H132.222V51.0661H127.385V52.4446ZM132.222 52.4446C133.052 52.4446 133.786 52.1944 134.346 51.6373L133.366 50.6625C133.114 50.9127 132.759 51.0661 132.222 51.0661V52.4446ZM134.346 51.6373C134.905 51.0801 135.158 50.35 135.158 49.5248H133.772C133.772 50.0592 133.617 50.4125 133.366 50.6625L134.346 51.6373ZM135.158 49.5248V43.9482H133.772V49.5248H135.158ZM135.158 43.9482C135.158 43.123 134.905 42.3929 134.346 41.8357L133.366 42.8105C133.617 43.0606 133.772 43.4138 133.772 43.9482H135.158ZM134.346 41.8357C133.786 41.2786 133.052 41.0284 132.222 41.0284V42.4069C132.759 42.4069 133.114 42.5605 133.366 42.8105L134.346 41.8357ZM132.222 41.0284H127.385V42.4069H132.222V41.0284ZM126.692 41.7177V51.7554H128.078V41.7177H126.692ZM153.201 47.7403L152.888 48.3552L153.893 48.8619V47.7403H153.201ZM150.67 46.4656H149.977V46.8892L150.357 47.0805L150.67 46.4656ZM150.67 60.0087L150.984 59.3936L149.977 58.887V60.0087H150.67ZM153.201 61.2832H153.893V60.8596L153.514 60.6683L153.201 61.2832ZM141.754 62.1436V43.8526H140.367V62.1436H141.754ZM141.754 43.8526C141.754 42.5569 142.14 41.5862 142.863 40.8667L141.884 39.8919C140.856 40.9144 140.367 42.2593 140.367 43.8526H141.754ZM142.863 40.8667C143.587 40.1472 144.562 39.762 145.865 39.762V38.3835C144.263 38.3835 142.912 38.8694 141.884 39.8919L142.863 40.8667ZM145.865 39.762H148.396V38.3835H145.865V39.762ZM148.396 39.762C149.698 39.762 150.674 40.1472 151.397 40.8667L152.378 39.8919C151.35 38.8694 149.997 38.3835 148.396 38.3835V39.762ZM151.397 40.8667C152.121 41.5862 152.508 42.5569 152.508 43.8526H153.893C153.893 42.2593 153.405 40.9144 152.378 39.8919L151.397 40.8667ZM152.508 43.8526V47.7403H153.893V43.8526H152.508ZM153.514 47.1254L150.984 45.8507L150.357 47.0805L152.888 48.3552L153.514 47.1254ZM151.364 46.4656V43.8208H149.977V46.4656H151.364ZM151.364 43.8208C151.364 42.9957 151.111 42.2654 150.552 41.7082L149.572 42.683C149.823 42.9332 149.977 43.2863 149.977 43.8208H151.364ZM150.552 41.7082C149.992 41.1511 149.258 40.9009 148.429 40.9009V42.2794C148.965 42.2794 149.32 42.433 149.572 42.683L150.552 41.7082ZM148.429 40.9009H145.833V42.2794H148.429V40.9009ZM145.833 40.9009C145.004 40.9009 144.27 41.1511 143.71 41.7082L144.69 42.683C144.941 42.433 145.296 42.2794 145.833 42.2794V40.9009ZM143.71 41.7082C143.149 42.2654 142.898 42.9957 142.898 43.8208H144.285C144.285 43.2863 144.439 42.9332 144.69 42.683L143.71 41.7082ZM142.898 43.8208V62.1755H144.285V43.8208H142.898ZM142.898 62.1755C142.898 63.0007 143.149 63.7308 143.71 64.2881L144.69 63.3132C144.439 63.0632 144.285 62.7099 144.285 62.1755H142.898ZM143.71 64.2881C144.27 64.8452 145.004 65.0953 145.833 65.0953V63.7168C145.296 63.7168 144.941 63.5634 144.69 63.3132L143.71 64.2881ZM145.833 65.0953H148.429V63.7168H145.833V65.0953ZM148.429 65.0953C149.258 65.0953 149.992 64.8452 150.552 64.2881L149.572 63.3132C149.32 63.5634 148.965 63.7168 148.429 63.7168V65.0953ZM150.552 64.2881C151.111 63.7308 151.364 63.0007 151.364 62.1755H149.977C149.977 62.7099 149.823 63.0632 149.572 63.3132L150.552 64.2881ZM151.364 62.1755V60.0087H149.977V62.1755H151.364ZM150.357 60.6236L152.888 61.8983L153.514 60.6683L150.984 59.3936L150.357 60.6236ZM152.508 61.2832V62.1436H153.893V61.2832H152.508ZM152.508 62.1436C152.508 63.4395 152.121 64.4101 151.397 65.1297L152.378 66.1043C153.405 65.0819 153.893 63.737 153.893 62.1436H152.508ZM151.397 65.1297C150.674 65.8491 149.698 66.2342 148.396 66.2342V67.6128C149.997 67.6128 151.35 67.127 152.378 66.1043L151.397 65.1297ZM148.396 66.2342H145.865V67.6128H148.396V66.2342ZM145.865 66.2342C144.562 66.2342 143.587 65.8491 142.863 65.1297L141.884 66.1043C142.912 67.127 144.263 67.6128 145.865 67.6128V66.2342ZM142.863 65.1297C142.14 64.4101 141.754 63.4395 141.754 62.1436H140.367C140.367 63.737 140.856 65.0819 141.884 66.1043L142.863 65.1297Z" fill="#007AFB" />
        </g>
        <path d="M44.2526 104.511C41.2271 105.346 41.1675 105.07 37.8764 105.07C23.2992 105.07 11.4438 98.3694 5.08594 85.9865C9.62563 88.079 14.6801 89.2485 20.0083 89.2485C24.6515 89.2485 29.0872 88.3602 33.1551 86.7456C36.9235 82.2612 39.6058 76.8366 40.7977 70.8771C46.1306 77.069 49.353 85.0991 49.353 93.8748C49.353 97.2325 48.4649 101.175 47.2246 104.79C46.3867 104.393 44.5401 103.724 44.2526 104.511Z" fill="#007AFB" />
        <path d="M27.3635 38.464L26.8921 38.4484C25.3119 38.3882 20.0329 39.059 18.6015 38.8944C18.005 38.8256 19.5498 38.3534 20.6216 37.8744C21.7815 37.3164 22.9065 36.6978 23.9922 36.0224C33.7552 29.9494 40.3649 19.2913 40.8018 7.07336C40.8169 6.64492 40.8249 6.21397 40.8249 5.78147L40.7977 4.3668C40.343 0.903119 48.2675 -0.763764 48.0005 6.44093C47.8932 20.6223 39.473 32.8396 27.3635 38.464Z" fill="#007AFB" />
        <path d="M35.0653 27.8069C35.9294 26.5575 36.9406 25.0894 37.8379 23.791C34.2274 22.1903 30.9327 20.0093 28.0733 17.3656C26.1915 18.3733 24.4104 19.5438 22.75 20.8597C26.3082 23.9375 30.4835 26.3218 35.0653 27.8069Z" fill="#007AFB" />
        <path d="M22.7051 43.213C17.915 43.213 13.2701 42.5986 8.84375 41.4482C9.18113 39.8313 9.62831 38.2545 10.1775 36.726C13.7024 37.6218 17.3943 38.0995 21.1985 38.0995C38.603 38.0995 53.6767 28.1205 61.0087 13.5876C63.7678 7.72637 69.5072 15.6295 67.1738 20.4843C57.2574 34.2485 41.0323 43.213 22.7051 43.213Z" fill="#007AFB" />
        <path d="M37.7188 106C27.3146 106 17.89 101.785 11.0648 94.9724C4.24321 88.163 0.0234375 78.7598 0.0234375 68.3789V37.621C0.0234375 27.2401 4.24321 17.8369 11.0648 11.0275C17.89 4.21443 27.3146 -2.28882e-05 37.7188 -2.28882e-05C41.2832 -2.28882e-05 44.7326 0.494629 48.0019 1.41907V5.39671L48.0008 5.68426C44.7607 4.64614 41.3058 4.0853 37.7188 4.0853C28.4401 4.0853 20.0429 7.83615 13.9682 13.9001C7.8901 19.9672 4.13011 28.354 4.13011 37.621V68.3789C4.13011 77.6459 7.8901 86.0327 13.9682 92.0998C20.0429 98.1639 28.4401 101.915 37.7188 101.915C41.5166 101.915 45.1666 101.285 48.5702 100.125C48.2276 101.722 47.7765 103.28 47.2248 104.79C44.1877 105.579 41.0021 106 37.7188 106ZM59.396 93.9943C60.1124 93.389 60.8033 92.7544 61.4664 92.0919C67.5465 86.0194 71.3076 77.6263 71.3076 68.3574V37.621C71.3076 28.3542 67.5476 19.9676 61.4693 13.9001C61.3362 13.767 61.2016 13.6353 61.0662 13.5048C61.0984 13.4436 61.2539 13.1366 61.3644 12.8762C62.0196 11.6119 62.3388 10.9482 62.8725 9.61712C62.8725 9.61712 62.8375 9.57793 62.9659 9.69373C63.4462 10.126 63.9155 10.5711 64.3727 11.0275C71.1945 17.8372 75.4144 27.2402 75.4144 37.621V68.3574C75.4144 78.7398 71.1934 88.1493 64.3699 94.9645C62.9442 96.3886 61.4045 97.6989 59.7668 98.8813C59.7545 97.2227 59.6287 95.5914 59.396 93.9943Z" fill="#007AFB" />
        <path fill-rule="evenodd" clip-rule="evenodd" d="M41.761 44.7092C50.1994 41.2286 58.638 37.7481 67.0761 34.267L67.2594 34.7127C68.8411 38.5563 67.0033 42.9481 63.1526 44.5163C62.5858 44.7472 62.0107 44.9064 61.4363 44.9977C59.9145 45.1619 58.3158 44.945 56.9267 44.2842C56.9238 44.2827 56.9244 44.2834 56.9275 44.2859C59.7874 50.3696 64.5687 61.9631 65.2425 74.8018C65.7651 84.7647 64.8351 90.4417 59.7665 98.8802C59.7627 98.7691 59.759 98.6599 59.7554 98.5522C59.6816 96.3877 59.6295 94.8602 59.1403 92.7454C55.4717 76.8848 41.4122 64.7243 24.5135 64.7243C22.2073 64.7243 19.9527 64.9442 17.7686 65.3623C15.5463 62.8286 13.6784 59.9774 12.2422 56.8858C22.0814 52.8265 31.9211 48.768 41.761 44.7092ZM34.0998 53.7179L41.4883 50.6657V56.1288C39.1245 55.1178 36.6547 54.3071 34.0998 53.7179Z" fill="#007AFB" />
    </g>
    <defs>
        <clipPath id="clip0_1281_34561">
            <rect width="155" height="106" fill="white" />
        </clipPath>
    </defs>
</svg>