<svg xmlns="http://www.w3.org/2000/svg" width="60" height="60" viewBox="0 0 60 60" fill="none">
    <path d="M39.3739 5.625V1.875C39.3739 1.37772 39.5714 0.900806 39.9231 0.549175C40.2747 0.197544 40.7516 0 41.2489 0C41.7462 0 42.2231 0.197544 42.5747 0.549175C42.9264 0.900806 43.1239 1.37772 43.1239 1.875V5.625C43.1239 6.12228 42.9264 6.59919 42.5747 6.95083C42.2231 7.30246 41.7462 7.5 41.2489 7.5C40.7516 7.5 40.2747 7.30246 39.9231 6.95083C39.5714 6.59919 39.3739 6.12228 39.3739 5.625ZM47.7716 9.60938C47.9817 9.73779 48.2152 9.82354 48.4585 9.86171C48.7019 9.89988 48.9504 9.88972 49.1898 9.83183C49.4292 9.77393 49.6549 9.66943 49.8539 9.52428C50.0529 9.37914 50.2214 9.19621 50.3497 8.98594L52.2247 5.91328C52.3552 5.70302 52.4427 5.46901 52.4823 5.22474C52.5219 4.98047 52.5128 4.73078 52.4554 4.49007C52.3981 4.24935 52.2936 4.02237 52.1481 3.8222C52.0026 3.62204 51.819 3.45266 51.6077 3.32382C51.3964 3.19499 51.1617 3.10925 50.9172 3.07154C50.6726 3.03384 50.423 3.04492 50.1827 3.10415C49.9425 3.16338 49.7163 3.26958 49.5173 3.41663C49.3182 3.56368 49.1503 3.74867 49.0231 3.96094L47.1481 7.03125C47.0196 7.24131 46.9337 7.47462 46.8954 7.71788C46.857 7.96113 46.867 8.20955 46.9246 8.44896C46.9823 8.68837 47.0866 8.91407 47.2315 9.11317C47.3764 9.31228 47.5591 9.48089 47.7692 9.60938H47.7716ZM58.8903 12.5602C58.7377 12.0873 58.4037 11.6944 57.9616 11.4676C57.5195 11.2409 57.0055 11.1988 56.5325 11.3508L53.0169 12.4875C52.5906 12.6238 52.2272 12.908 51.9922 13.2888C51.7572 13.6696 51.6662 14.1219 51.7355 14.564C51.8049 15.0061 52.03 15.4088 52.3703 15.6993C52.7106 15.9899 53.1436 16.1492 53.5911 16.1484C53.7868 16.1479 53.9813 16.117 54.1676 16.057L57.6833 14.9203C57.9183 14.8444 58.136 14.7227 58.3239 14.5624C58.5118 14.402 58.6661 14.2061 58.7781 13.9859C58.89 13.7657 58.9574 13.5256 58.9762 13.2793C58.9951 13.033 58.9651 12.7854 58.888 12.5508L58.8903 12.5602ZM51.8591 21.9211C53.9319 25.4872 54.7662 29.639 54.2321 33.729C53.6979 37.819 51.8251 41.6172 48.9059 44.5312C47.8932 48.0704 45.8611 51.2332 43.0629 53.6252C40.2648 56.0172 36.8244 57.5326 33.1708 57.9824C29.5172 58.4323 25.8119 57.7967 22.5171 56.1549C19.2223 54.5131 16.4837 51.9378 14.6426 48.75L6.43952 34.5398C5.93867 33.6711 5.65995 32.6922 5.62808 31.6899C5.59621 30.6876 5.81218 29.693 6.25683 28.7942C6.70148 27.8954 7.36107 27.1202 8.1771 26.5374C8.99313 25.9545 9.94038 25.5821 10.9348 25.4531L9.99733 23.8266C9.50423 22.9723 9.22587 22.0111 9.18616 21.0256C9.14644 20.04 9.34656 19.0595 9.76932 18.1684C10.1921 17.2772 10.8249 16.502 11.6133 15.9093C12.4017 15.3166 13.3222 14.9241 14.2958 14.7656C13.8074 13.4216 13.8072 11.9487 14.2952 10.6046C14.7832 9.2605 15.7284 8.13082 16.9653 7.41328C18.0994 6.75878 19.4141 6.48696 20.7147 6.63809C22.0153 6.78921 23.2326 7.35525 24.1864 8.25234C24.7711 7.40825 25.5597 6.72561 26.4789 6.26782C27.398 5.81003 28.418 5.59194 29.444 5.63379C30.47 5.67565 31.4687 5.97609 32.3476 6.50723C33.2264 7.03836 33.9567 7.78296 34.4708 8.67188L37.2833 13.5445C37.8923 12.7477 38.6886 12.1134 39.6015 11.6981C40.5144 11.2828 41.5157 11.0992 42.5166 11.1636C43.5174 11.2281 44.4869 11.5386 45.339 12.0676C46.1911 12.5966 46.8995 13.3277 47.4012 14.1961L51.8591 21.9211ZM45.3716 43.268C45.8871 41.3641 46.02 39.3768 45.7626 37.4213C45.5051 35.4657 44.8624 33.5806 43.8716 31.875L39.4184 24.1617C39.1188 23.6361 38.6275 23.2467 38.0473 23.075C37.4671 22.9033 36.843 22.9626 36.3056 23.2406C35.7681 23.5185 35.359 23.9936 35.1638 24.5663C34.9686 25.139 35.0025 25.765 35.2583 26.3133L37.9348 30.9375C38.0579 31.1508 38.1378 31.3863 38.17 31.6304C38.2021 31.8746 38.1858 32.1227 38.122 32.3606C38.0583 32.5985 37.9483 32.8214 37.7983 33.0168C37.6484 33.2122 37.4614 33.3761 37.2481 33.4992C37.0348 33.6223 36.7994 33.7022 36.5552 33.7343C36.311 33.7665 36.0629 33.7502 35.825 33.6864C35.5872 33.6226 35.3642 33.5126 35.1688 33.3627C34.9734 33.2128 34.8095 33.0258 34.6864 32.8125L26.4833 18.6398C26.1614 18.1302 25.6557 17.7642 25.071 17.6178C24.4863 17.4714 23.8677 17.5558 23.3437 17.8536C22.8197 18.1513 22.4305 18.6395 22.257 19.2167C22.0836 19.7939 22.1391 20.4158 22.4122 20.9531L28.1825 30.9375C28.3134 31.1509 28.4002 31.3884 28.4378 31.636C28.4755 31.8835 28.4631 32.1361 28.4016 32.3788C28.34 32.6215 28.2305 32.8494 28.0794 33.0491C27.9283 33.2487 27.7388 33.4161 27.522 33.5414C27.3051 33.6666 27.0654 33.7471 26.817 33.7782C26.5686 33.8093 26.3164 33.7904 26.0754 33.7224C25.8344 33.6545 25.6095 33.539 25.4138 33.3827C25.2182 33.2264 25.0559 33.0325 24.9364 32.8125L17.3028 19.6078C17.15 19.3391 16.9456 19.1033 16.7013 18.9139C16.4571 18.7245 16.1777 18.5853 15.8794 18.5044C15.5811 18.4234 15.2698 18.4022 14.9632 18.442C14.6567 18.4819 14.3611 18.5819 14.0934 18.7365C13.8258 18.891 13.5913 19.097 13.4035 19.3425C13.2158 19.5881 13.0784 19.8683 12.9994 20.1672C12.9204 20.466 12.9013 20.7775 12.9432 21.0837C12.9851 21.39 13.0871 21.6849 13.2434 21.9516L16.9934 28.4484L21.6809 36.5672C21.804 36.7805 21.8839 37.0159 21.9161 37.2601C21.9482 37.5043 21.9319 37.7524 21.8681 37.9903C21.8043 38.2281 21.6944 38.4511 21.5444 38.6465C21.3945 38.8419 21.2075 39.0058 20.9942 39.1289C20.7809 39.252 20.5455 39.3319 20.3013 39.364C20.0571 39.3962 19.809 39.3799 19.5711 39.3161C19.3332 39.2523 19.1103 39.1423 18.9149 38.9924C18.7195 38.8424 18.5556 38.6555 18.4325 38.4422L13.745 30.3234C13.432 29.7895 12.9205 29.4011 12.3221 29.2429C11.7238 29.0847 11.0872 29.1696 10.5512 29.479C10.0152 29.7885 9.62336 30.2974 9.4612 30.8947C9.29904 31.492 9.37972 32.1292 9.68561 32.6672L17.8887 46.8773C19.372 49.447 21.5841 51.519 24.2451 52.8314C26.9061 54.1437 29.8965 54.6374 32.8381 54.25C35.7797 53.8627 38.5404 52.6116 40.7709 50.6552C43.0015 48.6987 44.6017 46.1246 45.3692 43.2586L45.3716 43.268Z" fill="#FF5542" />
</svg>