<svg xmlns="http://www.w3.org/2000/svg" width="32" height="32" viewBox="0 0 32 32" fill="000000">
    <path d="M22 15.9999H19C18.2044 15.9999 17.4413 15.6838 16.8787 15.1212C16.3161 14.5586 16 13.7955 16 12.9999V1.99987C15.9997 1.83308 15.9576 1.66902 15.8776 1.52264C15.7977 1.37625 15.6824 1.25219 15.5423 1.16174C15.4021 1.0713 15.2416 1.01734 15.0753 1.00479C14.9089 0.992236 14.7421 1.02148 14.59 1.08987L5.59 5.08987C5.41455 5.16874 5.26557 5.29653 5.16092 5.45794C5.05628 5.61935 5.0004 5.80751 5 5.99987V21.9999C5 22.7955 5.31607 23.5586 5.87868 24.1212C6.44129 24.6838 7.20435 24.9999 8 24.9999H26C26.2652 24.9999 26.5196 24.8945 26.7071 24.707C26.8946 24.5194 27 24.2651 27 23.9999V20.9999C27 19.6738 26.4732 18.402 25.5355 17.4643C24.5979 16.5267 23.3261 15.9999 22 15.9999Z"  />
    <path d="M26 27C25.7348 27 25.4804 27.1054 25.2929 27.2929C25.1054 27.4804 25 27.7348 25 28C25 28.2652 24.8946 28.5196 24.7071 28.7071C24.5196 28.8946 24.2652 29 24 29H21V27H19V29H13V27H11V29H8C7.73478 29 7.48043 28.8946 7.29289 28.7071C7.10536 28.5196 7 28.2652 7 28C7 27.7348 6.89464 27.4804 6.70711 27.2929C6.51957 27.1054 6.26522 27 6 27C5.73478 27 5.48043 27.1054 5.29289 27.2929C5.10536 27.4804 5 27.7348 5 28C5 28.7956 5.31607 29.5587 5.87868 30.1213C6.44129 30.6839 7.20435 31 8 31H24C24.7956 31 25.5587 30.6839 26.1213 30.1213C26.6839 29.5587 27 28.7956 27 28C27 27.7348 26.8946 27.4804 26.7071 27.2929C26.5196 27.1054 26.2652 27 26 27Z"  />
    </svg>