<svg xmlns="http://www.w3.org/2000/svg" width="30" height="32" viewBox="0 0 30 32" fill="none">
    <path d="M27.5 0.25H2.5C1.83696 0.25 1.20107 0.513392 0.732233 0.982233C0.263392 1.45107 0 2.08696 0 2.75V11.9328C0 25.9344 11.8469 30.5797 14.2188 31.3688C14.7253 31.541 15.2747 31.541 15.7812 31.3688C18.1562 30.5797 30 25.9344 30 11.9328V2.75C30 2.08696 29.7366 1.45107 29.2678 0.982233C28.7989 0.513392 28.163 0.25 27.5 0.25ZM22.1344 11.1344L13.3844 19.8844C13.2683 20.0006 13.1304 20.0928 12.9787 20.1557C12.8269 20.2186 12.6643 20.251 12.5 20.251C12.3357 20.251 12.1731 20.2186 12.0213 20.1557C11.8696 20.0928 11.7317 20.0006 11.6156 19.8844L7.86562 16.1344C7.63107 15.8998 7.49931 15.5817 7.49931 15.25C7.49931 14.9183 7.63107 14.6002 7.86562 14.3656C8.10018 14.1311 8.4183 13.9993 8.75 13.9993C9.0817 13.9993 9.39982 14.1311 9.63438 14.3656L12.5 17.2312L20.3656 9.36562C20.4818 9.24949 20.6196 9.15736 20.7714 9.09451C20.9231 9.03165 21.0858 8.99931 21.25 8.99931C21.4142 8.99931 21.5769 9.03165 21.7286 9.09451C21.8804 9.15736 22.0182 9.24949 22.1344 9.36562C22.2505 9.48176 22.3426 9.61964 22.4055 9.77138C22.4683 9.92312 22.5007 10.0858 22.5007 10.25C22.5007 10.4142 22.4683 10.5769 22.4055 10.7286C22.3426 10.8804 22.2505 11.0182 22.1344 11.1344Z" fill="#FF5542" />
</svg>