<svg width="1514" height="859" viewBox="0 0 1514 859" fill="none" xmlns="http://www.w3.org/2000/svg">
<g clip-path="url(#clip0_470_32005)">
<path fill-rule="evenodd" clip-rule="evenodd" d="M1191.91 1533.52C1042.14 1430.2 860.504 1369.63 664.693 1369.63C598.248 1369.63 533.441 1376.65 470.93 1389.93C407.024 1319.36 353.771 1238.89 313.87 1151.13L1806.22 518.169C1854.88 635.642 1799.74 770.633 1682.34 820.487C1619.17 847.257 1550.76 843.981 1493.16 817.048L1605.08 1080.48C1648.42 1182.56 1679.72 1286.78 1699.46 1391.56C1754.02 1680.28 1721.33 1972.86 1615.07 2235.73C1608.19 2252.75 1600.98 2269.62 1593.53 2286.4C1589.67 1974.17 1431.63 1699.04 1191.91 1533.67V1533.52ZM890.08 377.447C764.236 338.152 649.945 272.826 553.433 187.854C603.655 145.695 658.383 108.856 716.718 77.9939C785.703 153.308 866.977 217.159 957.263 266.442C1022.48 139.555 1059.35 -4.35947 1059.35 -156.788V-300.293C1133.98 -295.136 1206.25 -281.137 1274.98 -259.444V-155.315C1274.98 32.3148 1219.19 206.928 1123.33 352.97L1121.69 355.426C1118.25 360.664 1114.73 365.822 1111.12 370.979L1109.49 373.435V373.6C1105.56 379.085 1101.7 384.568 1097.77 389.972L1096.13 392.264C1092.12 397.749 1088.1 403.07 1084.01 408.473L1083.11 409.619C1026.08 483.786 958.082 549.112 881.56 603.143C1214.11 500.977 1486.12 260.547 1630.23 -51.0212C1701.1 15.5322 1761.56 93.0557 1808.84 178.931C1761.08 245.157 1708.15 307.291 1650.55 364.839C1377.15 638.015 999.456 806.979 582.353 806.979C461.343 806.979 343.612 792.736 230.794 765.884C237.513 718.895 247.836 672.971 261.354 628.519C345.577 646.938 433.078 656.679 522.873 656.679C541.962 656.679 560.97 656.189 579.896 655.288C703.036 587.096 809.052 491.726 889.835 377.282L890.08 377.447ZM1234.18 2450.87C1274.41 2346.97 1296.53 2234.1 1296.53 2116.05C1296.53 1889.77 1215.5 1682.42 1080.81 1521.4C1052.14 1693.64 976.024 1849.82 866.32 1976.14C757.027 2021.33 637.246 2046.3 511.567 2046.3C385.887 2046.3 275.528 2023.3 169.758 1981.38C324.521 2278.87 635.771 2482.13 994.458 2482.13C1077.37 2482.13 1157.66 2471.25 1234.18 2450.87ZM1094 1153.18C1015.43 1123.79 933.093 1102.18 847.805 1089.32L1122.76 972.669C1138.65 1035.46 1127.1 1100.54 1094 1153.09V1153.18Z" fill="#EDF2F6" fill-opacity="0.7"/>
</g>
<defs>
<clipPath id="clip0_470_32005">
<rect width="1514" height="859" fill="white"/>
</clipPath>
</defs>
</svg>
