<svg xmlns="http://www.w3.org/2000/svg" width="674" height="306" viewBox="0 0 674 306" fill="none">
    <path d="M45.3448 302.051C15.0991 302.051 0 286.965 0 256.819V1.3928H40.1144V246.739C40.1144 256.937 45.2263 262.061 55.474 262.061H101.884V1.41643H141.998V262.061H180.716L166.753 302.073H45.3448V302.051ZM268.637 172.944L307.024 1.36924H352.368L283.286 260.62C276.069 289.161 257.703 303.42 228.168 303.42H195.721L208.619 263.406H225.707C234.321 263.406 240.356 259.345 243.858 251.224L250.84 234.179L188.053 1.36924H234.794L268.637 172.944ZM454.939 1.74696C491.218 1.74696 509.372 19.7353 509.372 55.6887V128.067C509.372 164.021 491.337 182.009 455.293 182.009H410.634V302.073H370.521V1.74696H454.939ZM450.395 142.326C463.197 142.326 469.588 135.952 469.588 123.181V60.1976C469.588 47.4262 463.197 41.0525 450.395 41.0525H410.612V142.326H450.395ZM672.289 251.601C672.289 286.398 654.848 303.798 619.964 303.798H585.766C550.882 303.798 533.439 286.398 533.439 251.601V52.1949C533.439 17.3983 550.882 0 585.766 0H619.964C654.848 0 672.289 17.3983 672.289 52.1949V98.134L632.508 83.1672V55.3346C632.508 44.9003 627.158 39.6833 616.461 39.6833H589.244C578.785 39.6833 573.554 44.9003 573.554 55.3346V248.133C573.554 258.566 578.785 263.783 589.244 263.783H616.461C627.158 263.783 632.508 258.566 632.508 248.133V212.981L672.289 227.948V251.601Z" fill="#FCFCFC" />
</svg>