<svg xmlns="http://www.w3.org/2000/svg" width="24" height="24" viewBox="0 0 24 24" fill="none">
    <path d="M21.5279 20.4696L16.8338 15.7765C18.1944 14.1431 18.8728 12.048 18.728 9.92715C18.5832 7.80629 17.6263 5.82289 16.0564 4.38956C14.4865 2.95623 12.4245 2.18333 10.2992 2.23163C8.17394 2.27993 6.14912 3.14571 4.64595 4.64888C3.14278 6.15205 2.277 8.17687 2.2287 10.3021C2.1804 12.4274 2.9533 14.4894 4.38663 16.0593C5.81996 17.6293 7.80336 18.5861 9.92422 18.7309C12.0451 18.8757 14.1401 18.1973 15.7735 16.8368L20.4667 21.5308C20.5363 21.6005 20.6191 21.6558 20.7101 21.6935C20.8012 21.7312 20.8987 21.7506 20.9973 21.7506C21.0958 21.7506 21.1934 21.7312 21.2845 21.6935C21.3755 21.6558 21.4582 21.6005 21.5279 21.5308C21.5976 21.4612 21.6529 21.3784 21.6906 21.2874C21.7283 21.1963 21.7477 21.0988 21.7477 21.0002C21.7477 20.9017 21.7283 20.8041 21.6906 20.713C21.6529 20.622 21.5976 20.5393 21.5279 20.4696ZM3.74728 10.5002C3.74728 9.16519 4.14317 7.86015 4.88486 6.75011C5.62656 5.64008 6.68077 4.77492 7.91417 4.26403C9.14757 3.75314 10.5048 3.61946 11.8141 3.87991C13.1235 4.14036 14.3263 4.78324 15.2703 5.72724C16.2143 6.67125 16.8571 7.87398 17.1176 9.18335C17.378 10.4927 17.2444 11.8499 16.7335 13.0833C16.2226 14.3167 15.3574 15.3709 14.2474 16.1126C13.1374 16.8543 11.8323 17.2502 10.4973 17.2502C8.70768 17.2482 6.99195 16.5364 5.72651 15.271C4.46107 14.0056 3.74927 12.2898 3.74728 10.5002Z" fill="#536373" />
</svg>