<svg xmlns="http://www.w3.org/2000/svg" width="32" height="40" viewBox="0 0 32 40" fill="none">
    <path d="M16 0.75C11.99 0.754549 8.14554 2.34953 5.31003 5.18503C2.47453 8.02054 0.879549 11.865 0.875 15.875C0.875 28.8172 14.625 38.5917 15.2111 39.0008C15.4423 39.1627 15.7177 39.2496 16 39.2496C16.2823 39.2496 16.5577 39.1627 16.7889 39.0008C17.375 38.5917 31.125 28.8172 31.125 15.875C31.1205 11.865 29.5255 8.02054 26.69 5.18503C23.8545 2.34953 20.01 0.754549 16 0.75ZM16 10.375C17.0878 10.375 18.1512 10.6976 19.0556 11.3019C19.9601 11.9063 20.6651 12.7652 21.0813 13.7702C21.4976 14.7752 21.6065 15.8811 21.3943 16.948C21.1821 18.0149 20.6583 18.9949 19.8891 19.7641C19.1199 20.5333 18.1399 21.0571 17.073 21.2693C16.0061 21.4815 14.9002 21.3726 13.8952 20.9563C12.8902 20.5401 12.0313 19.8351 11.4269 18.9306C10.8226 18.0262 10.5 16.9628 10.5 15.875C10.5 14.4163 11.0795 13.0174 12.1109 11.9859C13.1424 10.9545 14.5413 10.375 16 10.375Z" fill="#FF5542" />
</svg>