<svg xmlns="http://www.w3.org/2000/svg" width="68" height="68" viewBox="0 0 68 68" fill="none">
    <g clip-path="url(#clip0_357_30125)">
        <path d="M25.1945 3.12375C25.0031 2.81751 24.7368 2.56511 24.4208 2.39036C24.1047 2.21561 23.7494 2.12428 23.3883 2.125H6.38826C6.00401 2.12826 5.62784 2.23564 5.29979 2.43572C4.97173 2.63579 4.70406 2.92108 4.52528 3.26121C4.34649 3.60134 4.26328 3.98358 4.28449 4.36725C4.30571 4.75092 4.43056 5.12166 4.64576 5.44L15.802 21.7813C20.4601 17.6539 26.3755 15.2203 32.5895 14.875L25.1945 3.12375Z" fill="#FF5542" />
        <path d="M61.6309 2.125H44.6309C44.2698 2.12428 43.9144 2.21561 43.5984 2.39036C43.2824 2.56511 43.0161 2.81751 42.8247 3.12375L35.4297 14.875C41.6359 15.2025 47.5503 17.6132 52.2172 21.7175L63.3734 5.37625C63.572 5.05885 63.6832 4.69462 63.6958 4.32043C63.7083 3.94624 63.6218 3.57537 63.4449 3.24538C63.2681 2.91538 63.0071 2.63797 62.6886 2.44123C62.3701 2.24449 62.0052 2.1354 61.6309 2.125Z" fill="#FF5542" />
        <path d="M34 19.125C29.3769 19.125 24.8576 20.4959 21.0136 23.0644C17.1696 25.6329 14.1735 29.2836 12.4043 33.5548C10.6351 37.826 10.1722 42.5259 11.0742 47.0602C11.9761 51.5945 14.2023 55.7596 17.4714 59.0286C20.7404 62.2977 24.9055 64.5239 29.4398 65.4259C33.9741 66.3278 38.674 65.8649 42.9452 64.0957C47.2165 62.3265 50.8671 59.3305 53.4356 55.4865C56.0041 51.6425 57.375 47.1231 57.375 42.5C57.375 36.3006 54.9123 30.355 50.5286 25.9714C46.145 21.5877 40.1994 19.125 34 19.125ZM34 57.375C31.058 57.375 28.1821 56.5026 25.7359 54.8681C23.2897 53.2336 21.3832 50.9105 20.2573 48.1924C19.1314 45.4744 18.8369 42.4835 19.4108 39.598C19.9848 36.7126 21.4015 34.0621 23.4818 31.9818C25.5621 29.9015 28.2126 28.4848 31.098 27.9108C33.9835 27.3369 36.9744 27.6314 39.6924 28.7573C42.4105 29.8831 44.7336 31.7897 46.3681 34.2359C48.0026 36.6821 48.875 39.558 48.875 42.5C48.875 46.4451 47.3078 50.2286 44.5182 53.0182C41.7286 55.8078 37.9451 57.375 34 57.375Z" fill="#FF5542" />
        <path d="M34 53.125C39.868 53.125 44.625 48.368 44.625 42.5C44.625 36.632 39.868 31.875 34 31.875C28.132 31.875 23.375 36.632 23.375 42.5C23.375 48.368 28.132 53.125 34 53.125Z" fill="#FF5542" />
    </g>
    <defs>
        <clipPath id="clip0_357_30125">
            <rect width="68" height="68" fill="white" />
        </clipPath>
    </defs>
</svg>