<svg xmlns="http://www.w3.org/2000/svg" width="60" height="60" viewBox="0 0 60 60" fill="none">
    <path d="M45 16.8751H35.6719C34.9898 16.8352 23.1047 15.9985 11.7867 6.50633C11.2402 6.04731 10.574 5.7538 9.86641 5.66027C9.15883 5.56674 8.43926 5.67708 7.79222 5.97833C7.14518 6.27957 6.59755 6.75921 6.21365 7.36091C5.82976 7.9626 5.62554 8.66135 5.625 9.37508V46.8751C5.6251 47.589 5.82899 48.2881 6.21271 48.8901C6.59643 49.4922 7.14404 49.9721 7.79116 50.2737C8.43829 50.5752 9.15804 50.6858 9.86583 50.5923C10.5736 50.4989 11.24 50.2053 11.7867 49.7462C20.6391 42.3212 29.8336 40.193 33.75 39.5977V47.0321C33.7492 47.65 33.9011 48.2586 34.1923 48.8037C34.4834 49.3487 34.9047 49.8134 35.4187 50.1563L37.9969 51.8743C38.4952 52.2069 39.0659 52.4153 39.6613 52.4819C40.2567 52.5486 40.8594 52.4717 41.419 52.2575C41.9785 52.0434 42.4786 51.6983 42.8774 51.2512C43.2762 50.8041 43.562 50.2679 43.7109 49.6876L46.4695 39.2907C49.3213 38.9404 51.9309 37.5122 53.7632 35.2991C55.5955 33.086 56.5116 30.2557 56.3236 27.3887C56.1357 24.5217 54.8579 21.8352 52.7523 19.8803C50.6468 17.9254 47.8731 16.8501 45 16.8751ZM40.0781 48.7243V48.7501L37.5 47.0321V39.3751H42.5625L40.0781 48.7243ZM45 35.6251H37.5V20.6251H45C46.9891 20.6251 48.8968 21.4153 50.3033 22.8218C51.7098 24.2283 52.5 26.136 52.5 28.1251C52.5 30.1142 51.7098 32.0219 50.3033 33.4284C48.8968 34.8349 46.9891 35.6251 45 35.6251Z" fill="#FF5542" />
</svg>