<svg xmlns="http://www.w3.org/2000/svg" width="48" height="48" viewBox="0 0 48 48" fill="none">
    <path d="M24 4.5C20.1433 4.5 16.3731 5.64366 13.1664 7.78634C9.95963 9.92903 7.46027 12.9745 5.98436 16.5377C4.50845 20.1008 4.12228 24.0216 4.8747 27.8043C5.62711 31.5869 7.4843 35.0615 10.2114 37.7886C12.9386 40.5157 16.4131 42.3729 20.1957 43.1253C23.9784 43.8777 27.8992 43.4916 31.4623 42.0156C35.0255 40.5397 38.071 38.0404 40.2137 34.8336C42.3564 31.6269 43.5 27.8567 43.5 24C43.4945 18.83 41.4383 13.8732 37.7826 10.2174C34.1268 6.56167 29.1701 4.50546 24 4.5ZM24 40.5C20.7366 40.5 17.5465 39.5323 14.8331 37.7192C12.1197 35.9062 10.0048 33.3293 8.756 30.3143C7.50715 27.2993 7.1804 23.9817 7.81705 20.781C8.45371 17.5803 10.0252 14.6403 12.3327 12.3327C14.6403 10.0252 17.5803 8.4537 20.781 7.81704C23.9817 7.18039 27.2993 7.50714 30.3143 8.75599C33.3293 10.0048 35.9062 12.1197 37.7193 14.8331C39.5323 17.5465 40.5 20.7366 40.5 24C40.495 28.3745 38.7551 32.5685 35.6618 35.6618C32.5685 38.7551 28.3746 40.495 24 40.5ZM31.0613 24.4387C31.2007 24.5781 31.3114 24.7435 31.3868 24.9256C31.4623 25.1077 31.5012 25.3029 31.5012 25.5C31.5012 25.6971 31.4623 25.8923 31.3868 26.0744C31.3114 26.2565 31.2007 26.4219 31.0613 26.5613L25.0613 32.5613C24.9219 32.7007 24.7565 32.8114 24.5744 32.8868C24.3923 32.9623 24.1971 33.0012 24 33.0012C23.8029 33.0012 23.6077 32.9623 23.4256 32.8868C23.2435 32.8114 23.0781 32.7007 22.9388 32.5613L16.9388 26.5613C16.6573 26.2798 16.4992 25.898 16.4992 25.5C16.4992 25.102 16.6573 24.7202 16.9388 24.4387C17.2202 24.1573 17.602 23.9992 18 23.9992C18.3981 23.9992 18.7798 24.1573 19.0613 24.4387L22.5 27.8794V16.5C22.5 16.1022 22.658 15.7206 22.9393 15.4393C23.2207 15.158 23.6022 15 24 15C24.3978 15 24.7794 15.158 25.0607 15.4393C25.342 15.7206 25.5 16.1022 25.5 16.5V27.8794L28.9388 24.4387C29.0781 24.2993 29.2435 24.1886 29.4256 24.1132C29.6077 24.0377 29.8029 23.9988 30 23.9988C30.1971 23.9988 30.3923 24.0377 30.5744 24.1132C30.7565 24.1886 30.9219 24.2993 31.0613 24.4387Z" fill="#FF5542" />
</svg>