<svg xmlns="http://www.w3.org/2000/svg" width="60" height="60" viewBox="0 0 60 60" fill="none">
    <path d="M55.1706 19.7037L48.5729 25.3287L50.5487 33.7029C50.6879 34.2899 50.651 34.9049 50.4426 35.471C50.2341 36.0371 49.8634 36.5292 49.3768 36.8857C48.8847 37.2471 48.297 37.4555 47.6871 37.4846C47.0772 37.5138 46.4723 37.3626 45.9479 37.0498L38.4479 32.5967L30.9479 37.0498C30.4235 37.3626 29.8186 37.5138 29.2087 37.4846C28.5989 37.4555 28.0111 37.2471 27.519 36.8857C27.0326 36.529 26.6621 36.0369 26.4537 35.4708C26.2453 34.9048 26.2082 34.2899 26.3471 33.7029L28.3229 25.3287L21.7229 19.7037C21.2611 19.3095 20.9262 18.7874 20.7604 18.2033C20.5946 17.6191 20.6054 16.999 20.7913 16.4209C20.9772 15.8428 21.33 15.3327 21.8052 14.9547C22.2805 14.5767 22.8569 14.3478 23.462 14.2967L32.1878 13.5584L35.5909 5.62481C35.8311 5.06862 36.2288 4.59491 36.7351 4.2621C37.2413 3.92929 37.8339 3.75195 38.4397 3.75195C39.0456 3.75195 39.6381 3.92929 40.1444 4.2621C40.6506 4.59491 41.0484 5.06862 41.2885 5.62481L44.6917 13.5631L53.4151 14.2967C54.0216 14.3443 54.6003 14.5707 55.0781 14.9473C55.5559 15.3239 55.9112 15.8337 56.0991 16.4123C56.2871 16.9909 56.2991 17.6123 56.1339 18.1977C55.9686 18.7832 55.6333 19.3065 55.1706 19.7014V19.7037ZM20.0776 26.7982C19.9035 26.6239 19.6967 26.4856 19.4691 26.3913C19.2414 26.2969 18.9974 26.2483 18.751 26.2483C18.5046 26.2483 18.2607 26.2969 18.033 26.3913C17.8054 26.4856 17.5986 26.6239 17.4245 26.7982L4.29948 39.9232C3.94765 40.2751 3.75 40.7522 3.75 41.2498C3.75 41.7474 3.94765 42.2245 4.29948 42.5764C4.65131 42.9282 5.12849 43.1259 5.62604 43.1259C6.1236 43.1259 6.60078 42.9282 6.95261 42.5764L20.0776 29.4514C20.2519 29.2772 20.3902 29.0704 20.4846 28.8428C20.5789 28.6152 20.6275 28.3712 20.6275 28.1248C20.6275 27.8784 20.5789 27.6344 20.4846 27.4068C20.3902 27.1792 20.2519 26.9724 20.0776 26.7982ZM23.8276 39.9232C23.6535 39.7489 23.4467 39.6106 23.2191 39.5163C22.9914 39.4219 22.7474 39.3733 22.501 39.3733C22.2546 39.3733 22.0107 39.4219 21.783 39.5163C21.5554 39.6106 21.3486 39.7489 21.1745 39.9232L8.04948 53.0482C7.87527 53.2225 7.73709 53.4293 7.64281 53.6569C7.54853 53.8845 7.5 54.1284 7.5 54.3748C7.5 54.6212 7.54853 54.8651 7.64281 55.0927C7.73709 55.3204 7.87527 55.5272 8.04948 55.7014C8.40131 56.0532 8.87849 56.2509 9.37604 56.2509C9.62241 56.2509 9.86636 56.2023 10.094 56.108C10.3216 56.0138 10.5284 55.8756 10.7026 55.7014L23.8276 42.5764C24.0019 42.4022 24.1402 42.1954 24.2346 41.9678C24.3289 41.7402 24.3775 41.4962 24.3775 41.2498C24.3775 41.0034 24.3289 40.7594 24.2346 40.5318C24.1402 40.3042 24.0019 40.0974 23.8276 39.9232ZM38.0518 39.9232L24.9268 53.0482C24.575 53.4001 24.3773 53.8772 24.3773 54.3748C24.3773 54.8724 24.575 55.3495 24.9268 55.7014C25.2786 56.0532 25.7558 56.2509 26.2534 56.2509C26.7509 56.2509 27.2281 56.0532 27.5799 55.7014L40.705 42.5764C41.0568 42.2249 41.2546 41.748 41.2548 41.2506C41.255 40.7533 41.0576 40.2762 40.7061 39.9244C40.3546 39.5726 39.8777 39.3748 39.3804 39.3746C38.8831 39.3744 38.406 39.5717 38.0542 39.9232H38.0518Z" fill="#FF5542" />
</svg>