<svg xmlns="http://www.w3.org/2000/svg" xmlns:xlink="http://www.w3.org/1999/xlink" viewBox="0 0 300 300">
    <style>:root>svg{display:none}:root>svg:target{display:block}</style>
    <svg id="logo" xmlns="http://www.w3.org/2000/svg" viewBox="0 0 90 132">
        <path d="M90 87.0101C90 99.4333 84.9617 110.682 76.821 118.821C75.3491 120.292 73.7773 121.66 72.1127 122.916C72.1127 120.392 72.1053 118.016 71.7939 115.489V115.482L71.7864 115.441C72.0682 115.174 72.3499 114.903 72.6243 114.629C79.6938 107.562 84.0686 97.7952 84.0686 87.0101V44.9859C84.0686 34.2008 79.6938 24.435 72.6243 17.3672C72.5464 17.2894 72.4649 17.2079 72.3833 17.13C73.3583 15.2992 74.2369 13.4053 75.0043 11.4596C75.6234 12.0155 76.2314 12.5863 76.8172 13.1756C84.9617 21.3181 89.9962 32.5627 89.9962 44.9859V87.0101H90ZM54.3515 131.025C51.3338 131.663 48.2049 132 44.9982 132C32.5716 132 21.3202 126.964 13.1792 118.825C5.0381 110.686 0 99.4333 0 87.0101V44.9859C0 32.5627 5.0381 21.3144 13.1792 13.1756C21.3239 5.03672 32.5753 0 45.0018 0C49.4098 0 53.6693 0.63376 57.6954 1.81604V8.03878C53.7138 6.67115 49.4468 5.92992 45.0018 5.92992C34.2139 5.92992 24.4454 10.3032 17.3757 17.371C10.3061 24.4387 5.93154 34.2045 5.93154 44.9896V87.014C5.93154 97.7991 10.3061 107.565 17.3757 114.633C24.4454 121.7 34.2139 126.074 45.0018 126.074C49.191 126.074 53.2245 125.414 57.0095 124.194C56.32 126.566 55.4302 128.854 54.3552 131.029L54.3515 131.025Z" />
        <path fill-rule="evenodd" clip-rule="evenodd" d="M53.9318 86.0884C47.155 81.4107 38.9362 78.6686 30.0759 78.6686C27.0694 78.6686 24.1369 78.9866 21.3084 79.5875C18.4167 76.3926 16.007 72.7494 14.2016 68.7763L81.7289 40.12C83.9305 45.4384 81.4355 51.5499 76.1232 53.807C73.2649 55.019 70.1694 54.8707 67.5632 53.6513L72.6273 65.5779C74.5884 70.1995 76.0046 74.9175 76.8979 79.6612C79.3667 92.7329 77.8877 105.979 73.0796 117.88C72.7682 118.65 72.4419 119.414 72.1045 120.174C71.9303 106.038 64.7791 93.5819 53.9318 86.0953V86.0884ZM40.2744 33.7491C34.5801 31.9701 29.4086 29.0125 25.0415 25.1655C27.314 23.2568 29.7904 21.589 32.43 20.1918C35.5515 23.6015 39.229 26.4923 43.3144 28.7235C46.2653 22.9788 47.9336 16.4634 47.9336 9.5624V3.06543C51.3109 3.29892 54.5806 3.93268 57.6909 4.91482V9.6291C57.6909 18.1237 55.1663 26.0291 50.8289 32.6409L50.7547 32.7521C50.599 32.9893 50.4396 33.2228 50.2765 33.4562L50.2024 33.5674V33.5749C50.0244 33.8232 49.8502 34.0715 49.6722 34.3161L49.5981 34.4199C49.4164 34.6682 49.2348 34.9091 49.0494 35.1537L49.0086 35.2056C46.4284 38.5634 43.3515 41.5209 39.8889 43.9671C54.9365 39.3417 67.2444 28.4566 73.7654 14.3508C76.9724 17.3639 79.7077 20.8737 81.8471 24.7615C79.6862 27.7598 77.2911 30.5728 74.6848 33.1783C62.3138 45.5459 45.2236 53.1955 26.3501 53.1955C20.8746 53.1955 15.5474 52.5506 10.4425 51.335C10.7465 49.2076 11.2136 47.1285 11.8253 45.116C15.6363 45.9498 19.5956 46.3909 23.6587 46.3909C24.5225 46.3909 25.3826 46.3687 26.2389 46.3279C31.8109 43.2406 36.608 38.9229 40.2634 33.7416L40.2744 33.7491ZM55.8447 127.62C57.665 122.916 58.6659 117.806 58.6659 112.461C58.6659 102.217 54.9995 92.8298 48.9048 85.5398C47.6073 93.3376 44.1633 100.409 39.1993 106.127C34.2539 108.173 28.834 109.304 23.1472 109.304C17.4603 109.304 12.4666 108.263 7.68066 106.365C14.6835 119.833 28.7672 129.035 44.9974 129.035C48.7492 129.035 52.3822 128.543 55.8447 127.62ZM49.5017 68.869C45.9465 67.5384 42.2207 66.5601 38.3615 65.9782L50.803 60.6968C51.5221 63.5395 50.9994 66.4859 49.5017 68.8653V68.869Z" />
    </svg>
    <svg id="phone" xmlns="http://www.w3.org/2000/svg" viewBox="0 0 24 24">
        <path d="M14.2753 3.55575C14.3008 3.46056 14.3447 3.37133 14.4047 3.29315C14.4647 3.21496 14.5394 3.14935 14.6248 3.10008C14.7101 3.0508 14.8043 3.01882 14.902 3.00596C14.9996 2.99309 15.0989 2.99961 15.1941 3.02512C16.5844 3.38789 17.853 4.11473 18.869 5.13078C19.8851 6.14684 20.6119 7.41538 20.9747 8.80575C21.0002 8.90092 21.0067 9.00018 20.9939 9.09786C20.981 9.19555 20.949 9.28974 20.8997 9.37506C20.8505 9.46039 20.7849 9.53516 20.7067 9.59512C20.6285 9.65508 20.5393 9.69904 20.4441 9.7245C20.3807 9.74114 20.3155 9.74964 20.25 9.74981C20.0849 9.74986 19.9243 9.6954 19.7933 9.59488C19.6622 9.49436 19.5681 9.3534 19.5253 9.19387C19.2296 8.05869 18.6365 7.02292 17.8071 6.19335C16.9777 5.36378 15.942 4.77044 14.8069 4.4745C14.7116 4.44914 14.6223 4.40525 14.544 4.34533C14.4657 4.28542 14.4 4.21066 14.3506 4.12533C14.3013 4.04 14.2692 3.94577 14.2563 3.84803C14.2433 3.7503 14.2498 3.65098 14.2753 3.55575ZM14.0569 7.4745C15.3497 7.8195 16.1803 8.65106 16.5253 9.94387C16.5681 10.1034 16.6622 10.2444 16.7933 10.3449C16.9243 10.4454 17.0849 10.4999 17.25 10.4998C17.3155 10.4996 17.3807 10.4911 17.4441 10.4745C17.5393 10.449 17.6285 10.4051 17.7067 10.3451C17.7849 10.2852 17.8505 10.2104 17.8997 10.1251C17.949 10.0397 17.981 9.94555 17.9939 9.84786C18.0067 9.75018 18.0002 9.65092 17.9747 9.55575C17.4947 7.7595 16.2403 6.50512 14.4441 6.02512C14.3489 5.9997 14.2497 5.99327 14.152 6.0062C14.0544 6.01913 13.9602 6.05117 13.8749 6.10049C13.7897 6.1498 13.7149 6.21543 13.655 6.29363C13.5951 6.37182 13.5512 6.46105 13.5258 6.55622C13.5004 6.65138 13.4939 6.75063 13.5069 6.84828C13.5198 6.94593 13.5518 7.04008 13.6012 7.12535C13.6505 7.21062 13.7161 7.28534 13.7943 7.34525C13.8725 7.40516 13.9617 7.44907 14.0569 7.4745ZM20.8472 14.8554L16.4306 12.8764L16.4184 12.8707C16.1892 12.7727 15.939 12.7333 15.6907 12.7562C15.4424 12.7792 15.2037 12.8636 14.9963 13.002C14.9718 13.0181 14.9484 13.0357 14.9259 13.0545L12.6441 14.9998C11.1984 14.2976 9.70595 12.8164 9.00376 11.3895L10.9519 9.07294C10.9706 9.0495 10.9884 9.02606 11.0053 9.00075C11.1407 8.79384 11.2229 8.55667 11.2445 8.31035C11.2661 8.06402 11.2264 7.81618 11.1291 7.58887V7.57762L9.14438 3.15356C9.0157 2.85662 8.79444 2.60926 8.51362 2.44841C8.2328 2.28756 7.9075 2.22184 7.58626 2.26106C6.31592 2.42822 5.14986 3.05209 4.30588 4.01615C3.4619 4.98021 2.99771 6.21852 3.00001 7.49981C3.00001 14.9436 9.05626 20.9998 16.5 20.9998C17.7813 21.0021 19.0196 20.5379 19.9837 19.6939C20.9477 18.85 21.5716 17.6839 21.7388 16.4136C21.7781 16.0924 21.7125 15.7672 21.5518 15.4864C21.3911 15.2056 21.144 14.9843 20.8472 14.8554Z" />
    </svg>
    <svg id="message" xmlns="http://www.w3.org/2000/svg" viewBox="0 0 24 24">
        <path d="M21 4.5H3C2.80109 4.5 2.61032 4.57902 2.46967 4.71967C2.32902 4.86032 2.25 5.05109 2.25 5.25V18C2.25 18.3978 2.40804 18.7794 2.68934 19.0607C2.97064 19.342 3.35218 19.5 3.75 19.5H20.25C20.6478 19.5 21.0294 19.342 21.3107 19.0607C21.592 18.7794 21.75 18.3978 21.75 18V5.25C21.75 5.05109 21.671 4.86032 21.5303 4.71967C21.3897 4.57902 21.1989 4.5 21 4.5ZM9.25406 12L3.75 17.0447V6.95531L9.25406 12ZM10.3641 13.0172L11.4891 14.0531C11.6274 14.1801 11.8084 14.2506 11.9963 14.2506C12.1841 14.2506 12.3651 14.1801 12.5034 14.0531L13.6284 13.0172L19.0659 18H4.92844L10.3641 13.0172ZM14.7459 12L20.25 6.95438V17.0456L14.7459 12Z" />
    </svg>
    <svg id="chevron-left" xmlns="http://www.w3.org/2000/svg" viewBox="0 0 24 24">
        <path d="M6.96896 12.5306L14.469 20.0306C14.5386 20.1002 14.6214 20.1555 14.7124 20.1932C14.8035 20.2309 14.901 20.2503 14.9996 20.2503C15.0981 20.2503 15.1957 20.2309 15.2868 20.1932C15.3778 20.1555 15.4605 20.1002 15.5302 20.0306C15.5999 19.9609 15.6552 19.8781 15.6929 19.7871C15.7306 19.6961 15.75 19.5985 15.75 19.4999C15.75 19.4014 15.7306 19.3038 15.6929 19.2128C15.6552 19.1217 15.5999 19.039 15.5302 18.9693L8.5599 11.9999L15.5302 5.03055C15.6709 4.88982 15.75 4.69895 15.75 4.49993C15.75 4.30091 15.6709 4.11003 15.5302 3.9693C15.3895 3.82857 15.1986 3.74951 14.9996 3.74951C14.8006 3.74951 14.6097 3.82857 14.469 3.9693L6.96896 11.4693C6.89923 11.539 6.84391 11.6217 6.80616 11.7127C6.76842 11.8038 6.74899 11.9014 6.74899 11.9999C6.74899 12.0985 6.76842 12.1961 6.80616 12.2871C6.84391 12.3782 6.89923 12.4609 6.96896 12.5306Z"/>
    </svg>
    <svg id="chevron-right" xmlns="http://www.w3.org/2000/svg" viewBox="0 0 32 32">
        <path d="M22.7081 16.7074L12.7081 26.7074C12.6151 26.8004 12.5048 26.8741 12.3835 26.9243C12.2621 26.9746 12.132 27.0005 12.0006 27.0005C11.8692 27.0005 11.7391 26.9746 11.6177 26.9243C11.4963 26.8741 11.386 26.8004 11.2931 26.7074C11.2001 26.6145 11.1264 26.5042 11.0762 26.3828C11.0259 26.2614 11 26.1313 11 25.9999C11 25.8686 11.0259 25.7384 11.0762 25.6171C11.1264 25.4957 11.2001 25.3854 11.2931 25.2924L20.5868 15.9999L11.2931 6.70745C11.1054 6.5198 11 6.26531 11 5.99995C11 5.73458 11.1054 5.48009 11.2931 5.29245C11.4807 5.1048 11.7352 4.99939 12.0006 4.99939C12.2659 4.99939 12.5204 5.1048 12.7081 5.29245L22.7081 15.2924C22.801 15.3853 22.8748 15.4956 22.9251 15.617C22.9754 15.7384 23.0013 15.8685 23.0013 15.9999C23.0013 16.1314 22.9754 16.2615 22.9251 16.3829C22.8748 16.5043 22.801 16.6146 22.7081 16.7074Z" />
    </svg>
    <svg id="chevron-bot" xmlns="http://www.w3.org/2000/svg" viewBox="0 0 24 24">
        <path d="M20.0303 9.53055L12.5303 17.0306C12.4607 17.1003 12.3779 17.1556 12.2869 17.1933C12.1958 17.2311 12.0982 17.2505 11.9997 17.2505C11.9011 17.2505 11.8035 17.2311 11.7125 17.1933C11.6214 17.1556 11.5387 17.1003 11.4691 17.0306L3.96906 9.53055C3.82833 9.38982 3.74927 9.19895 3.74927 8.99993C3.74927 8.80091 3.82833 8.61003 3.96906 8.4693C4.10979 8.32857 4.30066 8.24951 4.49968 8.24951C4.69871 8.24951 4.88958 8.32857 5.03031 8.4693L11.9997 15.4396L18.9691 8.4693C19.0387 8.39962 19.1215 8.34435 19.2125 8.30663C19.3036 8.26892 19.4011 8.24951 19.4997 8.24951C19.5982 8.24951 19.6958 8.26892 19.7869 8.30663C19.8779 8.34435 19.9606 8.39962 20.0303 8.4693C20.1 8.53899 20.1553 8.62171 20.193 8.71276C20.2307 8.8038 20.2501 8.90138 20.2501 8.99993C20.2501 9.09847 20.2307 9.19606 20.193 9.2871C20.1553 9.37815 20.1 9.46087 20.0303 9.53055Z" />
    </svg>
    <svg id="btn-prev" xmlns="http://www.w3.org/2000/svg" viewBox="0 0 44 44">
        <path d="M22 0.875C17.8219 0.875 13.7376 2.11396 10.2636 4.4352C6.7896 6.75645 4.08196 10.0557 2.48305 13.9158C0.884153 17.7759 0.465808 22.0234 1.28092 26.1213C2.09603 30.2191 4.10799 33.9832 7.06238 36.9376C10.0168 39.892 13.7809 41.904 17.8787 42.7191C21.9766 43.5342 26.2241 43.1159 30.0842 41.517C33.9443 39.918 37.2436 37.2104 39.5648 33.7364C41.886 30.2624 43.125 26.1781 43.125 22C43.1191 16.3991 40.8915 11.0293 36.9311 7.0689C32.9707 3.10848 27.6009 0.880915 22 0.875ZM26.3997 28.9753C26.5507 29.1263 26.6704 29.3055 26.7521 29.5028C26.8339 29.7001 26.8759 29.9115 26.8759 30.125C26.8759 30.3385 26.8339 30.5499 26.7521 30.7472C26.6704 30.9445 26.5507 31.1237 26.3997 31.2747C26.2487 31.4257 26.0695 31.5454 25.8722 31.6271C25.675 31.7088 25.4635 31.7509 25.25 31.7509C25.0365 31.7509 24.8251 31.7088 24.6278 31.6271C24.4305 31.5454 24.2513 31.4257 24.1003 31.2747L15.9753 23.1497C15.8242 22.9988 15.7044 22.8195 15.6226 22.6223C15.5408 22.425 15.4987 22.2135 15.4987 22C15.4987 21.7864 15.5408 21.575 15.6226 21.3777C15.7044 21.1804 15.8242 21.0012 15.9753 20.8503L24.1003 12.7253C24.2513 12.5743 24.4305 12.4546 24.6278 12.3729C24.8251 12.2912 25.0365 12.2491 25.25 12.2491C25.4635 12.2491 25.675 12.2912 25.8722 12.3729C26.0695 12.4546 26.2487 12.5743 26.3997 12.7253C26.5507 12.8763 26.6704 13.0555 26.7521 13.2528C26.8339 13.4501 26.8759 13.6615 26.8759 13.875C26.8759 14.0885 26.8339 14.2999 26.7521 14.4972C26.6704 14.6945 26.5507 14.8737 26.3997 15.0247L19.4224 22L26.3997 28.9753Z" />
    </svg>
    <svg id="btn-next" xmlns="http://www.w3.org/2000/svg" viewBox="0 0 44 44">
        <path d="M22 0.875C17.8219 0.875 13.7376 2.11396 10.2636 4.4352C6.7896 6.75645 4.08196 10.0557 2.48305 13.9158C0.884153 17.7759 0.465808 22.0234 1.28092 26.1213C2.09603 30.2191 4.10799 33.9832 7.06238 36.9376C10.0168 39.892 13.7809 41.904 17.8787 42.7191C21.9766 43.5342 26.2241 43.1159 30.0842 41.517C33.9443 39.918 37.2436 37.2104 39.5648 33.7364C41.886 30.2624 43.125 26.1781 43.125 22C43.1191 16.3991 40.8915 11.0293 36.9311 7.0689C32.9707 3.10848 27.6009 0.880915 22 0.875ZM28.0247 23.1497L19.8997 31.2747C19.7487 31.4257 19.5695 31.5454 19.3722 31.6271C19.175 31.7088 18.9635 31.7509 18.75 31.7509C18.5365 31.7509 18.3251 31.7088 18.1278 31.6271C17.9305 31.5454 17.7513 31.4257 17.6003 31.2747C17.4493 31.1237 17.3296 30.9445 17.2479 30.7472C17.1662 30.5499 17.1241 30.3385 17.1241 30.125C17.1241 29.9115 17.1662 29.7001 17.2479 29.5028C17.3296 29.3055 17.4493 29.1263 17.6003 28.9753L24.5777 22L17.6003 15.0247C17.2954 14.7198 17.1241 14.3062 17.1241 13.875C17.1241 13.4438 17.2954 13.0302 17.6003 12.7253C17.9052 12.4204 18.3188 12.2491 18.75 12.2491C19.1812 12.2491 19.5948 12.4204 19.8997 12.7253L28.0247 20.8503C28.1758 21.0012 28.2956 21.1804 28.3774 21.3777C28.4592 21.575 28.5013 21.7864 28.5013 22C28.5013 22.2135 28.4592 22.425 28.3774 22.6223C28.2956 22.8195 28.1758 22.9988 28.0247 23.1497Z" />
    </svg>
    <svg id="time" xmlns="http://www.w3.org/2000/svg" viewBox="0 0 36 36">
        <path d="M29.2494 13.4999C29.2494 13.1662 29.3484 12.8399 29.5338 12.5624C29.7192 12.2849 29.9828 12.0686 30.2911 11.9409C30.5995 11.8131 30.9388 11.7797 31.2661 11.8448C31.5935 11.91 31.8942 12.0707 32.1302 12.3067C32.3662 12.5427 32.5269 12.8434 32.592 13.1707C32.6571 13.498 32.6237 13.8373 32.496 14.1457C32.3682 14.454 32.1519 14.7176 31.8744 14.903C31.5969 15.0884 31.2707 15.1874 30.9369 15.1874C30.4894 15.1874 30.0601 15.0096 29.7437 14.6932C29.4272 14.3767 29.2494 13.9475 29.2494 13.4999ZM27.5619 10.1249C27.8957 10.1249 28.2219 10.0259 28.4994 9.84052C28.7769 9.6551 28.9932 9.39154 29.121 9.08319C29.2487 8.77484 29.2821 8.43554 29.217 8.1082C29.1519 7.78086 28.9912 7.48017 28.7552 7.24417C28.5192 7.00817 28.2185 6.84745 27.8911 6.78234C27.5638 6.71723 27.2245 6.75065 26.9161 6.87837C26.6078 7.00609 26.3442 7.22238 26.1588 7.49989C25.9734 7.7774 25.8744 8.10366 25.8744 8.43742C25.8744 8.88497 26.0522 9.31419 26.3687 9.63066C26.6851 9.94713 27.1144 10.1249 27.5619 10.1249ZM31.5922 17.9999C31.295 17.9754 31.0002 18.0699 30.7726 18.2627C30.5451 18.4554 30.4033 18.7307 30.3786 19.0279C30.1773 21.3798 29.3084 23.6252 27.8742 25.5001C26.44 27.3749 24.5002 28.8011 22.2829 29.6109C20.0657 30.4206 17.6632 30.5803 15.3583 30.071C13.0534 29.5617 10.9419 28.4047 9.27229 26.7361C7.60265 25.0675 6.44431 22.9567 5.93358 20.6522C5.42284 18.3476 5.58096 15.9451 6.38933 13.7273C7.1977 11.5095 8.62268 9.56878 10.4966 8.1334C12.3705 6.69802 14.6155 5.82773 16.9672 5.62492C17.115 5.61273 17.2589 5.57156 17.3907 5.50376C17.5225 5.43597 17.6397 5.34287 17.7355 5.22978C17.8314 5.1167 17.904 4.98584 17.9493 4.84469C17.9946 4.70353 18.0116 4.55484 17.9994 4.4071C17.9872 4.25937 17.9461 4.11548 17.8783 3.98365C17.8105 3.85182 17.7174 3.73464 17.6043 3.63879C17.4912 3.54294 17.3603 3.47031 17.2192 3.42503C17.078 3.37976 16.9293 3.36273 16.7816 3.37492C14.0029 3.61393 11.3502 4.64159 9.13574 6.33698C6.92124 8.03237 5.23701 10.325 4.28121 12.9451C3.32541 15.5651 3.1378 18.4037 3.74045 21.1268C4.3431 23.8499 5.71094 26.3442 7.68304 28.3163C9.65514 30.2884 12.1495 31.6562 14.8726 32.2589C17.5956 32.8615 20.4342 32.6739 23.0543 31.7181C25.6744 30.7623 27.967 29.0781 29.6624 26.8636C31.3577 24.6491 32.3854 21.9964 32.6244 19.2177C32.6371 19.0699 32.6205 18.921 32.5754 18.7796C32.5303 18.6383 32.4577 18.5072 32.3618 18.394C32.2658 18.2808 32.1484 18.1877 32.0164 18.1201C31.8843 18.0525 31.7402 18.0116 31.5922 17.9999ZM17.9994 7.87492C20.002 7.87492 21.9595 8.46874 23.6246 9.58129C25.2896 10.6938 26.5874 12.2751 27.3537 14.1252C28.12 15.9753 28.3205 18.0111 27.9299 19.9752C27.5392 21.9393 26.5749 23.7434 25.1589 25.1594C23.7429 26.5754 21.9388 27.5397 19.9747 27.9304C18.0106 28.321 15.9748 28.1205 14.1247 27.3542C12.2746 26.5879 10.6933 25.2901 9.58079 23.6251C8.46824 21.96 7.87442 20.0025 7.87442 17.9999C7.87739 15.3155 8.94509 12.7419 10.8432 10.8437C12.7414 8.94559 15.315 7.87789 17.9994 7.87492ZM16.8744 17.9999C16.8744 18.2983 16.9929 18.5844 17.2039 18.7954C17.4149 19.0064 17.701 19.1249 17.9994 19.1249H24.7494C25.0478 19.1249 25.3339 19.0064 25.5449 18.7954C25.7559 18.5844 25.8744 18.2983 25.8744 17.9999C25.8744 17.7015 25.7559 17.4154 25.5449 17.2044C25.3339 16.9934 25.0478 16.8749 24.7494 16.8749H19.1244V11.2499C19.1244 10.9515 19.0059 10.6654 18.7949 10.4544C18.5839 10.2434 18.2978 10.1249 17.9994 10.1249C17.701 10.1249 17.4149 10.2434 17.2039 10.4544C16.9929 10.6654 16.8744 10.9515 16.8744 11.2499V17.9999ZM22.4994 6.74992C22.8332 6.74992 23.1594 6.65095 23.4369 6.46552C23.7144 6.2801 23.9307 6.01654 24.0585 5.70819C24.1862 5.39984 24.2196 5.06054 24.1545 4.7332C24.0894 4.40586 23.9287 4.10517 23.6927 3.86917C23.4567 3.63317 23.156 3.47245 22.8286 3.40734C22.5013 3.34223 22.162 3.37565 21.8536 3.50337C21.5453 3.63109 21.2817 3.84738 21.0963 4.12489C20.9109 4.4024 20.8119 4.72866 20.8119 5.06242C20.8119 5.50997 20.9897 5.93919 21.3062 6.25566C21.6226 6.57213 22.0519 6.74992 22.4994 6.74992Z" />
    </svg>
    <svg id="location" xmlns="http://www.w3.org/2000/svg" viewBox="0 0 36 36">
        <path d="M18 2.25C14.7191 2.25372 11.5736 3.55871 9.25366 5.87866C6.93371 8.19862 5.62872 11.3441 5.625 14.625C5.625 25.2141 16.875 33.2114 17.3545 33.5461C17.5437 33.6786 17.769 33.7497 18 33.7497C18.231 33.7497 18.4563 33.6786 18.6455 33.5461C19.125 33.2114 30.375 25.2141 30.375 14.625C30.3713 11.3441 29.0663 8.19862 26.7463 5.87866C24.4264 3.55871 21.2809 2.25372 18 2.25ZM18 10.125C18.89 10.125 19.76 10.3889 20.5001 10.8834C21.2401 11.3779 21.8169 12.0807 22.1575 12.9029C22.4981 13.7252 22.5872 14.63 22.4135 15.5029C22.2399 16.3758 21.8113 17.1776 21.182 17.807C20.5526 18.4363 19.7508 18.8649 18.8779 19.0385C18.005 19.2122 17.1002 19.1231 16.2779 18.7825C15.4557 18.4419 14.7529 17.8651 14.2584 17.1251C13.7639 16.385 13.5 15.515 13.5 14.625C13.5 13.4315 13.9741 12.2869 14.818 11.443C15.6619 10.5991 16.8065 10.125 18 10.125Z" />
    </svg>
    <svg id="price" xmlns="http://www.w3.org/2000/svg" viewBox="0 0 36 36">
        <path d="M23.625 18C23.625 19.1125 23.2951 20.2001 22.677 21.1251C22.0589 22.0501 21.1804 22.7711 20.1526 23.1968C19.1248 23.6226 17.9938 23.734 16.9026 23.5169C15.8115 23.2999 14.8092 22.7641 14.0225 21.9775C13.2359 21.1908 12.7001 20.1885 12.4831 19.0974C12.266 18.0062 12.3774 16.8752 12.8032 15.8474C13.2289 14.8196 13.9499 13.9411 14.8749 13.323C15.7999 12.7049 16.8875 12.375 18 12.375C19.4918 12.375 20.9226 12.9676 21.9775 14.0225C23.0324 15.0774 23.625 16.5082 23.625 18ZM34.875 9V27C34.875 27.2984 34.7565 27.5845 34.5455 27.7955C34.3345 28.0065 34.0484 28.125 33.75 28.125H2.25C1.95163 28.125 1.66548 28.0065 1.4545 27.7955C1.24353 27.5845 1.125 27.2984 1.125 27V9C1.125 8.70163 1.24353 8.41548 1.4545 8.20451C1.66548 7.99353 1.95163 7.875 2.25 7.875H33.75C34.0484 7.875 34.3345 7.99353 34.5455 8.20451C34.7565 8.41548 34.875 8.70163 34.875 9ZM32.625 15.518C31.3476 15.1403 30.1849 14.4489 29.243 13.507C28.3011 12.5651 27.6097 11.4024 27.232 10.125H8.76797C8.39026 11.4024 7.69895 12.5651 6.75701 13.507C5.81507 14.4489 4.65243 15.1403 3.375 15.518V20.482C4.65243 20.8597 5.81507 21.5511 6.75701 22.493C7.69895 23.4349 8.39026 24.5976 8.76797 25.875H27.232C27.6097 24.5976 28.3011 23.4349 29.243 22.493C30.1849 21.5511 31.3476 20.8597 32.625 20.482V15.518Z" />
    </svg>
    <svg id="calendar" xmlns="http://www.w3.org/2000/svg" viewBox="0 0 24 24">
        <path d="M19.5 3H17.25V2.25C17.25 2.05109 17.171 1.86032 17.0303 1.71967C16.8897 1.57902 16.6989 1.5 16.5 1.5C16.3011 1.5 16.1103 1.57902 15.9697 1.71967C15.829 1.86032 15.75 2.05109 15.75 2.25V3H8.25V2.25C8.25 2.05109 8.17098 1.86032 8.03033 1.71967C7.88968 1.57902 7.69891 1.5 7.5 1.5C7.30109 1.5 7.11032 1.57902 6.96967 1.71967C6.82902 1.86032 6.75 2.05109 6.75 2.25V3H4.5C4.10218 3 3.72064 3.15804 3.43934 3.43934C3.15804 3.72064 3 4.10218 3 4.5V19.5C3 19.8978 3.15804 20.2794 3.43934 20.5607C3.72064 20.842 4.10218 21 4.5 21H19.5C19.8978 21 20.2794 20.842 20.5607 20.5607C20.842 20.2794 21 19.8978 21 19.5V4.5C21 4.10218 20.842 3.72064 20.5607 3.43934C20.2794 3.15804 19.8978 3 19.5 3ZM6.75 4.5V5.25C6.75 5.44891 6.82902 5.63968 6.96967 5.78033C7.11032 5.92098 7.30109 6 7.5 6C7.69891 6 7.88968 5.92098 8.03033 5.78033C8.17098 5.63968 8.25 5.44891 8.25 5.25V4.5H15.75V5.25C15.75 5.44891 15.829 5.63968 15.9697 5.78033C16.1103 5.92098 16.3011 6 16.5 6C16.6989 6 16.8897 5.92098 17.0303 5.78033C17.171 5.63968 17.25 5.44891 17.25 5.25V4.5H19.5V7.5H4.5V4.5H6.75ZM19.5 19.5H4.5V9H19.5V19.5ZM15.9056 11.4694C15.9754 11.539 16.0307 11.6217 16.0684 11.7128C16.1062 11.8038 16.1256 11.9014 16.1256 12C16.1256 12.0986 16.1062 12.1962 16.0684 12.2872C16.0307 12.3783 15.9754 12.461 15.9056 12.5306L11.4056 17.0306C11.336 17.1004 11.2533 17.1557 11.1622 17.1934C11.0712 17.2312 10.9736 17.2506 10.875 17.2506C10.7764 17.2506 10.6788 17.2312 10.5878 17.1934C10.4967 17.1557 10.414 17.1004 10.3444 17.0306L8.09437 14.7806C7.95364 14.6399 7.87458 14.449 7.87458 14.25C7.87458 14.051 7.95364 13.8601 8.09437 13.7194C8.23511 13.5786 8.42598 13.4996 8.625 13.4996C8.82402 13.4996 9.01489 13.5786 9.15563 13.7194L10.875 15.4397L14.8444 11.4694C14.914 11.3996 14.9967 11.3443 15.0878 11.3066C15.1788 11.2688 15.2764 11.2494 15.375 11.2494C15.4736 11.2494 15.5712 11.2688 15.6622 11.3066C15.7533 11.3443 15.836 11.3996 15.9056 11.4694Z" />
    </svg>
    <svg id="download" xmlns="http://www.w3.org/2000/svg" viewBox="0 0 24 24" >
        <path d="M7.71937 11.0306C7.61437 10.9257 7.54284 10.792 7.51385 10.6465C7.48487 10.5009 7.49972 10.35 7.55653 10.2129C7.61335 10.0758 7.70957 9.95861 7.83301 9.87621C7.95646 9.79381 8.10158 9.74988 8.25 9.75H11.25V3.75C11.25 3.55109 11.329 3.36032 11.4697 3.21967C11.6103 3.07902 11.8011 3 12 3C12.1989 3 12.3897 3.07902 12.5303 3.21967C12.671 3.36032 12.75 3.55109 12.75 3.75V9.75H15.75C15.8984 9.74988 16.0435 9.79381 16.167 9.87621C16.2904 9.95861 16.3867 10.0758 16.4435 10.2129C16.5003 10.35 16.5151 10.5009 16.4861 10.6465C16.4572 10.792 16.3856 10.9257 16.2806 11.0306L12.5306 14.7806C12.461 14.8504 12.3783 14.9057 12.2872 14.9434C12.1962 14.9812 12.0986 15.0006 12 15.0006C11.9014 15.0006 11.8038 14.9812 11.7128 14.9434C11.6217 14.9057 11.539 14.8504 11.4694 14.7806L7.71937 11.0306ZM20.25 13.5C20.0511 13.5 19.8603 13.579 19.7197 13.7197C19.579 13.8603 19.5 14.0511 19.5 14.25V19.5H4.5V14.25C4.5 14.0511 4.42098 13.8603 4.28033 13.7197C4.13968 13.579 3.94891 13.5 3.75 13.5C3.55109 13.5 3.36032 13.579 3.21967 13.7197C3.07902 13.8603 3 14.0511 3 14.25V19.5C3 19.8978 3.15804 20.2794 3.43934 20.5607C3.72064 20.842 4.10218 21 4.5 21H19.5C19.8978 21 20.2794 20.842 20.5607 20.5607C20.842 20.2794 21 19.8978 21 19.5V14.25C21 14.0511 20.921 13.8603 20.7803 13.7197C20.6397 13.579 20.4489 13.5 20.25 13.5Z" fill="#007AFB" />
    </svg>
    <svg id="cup" xmlns="http://www.w3.org/2000/svg" viewBox="0 0 48 48">
        <path d="M13.5024 8.32072C11.7444 8.7502 11.5987 6.1273 13.3372 5.96561C13.6828 5.93345 14.0471 5.9565 14.3948 5.95651L33.4475 5.95602C33.8842 5.95533 34.3302 5.93051 34.7658 5.95621C36.2324 6.04562 36.2824 8.2111 34.7258 8.30253C34.666 8.30604 34.5994 8.29806 34.5442 8.32072V9.1397C34.5411 9.5349 34.3861 9.92499 34.7658 9.94215C34.9081 9.9428 35.0529 9.94899 35.1949 9.94215L38.5001 9.94121C39.9937 9.94093 40.7895 9.51924 40.7019 11.2875C40.4527 16.3158 37.4815 20.0319 32.6923 21.3619C32.3403 21.4667 31.9923 21.5563 31.6301 21.621C31.3904 21.7495 31.1782 21.9946 30.9687 22.1719C30.2385 22.7903 29.4756 23.1897 28.648 23.6603C28.6528 23.7661 28.6716 23.8903 28.648 23.9934V24.1321C28.3332 26.1497 27.5341 27.3886 25.6691 28.3798C25.1192 28.5552 24.1839 28.7818 23.6142 28.6401C23.2174 28.6601 22.8044 28.4839 22.4266 28.3798C22.3254 28.2505 21.6865 27.9471 21.5113 27.8198C20.3081 26.9455 19.7879 25.7135 19.5642 24.2881C19.5605 24.2135 19.563 24.1389 19.5642 24.0643C19.5541 23.96 19.5608 23.8554 19.5642 23.7508C18.5896 23.299 17.7295 22.7566 16.9374 22.0291C16.7741 21.8793 16.6011 21.6891 16.3859 21.621C16.0044 21.4782 15.6049 21.3716 15.2154 21.252C14.0359 21.0313 12.4134 20.1176 11.4705 19.3991C8.86977 17.4173 7.09055 13.9098 7.30684 10.5971C7.36366 9.72671 8.36289 9.94112 8.96475 9.94149L11.1138 9.94233C11.7713 9.94224 12.8169 9.86855 13.4253 9.94215H13.5024V8.74767V8.32072ZM14.3849 19.4836C14.595 19.5286 14.7559 19.5893 14.9439 19.6936C14.9362 19.5081 14.5957 18.9564 14.4987 18.7591C13.3816 16.4843 13.5004 13.9268 13.5024 11.4605H12.9091L10.0872 11.46C9.61698 11.4595 9.14117 11.4336 8.67194 11.4605C9.21503 14.7641 10.2875 17.4217 13.5543 19.0389C13.8303 19.1755 14.1435 19.291 14.3849 19.4836ZM34.5442 11.4605L34.5446 13.5649C34.5434 15.5451 34.3453 17.2825 33.3776 19.0773C33.2739 19.2697 33.1134 19.4889 33.0481 19.6936C33.2724 19.6426 33.4851 19.565 33.6999 19.4836C36.9339 17.9941 39.2109 15.1776 39.1805 11.4605H35.324H34.5442Z" />
        <path d="M33.5556 8.32063C33.7973 8.35237 34.3852 8.26532 34.5522 8.32063V9.13961C34.5491 9.53481 34.3942 9.9249 34.7738 9.94206C34.9162 9.94271 35.0609 9.9489 35.2029 9.94206L38.5082 9.94112C40.0017 9.94084 40.7976 9.51915 40.7099 11.2874C40.4607 16.3157 37.4896 20.0318 32.7004 21.3618C32.3483 21.4666 32.0003 21.5562 31.6382 21.6209C31.3985 21.7494 31.1862 21.9946 30.9768 22.1718C30.2466 22.7902 29.4836 23.1896 28.6561 23.6602C28.6609 23.766 28.6796 23.8902 28.6561 23.9933V24.1321C28.3413 26.1496 27.5422 27.3885 25.6772 28.3797C25.1273 28.5551 24.192 28.7817 23.6223 28.64C23.2254 28.66 22.8125 28.4838 22.4347 28.3797C22.3335 28.2504 21.6946 27.947 21.5194 27.8197C20.3162 26.9454 19.796 25.7134 19.5723 24.288C19.5685 24.2134 19.5711 24.1388 19.5723 24.0642C19.5691 23.6692 19.8853 23.9089 20.1265 23.9933C21.8178 24.0139 22.6397 24.1744 24.2854 23.6836C28.1209 22.5394 31.2536 19.3087 31.7013 15.2566C31.7989 14.3731 31.7677 13.4948 31.7673 12.608L31.7669 9.13961C31.7797 8.86584 31.774 8.59442 31.7669 8.32063C32.363 8.31962 32.9595 8.33021 33.5556 8.32063ZM34.5522 11.4604L34.5527 13.5648C34.5515 15.545 34.3534 17.2824 33.3857 19.0772C33.282 19.2696 33.1215 19.4888 33.0562 19.6936C33.2804 19.6426 33.4931 19.5649 33.708 19.4836C36.9419 17.9941 39.2189 15.1775 39.1885 11.4604H35.332H34.5522Z" />
        <path d="M35.1979 9.94208L38.5031 9.94114C39.9967 9.94086 40.7925 9.51917 40.7048 11.2874C40.4557 16.3158 37.4845 20.0318 32.6953 21.3619C32.8024 20.981 33.8598 19.928 33.7029 19.4836C36.9368 17.9941 39.2138 15.1775 39.1835 11.4605H35.327C35.3265 11.2219 35.3708 10.1285 35.3193 9.97049L35.1979 9.94208Z" />
        <path d="M26.6318 25.0627C27.2998 24.839 28.1164 24.5979 28.6541 24.1321C28.3393 26.1497 27.5402 27.3885 25.6752 28.3797C25.1253 28.5551 24.19 28.7817 23.6203 28.6401C23.2235 28.66 22.8105 28.4839 22.4327 28.3797C22.3315 28.2504 21.6926 27.9471 21.5174 27.8197C20.3142 26.9454 19.794 25.7135 19.5703 24.288C19.8012 24.282 20.7277 24.7664 21.0416 24.8831C22.6552 25.4827 24.9718 25.4286 26.6318 25.0627Z" />
        <path d="M26.6209 25.0627C27.2889 24.839 28.1054 24.5979 28.6432 24.1321C28.3284 26.1497 27.5292 27.3885 25.6643 28.3797C25.1143 28.5551 24.1791 28.7817 23.6094 28.6401C23.8319 28.486 24.1083 28.3981 24.3418 28.2585C25.4607 27.5901 26.2904 26.3205 26.6209 25.0627Z" />
        <path d="M20.1265 23.9935C20.4804 24.1009 20.7939 24.3101 21.1492 24.4152C23.0107 24.966 25.1253 24.8836 26.9708 24.301C27.5449 24.1197 28.0828 23.832 28.6561 23.6604C28.651 23.7601 28.628 23.8985 28.6561 23.9935V24.1322C28.1183 24.5981 27.3018 24.8392 26.6338 25.0629C24.9738 25.4288 22.6571 25.4829 21.0436 24.8833C20.7296 24.7666 19.8032 24.2822 19.5723 24.2882C19.5685 24.2136 19.5711 24.139 19.5723 24.0644C19.5691 23.6694 19.8853 23.9091 20.1265 23.9935Z" />
        <path d="M33.5465 8.32063C33.7883 8.35237 34.3761 8.26532 34.5431 8.32063V9.13961H31.7578C31.7706 8.86584 31.7649 8.59442 31.7578 8.32063C32.3539 8.31962 32.9504 8.33021 33.5465 8.32063Z" />
        <path d="M33.043 19.6934C33.2672 19.6424 33.4799 19.5648 33.6948 19.4834C33.8517 19.9278 32.7942 20.9809 32.6872 21.3617C32.3352 21.4665 31.9872 21.556 31.625 21.6207C31.6348 21.5995 32.905 19.8718 33.043 19.6934Z" />
        <path d="M34.7685 9.94189C34.9108 9.94255 35.0556 9.94874 35.1976 9.94189L35.319 9.9703C35.3705 10.1284 35.3262 11.2217 35.3267 11.4603H34.5469C34.5757 10.9694 34.5368 10.4735 34.5593 9.98089C34.6138 9.94358 34.7019 9.94818 34.7685 9.94189Z" />
        <path d="M13.5057 8.32072C11.7478 8.7502 11.602 6.1273 13.3405 5.96561C13.6862 5.93345 14.0505 5.9565 14.3982 5.95651L33.4508 5.95602C33.8875 5.95533 34.3336 5.93051 34.7691 5.95621C36.2358 6.04562 36.2857 8.2111 34.7291 8.30253C34.6694 8.30604 34.6027 8.29806 34.5475 8.32072C34.3805 8.26541 33.7927 8.35246 33.5509 8.32072C32.9548 8.3303 32.3583 8.31971 31.7622 8.32072L15.5619 8.32098C15.2629 8.32095 13.6578 8.28693 13.5057 8.32072Z" />
        <path d="M33.9588 5.95605C34.2293 5.97468 34.495 5.98235 34.7652 5.95605C36.2318 6.04546 36.2817 8.21095 34.7251 8.30238C34.6654 8.30589 34.5987 8.29791 34.5435 8.32057C34.3765 8.26526 33.7887 8.3523 33.5469 8.32057C34.6551 7.52878 35.1101 7.14522 33.9588 5.95605Z" />
        <path d="M15.2154 21.2519C14.0359 21.0312 12.4134 20.1175 11.4705 19.399C8.86977 17.4173 7.09055 13.9098 7.30684 10.597C7.36366 9.72667 8.36289 9.94107 8.96475 9.94145L11.1138 9.94229C11.7713 9.9422 12.8169 9.86851 13.4253 9.9421H13.5024C13.5226 10.1193 13.5328 11.3514 13.5024 11.4605H12.9091L10.0872 11.4599C9.61698 11.4594 9.14117 11.4336 8.67194 11.4605C9.21503 14.764 10.2875 17.4217 13.5543 19.0389C13.8303 19.1754 14.1435 19.2909 14.3849 19.4836C14.3001 19.8026 15.2029 20.9637 15.2154 21.2519Z" />
        <path d="M13.4302 9.94189H13.5073C13.5276 10.1191 13.5378 11.3511 13.5073 11.4603H12.9141V9.94189C13.0864 9.94546 13.258 9.94986 13.4302 9.94189Z" />
        <path d="M13.5 8.32038C13.6521 8.28658 15.2572 8.32061 15.5562 8.32064L31.7565 8.32038C31.7636 8.59417 31.7693 8.86559 31.7565 9.13936H13.5C13.5079 9.03669 13.5457 8.83734 13.5 8.74733V8.32038Z" />
        <path d="M15.2112 21.2517C15.1986 20.9635 14.2958 19.8024 14.3806 19.4834C14.5907 19.5284 14.7516 19.5891 14.9396 19.6934C14.9758 19.7202 16.3591 21.5447 16.3816 21.6207C16.0002 21.4779 15.6006 21.3713 15.2112 21.2517Z" />
        <path d="M23.6255 28.64C24.1953 28.7816 25.1305 28.555 25.6805 28.3796C25.6399 31.0353 26.0623 31.8008 27.3696 33.8667C27.4424 33.879 27.4978 33.8771 27.5707 33.8667C29.7535 33.838 29.7009 33.9464 29.7009 36.213C29.7009 37.258 29.6869 38.3049 29.7002 39.3497C30.953 39.2438 31.5686 40.5158 30.8209 41.3159C30.3951 41.7715 29.7915 41.7249 29.2248 41.71C28.436 41.738 27.635 41.7105 26.8452 41.7106L19.3878 41.7104C18.7095 41.7103 17.7497 41.8882 17.2113 41.3777C16.2792 40.4939 17.0235 39.3375 18.4093 39.3497L18.4085 36.504C18.4088 34.9751 18.0946 33.7528 20.2206 33.8867C20.39 33.8974 20.5939 33.9412 20.7533 33.8667C21.9801 32.476 22.4336 30.719 22.4379 28.9028V28.3796C22.8157 28.4838 23.2287 28.66 23.6255 28.64Z" />
        <path d="M29.7002 39.35C30.953 39.244 31.5686 40.516 30.8209 41.3162C30.3951 41.7718 29.7915 41.7251 29.2248 41.7102C28.436 41.7382 27.635 41.7108 26.8452 41.7109L19.3878 41.7107C18.7095 41.7106 17.7497 41.8884 17.2113 41.378C16.2792 40.4942 17.0235 39.3378 18.4093 39.35H24.1352H28.4567H29.7002Z" fill="#002848" />
        <path d="M29.6966 39.35C30.9494 39.244 31.5651 40.516 30.8173 41.3162C30.3916 41.7718 29.7879 41.7251 29.2212 41.7102C29.014 41.6607 28.7678 41.6985 28.5565 41.7102C29.3038 40.6062 29.4442 40.4233 28.4531 39.35H29.6966Z" fill="#002848" />
        <path d="M23.6144 28.64C24.1841 28.7816 25.1194 28.555 25.6693 28.3796C25.6287 31.0353 26.0512 31.8008 27.3585 33.8667C25.5946 33.845 23.8277 33.8668 22.0634 33.8667C21.6234 33.8685 21.1821 33.8775 20.7422 33.8667C21.969 32.476 22.4225 30.719 22.4268 28.9028V28.3796C22.8046 28.4838 23.2176 28.66 23.6144 28.64Z" />
        <path d="M22.4268 28.9024C22.5958 28.8027 22.8571 29.039 23.0204 29.1025C23.5161 29.2948 24.1019 29.2991 24.6254 29.2551C24.1401 31.2773 23.2401 32.7468 21.516 33.8664C21.6963 33.8601 21.8845 33.8426 22.0634 33.8664C21.6234 33.8682 21.1821 33.8772 20.7422 33.8664C21.969 32.4757 22.4225 30.7186 22.4268 28.9024Z" />
        <path d="M27.5606 33.8666C29.7433 33.8379 29.6908 33.9463 29.6908 36.2129C29.6908 37.2579 29.6767 38.3047 29.69 39.3496H28.4465H24.125C24.3115 39.2778 25.0998 38.7498 25.2926 38.6167C26.8287 37.5558 27.6895 35.7258 27.5606 33.8666Z" />
    </svg>
</svg>