<svg xmlns="http://www.w3.org/2000/svg" xmlns:xlink="http://www.w3.org/1999/xlink" viewBox="0 0 300 300">
    <style>:root>svg{display:none}:root>svg:target{display:block}</style>
    <svg id="logo" xmlns="http://www.w3.org/2000/svg" viewBox="0 0 90 132">
        <path d="M90 87.0101C90 99.4333 84.9617 110.682 76.821 118.821C75.3491 120.292 73.7773 121.66 72.1127 122.916C72.1127 120.392 72.1053 118.016 71.7939 115.489V115.482L71.7864 115.441C72.0682 115.174 72.3499 114.903 72.6243 114.629C79.6938 107.562 84.0686 97.7952 84.0686 87.0101V44.9859C84.0686 34.2008 79.6938 24.435 72.6243 17.3672C72.5464 17.2894 72.4649 17.2079 72.3833 17.13C73.3583 15.2992 74.2369 13.4053 75.0043 11.4596C75.6234 12.0155 76.2314 12.5863 76.8172 13.1756C84.9617 21.3181 89.9962 32.5627 89.9962 44.9859V87.0101H90ZM54.3515 131.025C51.3338 131.663 48.2049 132 44.9982 132C32.5716 132 21.3202 126.964 13.1792 118.825C5.0381 110.686 0 99.4333 0 87.0101V44.9859C0 32.5627 5.0381 21.3144 13.1792 13.1756C21.3239 5.03672 32.5753 0 45.0018 0C49.4098 0 53.6693 0.63376 57.6954 1.81604V8.03878C53.7138 6.67115 49.4468 5.92992 45.0018 5.92992C34.2139 5.92992 24.4454 10.3032 17.3757 17.371C10.3061 24.4387 5.93154 34.2045 5.93154 44.9896V87.014C5.93154 97.7991 10.3061 107.565 17.3757 114.633C24.4454 121.7 34.2139 126.074 45.0018 126.074C49.191 126.074 53.2245 125.414 57.0095 124.194C56.32 126.566 55.4302 128.854 54.3552 131.029L54.3515 131.025Z" />
        <path fill-rule="evenodd" clip-rule="evenodd" d="M53.9318 86.0884C47.155 81.4107 38.9362 78.6686 30.0759 78.6686C27.0694 78.6686 24.1369 78.9866 21.3084 79.5875C18.4167 76.3926 16.007 72.7494 14.2016 68.7763L81.7289 40.12C83.9305 45.4384 81.4355 51.5499 76.1232 53.807C73.2649 55.019 70.1694 54.8707 67.5632 53.6513L72.6273 65.5779C74.5884 70.1995 76.0046 74.9175 76.8979 79.6612C79.3667 92.7329 77.8877 105.979 73.0796 117.88C72.7682 118.65 72.4419 119.414 72.1045 120.174C71.9303 106.038 64.7791 93.5819 53.9318 86.0953V86.0884ZM40.2744 33.7491C34.5801 31.9701 29.4086 29.0125 25.0415 25.1655C27.314 23.2568 29.7904 21.589 32.43 20.1918C35.5515 23.6015 39.229 26.4923 43.3144 28.7235C46.2653 22.9788 47.9336 16.4634 47.9336 9.5624V3.06543C51.3109 3.29892 54.5806 3.93268 57.6909 4.91482V9.6291C57.6909 18.1237 55.1663 26.0291 50.8289 32.6409L50.7547 32.7521C50.599 32.9893 50.4396 33.2228 50.2765 33.4562L50.2024 33.5674V33.5749C50.0244 33.8232 49.8502 34.0715 49.6722 34.3161L49.5981 34.4199C49.4164 34.6682 49.2348 34.9091 49.0494 35.1537L49.0086 35.2056C46.4284 38.5634 43.3515 41.5209 39.8889 43.9671C54.9365 39.3417 67.2444 28.4566 73.7654 14.3508C76.9724 17.3639 79.7077 20.8737 81.8471 24.7615C79.6862 27.7598 77.2911 30.5728 74.6848 33.1783C62.3138 45.5459 45.2236 53.1955 26.3501 53.1955C20.8746 53.1955 15.5474 52.5506 10.4425 51.335C10.7465 49.2076 11.2136 47.1285 11.8253 45.116C15.6363 45.9498 19.5956 46.3909 23.6587 46.3909C24.5225 46.3909 25.3826 46.3687 26.2389 46.3279C31.8109 43.2406 36.608 38.9229 40.2634 33.7416L40.2744 33.7491ZM55.8447 127.62C57.665 122.916 58.6659 117.806 58.6659 112.461C58.6659 102.217 54.9995 92.8298 48.9048 85.5398C47.6073 93.3376 44.1633 100.409 39.1993 106.127C34.2539 108.173 28.834 109.304 23.1472 109.304C17.4603 109.304 12.4666 108.263 7.68066 106.365C14.6835 119.833 28.7672 129.035 44.9974 129.035C48.7492 129.035 52.3822 128.543 55.8447 127.62ZM49.5017 68.869C45.9465 67.5384 42.2207 66.5601 38.3615 65.9782L50.803 60.6968C51.5221 63.5395 50.9994 66.4859 49.5017 68.8653V68.869Z" />
    </svg>
    <svg id="phone" xmlns="http://www.w3.org/2000/svg" viewBox="0 0 24 24">
        <path d="M14.2753 3.55575C14.3008 3.46056 14.3447 3.37133 14.4047 3.29315C14.4647 3.21496 14.5394 3.14935 14.6248 3.10008C14.7101 3.0508 14.8043 3.01882 14.902 3.00596C14.9996 2.99309 15.0989 2.99961 15.1941 3.02512C16.5844 3.38789 17.853 4.11473 18.869 5.13078C19.8851 6.14684 20.6119 7.41538 20.9747 8.80575C21.0002 8.90092 21.0067 9.00018 20.9939 9.09786C20.981 9.19555 20.949 9.28974 20.8997 9.37506C20.8505 9.46039 20.7849 9.53516 20.7067 9.59512C20.6285 9.65508 20.5393 9.69904 20.4441 9.7245C20.3807 9.74114 20.3155 9.74964 20.25 9.74981C20.0849 9.74986 19.9243 9.6954 19.7933 9.59488C19.6622 9.49436 19.5681 9.3534 19.5253 9.19387C19.2296 8.05869 18.6365 7.02292 17.8071 6.19335C16.9777 5.36378 15.942 4.77044 14.8069 4.4745C14.7116 4.44914 14.6223 4.40525 14.544 4.34533C14.4657 4.28542 14.4 4.21066 14.3506 4.12533C14.3013 4.04 14.2692 3.94577 14.2563 3.84803C14.2433 3.7503 14.2498 3.65098 14.2753 3.55575ZM14.0569 7.4745C15.3497 7.8195 16.1803 8.65106 16.5253 9.94387C16.5681 10.1034 16.6622 10.2444 16.7933 10.3449C16.9243 10.4454 17.0849 10.4999 17.25 10.4998C17.3155 10.4996 17.3807 10.4911 17.4441 10.4745C17.5393 10.449 17.6285 10.4051 17.7067 10.3451C17.7849 10.2852 17.8505 10.2104 17.8997 10.1251C17.949 10.0397 17.981 9.94555 17.9939 9.84786C18.0067 9.75018 18.0002 9.65092 17.9747 9.55575C17.4947 7.7595 16.2403 6.50512 14.4441 6.02512C14.3489 5.9997 14.2497 5.99327 14.152 6.0062C14.0544 6.01913 13.9602 6.05117 13.8749 6.10049C13.7897 6.1498 13.7149 6.21543 13.655 6.29363C13.5951 6.37182 13.5512 6.46105 13.5258 6.55622C13.5004 6.65138 13.4939 6.75063 13.5069 6.84828C13.5198 6.94593 13.5518 7.04008 13.6012 7.12535C13.6505 7.21062 13.7161 7.28534 13.7943 7.34525C13.8725 7.40516 13.9617 7.44907 14.0569 7.4745ZM20.8472 14.8554L16.4306 12.8764L16.4184 12.8707C16.1892 12.7727 15.939 12.7333 15.6907 12.7562C15.4424 12.7792 15.2037 12.8636 14.9963 13.002C14.9718 13.0181 14.9484 13.0357 14.9259 13.0545L12.6441 14.9998C11.1984 14.2976 9.70595 12.8164 9.00376 11.3895L10.9519 9.07294C10.9706 9.0495 10.9884 9.02606 11.0053 9.00075C11.1407 8.79384 11.2229 8.55667 11.2445 8.31035C11.2661 8.06402 11.2264 7.81618 11.1291 7.58887V7.57762L9.14438 3.15356C9.0157 2.85662 8.79444 2.60926 8.51362 2.44841C8.2328 2.28756 7.9075 2.22184 7.58626 2.26106C6.31592 2.42822 5.14986 3.05209 4.30588 4.01615C3.4619 4.98021 2.99771 6.21852 3.00001 7.49981C3.00001 14.9436 9.05626 20.9998 16.5 20.9998C17.7813 21.0021 19.0196 20.5379 19.9837 19.6939C20.9477 18.85 21.5716 17.6839 21.7388 16.4136C21.7781 16.0924 21.7125 15.7672 21.5518 15.4864C21.3911 15.2056 21.144 14.9843 20.8472 14.8554Z" />
    </svg>
    <svg id="message" xmlns="http://www.w3.org/2000/svg" viewBox="0 0 24 24">
        <path d="M21 4.5H3C2.80109 4.5 2.61032 4.57902 2.46967 4.71967C2.32902 4.86032 2.25 5.05109 2.25 5.25V18C2.25 18.3978 2.40804 18.7794 2.68934 19.0607C2.97064 19.342 3.35218 19.5 3.75 19.5H20.25C20.6478 19.5 21.0294 19.342 21.3107 19.0607C21.592 18.7794 21.75 18.3978 21.75 18V5.25C21.75 5.05109 21.671 4.86032 21.5303 4.71967C21.3897 4.57902 21.1989 4.5 21 4.5ZM9.25406 12L3.75 17.0447V6.95531L9.25406 12ZM10.3641 13.0172L11.4891 14.0531C11.6274 14.1801 11.8084 14.2506 11.9963 14.2506C12.1841 14.2506 12.3651 14.1801 12.5034 14.0531L13.6284 13.0172L19.0659 18H4.92844L10.3641 13.0172ZM14.7459 12L20.25 6.95438V17.0456L14.7459 12Z" />
    </svg>
    <svg id="chevron-right" xmlns="http://www.w3.org/2000/svg" viewBox="0 0 32 32">
        <path d="M22.7081 16.7074L12.7081 26.7074C12.6151 26.8004 12.5048 26.8741 12.3835 26.9243C12.2621 26.9746 12.132 27.0005 12.0006 27.0005C11.8692 27.0005 11.7391 26.9746 11.6177 26.9243C11.4963 26.8741 11.386 26.8004 11.2931 26.7074C11.2001 26.6145 11.1264 26.5042 11.0762 26.3828C11.0259 26.2614 11 26.1313 11 25.9999C11 25.8686 11.0259 25.7384 11.0762 25.6171C11.1264 25.4957 11.2001 25.3854 11.2931 25.2924L20.5868 15.9999L11.2931 6.70745C11.1054 6.5198 11 6.26531 11 5.99995C11 5.73458 11.1054 5.48009 11.2931 5.29245C11.4807 5.1048 11.7352 4.99939 12.0006 4.99939C12.2659 4.99939 12.5204 5.1048 12.7081 5.29245L22.7081 15.2924C22.801 15.3853 22.8748 15.4956 22.9251 15.617C22.9754 15.7384 23.0013 15.8685 23.0013 15.9999C23.0013 16.1314 22.9754 16.2615 22.9251 16.3829C22.8748 16.5043 22.801 16.6146 22.7081 16.7074Z" />
    </svg>
    <svg id="chevron-bot" xmlns="http://www.w3.org/2000/svg" viewBox="0 0 24 24">
        <path d="M20.0303 9.53055L12.5303 17.0306C12.4607 17.1003 12.3779 17.1556 12.2869 17.1933C12.1958 17.2311 12.0982 17.2505 11.9997 17.2505C11.9011 17.2505 11.8035 17.2311 11.7125 17.1933C11.6214 17.1556 11.5387 17.1003 11.4691 17.0306L3.96906 9.53055C3.82833 9.38982 3.74927 9.19895 3.74927 8.99993C3.74927 8.80091 3.82833 8.61003 3.96906 8.4693C4.10979 8.32857 4.30066 8.24951 4.49968 8.24951C4.69871 8.24951 4.88958 8.32857 5.03031 8.4693L11.9997 15.4396L18.9691 8.4693C19.0387 8.39962 19.1215 8.34435 19.2125 8.30663C19.3036 8.26892 19.4011 8.24951 19.4997 8.24951C19.5982 8.24951 19.6958 8.26892 19.7869 8.30663C19.8779 8.34435 19.9606 8.39962 20.0303 8.4693C20.1 8.53899 20.1553 8.62171 20.193 8.71276C20.2307 8.8038 20.2501 8.90138 20.2501 8.99993C20.2501 9.09847 20.2307 9.19606 20.193 9.2871C20.1553 9.37815 20.1 9.46087 20.0303 9.53055Z" />
    </svg>
    <svg id="btn-prev" xmlns="http://www.w3.org/2000/svg" viewBox="0 0 44 44">
        <path d="M22 0.875C17.8219 0.875 13.7376 2.11396 10.2636 4.4352C6.7896 6.75645 4.08196 10.0557 2.48305 13.9158C0.884153 17.7759 0.465808 22.0234 1.28092 26.1213C2.09603 30.2191 4.10799 33.9832 7.06238 36.9376C10.0168 39.892 13.7809 41.904 17.8787 42.7191C21.9766 43.5342 26.2241 43.1159 30.0842 41.517C33.9443 39.918 37.2436 37.2104 39.5648 33.7364C41.886 30.2624 43.125 26.1781 43.125 22C43.1191 16.3991 40.8915 11.0293 36.9311 7.0689C32.9707 3.10848 27.6009 0.880915 22 0.875ZM26.3997 28.9753C26.5507 29.1263 26.6704 29.3055 26.7521 29.5028C26.8339 29.7001 26.8759 29.9115 26.8759 30.125C26.8759 30.3385 26.8339 30.5499 26.7521 30.7472C26.6704 30.9445 26.5507 31.1237 26.3997 31.2747C26.2487 31.4257 26.0695 31.5454 25.8722 31.6271C25.675 31.7088 25.4635 31.7509 25.25 31.7509C25.0365 31.7509 24.8251 31.7088 24.6278 31.6271C24.4305 31.5454 24.2513 31.4257 24.1003 31.2747L15.9753 23.1497C15.8242 22.9988 15.7044 22.8195 15.6226 22.6223C15.5408 22.425 15.4987 22.2135 15.4987 22C15.4987 21.7864 15.5408 21.575 15.6226 21.3777C15.7044 21.1804 15.8242 21.0012 15.9753 20.8503L24.1003 12.7253C24.2513 12.5743 24.4305 12.4546 24.6278 12.3729C24.8251 12.2912 25.0365 12.2491 25.25 12.2491C25.4635 12.2491 25.675 12.2912 25.8722 12.3729C26.0695 12.4546 26.2487 12.5743 26.3997 12.7253C26.5507 12.8763 26.6704 13.0555 26.7521 13.2528C26.8339 13.4501 26.8759 13.6615 26.8759 13.875C26.8759 14.0885 26.8339 14.2999 26.7521 14.4972C26.6704 14.6945 26.5507 14.8737 26.3997 15.0247L19.4224 22L26.3997 28.9753Z" />
    </svg>
    <svg id="btn-next" xmlns="http://www.w3.org/2000/svg" viewBox="0 0 44 44">
        <path d="M22 0.875C17.8219 0.875 13.7376 2.11396 10.2636 4.4352C6.7896 6.75645 4.08196 10.0557 2.48305 13.9158C0.884153 17.7759 0.465808 22.0234 1.28092 26.1213C2.09603 30.2191 4.10799 33.9832 7.06238 36.9376C10.0168 39.892 13.7809 41.904 17.8787 42.7191C21.9766 43.5342 26.2241 43.1159 30.0842 41.517C33.9443 39.918 37.2436 37.2104 39.5648 33.7364C41.886 30.2624 43.125 26.1781 43.125 22C43.1191 16.3991 40.8915 11.0293 36.9311 7.0689C32.9707 3.10848 27.6009 0.880915 22 0.875ZM28.0247 23.1497L19.8997 31.2747C19.7487 31.4257 19.5695 31.5454 19.3722 31.6271C19.175 31.7088 18.9635 31.7509 18.75 31.7509C18.5365 31.7509 18.3251 31.7088 18.1278 31.6271C17.9305 31.5454 17.7513 31.4257 17.6003 31.2747C17.4493 31.1237 17.3296 30.9445 17.2479 30.7472C17.1662 30.5499 17.1241 30.3385 17.1241 30.125C17.1241 29.9115 17.1662 29.7001 17.2479 29.5028C17.3296 29.3055 17.4493 29.1263 17.6003 28.9753L24.5777 22L17.6003 15.0247C17.2954 14.7198 17.1241 14.3062 17.1241 13.875C17.1241 13.4438 17.2954 13.0302 17.6003 12.7253C17.9052 12.4204 18.3188 12.2491 18.75 12.2491C19.1812 12.2491 19.5948 12.4204 19.8997 12.7253L28.0247 20.8503C28.1758 21.0012 28.2956 21.1804 28.3774 21.3777C28.4592 21.575 28.5013 21.7864 28.5013 22C28.5013 22.2135 28.4592 22.425 28.3774 22.6223C28.2956 22.8195 28.1758 22.9988 28.0247 23.1497Z" />
    </svg>
    <svg id="hockey" xmlns="http://www.w3.org/2000/svg" viewBox="0 0 32 32">
        <path d="M22 15.9999H19C18.2044 15.9999 17.4413 15.6838 16.8787 15.1212C16.3161 14.5586 16 13.7955 16 12.9999V1.99987C15.9997 1.83308 15.9576 1.66902 15.8776 1.52264C15.7977 1.37625 15.6824 1.25219 15.5423 1.16174C15.4021 1.0713 15.2416 1.01734 15.0753 1.00479C14.9089 0.992236 14.7421 1.02148 14.59 1.08987L5.59 5.08987C5.41455 5.16874 5.26557 5.29653 5.16092 5.45794C5.05628 5.61935 5.0004 5.80751 5 5.99987V21.9999C5 22.7955 5.31607 23.5586 5.87868 24.1212C6.44129 24.6838 7.20435 24.9999 8 24.9999H26C26.2652 24.9999 26.5196 24.8945 26.7071 24.707C26.8946 24.5194 27 24.2651 27 23.9999V20.9999C27 19.6738 26.4732 18.402 25.5355 17.4643C24.5979 16.5267 23.3261 15.9999 22 15.9999Z" />
        <path d="M26 27C25.7348 27 25.4804 27.1054 25.2929 27.2929C25.1054 27.4804 25 27.7348 25 28C25 28.2652 24.8946 28.5196 24.7071 28.7071C24.5196 28.8946 24.2652 29 24 29H21V27H19V29H13V27H11V29H8C7.73478 29 7.48043 28.8946 7.29289 28.7071C7.10536 28.5196 7 28.2652 7 28C7 27.7348 6.89464 27.4804 6.70711 27.2929C6.51957 27.1054 6.26522 27 6 27C5.73478 27 5.48043 27.1054 5.29289 27.2929C5.10536 27.4804 5 27.7348 5 28C5 28.7956 5.31607 29.5587 5.87868 30.1213C6.44129 30.6839 7.20435 31 8 31H24C24.7956 31 25.5587 30.6839 26.1213 30.1213C26.6839 29.5587 27 28.7956 27 28C27 27.7348 26.8946 27.4804 26.7071 27.2929C26.5196 27.1054 26.2652 27 26 27Z" />
    </svg>
    <svg id="hockey-ball" xmlns="http://www.w3.org/2000/svg" viewBox="0 0 32 32">
        <path d="M8 23C9.65685 23 11 21.6569 11 20C11 18.3431 9.65685 17 8 17C6.34315 17 5 18.3431 5 20C5 21.6569 6.34315 23 8 23Z" />
        <path d="M13.26 24H8.5C7.57174 24 6.6815 24.3687 6.02513 25.0251C5.36875 25.6815 5 26.5717 5 27.5C5 28.4283 5.36875 29.3185 6.02513 29.9749C6.6815 30.6313 7.57174 31 8.5 31H17C17.2109 30.9998 17.4163 30.933 17.5869 30.8091C17.7576 30.6852 17.8846 30.5105 17.95 30.31C22.14 17.31 23.72 12.31 24.48 10H17.48L13.26 24Z" />
        <path d="M25.9999 5.39988C26.1533 4.97189 26.2186 4.51728 26.1917 4.06342C26.1648 3.60955 26.0464 3.16582 25.8435 2.75892C25.6407 2.35203 25.3576 1.99039 25.0113 1.69578C24.665 1.40117 24.2626 1.17968 23.8285 1.04465C23.3944 0.909611 22.9374 0.863819 22.4851 0.91003C22.0328 0.95624 21.5945 1.0935 21.1966 1.31354C20.7988 1.53358 20.4495 1.83185 20.17 2.1904C19.8904 2.54895 19.6863 2.96037 19.5699 3.39988L18.1299 7.99988H25.1299L25.9999 5.39988Z" />
    </svg>
    <svg id="basketball" xmlns="http://www.w3.org/2000/svg" viewBox="0 0 32 32">
        <path d="M11.9398 14.9998H14.9998V1.0498C12.9929 1.18431 11.0336 1.72106 9.23838 2.62812C7.44314 3.53519 5.84867 4.79404 4.5498 6.3298C6.51765 6.85098 8.27957 7.96033 9.60011 9.50959C10.9206 11.0589 11.7369 12.9742 11.9398 14.9998Z" />
        <path d="M6.6698 9.50986C5.66292 8.78128 4.49778 8.30152 3.2698 8.10986C1.97127 10.1875 1.20849 12.5549 1.0498 14.9999H9.9298C9.79245 13.91 9.43212 12.8601 8.87125 11.9155C8.31038 10.971 7.561 10.1521 6.6698 9.50986Z" />
        <path d="M20.05 14.9998C20.3049 12.5496 21.4465 10.2771 23.26 8.6098C24.4531 7.52084 25.8953 6.74137 27.46 6.3398C26.1609 4.80104 24.5652 3.53963 22.7681 2.63078C20.971 1.72193 19.0093 1.18425 17 1.0498V14.9998H20.05Z" />
        <path d="M22.0703 14.9999H31.0003C30.8401 12.5567 30.0812 10.1904 28.7903 8.10986C27.2461 8.35321 25.8088 9.04925 24.6603 10.1099C23.2428 11.3799 22.3245 13.1137 22.0703 14.9999Z" />
        <path d="M9.9298 17H1.0498C1.21118 19.4399 1.97014 21.8026 3.2598 23.88C4.17706 23.7387 5.06326 23.4411 5.8798 23C6.97901 22.3887 7.91859 21.5268 8.62227 20.4843C9.32596 19.4418 9.77392 18.2481 9.9298 17Z" />
        <path d="M11.9298 17C11.7701 18.6068 11.2237 20.151 10.3373 21.5006C9.45091 22.8502 8.25088 23.9651 6.8398 24.75C6.11829 25.1519 5.34886 25.4611 4.5498 25.67C5.84422 27.2149 7.4367 28.4831 9.23216 29.3989C11.0276 30.3147 12.9892 30.8592 14.9998 31V17H11.9298Z" />
        <path d="M20.06 17H17V31C19.0126 30.8644 20.9771 30.3242 22.776 29.4118C24.575 28.4994 26.1715 27.2336 27.47 25.69C26.2617 25.3863 25.1217 24.857 24.11 24.13C22.9694 23.2953 22.0187 22.2282 21.3206 20.9992C20.6225 19.7702 20.1928 18.4072 20.06 17Z" />
        <path d="M22.0703 17C22.279 18.7186 23.0436 20.3219 24.2477 21.5657C25.4518 22.8095 27.0294 23.6257 28.7403 23.89C30.0488 21.8141 30.825 19.4476 31.0003 17H22.0703Z" />
    </svg>
    <svg id="volleyball" xmlns="http://www.w3.org/2000/svg" viewBox="0 0 32 32">
        <path d="M10.8332 24.096C11.9853 23.8174 13.0942 23.3832 14.1292 22.8053C10.9679 20.1042 8.98235 16.2785 8.59315 12.1387C8.30161 8.06786 9.37097 4.01557 11.6332 0.618667C9.00409 1.36419 6.60979 2.77066 4.67848 4.704L5.41448 12.48C5.83677 16.8584 7.74965 20.959 10.8332 24.096Z" />
        <path d="M8.32649 24.5333C5.46778 21.1959 3.70945 17.0571 3.29182 12.6827L2.74782 7.02933C1.12312 9.43086 0.181539 12.2287 0.023722 15.1239C-0.134095 18.0191 0.497784 20.9028 1.85182 23.4667C3.90792 24.2848 6.11661 24.6487 8.32649 24.5333Z" />
        <path d="M25.9158 15.9147C25.0868 15.0919 24.1588 14.3753 23.1532 13.7813C22.6485 16.4228 21.4814 18.8929 19.7613 20.96C18.0411 23.0272 15.8243 24.6237 13.3185 25.6C10.262 26.7955 6.91505 27.0373 3.71848 26.2933C5.72289 28.6999 8.38953 30.4653 11.3878 31.3707L18.4385 26.464C22.0757 23.9179 24.7181 20.1899 25.9158 15.9147Z" />
        <path d="M11.0998 7.04C10.815 8.18822 10.6681 9.36632 10.6625 10.5493C13.5736 9.49951 16.7278 9.32181 19.7384 10.038C22.749 10.7542 25.4853 12.3331 27.6118 14.5813C29.2488 16.2882 30.5161 18.3144 31.3345 20.5333C31.7726 19.0621 31.9953 17.5351 31.9958 16C31.9947 14.5127 31.7828 13.0331 31.3665 11.6053L24.1452 8.21333C20.0706 6.29809 15.4507 5.88256 11.0998 7.04Z" />
        <path d="M25.0518 6.28267L30.2252 8.704C28.8832 6.08491 26.8449 3.88665 24.3345 2.35103C21.824 0.815405 18.9387 0.00190271 15.9958 0C15.5158 0 15.0465 5.5631e-08 14.5772 0.0746667C13.4718 1.47855 12.5605 3.02489 11.8678 4.672C16.3215 3.78093 20.9437 4.34561 25.0518 6.28267Z" />
        <path d="M19.6545 28.16L14.3212 31.904C14.8772 31.9666 15.4363 31.9986 15.9958 32C18.8582 31.9976 21.6675 31.2274 24.1309 29.7696C26.5943 28.3118 28.6215 26.2199 30.0012 23.712C29.59 21.6015 28.7435 19.5999 27.5158 17.8347C26.0394 22.0138 23.2901 25.6249 19.6545 28.16Z" />
        <path d="M10.8332 12.8C11.3783 16.2751 13.2238 19.4132 15.9958 21.5787C18.7793 19.4216 20.6306 16.2801 21.1692 12.8C17.8561 11.4501 14.1463 11.4501 10.8332 12.8Z" />
    </svg>
    <svg id="football" xmlns="http://www.w3.org/2000/svg" viewBox="0 0 32 32">
        <path d="M7.55032 14.4798H7.49032L1.85032 11.0698C0.903116 13.7501 0.743493 16.6456 1.39034 19.4138C2.03719 22.1819 3.46343 24.7069 5.50032 26.6898L9.92032 21.7598L7.55032 14.4798Z" />
        <path d="M23.83 12.3398L29.29 9.0598C28.0987 6.78409 26.343 4.85242 24.191 3.44988C22.039 2.04734 19.563 1.22092 17 1.0498V7.3798L23.83 12.3398Z" />
        <path d="M11.23 23.5601H11.02L7 28.0001C9.53907 29.9166 12.6246 30.9708 15.8055 31.0085C18.9865 31.0463 22.0961 30.0657 24.68 28.2101L20.52 23.5701L11.23 23.5601Z" />
        <path d="M14.9996 7.3798V1.0498C12.4094 1.22408 9.90881 2.06763 7.7423 3.49794C5.5758 4.92826 3.8176 6.89637 2.63965 9.2098L7.99965 12.4398L14.9996 7.3798Z" />
        <path d="M16 9.12012L9.45996 13.8801L11.96 21.5601H20.04L22.54 13.8801L16 9.12012Z" />
        <path d="M31 16.0002C30.9975 14.2633 30.6895 12.5403 30.09 10.9102L24.52 14.2502L22 22.1402L26.29 26.9302C27.7793 25.526 28.9654 23.832 29.7754 21.9523C30.5854 20.0726 31.0022 18.047 31 16.0002Z" />
    </svg>
    <svg id="football-mini" xmlns="http://www.w3.org/2000/svg" viewBox="0 0 32 32">
        <path d="M1 21C1 21.2652 1.10536 21.5196 1.29289 21.7071C1.48043 21.8946 1.73478 22 2 22H5V23C5 23.2652 5.10536 23.5196 5.29289 23.7071C5.48043 23.8946 5.73478 24 6 24C6.26522 24 6.51957 23.8946 6.70711 23.7071C6.89464 23.5196 7 23.2652 7 23V22H9V23C9 23.2652 9.10536 23.5196 9.29289 23.7071C9.48043 23.8946 9.73478 24 10 24C10.2652 24 10.5196 23.8946 10.7071 23.7071C10.8946 23.5196 11 23.2652 11 23V22H21V23C21 23.2652 21.1054 23.5196 21.2929 23.7071C21.4804 23.8946 21.7348 24 22 24C22.2652 24 22.5196 23.8946 22.7071 23.7071C22.8946 23.5196 23 23.2652 23 23V22H25V23C25 23.2652 25.1054 23.5196 25.2929 23.7071C25.4804 23.8946 25.7348 24 26 24C26.2652 24 26.5196 23.8946 26.7071 23.7071C26.8946 23.5196 27 23.2652 27 23V22C27.8681 21.962 28.7022 21.6518 29.3842 21.1134C30.0663 20.5749 30.5616 19.8356 30.8 19H1V21Z" />
        <path d="M28.9404 14.2202L19.0004 8.3802C18.3523 8.07079 17.6275 7.9589 16.9162 8.05848C16.2049 8.15805 15.5387 8.46469 15.0004 8.9402C13.3704 10.4402 6.00043 10.2402 5.00043 8.8802C4.70963 8.49559 4.30201 8.2156 3.83867 8.08218C3.37533 7.94877 2.88123 7.96912 2.43043 8.1402C2.00105 8.31261 1.63429 8.61158 1.37887 8.99739C1.12345 9.3832 0.99146 9.83759 1.00043 10.3002V17.0002H30.9004C30.7874 16.4251 30.5545 15.8803 30.2168 15.4013C29.879 14.9223 29.4441 14.5198 28.9404 14.2202Z" />
    </svg>
    <svg id="time" xmlns="http://www.w3.org/2000/svg" viewBox="0 0 36 36">
        <path d="M29.2494 13.4999C29.2494 13.1662 29.3484 12.8399 29.5338 12.5624C29.7192 12.2849 29.9828 12.0686 30.2911 11.9409C30.5995 11.8131 30.9388 11.7797 31.2661 11.8448C31.5935 11.91 31.8942 12.0707 32.1302 12.3067C32.3662 12.5427 32.5269 12.8434 32.592 13.1707C32.6571 13.498 32.6237 13.8373 32.496 14.1457C32.3682 14.454 32.1519 14.7176 31.8744 14.903C31.5969 15.0884 31.2707 15.1874 30.9369 15.1874C30.4894 15.1874 30.0601 15.0096 29.7437 14.6932C29.4272 14.3767 29.2494 13.9475 29.2494 13.4999ZM27.5619 10.1249C27.8957 10.1249 28.2219 10.0259 28.4994 9.84052C28.7769 9.6551 28.9932 9.39154 29.121 9.08319C29.2487 8.77484 29.2821 8.43554 29.217 8.1082C29.1519 7.78086 28.9912 7.48017 28.7552 7.24417C28.5192 7.00817 28.2185 6.84745 27.8911 6.78234C27.5638 6.71723 27.2245 6.75065 26.9161 6.87837C26.6078 7.00609 26.3442 7.22238 26.1588 7.49989C25.9734 7.7774 25.8744 8.10366 25.8744 8.43742C25.8744 8.88497 26.0522 9.31419 26.3687 9.63066C26.6851 9.94713 27.1144 10.1249 27.5619 10.1249ZM31.5922 17.9999C31.295 17.9754 31.0002 18.0699 30.7726 18.2627C30.5451 18.4554 30.4033 18.7307 30.3786 19.0279C30.1773 21.3798 29.3084 23.6252 27.8742 25.5001C26.44 27.3749 24.5002 28.8011 22.2829 29.6109C20.0657 30.4206 17.6632 30.5803 15.3583 30.071C13.0534 29.5617 10.9419 28.4047 9.27229 26.7361C7.60265 25.0675 6.44431 22.9567 5.93358 20.6522C5.42284 18.3476 5.58096 15.9451 6.38933 13.7273C7.1977 11.5095 8.62268 9.56878 10.4966 8.1334C12.3705 6.69802 14.6155 5.82773 16.9672 5.62492C17.115 5.61273 17.2589 5.57156 17.3907 5.50376C17.5225 5.43597 17.6397 5.34287 17.7355 5.22978C17.8314 5.1167 17.904 4.98584 17.9493 4.84469C17.9946 4.70353 18.0116 4.55484 17.9994 4.4071C17.9872 4.25937 17.9461 4.11548 17.8783 3.98365C17.8105 3.85182 17.7174 3.73464 17.6043 3.63879C17.4912 3.54294 17.3603 3.47031 17.2192 3.42503C17.078 3.37976 16.9293 3.36273 16.7816 3.37492C14.0029 3.61393 11.3502 4.64159 9.13574 6.33698C6.92124 8.03237 5.23701 10.325 4.28121 12.9451C3.32541 15.5651 3.1378 18.4037 3.74045 21.1268C4.3431 23.8499 5.71094 26.3442 7.68304 28.3163C9.65514 30.2884 12.1495 31.6562 14.8726 32.2589C17.5956 32.8615 20.4342 32.6739 23.0543 31.7181C25.6744 30.7623 27.967 29.0781 29.6624 26.8636C31.3577 24.6491 32.3854 21.9964 32.6244 19.2177C32.6371 19.0699 32.6205 18.921 32.5754 18.7796C32.5303 18.6383 32.4577 18.5072 32.3618 18.394C32.2658 18.2808 32.1484 18.1877 32.0164 18.1201C31.8843 18.0525 31.7402 18.0116 31.5922 17.9999ZM17.9994 7.87492C20.002 7.87492 21.9595 8.46874 23.6246 9.58129C25.2896 10.6938 26.5874 12.2751 27.3537 14.1252C28.12 15.9753 28.3205 18.0111 27.9299 19.9752C27.5392 21.9393 26.5749 23.7434 25.1589 25.1594C23.7429 26.5754 21.9388 27.5397 19.9747 27.9304C18.0106 28.321 15.9748 28.1205 14.1247 27.3542C12.2746 26.5879 10.6933 25.2901 9.58079 23.6251C8.46824 21.96 7.87442 20.0025 7.87442 17.9999C7.87739 15.3155 8.94509 12.7419 10.8432 10.8437C12.7414 8.94559 15.315 7.87789 17.9994 7.87492ZM16.8744 17.9999C16.8744 18.2983 16.9929 18.5844 17.2039 18.7954C17.4149 19.0064 17.701 19.1249 17.9994 19.1249H24.7494C25.0478 19.1249 25.3339 19.0064 25.5449 18.7954C25.7559 18.5844 25.8744 18.2983 25.8744 17.9999C25.8744 17.7015 25.7559 17.4154 25.5449 17.2044C25.3339 16.9934 25.0478 16.8749 24.7494 16.8749H19.1244V11.2499C19.1244 10.9515 19.0059 10.6654 18.7949 10.4544C18.5839 10.2434 18.2978 10.1249 17.9994 10.1249C17.701 10.1249 17.4149 10.2434 17.2039 10.4544C16.9929 10.6654 16.8744 10.9515 16.8744 11.2499V17.9999ZM22.4994 6.74992C22.8332 6.74992 23.1594 6.65095 23.4369 6.46552C23.7144 6.2801 23.9307 6.01654 24.0585 5.70819C24.1862 5.39984 24.2196 5.06054 24.1545 4.7332C24.0894 4.40586 23.9287 4.10517 23.6927 3.86917C23.4567 3.63317 23.156 3.47245 22.8286 3.40734C22.5013 3.34223 22.162 3.37565 21.8536 3.50337C21.5453 3.63109 21.2817 3.84738 21.0963 4.12489C20.9109 4.4024 20.8119 4.72866 20.8119 5.06242C20.8119 5.50997 20.9897 5.93919 21.3062 6.25566C21.6226 6.57213 22.0519 6.74992 22.4994 6.74992Z" />
    </svg>
    <svg id="location" xmlns="http://www.w3.org/2000/svg" viewBox="0 0 36 36">
        <path d="M18 2.25C14.7191 2.25372 11.5736 3.55871 9.25366 5.87866C6.93371 8.19862 5.62872 11.3441 5.625 14.625C5.625 25.2141 16.875 33.2114 17.3545 33.5461C17.5437 33.6786 17.769 33.7497 18 33.7497C18.231 33.7497 18.4563 33.6786 18.6455 33.5461C19.125 33.2114 30.375 25.2141 30.375 14.625C30.3713 11.3441 29.0663 8.19862 26.7463 5.87866C24.4264 3.55871 21.2809 2.25372 18 2.25ZM18 10.125C18.89 10.125 19.76 10.3889 20.5001 10.8834C21.2401 11.3779 21.8169 12.0807 22.1575 12.9029C22.4981 13.7252 22.5872 14.63 22.4135 15.5029C22.2399 16.3758 21.8113 17.1776 21.182 17.807C20.5526 18.4363 19.7508 18.8649 18.8779 19.0385C18.005 19.2122 17.1002 19.1231 16.2779 18.7825C15.4557 18.4419 14.7529 17.8651 14.2584 17.1251C13.7639 16.385 13.5 15.515 13.5 14.625C13.5 13.4315 13.9741 12.2869 14.818 11.443C15.6619 10.5991 16.8065 10.125 18 10.125Z" />
    </svg>
    <svg id="price" xmlns="http://www.w3.org/2000/svg" viewBox="0 0 36 36">
        <path d="M23.625 18C23.625 19.1125 23.2951 20.2001 22.677 21.1251C22.0589 22.0501 21.1804 22.7711 20.1526 23.1968C19.1248 23.6226 17.9938 23.734 16.9026 23.5169C15.8115 23.2999 14.8092 22.7641 14.0225 21.9775C13.2359 21.1908 12.7001 20.1885 12.4831 19.0974C12.266 18.0062 12.3774 16.8752 12.8032 15.8474C13.2289 14.8196 13.9499 13.9411 14.8749 13.323C15.7999 12.7049 16.8875 12.375 18 12.375C19.4918 12.375 20.9226 12.9676 21.9775 14.0225C23.0324 15.0774 23.625 16.5082 23.625 18ZM34.875 9V27C34.875 27.2984 34.7565 27.5845 34.5455 27.7955C34.3345 28.0065 34.0484 28.125 33.75 28.125H2.25C1.95163 28.125 1.66548 28.0065 1.4545 27.7955C1.24353 27.5845 1.125 27.2984 1.125 27V9C1.125 8.70163 1.24353 8.41548 1.4545 8.20451C1.66548 7.99353 1.95163 7.875 2.25 7.875H33.75C34.0484 7.875 34.3345 7.99353 34.5455 8.20451C34.7565 8.41548 34.875 8.70163 34.875 9ZM32.625 15.518C31.3476 15.1403 30.1849 14.4489 29.243 13.507C28.3011 12.5651 27.6097 11.4024 27.232 10.125H8.76797C8.39026 11.4024 7.69895 12.5651 6.75701 13.507C5.81507 14.4489 4.65243 15.1403 3.375 15.518V20.482C4.65243 20.8597 5.81507 21.5511 6.75701 22.493C7.69895 23.4349 8.39026 24.5976 8.76797 25.875H27.232C27.6097 24.5976 28.3011 23.4349 29.243 22.493C30.1849 21.5511 31.3476 20.8597 32.625 20.482V15.518Z" />
    </svg>
</svg>