<svg xmlns="http://www.w3.org/2000/svg" width="110" height="110" viewBox="0 0 110 110" fill="none">
    <path d="M3.70703 45.6829C10.1338 51.0946 23.141 54.045 31.1332 55.3225C44.1167 57.3976 57.2909 57.7579 70.3738 56.4811C81.2365 55.4209 97.5807 52.4833 106.293 45.6829C106.342 47.1861 106.005 49.4678 105.838 51.0288L103.448 75.4959C103.38 76.2122 103.338 76.9461 103.218 77.6553C102.273 83.2577 94.16 86.564 89.4463 88.0279C84.3827 89.5997 78.9856 90.6748 73.723 91.2742C72.5366 91.4093 71.2959 91.6128 70.1033 91.5668L70.1069 75.202C70.1119 71.5458 69.3913 68.3267 65.1438 67.3116C64.0353 67.0467 62.8465 67.1084 61.7141 67.1075L47.4721 67.109C44.0157 67.1159 40.7728 68.6424 39.9863 72.3579C39.7598 73.428 39.8267 74.5512 39.8275 75.6396L39.8309 79.3199C39.8335 83.4008 39.7867 87.4863 39.8303 91.5668L39.6586 91.57C37.7923 91.59 35.6312 91.1831 33.7672 90.9036C26.5091 89.815 14.6309 87.3017 9.31078 82.0151C6.82308 79.5431 6.90964 77.961 6.58055 74.7224L4.01735 49.0142C3.90458 47.9177 3.71401 46.7822 3.70703 45.6829ZM81.8063 61.7942L81.8071 66.1298C81.8076 66.7158 81.4924 68.1807 82.1605 68.0769C87.1606 67.1432 91.3312 66.0571 96.146 64.6753C96.1471 60.7245 96.0749 58.5337 95.9133 58.5531C93.8751 59.047 91.8657 59.6681 89.8174 60.1253C87.1619 60.7181 84.4426 61.1379 81.8063 61.7942ZM13.8578 64.6753C15.017 64.7234 16.2368 65.2934 17.3663 65.5892C20.3827 66.3794 24.9762 67.6455 28.0872 67.8371C28.0962 65.7491 28.0478 63.6569 28.0872 61.5697C25.5423 61.331 21.8047 60.4675 19.3189 59.8501L16.4823 59.1164C15.6278 58.8882 14.7506 58.5236 13.8578 58.5531V64.6753Z" fill="#FF5542" />
    <path d="M53.7738 16.7539C66.8154 16.7596 79.4908 17.829 91.9165 22.276C96.3455 23.8609 103.573 27.0131 105.669 31.5121C108.05 36.6216 103.431 41.2871 99.0551 43.2796C97.6857 40.5038 93.8005 37.6378 90.963 36.5232C92.0506 33.9603 92.9041 31.383 93.3697 28.633C91.3989 27.9917 89.4282 27.3124 87.478 26.6105C86.9308 29.3549 86.1853 31.6817 85.1796 34.2626C78.5925 31.9427 69.9002 30.9501 63.0134 30.5679C61.3891 30.4779 59.7525 30.3318 58.1252 30.3864V22.5005H56.7395H51.8286C51.8277 25.1268 51.8763 27.7612 51.8286 30.3864C43.3427 30.3627 32.8626 31.7661 24.8283 34.0883C24.0633 31.5931 23.3324 29.3955 22.6756 26.8217C20.6564 27.3766 18.7324 28.0512 16.7978 28.852C17.43 31.3521 18.2576 33.7876 19.1068 36.2202C15.9436 38.1381 12.594 39.5507 10.9602 43.2796C10.3735 42.8402 9.73053 42.4917 9.10967 42.1046C3.79777 38.7928 1.42586 33.5646 6.37519 28.7544C15.3902 19.9928 40.6021 16.6106 53.7738 16.7539Z" fill="#FF5542" />
    <path d="M52.5692 36.3385C61.733 35.9284 73.9176 37.1906 82.5784 39.4159C81.1164 42.5516 77.7545 47.045 75.3777 49.4014C74.0828 50.6849 59.759 51.0278 57.4582 51.0252C56.0974 51.1464 53.9874 51.0835 52.5097 51.0826C46.5882 51.0794 40.7683 50.3936 34.8846 49.8634C32.6442 46.3614 29.6718 43.5833 27.6484 39.6617C29.3827 39.0492 31.2993 38.7106 33.104 38.349C39.8823 36.9906 45.7568 36.5847 52.5692 36.3385Z" fill="#FF5542" />
    <path d="M46.8753 73.2848L57.7069 73.2833C58.7828 73.2828 63.3614 73.0158 64.1387 73.4904C64.3 74.2958 64.2356 75.1732 64.236 75.9916L64.2369 79.7129C64.2366 83.8579 64.3069 88.016 64.2349 92.1592C63.8177 92.159 63.4104 92.1354 62.9918 92.1592C59.2398 92.3962 55.4379 92.4252 51.6792 92.3406C49.7272 92.2965 47.7482 92.0875 45.7992 92.1592L45.799 80.0551C45.7988 78.1248 45.7008 75.9793 45.8235 74.0722C45.8688 73.3664 46.2345 73.3256 46.8753 73.2848Z" fill="#FF5542" />
    <path d="M88.4185 41.814C90.1626 43.0388 92.6651 43.7411 94.033 45.6839C92.9882 45.774 89.8225 46.8441 88.8406 47.2845C87.5877 47.3288 85.6554 48.0036 84.3008 48.2432C85.6882 46.0421 87.1077 44.1517 88.4185 41.814Z" fill="#FF5542" />
    <path d="M21.6064 41.814C21.6341 41.8327 25.3608 47.4068 25.9851 48.2432C24.6103 48.0141 23.2315 47.6135 21.8764 47.2845C20.0851 46.7814 18.2996 46.3044 16.543 45.6839C17.5592 43.8249 19.7147 42.6237 21.6064 41.814Z" fill="#FF5542" />
</svg>