<svg xmlns="http://www.w3.org/2000/svg" width="110" height="110" viewBox="0 0 110 110" fill="none">
    <path d="M99 94.1844C99.3843 94.6951 99.6186 95.3028 99.6766 95.9393C99.7345 96.5758 99.6139 97.2158 99.3283 97.7876C99.0427 98.3593 98.6033 98.8401 98.0595 99.1759C97.5157 99.5117 96.8891 99.6893 96.25 99.6887H13.75C13.1116 99.6887 12.4858 99.511 11.9428 99.1753C11.3998 98.8397 10.9609 98.3595 10.6754 97.7885C10.3899 97.2175 10.2691 96.5783 10.3264 95.9425C10.3837 95.3067 10.617 94.6994 11 94.1887C14.0438 90.1078 18.1028 86.8947 22.7734 84.8688C20.2133 82.5322 18.4194 79.4761 17.6273 76.1016C16.8352 72.7272 17.0818 69.1921 18.3349 65.9603C19.588 62.7286 21.7889 59.9512 24.6487 57.9928C27.5086 56.0343 30.8938 54.9863 34.36 54.9863C37.8261 54.9863 41.2113 56.0343 44.0712 57.9928C46.931 59.9512 49.132 62.7286 50.385 65.9603C51.6381 69.1921 51.8848 72.7272 51.0926 76.1016C50.3005 79.4761 48.5067 82.5322 45.9465 84.8688C49.3162 86.3253 52.3783 88.4091 54.9699 91.009C57.5615 88.4091 60.6237 86.3253 63.9934 84.8688C61.4332 82.5322 59.6393 79.4761 58.8472 76.1016C58.0551 72.7272 58.3018 69.1921 59.5548 65.9603C60.8079 62.7286 63.0088 59.9512 65.8687 57.9928C68.7285 56.0343 72.1137 54.9863 75.5799 54.9863C79.0461 54.9863 82.4312 56.0343 85.2911 57.9928C88.151 59.9512 90.3519 62.7286 91.6049 65.9603C92.858 69.1921 93.1047 72.7272 92.3126 76.1016C91.5205 79.4761 89.7266 82.5322 87.1664 84.8688C91.8587 86.884 95.9394 90.0964 99 94.1844ZM11.6875 54.3137C12.0486 54.5846 12.4596 54.7817 12.8969 54.8937C13.3342 55.0057 13.7893 55.0305 14.2361 54.9667C14.683 54.9028 15.113 54.7516 15.5014 54.5216C15.8898 54.2916 16.2292 53.9874 16.5 53.6262C18.5813 50.8512 21.28 48.5989 24.3826 47.0476C27.4851 45.4963 30.9062 44.6887 34.375 44.6887C37.8438 44.6887 41.2649 45.4963 44.3674 47.0476C47.47 48.5989 50.1687 50.8512 52.25 53.6262C52.5702 54.0532 52.9854 54.3997 53.4627 54.6383C53.94 54.877 54.4663 55.0012 55 55.0012C55.5337 55.0012 56.06 54.877 56.5373 54.6383C57.0146 54.3997 57.4298 54.0532 57.75 53.6262C59.8313 50.8512 62.53 48.5989 65.6326 47.0476C68.7351 45.4963 72.1562 44.6887 75.625 44.6887C79.0938 44.6887 82.5149 45.4963 85.6174 47.0476C88.72 48.5989 91.4187 50.8512 93.5 53.6262C93.7711 53.9874 94.1107 54.2916 94.4994 54.5215C94.8881 54.7513 95.3183 54.9024 95.7654 54.9661C96.2125 55.0297 96.6677 55.0047 97.1051 54.8924C97.5425 54.7801 97.9535 54.5827 98.3146 54.3116C98.6758 54.0405 98.98 53.7008 99.2099 53.3121C99.4398 52.9235 99.5908 52.4933 99.6545 52.0462C99.7181 51.5991 99.6931 51.1439 99.5808 50.7065C99.4685 50.2691 99.2711 49.8581 99 49.4969C95.956 45.4172 91.897 42.2055 87.2266 40.1813C89.7867 37.8447 91.5806 34.7886 92.3727 31.4141C93.1648 28.0397 92.9182 24.5046 91.6651 21.2728C90.412 18.0411 88.2111 15.2637 85.3513 13.3053C82.4914 11.3468 79.1062 10.2988 75.64 10.2988C72.1739 10.2988 68.7887 11.3468 65.9288 13.3053C63.069 15.2637 60.868 18.0411 59.615 21.2728C58.3619 24.5046 58.1152 28.0397 58.9074 31.4141C59.6995 34.7886 61.4933 37.8447 64.0535 40.1813C60.6838 41.6378 57.6217 43.7216 55.0301 46.3215C52.4385 43.7216 49.3763 41.6378 46.0066 40.1813C48.5668 37.8447 50.3607 34.7886 51.1528 31.4141C51.9449 28.0397 51.6982 24.5046 50.4452 21.2728C49.1921 18.0411 46.9912 15.2637 44.1313 13.3053C41.2715 11.3468 37.8863 10.2988 34.4201 10.2988C30.9539 10.2988 27.5688 11.3468 24.7089 13.3053C21.849 15.2637 19.6481 18.0411 18.3951 21.2728C17.142 24.5046 16.8953 28.0397 17.6874 31.4141C18.4796 34.7886 20.2734 37.8447 22.8336 40.1813C18.1411 42.1982 14.0605 45.4121 11 49.5012C10.7292 49.8624 10.5321 50.2733 10.42 50.7106C10.308 51.1479 10.2832 51.603 10.3471 52.0499C10.4109 52.4968 10.5621 52.9267 10.7921 53.3151C11.0221 53.7036 11.3264 54.0429 11.6875 54.3137Z" fill="#FF5542" />
</svg>