<svg xmlns="http://www.w3.org/2000/svg" width="68" height="68" viewBox="0 0 68 68" fill="#ff5542">
    <path d="M42.5 61.6249H40.375V52.2324C38.3018 52.8249 36.1562 53.1253 34 53.1249C31.8434 53.1313 29.6969 52.8307 27.625 52.2324V61.6249C25.5 61.6249 23.375 61.4337 23.375 63.7499C23.375 66.4699 24.9475 65.8749 42.5 65.8749C43.0636 65.8749 43.6041 65.651 44.0026 65.2525C44.4011 64.854 44.625 64.3135 44.625 63.7499C44.625 63.1863 44.4011 62.6458 44.0026 62.2473C43.6041 61.8488 43.0636 61.6249 42.5 61.6249Z" />
    <path d="M61.6251 10.625H53.1251V8.5C53.1251 6.80924 52.4534 5.18774 51.2579 3.99219C50.0623 2.79665 48.4408 2.125 46.7501 2.125H21.2501C19.5593 2.125 17.9378 2.79665 16.7423 3.99219C15.5467 5.18774 14.8751 6.80924 14.8751 8.5V10.625H6.37507C5.81149 10.625 5.27098 10.8489 4.87247 11.2474C4.47395 11.6459 4.25007 12.1864 4.25007 12.75V23.375C4.23935 26.5836 5.4388 29.6783 7.60908 32.0416C9.77937 34.4049 12.7609 35.863 15.9588 36.125C16.9959 39.0975 18.7507 41.7679 21.0676 43.8994C23.3844 46.0309 26.1916 47.5575 29.2401 48.3438C32.3719 49.13 35.6495 49.13 38.7813 48.3438C41.8259 47.5544 44.6287 46.0264 46.9417 43.8951C49.2546 41.7638 51.0062 39.095 52.0413 36.125C55.2392 35.863 58.2208 34.4049 60.3911 32.0416C62.5613 29.6783 63.7608 26.5836 63.7501 23.375V12.75C63.7501 12.1864 63.5262 11.6459 63.1277 11.2474C62.7292 10.8489 62.1887 10.625 61.6251 10.625ZM8.50007 23.375V14.875H14.8751V29.75C14.8434 30.3658 14.8434 30.9829 14.8751 31.5987C13.0515 31.1279 11.436 30.0648 10.2822 28.5763C9.12832 27.0879 8.50148 25.2583 8.50007 23.375ZM59.5001 23.375C59.4987 25.2583 58.8718 27.0879 57.718 28.5763C56.5641 30.0648 54.9486 31.1279 53.1251 31.5987C53.1568 30.9829 53.1568 30.3658 53.1251 29.75V14.875H59.5001V23.375Z"/>
</svg>