<svg xmlns="http://www.w3.org/2000/svg" width="16" height="17" viewBox="0 0 16 17" fill="black">
    <path d="M11.354 8.85378L6.35403 13.8538C6.30757 13.9002 6.25242 13.9371 6.19173 13.9622C6.13103 13.9874 6.06598 14.0003 6.00028 14.0003C5.93458 14.0003 5.86953 13.9874 5.80883 13.9622C5.74813 13.9371 5.69298 13.9002 5.64653 13.8538C5.60007 13.8073 5.56322 13.7522 5.53808 13.6915C5.51294 13.6308 5.5 13.5657 5.5 13.5C5.5 13.4343 5.51294 13.3693 5.53808 13.3086C5.56322 13.2479 5.60007 13.1927 5.64653 13.1463L10.2934 8.50003L5.64653 3.85378C5.55271 3.75996 5.5 3.63272 5.5 3.50003C5.5 3.36735 5.55271 3.2401 5.64653 3.14628C5.74035 3.05246 5.8676 2.99976 6.00028 2.99976C6.13296 2.99976 6.26021 3.05246 6.35403 3.14628L11.354 8.14628C11.4005 8.19272 11.4374 8.24786 11.4626 8.30856C11.4877 8.36926 11.5007 8.43433 11.5007 8.50003C11.5007 8.56574 11.4877 8.63081 11.4626 8.6915C11.4374 8.7522 11.4005 8.80735 11.354 8.85378Z" />
  </svg>