<svg xmlns="http://www.w3.org/2000/svg" width="111" height="110" viewBox="0 0 111 110" fill="none">
    <path d="M89.8682 41.248C89.8682 40.2282 90.1706 39.2313 90.7372 38.3833C91.3038 37.5354 92.1091 36.8745 93.0513 36.4843C93.9935 36.094 95.0302 35.9919 96.0304 36.1908C97.0306 36.3898 97.9494 36.8809 98.6705 37.602C99.3916 38.3231 99.8827 39.2419 100.082 40.2421C100.281 41.2423 100.178 42.279 99.7882 43.2212C99.398 44.1634 98.7371 44.9687 97.8891 45.5353C97.0412 46.1018 96.0443 46.4043 95.0245 46.4043C93.657 46.4043 92.3455 45.861 91.3785 44.894C90.4115 43.927 89.8682 42.6155 89.8682 41.248ZM84.712 30.9355C85.7318 30.9355 86.7287 30.6331 87.5766 30.0665C88.4246 29.4999 89.0855 28.6947 89.4757 27.7525C89.866 26.8103 89.9681 25.7735 89.7692 24.7733C89.5702 23.7731 89.0791 22.8544 88.358 22.1332C87.6369 21.4121 86.7181 20.921 85.7179 20.7221C84.7177 20.5231 83.681 20.6252 82.7388 21.0155C81.7966 21.4058 80.9913 22.0667 80.4247 22.9146C79.8581 23.7625 79.5557 24.7594 79.5557 25.7793C79.5557 27.1468 80.099 28.4583 81.066 29.4253C82.033 30.3923 83.3445 30.9355 84.712 30.9355ZM97.0268 54.998C96.1186 54.9231 95.2179 55.2119 94.5225 55.8009C93.8272 56.3899 93.3941 57.2309 93.3186 58.139C92.7035 65.3254 90.0485 72.1865 85.6663 77.9152C81.284 83.6438 75.3566 88.0017 68.5817 90.476C61.8067 92.9502 54.466 93.438 47.4233 91.8819C40.3805 90.3257 33.9287 86.7904 28.827 81.6919C23.7253 76.5934 20.186 70.1439 18.6254 63.1021C17.0648 56.0603 17.548 48.7193 20.018 41.9428C22.488 35.1663 26.8421 29.2362 32.568 24.8503C38.2939 20.4644 45.1534 17.8052 52.3393 17.1855C52.7907 17.1483 53.2304 17.0225 53.6332 16.8153C54.036 16.6082 54.3941 16.3237 54.6869 15.9782C54.9798 15.6326 55.2017 15.2328 55.3401 14.8015C55.4784 14.3702 55.5305 13.9158 55.4932 13.4644C55.456 13.013 55.3302 12.5733 55.123 12.1705C54.9159 11.7677 54.6314 11.4097 54.2859 11.1168C53.9403 10.8239 53.5405 10.602 53.1092 10.4636C52.6779 10.3253 52.2236 10.2733 51.7721 10.3105C43.2816 11.0408 35.1763 14.1809 28.4098 19.3613C21.6432 24.5416 16.497 31.5468 13.5765 39.5526C10.656 47.5584 10.0827 56.2318 11.9242 64.5523C13.7656 72.8729 17.9451 80.4944 23.971 86.5203C29.9968 92.5461 37.6184 96.7256 45.9389 98.5671C54.2595 100.409 62.9328 99.8353 70.9386 96.9147C78.9444 93.9942 85.9496 88.848 91.13 82.0815C96.3103 75.3149 99.4504 67.2096 100.181 58.7191C100.22 58.2674 100.169 57.8124 100.031 57.3805C99.8931 56.9485 99.6713 56.5481 99.3782 56.2022C99.085 55.8563 98.7263 55.5719 98.3228 55.3652C97.9192 55.1585 97.4788 55.0337 97.0268 54.998ZM55.4932 24.0605C61.6121 24.0605 67.5935 25.875 72.6812 29.2744C77.7688 32.6739 81.7342 37.5056 84.0758 43.1587C86.4173 48.8118 87.03 55.0323 85.8363 61.0336C84.6425 67.0349 81.696 72.5474 77.3693 76.8741C73.0427 81.2008 67.5301 84.1473 61.5288 85.341C55.5276 86.5348 49.307 85.9221 43.654 83.5805C38.0009 81.2389 33.1691 77.2736 29.7696 72.186C26.3702 67.0983 24.5557 61.1169 24.5557 54.998C24.5648 46.7957 27.8272 38.9319 33.6272 33.1319C39.4271 27.332 47.2909 24.0696 55.4932 24.0605ZM52.0557 54.998C52.0557 55.9097 52.4179 56.784 53.0625 57.4287C53.7072 58.0733 54.5815 58.4355 55.4932 58.4355H76.1182C77.0299 58.4355 77.9043 58.0733 78.5489 57.4287C79.1936 56.784 79.5557 55.9097 79.5557 54.998C79.5557 54.0863 79.1936 53.212 78.5489 52.5673C77.9043 51.9227 77.0299 51.5605 76.1182 51.5605H58.9307V34.373C58.9307 33.4613 58.5686 32.587 57.9239 31.9423C57.2793 31.2977 56.4049 30.9355 55.4932 30.9355C54.5815 30.9355 53.7072 31.2977 53.0625 31.9423C52.4179 32.587 52.0557 33.4613 52.0557 34.373V54.998ZM69.2432 20.623C70.263 20.623 71.2599 20.3206 72.1079 19.754C72.9558 19.1874 73.6167 18.3821 74.007 17.44C74.3972 16.4978 74.4994 15.461 74.3004 14.4608C74.1015 13.4606 73.6104 12.5419 72.8892 11.8207C72.1681 11.0996 71.2494 10.6085 70.2492 10.4096C69.2489 10.2106 68.2122 10.3127 67.27 10.703C66.3278 11.0933 65.5225 11.7542 64.956 12.6021C64.3894 13.45 64.087 14.4469 64.087 15.4668C64.087 16.8343 64.6302 18.1458 65.5972 19.1128C66.5642 20.0798 67.8757 20.623 69.2432 20.623Z" fill="#FF5542" />
</svg>