<svg xmlns="http://www.w3.org/2000/svg" width="110" height="110" viewBox="0 0 110 110" fill="none">
    <path d="M20.6211 79.0623H13.7461C11.011 79.0623 8.38802 80.1487 6.45405 82.0827C4.52009 84.0167 3.43359 86.6397 3.43359 89.3748V103.125C3.43359 104.036 3.79576 104.911 4.44041 105.555C5.08507 106.2 5.95941 106.562 6.87109 106.562H27.4961C28.4078 106.562 29.2821 106.2 29.9268 105.555C30.5714 104.911 30.9336 104.036 30.9336 103.125V89.3748C30.9336 86.6397 29.8471 84.0167 27.9131 82.0827C25.9792 80.1487 23.3561 79.0623 20.6211 79.0623Z" fill="#FF5542" />
    <path d="M58.4336 51.5627H51.5586C48.8235 51.5627 46.2005 52.6492 44.2666 54.5832C42.3326 56.5172 41.2461 59.1402 41.2461 61.8752V103.125C41.2461 104.037 41.6083 104.911 42.2529 105.556C42.8976 106.201 43.7719 106.563 44.6836 106.563H65.3086C66.2203 106.563 67.0946 106.201 67.7393 105.556C68.3839 104.911 68.7461 104.037 68.7461 103.125V61.8752C68.7461 59.1402 67.6596 56.5172 65.7256 54.5832C63.7917 52.6492 61.1686 51.5627 58.4336 51.5627Z" fill="#FF5542" />
    <path d="M96.25 65.3125H89.375C86.64 65.3125 84.0169 66.399 82.083 68.333C80.149 70.2669 79.0625 72.89 79.0625 75.625V103.125C79.0625 104.037 79.4247 104.911 80.0693 105.556C80.714 106.2 81.5883 106.562 82.5 106.562H103.125C104.037 106.562 104.911 106.2 105.556 105.556C106.2 104.911 106.562 104.037 106.562 103.125V75.625C106.562 72.89 105.476 70.2669 103.542 68.333C101.608 66.399 98.985 65.3125 96.25 65.3125Z" fill="#FF5542" />
    <path d="M79.0625 10.3127C79.0625 9.40106 78.7003 8.52672 78.0557 7.88206C77.411 7.23741 76.5367 6.87524 75.625 6.87524H68.75C68.75 5.96356 68.3878 5.08922 67.7432 4.44456C67.0985 3.79991 66.2242 3.43774 65.3125 3.43774H44.6875C43.7758 3.43774 42.9015 3.79991 42.2568 4.44456C41.6122 5.08922 41.25 5.96356 41.25 6.87524H34.375C33.4633 6.87524 32.589 7.23741 31.9443 7.88206C31.2997 8.52672 30.9375 9.40106 30.9375 10.3127V13.7502C30.9375 17.397 32.3862 20.8943 34.9648 23.473C37.5434 26.0516 41.0408 27.5002 44.6875 27.5002H45.9938C47.596 28.9037 49.5023 29.9157 51.5625 30.4565V34.3752C50.6508 34.3752 49.7765 34.7374 49.1318 35.3821C48.4872 36.0267 48.125 36.9011 48.125 37.8127C48.125 38.7244 48.4872 39.5988 49.1318 40.2434C49.7765 40.8881 50.6508 41.2502 51.5625 41.2502H58.4375C59.3492 41.2502 60.2235 40.8881 60.8682 40.2434C61.5128 39.5988 61.875 38.7244 61.875 37.8127C61.875 36.9011 61.5128 36.0267 60.8682 35.3821C60.2235 34.7374 59.3492 34.3752 58.4375 34.3752V30.4565C60.4977 29.9157 62.404 28.9037 64.0063 27.5002H65.3125C68.9592 27.5002 72.4566 26.0516 75.0352 23.473C77.6138 20.8943 79.0625 17.397 79.0625 13.7502V10.3127ZM37.8125 13.7502H41.25V17.1877C41.2529 18.0656 41.3451 18.941 41.525 19.8002C40.4144 19.2249 39.4818 18.3575 38.8276 17.2914C38.1734 16.2253 37.8224 15.001 37.8125 13.7502ZM68.475 19.8002C68.6549 18.941 68.7471 18.0656 68.75 17.1877V13.7502H72.1875C72.1776 15.001 71.8266 16.2253 71.1724 17.2914C70.5182 18.3575 69.5856 19.2249 68.475 19.8002Z" fill="#FF5542" />
</svg>