<svg xmlns="http://www.w3.org/2000/svg" width="110" height="107" viewBox="0 0 110 107" fill="none">
    <path d="M6.95568 32.061H93.6638C97.262 32.061 100.866 32.1062 104.464 32.061L104.467 93.2371C104.468 96.4448 104.326 98.5895 101.581 100.851C99.1107 102.922 95.0723 102.315 92.0015 102.315L15.0456 102.319C13.8926 102.319 12.696 102.378 11.55 102.244C6.98423 101.709 5.51734 97.9484 5.5274 93.9826L5.5318 32.061C6.00738 32.0769 6.48014 32.0705 6.95568 32.061ZM50.1766 91.5147C52.1452 91.4004 51.5254 87.9718 51.5202 86.4008L51.5331 82.7317C51.5531 79.9583 51.9342 79.3552 48.9823 79.3737L38.2994 79.3795C37.2922 79.5073 36.9586 80.0932 36.861 81.0304C36.7282 82.302 36.6245 89.2069 36.861 90.4306C37.1829 92.0961 41.2374 91.516 42.5533 91.5143L50.1766 91.5147ZM50.3919 72.5268C52.2305 72.2815 51.5241 67.9947 51.5245 66.5703L51.5286 63.4091C51.529 62.2397 51.8509 60.5173 50.2206 60.4112C46.6132 60.1761 41.5644 60.2979 37.9333 60.4017C36.1718 61.0755 36.8077 65.37 36.8088 67.0146C36.8127 73.4088 36.2964 72.5245 42.3262 72.5262L50.3919 72.5268ZM93.574 72.5268C93.9072 72.3732 94.2101 72.1249 94.3538 71.7775C94.5451 71.3151 94.5317 62.727 94.4647 61.6454C94.4108 60.7777 93.8492 60.4376 93.0609 60.3985C89.2775 60.2109 84.6433 60.3291 80.8425 60.4017C79.6734 61.0604 79.9686 62.0152 79.9625 63.1936L79.9658 67.2963C79.9696 69.6196 78.9268 72.5877 81.8676 72.5496L90.3945 72.5241C91.2109 72.5238 92.8794 72.6474 93.574 72.5268ZM23.6567 72.5268L27.0149 72.5346C28.2989 72.5427 30.1076 72.8341 30.1147 70.983L30.1023 64.9502C30.1012 60.8028 30.9268 60.3951 26.5064 60.3993L21.9852 60.4017L18.6254 60.3948C17.8363 60.3942 16.5734 60.2004 15.9507 60.8275C15.3104 61.4721 15.5103 69.7448 15.5681 71.1491C15.6433 72.9765 18.0325 72.5348 19.2523 72.5294L23.6567 72.5268ZM28.8529 91.5147C30.6271 91.3648 30.0975 88.3961 30.0988 86.9454L30.1029 82.9893C30.1063 78.3422 29.1421 79.378 24.9383 79.3776L17.0944 79.3795C15.279 79.6433 15.5581 81.013 15.5643 82.499L15.5652 88.4534C15.5509 92.5698 17.1202 91.5218 20.734 91.516L28.8529 91.5147ZM37.9333 41.6931C36.4053 41.935 36.7953 43.8951 36.8002 45.0131L36.809 48.6654C36.8153 53.3871 35.7887 53.6522 40.2966 53.65L48.1599 53.6481C48.9026 53.6509 49.6502 53.6851 50.3919 53.6475C51.294 53.4171 51.4474 52.917 51.5018 52.0701C51.5699 51.0111 51.6064 43.1427 51.448 42.5647C51.254 41.8577 50.7578 41.743 50.1094 41.7082C46.4426 41.512 41.6166 41.5741 37.9333 41.6931ZM93.0424 91.5147C93.7377 91.4307 94.1207 91.1991 94.4752 90.6178C94.5874 87.4469 94.6031 83.4678 94.4752 80.3014C93.5385 78.8351 91.4303 79.3774 89.8093 79.3774L81.4841 79.3795C80.7798 79.4493 80.4917 79.6109 79.9655 80.0728C79.8964 83.5818 79.9658 87.107 79.9655 90.6178C80.9854 92.1081 83.4241 91.5137 85.1669 91.513C87.7912 91.5119 90.4188 91.5448 93.0424 91.5147ZM17.0944 41.6931C15.2466 41.8115 15.5683 43.4514 15.5673 44.8094L15.5678 50.6145C15.5694 51.9147 15.3028 53.4891 17.0675 53.6384C18.3388 53.7459 19.6966 53.6507 20.9758 53.6475H28.6383C30.8349 53.4803 30.101 50.8173 30.1025 49.0481C30.1042 46.9753 30.1927 44.8563 30.0256 42.7895C29.887 41.0787 26.0299 41.691 24.7599 41.6927L17.0944 41.6931ZM71.9951 72.5268C72.3556 72.3509 72.7171 72.1081 72.8478 71.7059C73.0506 71.0812 73.0108 62.991 72.9369 61.9015C72.8063 59.9763 71.3501 60.392 69.8883 60.3976L61.7161 60.3991C60.9469 60.3976 60.1454 60.3444 59.3805 60.4017C59.0314 60.5996 58.6371 60.8123 58.5375 61.2381C58.3119 62.2017 58.3157 69.9154 58.4683 71.2777C58.5362 71.884 58.8769 72.2228 59.3805 72.5268H71.9951ZM81.0767 41.6931C79.5191 41.9243 79.964 43.7689 79.9636 44.93V48.9774C79.9662 54.2262 79.4112 53.6296 85.139 53.6436L93.574 53.6475C94.6699 52.9322 94.4905 51.8638 94.4843 50.7224L94.469 47.9137C94.4636 46.2654 94.5747 44.5626 94.4729 42.9199C94.3798 41.4179 93.1782 41.6768 92.0688 41.6847L89.5446 41.6968C86.7228 41.697 83.898 41.6607 81.0767 41.6931ZM59.5571 41.6931C58.0242 41.9507 58.4275 44.12 58.4272 45.2638L58.4275 48.7303C58.427 52.4269 57.4583 53.6591 61.5259 53.6526L64.5082 53.6464C66.9366 53.6419 69.375 53.7042 71.8017 53.6475C73.2813 53.3843 72.9775 51.806 72.9655 50.694L72.9651 44.8434C72.9726 43.7161 73.3501 41.845 71.7493 41.7159C68.1743 41.4274 63.1994 41.6504 59.5571 41.6931ZM59.5571 79.3795C58.6625 79.6455 58.481 80.2234 58.4423 81.0609C58.3957 82.0672 58.3486 90.1524 58.4973 90.5681C59.0793 92.1971 63.3255 91.5124 64.8668 91.5128C67.1697 91.5135 69.5022 91.5912 71.8017 91.5147C73.5759 90.9907 72.9616 87.3208 72.9604 85.7773C72.9591 84.29 73.0302 82.7657 72.9363 81.2832C72.7698 78.6587 70.2123 79.3731 68.0696 79.3791L62.4085 79.3814C61.466 79.3814 60.4966 79.4278 59.5571 79.3795Z" fill="#FF5542" />
    <path d="M11.353 9.83222C12.1725 9.78175 13.0181 9.82867 13.8405 9.82932L18.8514 9.83222L18.8533 15.0571C18.8484 17.8447 18.5439 20.0085 20.6735 22.1647C23.4384 24.9639 30.1299 24.893 32.8861 22.1321C35.1145 19.9003 34.8309 17.6208 34.8307 14.707L34.8279 9.83222H75.3494L75.3468 15.1401C75.3455 16.4955 75.2069 18.0092 75.5285 19.3281C76.2328 22.2152 78.8307 24.1875 81.7844 24.2592C84.491 24.325 87.2633 24.4706 89.3625 22.4401C92.1233 19.7699 91.2527 13.6339 91.2979 9.83222C94.1065 10.0889 97.0774 9.34927 99.8362 10.1587C104.902 11.93 104.468 15.716 104.468 19.9864L104.466 28.172L9.14999 28.1724C7.94816 28.1728 6.73457 28.2184 5.53454 28.172L5.53245 19.9364C5.53219 18.3779 5.38563 16.5519 5.68286 15.0389C6.23677 12.2193 8.50705 10.1816 11.353 9.83222Z" fill="#FF5542" />
    <path d="M80.8467 0.244545C81.8408 0.230966 82.8361 0.237068 83.8304 0.236381C88.1692 0.233351 87.4415 1.3677 87.44 4.81767L87.4404 15.7212C87.4501 18.0946 87.9107 18.6794 85.8392 20.2383C85.3384 20.3131 84.7611 20.2452 84.2513 20.2452C82.5261 20.245 80.0127 20.7256 79.3398 18.5956C79.1501 17.9949 79.2697 11.3489 79.2695 10.1871L79.2661 5.15216C79.2637 3.41433 78.7242 0.887314 80.8467 0.244545Z" fill="#FF5542" />
    <path d="M24.5482 0.11155C25.6088 0.0645426 28.5812 -0.0263579 29.4945 0.336878C31.2554 1.03723 30.7752 3.35492 30.7754 4.86527L30.7752 15.2036C30.7754 17.2211 31.1935 19.339 28.8517 20.2382C24.3827 20.2661 22.7175 20.9783 22.7145 15.9705V5.34059C22.7149 3.45572 22.0934 0.623716 24.5482 0.11155Z" fill="#FF5542" />
</svg>