<svg width="60" height="60" viewBox="0 0 60 60" fill="none" xmlns="http://www.w3.org/2000/svg">
<path d="M56.25 48.75H52.5V31.875C52.5 31.8633 52.5 31.8539 52.5 31.8422C52.5 31.8305 52.5 31.7742 52.5 31.7414C52.5 31.7086 52.5 31.6758 52.5 31.6453C52.5012 31.6336 52.5012 31.6219 52.5 31.6102L48.9844 6.97032C48.8526 6.0742 48.4024 5.25552 47.7164 4.66414C47.0303 4.07276 46.1542 3.74825 45.2484 3.75001H41.0016C40.0998 3.75387 39.2294 4.08092 38.5482 4.67179C37.867 5.26266 37.4203 6.07818 37.2891 6.97032L34.5797 25.9336L25.5 19.125C25.2214 18.9161 24.8902 18.7889 24.5434 18.7576C24.1966 18.7263 23.8479 18.7922 23.5365 18.948C23.225 19.1037 22.9631 19.3431 22.78 19.6393C22.597 19.9355 22.5 20.2768 22.5 20.625V28.125L10.5 19.125C10.2214 18.9161 9.89019 18.7889 9.54339 18.7576C9.19658 18.7263 8.84792 18.7922 8.53647 18.948C8.22503 19.1037 7.96309 19.3431 7.78003 19.6393C7.59696 19.9355 7.5 20.2768 7.5 20.625V48.75H3.75C3.25272 48.75 2.77581 48.9475 2.42417 49.2992C2.07254 49.6508 1.875 50.1277 1.875 50.625C1.875 51.1223 2.07254 51.5992 2.42417 51.9508C2.77581 52.3025 3.25272 52.5 3.75 52.5H56.25C56.7473 52.5 57.2242 52.3025 57.5758 51.9508C57.9275 51.5992 58.125 51.1223 58.125 50.625C58.125 50.1277 57.9275 49.6508 57.5758 49.2992C57.2242 48.9475 56.7473 48.75 56.25 48.75ZM25.3125 43.125H18.75C18.2527 43.125 17.7758 42.9275 17.4242 42.5758C17.0725 42.2242 16.875 41.7473 16.875 41.25C16.875 40.7527 17.0725 40.2758 17.4242 39.9242C17.7758 39.5725 18.2527 39.375 18.75 39.375H25.3125C25.8098 39.375 26.2867 39.5725 26.6383 39.9242C26.99 40.2758 27.1875 40.7527 27.1875 41.25C27.1875 41.7473 26.99 42.2242 26.6383 42.5758C26.2867 42.9275 25.8098 43.125 25.3125 43.125ZM41.25 43.125H34.6875C34.1902 43.125 33.7133 42.9275 33.3617 42.5758C33.01 42.2242 32.8125 41.7473 32.8125 41.25C32.8125 40.7527 33.01 40.2758 33.3617 39.9242C33.7133 39.5725 34.1902 39.375 34.6875 39.375H41.25C41.7473 39.375 42.2242 39.5725 42.5758 39.9242C42.9275 40.2758 43.125 40.7527 43.125 41.25C43.125 41.7473 42.9275 42.2242 42.5758 42.5758C42.2242 42.9275 41.7473 43.125 41.25 43.125ZM40.0008 30L38.0016 28.5L41.0016 7.50001H45.2484L48.4641 30H40.0008Z" fill="#FF5542"/>
</svg>
