<svg xmlns="http://www.w3.org/2000/svg" width="30" height="30" viewBox="0 0 30 30" fill="none">
    <path d="M15 0.375C12.1075 0.375 9.27986 1.23274 6.87479 2.83976C4.46972 4.44677 2.5952 6.73089 1.48827 9.40325C0.381337 12.0756 0.091713 15.0162 0.656022 17.8532C1.22033 20.6902 2.61323 23.2961 4.65857 25.3414C6.70391 27.3868 9.30984 28.7797 12.1468 29.344C14.9838 29.9083 17.9244 29.6187 20.5968 28.5117C23.2691 27.4048 25.5532 25.5303 27.1602 23.1252C28.7673 20.7201 29.625 17.8926 29.625 15C29.6209 11.1225 28.0788 7.40492 25.3369 4.66309C22.5951 1.92125 18.8775 0.379095 15 0.375ZM21.4209 12.4209L13.5459 20.2959C13.4415 20.4005 13.3174 20.4835 13.1808 20.5401C13.0442 20.5967 12.8978 20.6259 12.75 20.6259C12.6022 20.6259 12.4558 20.5967 12.3192 20.5401C12.1826 20.4835 12.0586 20.4005 11.9541 20.2959L8.57907 16.9209C8.36797 16.7098 8.24938 16.4235 8.24938 16.125C8.24938 15.8265 8.36797 15.5402 8.57907 15.3291C8.79016 15.118 9.07647 14.9994 9.37501 14.9994C9.67354 14.9994 9.95985 15.118 10.1709 15.3291L12.75 17.9095L19.8291 10.8291C19.9336 10.7245 20.0577 10.6416 20.1942 10.5851C20.3308 10.5285 20.4772 10.4994 20.625 10.4994C20.7728 10.4994 20.9192 10.5285 21.0558 10.5851C21.1923 10.6416 21.3164 10.7245 21.4209 10.8291C21.5255 10.9336 21.6084 11.0577 21.6649 11.1942C21.7215 11.3308 21.7506 11.4772 21.7506 11.625C21.7506 11.7728 21.7215 11.9192 21.6649 12.0558C21.6084 12.1923 21.5255 12.3164 21.4209 12.4209Z" fill="#FF5542" />
</svg>