<svg xmlns="http://www.w3.org/2000/svg" width="1514" height="1018" viewBox="0 0 1514 1018" fill="none">
    <g clip-path="url(#clip0_501_23437)">
        <path fill-rule="evenodd" clip-rule="evenodd" d="M1191.91 1366.52C1042.14 1263.2 860.504 1202.63 664.693 1202.63C598.248 1202.63 533.441 1209.65 470.93 1222.93C407.024 1152.36 353.771 1071.89 313.87 984.129L1806.22 351.169C1854.88 468.642 1799.74 603.633 1682.34 653.487C1619.17 680.257 1550.76 676.981 1493.16 650.048L1605.08 913.482C1648.42 1015.56 1679.72 1119.78 1699.46 1224.56C1754.02 1513.28 1721.33 1805.86 1615.07 2068.73C1608.19 2085.75 1600.98 2102.62 1593.53 2119.4C1589.67 1807.17 1431.63 1532.04 1191.91 1366.67V1366.52ZM890.08 210.447C764.236 171.152 649.945 105.826 553.433 20.854C603.655 -21.3054 658.383 -58.1443 716.718 -89.0061C785.703 -13.6922 866.977 50.1595 957.263 99.4415C1022.48 -27.4454 1059.35 -171.359 1059.35 -323.788V-467.293C1133.98 -462.136 1206.25 -448.137 1274.98 -426.444V-322.315C1274.98 -134.685 1219.19 39.9277 1123.33 185.97L1121.69 188.426C1118.25 193.664 1114.73 198.822 1111.12 203.979L1109.49 206.435V206.6C1105.56 212.085 1101.7 217.568 1097.77 222.972L1096.13 225.264C1092.12 230.749 1088.1 236.07 1084.01 241.473L1083.11 242.619C1026.08 316.786 958.082 382.112 881.56 436.143C1214.11 333.977 1486.12 93.5475 1630.23 -218.021C1701.1 -151.468 1761.56 -73.9443 1808.84 11.9306C1761.08 78.1566 1708.15 140.291 1650.55 197.839C1377.15 471.015 999.456 639.979 582.353 639.979C461.343 639.979 343.612 625.736 230.794 598.884C237.513 551.895 247.836 505.971 261.354 461.519C345.577 479.938 433.078 489.679 522.873 489.679C541.962 489.679 560.97 489.189 579.896 488.288C703.036 420.096 809.052 324.726 889.835 210.282L890.08 210.447ZM1234.18 2283.87C1274.41 2179.97 1296.53 2067.1 1296.53 1949.05C1296.53 1722.77 1215.5 1515.42 1080.81 1354.4C1052.14 1526.64 976.024 1682.82 866.32 1809.14C757.027 1854.33 637.246 1879.3 511.567 1879.3C385.887 1879.3 275.528 1856.3 169.758 1814.38C324.521 2111.87 635.771 2315.13 994.458 2315.13C1077.37 2315.13 1157.66 2304.25 1234.18 2283.87ZM1094 986.176C1015.43 956.787 933.093 935.176 847.805 922.324L1122.76 805.669C1138.65 868.458 1127.1 933.538 1094 986.094V986.176Z" fill="#EDF2F6" fill-opacity="0.06" />
    </g>
    <defs>
        <clipPath id="clip0_501_23437">
            <rect width="1514" height="1409" fill="white" transform="translate(0 -87)" />
        </clipPath>
    </defs>
</svg>