<svg xmlns="http://www.w3.org/2000/svg" width="190" height="124" viewBox="0 0 190 124" fill="none">
    <path d="M103.258 30.8562V18.7178H104.608V30.8732C104.608 31.236 104.716 31.5249 104.933 31.7403C105.149 31.9556 105.44 32.0632 105.805 32.0632H108.386V18.7178H109.736V32.0632H110.659C110.921 32.0632 111.126 32.1426 111.275 32.3012C111.434 32.4487 111.514 32.6526 111.514 32.9133V33.4063H105.822C105.047 33.4063 104.426 33.1741 103.959 32.7093C103.491 32.2447 103.258 31.6269 103.258 30.8562ZM112.903 18.7178H118.868V20.0438H114.253V25.3991H117.467V25.5351C117.467 25.8977 117.358 26.1868 117.142 26.402C116.925 26.6174 116.635 26.7251 116.27 26.7251H114.253V32.0803H118.868V33.4063H112.903V18.7178ZM122.415 18.7178V25.3991H126.193V18.7178H127.543V33.4063H126.193V26.7251H122.415V33.4063H121.065V18.7178H122.415ZM129.15 20.0438V18.7178H135.902V20.0438H133.201V33.4063H131.851V20.0438H129.15ZM141.184 18.7178C141.959 18.7178 142.58 18.9502 143.047 19.4149C143.514 19.8795 143.748 20.4972 143.748 21.2679V24.175C143.748 24.9457 143.514 25.5634 143.047 26.0282C142.58 26.4928 141.959 26.7251 141.184 26.7251H138.62V33.4063H137.27V18.7178H141.184ZM138.62 25.3991H141.201C141.566 25.3991 141.856 25.2913 142.073 25.0761C142.289 24.8608 142.398 24.5717 142.398 24.2091V21.2338C142.398 20.8712 142.289 20.5823 142.073 20.3669C141.856 20.1516 141.566 20.0438 141.201 20.0438H138.62V25.3991ZM103.258 53.8985V52.5895L104.608 53.2694V53.9155C104.608 54.2781 104.716 54.5672 104.933 54.7824C105.149 54.9978 105.44 55.1055 105.805 55.1055H107.189C107.554 55.1055 107.845 54.9978 108.061 54.7824C108.278 54.5672 108.386 54.2781 108.386 53.9155V49.6993H105.856C105.081 49.6993 104.46 49.467 103.993 49.0022C103.526 48.5376 103.292 47.9199 103.292 47.1492V41.675H104.642V47.1662C104.642 47.5289 104.751 47.818 104.967 48.0333C105.184 48.2485 105.474 48.3563 105.839 48.3563H108.386V41.675H109.736V53.8985C109.736 54.6692 109.503 55.2868 109.035 55.7514C108.568 56.2162 107.947 56.4486 107.172 56.4486H105.822C105.047 56.4486 104.426 56.2162 103.959 55.7514C103.491 55.2868 103.258 54.6692 103.258 53.8985ZM118.671 41.675V56.3635H117.32V43.001H113.372V56.3635H112.021V41.675H118.671ZM124.819 41.675C125.594 41.675 126.215 41.9073 126.682 42.3721C127.15 42.8367 127.383 43.4544 127.383 44.2251V47.1322C127.383 47.9029 127.15 48.5206 126.682 48.9853C126.215 49.4499 125.594 49.6823 124.819 49.6823H122.255V56.3635H120.905V41.675H124.819ZM122.255 48.3563H124.836C125.201 48.3563 125.491 48.2485 125.708 48.0333C125.924 47.818 126.033 47.5289 126.033 47.1662V44.191C126.033 43.8284 125.924 43.5395 125.708 43.3241C125.491 43.1088 125.201 43.001 124.836 43.001H122.255V48.3563ZM130.623 42.8481C130.692 42.4967 130.857 42.2134 131.119 41.9981C131.381 41.7827 131.695 41.675 132.059 41.675H132.538L135.478 56.3635H134.042L133.375 52.9804H130.008L129.342 56.3635H127.923L130.623 42.8481ZM133.17 51.6374L131.7 44.0552L130.213 51.6374H133.17ZM141.004 41.675C141.779 41.675 142.4 41.9073 142.867 42.3721C143.334 42.8367 143.568 43.4544 143.568 44.2251V47.3362C143.568 47.8462 143.414 48.2543 143.106 48.5602C142.799 48.8663 142.388 49.0192 141.876 49.0192H141.858V49.0362H141.876C142.388 49.0362 142.799 49.1893 143.106 49.4952C143.414 49.8013 143.568 50.2092 143.568 50.7193V53.8134C143.568 54.5841 143.334 55.2019 142.867 55.6665C142.4 56.1313 141.779 56.3635 141.004 56.3635H137.089V41.675H141.004ZM138.44 48.3563H141.021C141.385 48.3563 141.676 48.2485 141.893 48.0333C142.109 47.818 142.217 47.5289 142.217 47.1662V44.191C142.217 43.8284 142.109 43.5395 141.893 43.3241C141.676 43.1088 141.385 43.001 141.021 43.001H138.44V48.3563ZM138.44 55.0374H141.021C141.385 55.0374 141.676 54.9298 141.893 54.7145C142.109 54.4991 142.217 54.21 142.217 53.8474V50.8723C142.217 50.5097 142.109 50.2206 141.893 50.0053C141.676 49.7899 141.385 49.6823 141.021 49.6823H138.44V55.0374ZM144.763 56.3635L145.43 55.0204H145.942C146.17 55.0204 146.284 54.9072 146.284 54.6804V44.2251C146.284 43.4544 146.518 42.8367 146.985 42.3721C147.452 41.9073 148.073 41.675 148.848 41.675H152.506V56.3635H151.173V43.001H148.814C148.45 43.001 148.159 43.1088 147.942 43.3241C147.726 43.5395 147.618 43.8284 147.618 44.191V54.8335C147.618 55.2981 147.475 55.6721 147.19 55.9556C146.917 56.2275 146.546 56.3635 146.079 56.3635H144.763ZM154.736 41.675H160.703V43.001H156.087V48.3563H159.3V48.4923C159.3 48.8549 159.192 49.144 158.975 49.3592C158.759 49.5746 158.468 49.6823 158.104 49.6823H156.087V55.0374H160.703V56.3635H154.736V41.675ZM164.248 41.675V48.3563H168.026V41.675H169.377V56.3635H168.026V49.6823H164.248V56.3635H162.899V41.675H164.248ZM171.602 56.3635V41.675H172.952V53.1164L176.73 42.627C176.832 42.3324 177.01 42.1 177.259 41.93C177.511 41.7601 177.79 41.675 178.098 41.675H178.592V56.3635H177.242V44.9221L173.466 55.4115C173.362 55.7062 173.186 55.9385 172.935 56.1085C172.685 56.2785 172.406 56.3635 172.098 56.3635H171.602ZM180.485 56.4486L182.997 49.6653C182.336 49.5746 181.807 49.3083 181.408 48.8663C181.02 48.413 180.825 47.8348 180.825 47.1322V44.2251C180.825 43.4544 181.059 42.8367 181.527 42.3721C181.994 41.9073 182.615 41.675 183.39 41.675H187.304V56.3635H185.954V49.6823H184.432L182.399 55.3265C182.273 55.6665 182.063 55.9385 181.766 56.1425C181.482 56.3465 181.157 56.4486 180.792 56.4486H180.485ZM183.372 48.3563H185.954V43.001H183.372C183.008 43.001 182.718 43.1088 182.501 43.3241C182.284 43.5395 182.176 43.8284 182.176 44.191V47.1662C182.176 47.5289 182.284 47.818 182.501 48.0333C182.718 48.2485 183.008 48.3563 183.372 48.3563ZM103.258 79.1645V64.476H104.608V75.9174L108.386 65.428C108.488 65.1334 108.665 64.9011 108.916 64.731C109.166 64.5611 109.446 64.476 109.753 64.476H110.249V79.1645H108.899V67.7231L105.121 78.2125C105.019 78.5072 104.842 78.7396 104.591 78.9095C104.34 79.0795 104.061 79.1645 103.754 79.1645H103.258ZM119.951 64.476C120.726 64.476 121.348 64.7083 121.815 65.1731C122.282 65.6377 122.515 66.2554 122.515 67.0261V69.9332C122.515 70.7039 122.282 71.3216 121.815 71.7863C121.348 72.2509 120.726 72.4833 119.951 72.4833H117.388V79.1645H116.037V64.476H119.951ZM117.388 71.1573H119.969C120.333 71.1573 120.624 71.0495 120.84 70.8343C121.057 70.619 121.165 70.3299 121.165 69.9673V66.992C121.165 66.6294 121.057 66.3405 120.84 66.1251C120.624 65.9098 120.333 65.802 119.969 65.802H117.388V71.1573ZM125.756 65.6491C125.824 65.2977 125.99 65.0144 126.252 64.7991C126.514 64.5837 126.827 64.476 127.192 64.476H127.67L130.61 79.1645H129.175L128.508 75.7814H125.14L124.474 79.1645H123.055L125.756 65.6491ZM128.303 74.4384L126.833 66.8562L125.346 74.4384H128.303ZM134.786 64.391H136.136C136.911 64.391 137.532 64.6234 137.999 65.088C138.467 65.5528 138.7 66.1704 138.7 66.9411V70.1372C138.7 70.6472 138.546 71.0553 138.239 71.3612C137.931 71.6673 137.521 71.8202 137.008 71.8202H136.991V71.8372H137.008C137.521 71.8372 137.931 71.9903 138.239 72.2962C138.546 72.6023 138.7 73.0103 138.7 73.5203V76.6995C138.7 77.4702 138.467 78.0878 137.999 78.5525C137.532 79.0172 136.911 79.2496 136.136 79.2496H134.786C134.011 79.2496 133.39 79.0172 132.922 78.5525C132.455 78.0878 132.222 77.4702 132.222 76.6995V76.1384L133.572 75.4584V76.7334C133.572 77.0962 133.68 77.3851 133.897 77.6004C134.113 77.8158 134.404 77.9236 134.769 77.9236H136.153C136.518 77.9236 136.809 77.8158 137.025 77.6004C137.241 77.3851 137.35 77.0962 137.35 76.7334V73.6734C137.35 73.3107 137.241 73.0217 137.025 72.8063C136.809 72.5909 136.518 72.4833 136.153 72.4833H134.478V71.1573H136.153C136.518 71.1573 136.809 71.0495 137.025 70.8343C137.241 70.619 137.35 70.3299 137.35 69.9673V66.9071C137.35 66.5444 137.241 66.2554 137.025 66.04C136.809 65.8247 136.518 65.7171 136.153 65.7171H134.769C134.404 65.7171 134.113 65.8247 133.897 66.04C133.68 66.2554 133.572 66.5444 133.572 66.9071V68.1822L132.222 68.8622V66.9411C132.222 66.1704 132.455 65.5528 132.922 65.088C133.39 64.6234 134.011 64.391 134.786 64.391ZM144.819 64.476C145.594 64.476 146.215 64.7083 146.683 65.1731C147.15 65.6377 147.383 66.2554 147.383 67.0261V70.1372C147.383 70.6472 147.229 71.0553 146.922 71.3612C146.614 71.6673 146.204 71.8202 145.691 71.8202H145.674V71.8372H145.691C146.204 71.8372 146.614 71.9903 146.922 72.2962C147.229 72.6023 147.383 73.0103 147.383 73.5203V76.6144C147.383 77.3851 147.15 78.0029 146.683 78.4675C146.215 78.9323 145.594 79.1645 144.819 79.1645H140.905V64.476H144.819ZM142.255 71.1573H144.836C145.201 71.1573 145.492 71.0495 145.708 70.8343C145.925 70.619 146.033 70.3299 146.033 69.9673V66.992C146.033 66.6294 145.925 66.3405 145.708 66.1251C145.492 65.9098 145.201 65.802 144.836 65.802H142.255V71.1573ZM142.255 77.8384H144.836C145.201 77.8384 145.492 77.7308 145.708 77.5155C145.925 77.3001 146.033 77.011 146.033 76.6484V73.6734C146.033 73.3107 145.925 73.0217 145.708 72.8063C145.492 72.5909 145.201 72.4833 144.836 72.4833H142.255V77.8384ZM149.588 79.1645V64.476H150.939V75.9174L154.716 65.428C154.819 65.1334 154.995 64.9011 155.246 64.731C155.497 64.5611 155.776 64.476 156.084 64.476H156.579V79.1645H155.229V67.7231L151.451 78.2125C151.349 78.5072 151.172 78.7396 150.921 78.9095C150.671 79.0795 150.392 79.1645 150.084 79.1645H149.588ZM158.193 65.802V64.476H164.945V65.802H162.245V79.1645H160.894V65.802H158.193ZM166.313 79.1645V64.476H167.664V75.9174L171.442 65.428C171.544 65.1334 171.721 64.9011 171.972 64.731C172.222 64.5611 172.502 64.476 172.809 64.476H173.305V79.1645H171.955V67.7231L168.177 78.2125C168.075 78.5072 167.898 78.7396 167.646 78.9095C167.397 79.0795 167.117 79.1645 166.809 79.1645H166.313ZM175.196 79.2496L177.708 72.4663C177.047 72.3756 176.518 72.1093 176.119 71.6673C175.732 71.214 175.538 70.6358 175.538 69.9332V67.0261C175.538 66.2554 175.771 65.6377 176.239 65.1731C176.705 64.7083 177.327 64.476 178.101 64.476H182.016V79.1645H180.665V72.4833H179.145L177.11 78.1275C176.985 78.4675 176.774 78.7396 176.477 78.9435C176.193 79.1475 175.868 79.2496 175.504 79.2496H175.196ZM178.085 71.1573H180.665V65.802H178.085C177.719 65.802 177.429 65.9098 177.212 66.1251C176.997 66.3405 176.889 66.6294 176.889 66.992V69.9673C176.889 70.3299 176.997 70.619 177.212 70.8343C177.429 71.0495 177.719 71.1573 178.085 71.1573ZM103.258 99.6567V89.8983C103.258 89.1276 103.491 88.5099 103.959 88.0452C104.426 87.5806 105.047 87.3482 105.822 87.3482H107.172C107.947 87.3482 108.568 87.5806 109.035 88.0452C109.503 88.5099 109.736 89.1276 109.736 89.8983V91.9724L108.386 91.2923V89.8813C108.386 89.5187 108.278 89.2296 108.061 89.0142C107.845 88.7989 107.554 88.6913 107.189 88.6913H105.805C105.44 88.6913 105.149 88.7989 104.933 89.0142C104.716 89.2296 104.608 89.5187 104.608 89.8813V99.6737C104.608 100.036 104.716 100.325 104.933 100.541C105.149 100.756 105.44 100.864 105.805 100.864H107.189C107.554 100.864 107.845 100.756 108.061 100.541C108.278 100.325 108.386 100.036 108.386 99.6737V98.5175L109.736 99.1977V99.6567C109.736 100.427 109.503 101.045 109.035 101.51C108.568 101.974 107.947 102.207 107.172 102.207H105.822C105.047 102.207 104.426 101.974 103.959 101.51C103.491 101.045 103.258 100.427 103.258 99.6567ZM118.35 87.4331V102.122H117V88.7592H113.051V102.122H111.701V87.4331H118.35ZM120.399 89.8983C120.399 89.1276 120.632 88.5099 121.099 88.0452C121.567 87.5806 122.188 87.3482 122.963 87.3482H124.484C125.259 87.3482 125.88 87.5806 126.347 88.0452C126.814 88.5099 127.048 89.1276 127.048 89.8983V99.6567C127.048 100.427 126.814 101.045 126.347 101.51C125.88 101.974 125.259 102.207 124.484 102.207H122.963C122.188 102.207 121.567 101.974 121.099 101.51C120.632 101.045 120.399 100.427 120.399 99.6567V89.8983ZM122.946 100.864H124.501C124.866 100.864 125.156 100.756 125.373 100.541C125.589 100.325 125.698 100.036 125.698 99.6737V89.8813C125.698 89.5187 125.589 89.2296 125.373 89.0142C125.156 88.7989 124.866 88.6913 124.501 88.6913H122.946C122.581 88.6913 122.29 88.7989 122.074 89.0142C121.857 89.2296 121.749 89.5187 121.749 89.8813V99.6737C121.749 100.036 121.857 100.325 122.074 100.541C122.29 100.756 122.581 100.864 122.946 100.864ZM132.841 87.4331C133.616 87.4331 134.237 87.6655 134.705 88.1303C135.172 88.5949 135.405 89.2126 135.405 89.9833V92.8904C135.405 93.6611 135.172 94.2787 134.705 94.7435C134.237 95.2081 133.616 95.4405 132.841 95.4405H130.277V102.122H128.927V87.4331H132.841ZM130.277 94.1144H132.858C133.223 94.1144 133.514 94.0067 133.73 93.7915C133.947 93.5761 134.055 93.2871 134.055 92.9244V89.9492C134.055 89.5866 133.947 89.2977 133.73 89.0823C133.514 88.8669 133.223 88.7592 132.858 88.7592H130.277V94.1144ZM136.651 88.7592V87.4331H143.403V88.7592H140.702V102.122H139.352V88.7592H136.651ZM146.007 88.6063C146.075 88.2549 146.24 87.9716 146.503 87.7563C146.765 87.5409 147.078 87.4331 147.443 87.4331H147.921L150.861 102.122H149.425L148.759 98.7385H145.391L144.725 102.122H143.306L146.007 88.6063ZM148.554 97.3956L147.084 89.8133L145.597 97.3956H148.554Z" fill="#EDF2F6" />
    <mask id="mask0_1559_20605" style="mask-type:luminance" maskUnits="userSpaceOnUse" x="102" y="18" width="86" height="85">
        <path d="M187.739 18.2568H102.789V102.589H187.739V18.2568Z" fill="white" />
        <path d="M103.258 30.8557V18.7173H104.608V30.8727C104.608 31.2355 104.716 31.5244 104.933 31.7398C105.149 31.9551 105.44 32.0627 105.805 32.0627H108.386V18.7173H109.736V32.0627H110.659C110.921 32.0627 111.126 32.1421 111.275 32.3008C111.434 32.4482 111.514 32.6521 111.514 32.9128V33.4058H105.822C105.047 33.4058 104.426 33.1736 103.959 32.7088C103.491 32.2442 103.258 31.6264 103.258 30.8557ZM112.903 18.7173H118.868V20.0433H114.253V25.3986H117.467V25.5346C117.467 25.8973 117.358 26.1863 117.142 26.4015C116.925 26.6169 116.635 26.7247 116.27 26.7247H114.253V32.0798H118.868V33.4058H112.903V18.7173ZM122.415 18.7173V25.3986H126.193V18.7173H127.543V33.4058H126.193V26.7247H122.415V33.4058H121.065V18.7173H122.415ZM129.15 20.0433V18.7173H135.902V20.0433H133.201V33.4058H131.851V20.0433H129.15ZM141.184 18.7173C141.959 18.7173 142.58 18.9497 143.047 19.4144C143.514 19.879 143.748 20.4967 143.748 21.2674V24.1745C143.748 24.9452 143.514 25.5629 143.047 26.0277C142.58 26.4923 141.959 26.7247 141.184 26.7247H138.62V33.4058H137.27V18.7173H141.184ZM138.62 25.3986H141.201C141.566 25.3986 141.856 25.2908 142.073 25.0756C142.289 24.8603 142.398 24.5712 142.398 24.2086V21.2334C142.398 20.8707 142.289 20.5818 142.073 20.3665C141.856 20.1511 141.566 20.0433 141.201 20.0433H138.62V25.3986ZM103.258 53.898V52.589L104.608 53.2689V53.915C104.608 54.2776 104.716 54.5667 104.933 54.7819C105.149 54.9973 105.44 55.105 105.805 55.105H107.189C107.554 55.105 107.845 54.9973 108.061 54.7819C108.278 54.5667 108.386 54.2776 108.386 53.915V49.6989H105.856C105.081 49.6989 104.46 49.4665 103.993 49.0017C103.526 48.5371 103.292 47.9194 103.292 47.1487V41.6745H104.642V47.1658C104.642 47.5284 104.751 47.8175 104.967 48.0328C105.184 48.248 105.474 48.3558 105.839 48.3558H108.386V41.6745H109.736V53.898C109.736 54.6687 109.503 55.2864 109.035 55.751C108.568 56.2157 107.947 56.4481 107.172 56.4481H105.822C105.047 56.4481 104.426 56.2157 103.959 55.751C103.491 55.2864 103.258 54.6687 103.258 53.898ZM118.671 41.6745V56.363H117.32V43.0005H113.372V56.363H112.021V41.6745H118.671ZM124.819 41.6745C125.594 41.6745 126.215 41.9068 126.682 42.3716C127.15 42.8362 127.383 43.4539 127.383 44.2246V47.1317C127.383 47.9024 127.15 48.5201 126.682 48.9848C126.215 49.4494 125.594 49.6818 124.819 49.6818H122.255V56.363H120.905V41.6745H124.819ZM122.255 48.3558H124.836C125.201 48.3558 125.491 48.248 125.708 48.0328C125.924 47.8175 126.033 47.5284 126.033 47.1658V44.1905C126.033 43.8279 125.924 43.539 125.708 43.3236C125.491 43.1083 125.201 43.0005 124.836 43.0005H122.255V48.3558ZM130.623 42.8476C130.692 42.4962 130.857 42.2129 131.119 41.9976C131.381 41.7822 131.695 41.6745 132.059 41.6745H132.538L135.478 56.363H134.042L133.375 52.9799H130.008L129.342 56.363H127.923L130.623 42.8476ZM133.17 51.6369L131.7 44.0547L130.213 51.6369H133.17ZM141.004 41.6745C141.779 41.6745 142.4 41.9068 142.867 42.3716C143.334 42.8362 143.568 43.4539 143.568 44.2246V47.3357C143.568 47.8457 143.414 48.2538 143.106 48.5597C142.799 48.8658 142.388 49.0187 141.876 49.0187H141.858V49.0358H141.876C142.388 49.0358 142.799 49.1888 143.106 49.4947C143.414 49.8008 143.568 50.2088 143.568 50.7188V53.8129C143.568 54.5836 143.334 55.2014 142.867 55.666C142.4 56.1308 141.779 56.363 141.004 56.363H137.089V41.6745H141.004ZM138.44 48.3558H141.021C141.385 48.3558 141.676 48.248 141.893 48.0328C142.109 47.8175 142.217 47.5284 142.217 47.1658V44.1905C142.217 43.8279 142.109 43.539 141.893 43.3236C141.676 43.1083 141.385 43.0005 141.021 43.0005H138.44V48.3558ZM138.44 55.0369H141.021C141.385 55.0369 141.676 54.9293 141.893 54.714C142.109 54.4986 142.217 54.2096 142.217 53.8469V50.8719C142.217 50.5092 142.109 50.2202 141.893 50.0048C141.676 49.7894 141.385 49.6818 141.021 49.6818H138.44V55.0369ZM144.763 56.363L145.43 55.0199H145.942C146.17 55.0199 146.284 54.9067 146.284 54.6799V44.2246C146.284 43.4539 146.518 42.8362 146.985 42.3716C147.452 41.9068 148.073 41.6745 148.848 41.6745H152.506V56.363H151.173V43.0005H148.814C148.45 43.0005 148.159 43.1083 147.942 43.3236C147.726 43.539 147.618 43.8279 147.618 44.1905V54.833C147.618 55.2976 147.475 55.6716 147.19 55.9551C146.917 56.227 146.546 56.363 146.079 56.363H144.763ZM154.736 41.6745H160.703V43.0005H156.087V48.3558H159.3V48.4918C159.3 48.8544 159.192 49.1435 158.975 49.3587C158.759 49.5741 158.468 49.6818 158.104 49.6818H156.087V55.0369H160.703V56.363H154.736V41.6745ZM164.248 41.6745V48.3558H168.026V41.6745H169.377V56.363H168.026V49.6818H164.248V56.363H162.899V41.6745H164.248ZM171.602 56.363V41.6745H172.952V53.1159L176.73 42.6265C176.832 42.3319 177.01 42.0996 177.259 41.9295C177.511 41.7596 177.79 41.6745 178.098 41.6745H178.592V56.363H177.242V44.9216L173.466 55.411C173.362 55.7057 173.186 55.9381 172.935 56.108C172.685 56.278 172.406 56.363 172.098 56.363H171.602ZM180.485 56.4481L182.997 49.6648C182.336 49.5741 181.807 49.3078 181.408 48.8658C181.02 48.4125 180.825 47.8343 180.825 47.1317V44.2246C180.825 43.4539 181.059 42.8362 181.527 42.3716C181.994 41.9068 182.615 41.6745 183.39 41.6745H187.304V56.363H185.954V49.6818H184.432L182.399 55.326C182.273 55.666 182.063 55.9381 181.766 56.142C181.482 56.346 181.157 56.4481 180.792 56.4481H180.485ZM183.372 48.3558H185.954V43.0005H183.372C183.008 43.0005 182.718 43.1083 182.501 43.3236C182.284 43.539 182.176 43.8279 182.176 44.1905V47.1658C182.176 47.5284 182.284 47.8175 182.501 48.0328C182.718 48.248 183.008 48.3558 183.372 48.3558ZM103.258 79.164V64.4755H104.608V75.9169L108.386 65.4275C108.488 65.1329 108.665 64.9006 108.916 64.7305C109.166 64.5606 109.446 64.4755 109.753 64.4755H110.249V79.164H108.899V67.7226L105.121 78.212C105.019 78.5067 104.842 78.7391 104.591 78.909C104.34 79.079 104.061 79.164 103.754 79.164H103.258ZM119.951 64.4755C120.726 64.4755 121.348 64.7079 121.815 65.1726C122.282 65.6372 122.515 66.2549 122.515 67.0256V69.9327C122.515 70.7034 122.282 71.3211 121.815 71.7858C121.348 72.2505 120.726 72.4828 119.951 72.4828H117.388V79.164H116.037V64.4755H119.951ZM117.388 71.1568H119.969C120.333 71.1568 120.624 71.049 120.84 70.8338C121.057 70.6185 121.165 70.3294 121.165 69.9668V66.9915C121.165 66.6289 121.057 66.34 120.84 66.1246C120.624 65.9093 120.333 65.8015 119.969 65.8015H117.388V71.1568ZM125.756 65.6486C125.824 65.2972 125.99 65.0139 126.252 64.7986C126.514 64.5832 126.827 64.4755 127.192 64.4755H127.67L130.61 79.164H129.175L128.508 75.7809H125.14L124.474 79.164H123.055L125.756 65.6486ZM128.303 74.438L126.833 66.8557L125.346 74.438H128.303ZM134.786 64.3905H136.136C136.911 64.3905 137.532 64.6229 137.999 65.0875C138.467 65.5523 138.7 66.1699 138.7 66.9406V70.1367C138.7 70.6467 138.546 71.0548 138.239 71.3608C137.931 71.6668 137.521 71.8197 137.008 71.8197H136.991V71.8368H137.008C137.521 71.8368 137.931 71.9898 138.239 72.2957C138.546 72.6018 138.7 73.0098 138.7 73.5198V76.699C138.7 77.4697 138.467 78.0874 137.999 78.552C137.532 79.0167 136.911 79.2491 136.136 79.2491H134.786C134.011 79.2491 133.39 79.0167 132.922 78.552C132.455 78.0874 132.222 77.4697 132.222 76.699V76.1379L133.572 75.4579V76.7329C133.572 77.0957 133.68 77.3846 133.897 77.5999C134.113 77.8153 134.404 77.9231 134.769 77.9231H136.153C136.518 77.9231 136.809 77.8153 137.025 77.5999C137.241 77.3846 137.35 77.0957 137.35 76.7329V73.6729C137.35 73.3102 137.241 73.0212 137.025 72.8058C136.809 72.5904 136.518 72.4828 136.153 72.4828H134.478V71.1568H136.153C136.518 71.1568 136.809 71.049 137.025 70.8338C137.241 70.6185 137.35 70.3294 137.35 69.9668V66.9066C137.35 66.544 137.241 66.2549 137.025 66.0395C136.809 65.8242 136.518 65.7166 136.153 65.7166H134.769C134.404 65.7166 134.113 65.8242 133.897 66.0395C133.68 66.2549 133.572 66.544 133.572 66.9066V68.1817L132.222 68.8617V66.9406C132.222 66.1699 132.455 65.5523 132.922 65.0875C133.39 64.6229 134.011 64.3905 134.786 64.3905ZM144.819 64.4755C145.594 64.4755 146.215 64.7079 146.683 65.1726C147.15 65.6372 147.383 66.2549 147.383 67.0256V70.1367C147.383 70.6467 147.229 71.0548 146.922 71.3608C146.614 71.6668 146.204 71.8197 145.691 71.8197H145.674V71.8368H145.691C146.204 71.8368 146.614 71.9898 146.922 72.2957C147.229 72.6018 147.383 73.0098 147.383 73.5198V76.6139C147.383 77.3846 147.15 78.0024 146.683 78.467C146.215 78.9318 145.594 79.164 144.819 79.164H140.905V64.4755H144.819ZM142.255 71.1568H144.836C145.201 71.1568 145.492 71.049 145.708 70.8338C145.925 70.6185 146.033 70.3294 146.033 69.9668V66.9915C146.033 66.6289 145.925 66.34 145.708 66.1246C145.492 65.9093 145.201 65.8015 144.836 65.8015H142.255V71.1568ZM142.255 77.838H144.836C145.201 77.838 145.492 77.7304 145.708 77.515C145.925 77.2996 146.033 77.0106 146.033 76.6479V73.6729C146.033 73.3102 145.925 73.0212 145.708 72.8058C145.492 72.5904 145.201 72.4828 144.836 72.4828H142.255V77.838ZM149.588 79.164V64.4755H150.939V75.9169L154.716 65.4275C154.819 65.1329 154.995 64.9006 155.246 64.7305C155.497 64.5606 155.776 64.4755 156.084 64.4755H156.579V79.164H155.229V67.7226L151.451 78.212C151.349 78.5067 151.172 78.7391 150.921 78.909C150.671 79.079 150.392 79.164 150.084 79.164H149.588ZM158.193 65.8015V64.4755H164.945V65.8015H162.245V79.164H160.894V65.8015H158.193ZM166.313 79.164V64.4755H167.664V75.9169L171.442 65.4275C171.544 65.1329 171.721 64.9006 171.972 64.7305C172.222 64.5606 172.502 64.4755 172.809 64.4755H173.305V79.164H171.955V67.7226L168.177 78.212C168.075 78.5067 167.898 78.7391 167.646 78.909C167.397 79.079 167.117 79.164 166.809 79.164H166.313ZM175.196 79.2491L177.708 72.4658C177.047 72.3751 176.518 72.1088 176.119 71.6668C175.732 71.2135 175.538 70.6353 175.538 69.9327V67.0256C175.538 66.2549 175.771 65.6372 176.239 65.1726C176.705 64.7079 177.327 64.4755 178.101 64.4755H182.016V79.164H180.665V72.4828H179.145L177.11 78.127C176.985 78.467 176.774 78.7391 176.477 78.943C176.193 79.147 175.868 79.2491 175.504 79.2491H175.196ZM178.085 71.1568H180.665V65.8015H178.085C177.719 65.8015 177.429 65.9093 177.212 66.1246C176.997 66.34 176.889 66.6289 176.889 66.9915V69.9668C176.889 70.3294 176.997 70.6185 177.212 70.8338C177.429 71.049 177.719 71.1568 178.085 71.1568ZM103.258 99.6562V89.8978C103.258 89.1271 103.491 88.5095 103.959 88.0447C104.426 87.5801 105.047 87.3477 105.822 87.3477H107.172C107.947 87.3477 108.568 87.5801 109.035 88.0447C109.503 88.5095 109.736 89.1271 109.736 89.8978V91.9719L108.386 91.2918V89.8808C108.386 89.5182 108.278 89.2291 108.061 89.0137C107.845 88.7984 107.554 88.6908 107.189 88.6908H105.805C105.44 88.6908 105.149 88.7984 104.933 89.0137C104.716 89.2291 104.608 89.5182 104.608 89.8808V99.6732C104.608 100.036 104.716 100.325 104.933 100.54C105.149 100.755 105.44 100.863 105.805 100.863H107.189C107.554 100.863 107.845 100.755 108.061 100.54C108.278 100.325 108.386 100.036 108.386 99.6732V98.5171L109.736 99.1972V99.6562C109.736 100.427 109.503 101.045 109.035 101.509C108.568 101.974 107.947 102.206 107.172 102.206H105.822C105.047 102.206 104.426 101.974 103.959 101.509C103.491 101.045 103.258 100.427 103.258 99.6562ZM118.35 87.4326V102.121H117V88.7587H113.051V102.121H111.701V87.4326H118.35ZM120.399 89.8978C120.399 89.1271 120.632 88.5095 121.099 88.0447C121.567 87.5801 122.188 87.3477 122.963 87.3477H124.484C125.259 87.3477 125.88 87.5801 126.347 88.0447C126.814 88.5095 127.048 89.1271 127.048 89.8978V99.6562C127.048 100.427 126.814 101.045 126.347 101.509C125.88 101.974 125.259 102.206 124.484 102.206H122.963C122.188 102.206 121.567 101.974 121.099 101.509C120.632 101.045 120.399 100.427 120.399 99.6562V89.8978ZM122.946 100.863H124.501C124.866 100.863 125.156 100.755 125.373 100.54C125.589 100.325 125.698 100.036 125.698 99.6732V89.8808C125.698 89.5182 125.589 89.2291 125.373 89.0137C125.156 88.7984 124.866 88.6908 124.501 88.6908H122.946C122.581 88.6908 122.29 88.7984 122.074 89.0137C121.857 89.2291 121.749 89.5182 121.749 89.8808V99.6732C121.749 100.036 121.857 100.325 122.074 100.54C122.29 100.755 122.581 100.863 122.946 100.863ZM132.841 87.4326C133.616 87.4326 134.237 87.665 134.705 88.1298C135.172 88.5944 135.405 89.2121 135.405 89.9828V92.8899C135.405 93.6606 135.172 94.2783 134.705 94.743C134.237 95.2076 133.616 95.44 132.841 95.44H130.277V102.121H128.927V87.4326H132.841ZM130.277 94.114H132.858C133.223 94.114 133.514 94.0062 133.73 93.791C133.947 93.5756 134.055 93.2866 134.055 92.9239V89.9487C134.055 89.5861 133.947 89.2972 133.73 89.0818C133.514 88.8665 133.223 88.7587 132.858 88.7587H130.277V94.114ZM136.651 88.7587V87.4326H143.403V88.7587H140.702V102.121H139.352V88.7587H136.651ZM146.007 88.6058C146.075 88.2544 146.24 87.9711 146.503 87.7558C146.765 87.5404 147.078 87.4326 147.443 87.4326H147.921L150.861 102.121H149.425L148.759 98.738H145.391L144.725 102.121H143.306L146.007 88.6058ZM148.554 97.3951L147.084 89.8129L145.597 97.3951H148.554Z" fill="black" />
    </mask>
    <g mask="url(#mask0_1559_20605)">
        <path d="M103.257 18.7172V18.3999H102.938V18.7172H103.257ZM104.607 18.7172H104.926V18.3999H104.607V18.7172ZM108.385 32.0627V32.3802H108.704V32.0627H108.385ZM108.385 18.7172V18.3999H108.065V18.7172H108.385ZM109.735 18.7172H110.054V18.3999H109.735V18.7172ZM109.735 32.0627H109.416V32.3802H109.735V32.0627ZM111.273 32.3007L111.04 32.5167L111.048 32.5253L111.056 32.5334L111.273 32.3007ZM111.513 33.4058V33.7231H111.832V33.4058H111.513ZM103.576 30.8557V18.7172H102.938V30.8557H103.576ZM103.257 19.0347H104.607V18.3999H103.257V19.0347ZM104.288 18.7172V30.8727H104.926V18.7172H104.288ZM104.288 30.8727C104.288 31.3023 104.419 31.6782 104.706 31.9642L105.157 31.5153C105.012 31.3707 104.926 31.1685 104.926 30.8727H104.288ZM104.706 31.9642C104.994 32.2503 105.372 32.3802 105.804 32.3802V31.7454C105.506 31.7454 105.303 31.6599 105.157 31.5153L104.706 31.9642ZM105.804 32.3802H108.385V31.7454H105.804V32.3802ZM108.704 32.0627V18.7172H108.065V32.0627H108.704ZM108.385 19.0347H109.735V18.3999H108.385V19.0347ZM109.416 18.7172V32.0627H110.054V18.7172H109.416ZM109.735 32.3802H110.658V31.7454H109.735V32.3802ZM110.658 32.3802C110.851 32.3802 110.964 32.4358 111.04 32.5167L111.507 32.0849C111.287 31.8484 110.989 31.7454 110.658 31.7454V32.3802ZM111.056 32.5334C111.138 32.6085 111.194 32.721 111.194 32.9127H111.832C111.832 32.5834 111.728 32.2877 111.491 32.0682L111.056 32.5334ZM111.194 32.9127V33.4058H111.832V32.9127H111.194ZM111.513 33.0884H105.821V33.7231H111.513V33.0884ZM105.821 33.0884C105.115 33.0884 104.58 32.8793 104.183 32.4844L103.732 32.9332C104.269 33.4676 104.977 33.7231 105.821 33.7231V33.0884ZM104.183 32.4844C103.786 32.0894 103.576 31.558 103.576 30.8557H102.938C102.938 31.6949 103.194 32.3988 103.732 32.9332L104.183 32.4844ZM112.901 18.7172V18.3999H112.582V18.7172H112.901ZM118.867 18.7172H119.186V18.3999H118.867V18.7172ZM118.867 20.0433V20.3608H119.186V20.0433H118.867ZM114.252 20.0433V19.726H113.933V20.0433H114.252ZM114.252 25.3986H113.933V25.7159H114.252V25.3986ZM117.465 25.3986H117.784V25.0812H117.465V25.3986ZM114.252 26.7246V26.4073H113.933V26.7246H114.252ZM114.252 32.0797H113.933V32.3971H114.252V32.0797ZM118.867 32.0797H119.186V31.7624H118.867V32.0797ZM118.867 33.4058V33.7231H119.186V33.4058H118.867ZM112.901 33.4058H112.582V33.7231H112.901V33.4058ZM112.901 19.0347H118.867V18.3999H112.901V19.0347ZM118.548 18.7172V20.0433H119.186V18.7172H118.548ZM118.867 19.726H114.252V20.3608H118.867V19.726ZM113.933 20.0433V25.3986H114.571V20.0433H113.933ZM114.252 25.7159H117.465V25.0812H114.252V25.7159ZM117.146 25.3986V25.5346H117.784V25.3986H117.146ZM117.146 25.5346C117.146 25.8302 117.06 26.0325 116.915 26.1771L117.366 26.6259C117.654 26.34 117.784 25.9642 117.784 25.5346H117.146ZM116.915 26.1771C116.769 26.3218 116.566 26.4073 116.269 26.4073V27.042C116.701 27.042 117.079 26.912 117.366 26.6259L116.915 26.1771ZM116.269 26.4073H114.252V27.042H116.269V26.4073ZM113.933 26.7246V32.0797H114.571V26.7246H113.933ZM114.252 32.3971H118.867V31.7624H114.252V32.3971ZM118.548 32.0797V33.4058H119.186V32.0797H118.548ZM118.867 33.0884H112.901V33.7231H118.867V33.0884ZM113.22 33.4058V18.7172H112.582V33.4058H113.22ZM122.414 18.7172H122.733V18.3999H122.414V18.7172ZM122.414 25.3986H122.095V25.7159H122.414V25.3986ZM126.192 25.3986V25.7159H126.511V25.3986H126.192ZM126.192 18.7172V18.3999H125.873V18.7172H126.192ZM127.542 18.7172H127.861V18.3999H127.542V18.7172ZM127.542 33.4058V33.7231H127.861V33.4058H127.542ZM126.192 33.4058H125.873V33.7231H126.192V33.4058ZM126.192 26.7246H126.511V26.4073H126.192V26.7246ZM122.414 26.7246V26.4073H122.095V26.7246H122.414ZM122.414 33.4058V33.7231H122.733V33.4058H122.414ZM121.064 33.4058H120.745V33.7231H121.064V33.4058ZM121.064 18.7172V18.3999H120.745V18.7172H121.064ZM122.095 18.7172V25.3986H122.733V18.7172H122.095ZM122.414 25.7159H126.192V25.0812H122.414V25.7159ZM126.511 25.3986V18.7172H125.873V25.3986H126.511ZM126.192 19.0347H127.542V18.3999H126.192V19.0347ZM127.223 18.7172V33.4058H127.861V18.7172H127.223ZM127.542 33.0884H126.192V33.7231H127.542V33.0884ZM126.511 33.4058V26.7246H125.873V33.4058H126.511ZM126.192 26.4073H122.414V27.042H126.192V26.4073ZM122.095 26.7246V33.4058H122.733V26.7246H122.095ZM122.414 33.0884H121.064V33.7231H122.414V33.0884ZM121.383 33.4058V18.7172H120.745V33.4058H121.383ZM121.064 19.0347H122.414V18.3999H121.064V19.0347ZM129.149 20.0433H128.83V20.3608H129.149V20.0433ZM129.149 18.7172V18.3999H128.83V18.7172H129.149ZM135.901 18.7172H136.22V18.3999H135.901V18.7172ZM135.901 20.0433V20.3608H136.22V20.0433H135.901ZM133.2 20.0433V19.726H132.881V20.0433H133.2ZM133.2 33.4058V33.7231H133.519V33.4058H133.2ZM131.85 33.4058H131.53V33.7231H131.85V33.4058ZM131.85 20.0433H132.169V19.726H131.85V20.0433ZM129.468 20.0433V18.7172H128.83V20.0433H129.468ZM129.149 19.0347H135.901V18.3999H129.149V19.0347ZM135.582 18.7172V20.0433H136.22V18.7172H135.582ZM135.901 19.726H133.2V20.3608H135.901V19.726ZM132.881 20.0433V33.4058H133.519V20.0433H132.881ZM133.2 33.0884H131.85V33.7231H133.2V33.0884ZM132.169 33.4058V20.0433H131.53V33.4058H132.169ZM131.85 19.726H129.149V20.3608H131.85V19.726ZM138.619 26.7246V26.4073H138.3V26.7246H138.619ZM138.619 33.4058V33.7231H138.938V33.4058H138.619ZM137.268 33.4058H136.949V33.7231H137.268V33.4058ZM137.268 18.7172V18.3999H136.949V18.7172H137.268ZM138.619 25.3986H138.3V25.7159H138.619V25.3986ZM138.619 20.0433V19.726H138.3V20.0433H138.619ZM141.183 19.0347C141.889 19.0347 142.423 19.2439 142.82 19.6388L143.272 19.19C142.734 18.6554 142.027 18.3999 141.183 18.3999V19.0347ZM142.82 19.6388C143.217 20.0336 143.428 20.5652 143.428 21.2674H144.066C144.066 20.4283 143.809 19.7244 143.272 19.19L142.82 19.6388ZM143.428 21.2674V24.1745H144.066V21.2674H143.428ZM143.428 24.1745C143.428 24.8766 143.217 25.4082 142.82 25.8032L143.272 26.252C143.809 25.7175 144.066 25.0138 144.066 24.1745H143.428ZM142.82 25.8032C142.423 26.198 141.889 26.4073 141.183 26.4073V27.042C142.027 27.042 142.734 26.7865 143.272 26.252L142.82 25.8032ZM141.183 26.4073H138.619V27.042H141.183V26.4073ZM138.3 26.7246V33.4058H138.938V26.7246H138.3ZM138.619 33.0884H137.268V33.7231H138.619V33.0884ZM137.588 33.4058V18.7172H136.949V33.4058H137.588ZM137.268 19.0347H141.183V18.3999H137.268V19.0347ZM138.619 25.7159H141.2V25.0812H138.619V25.7159ZM141.2 25.7159C141.632 25.7159 142.01 25.586 142.297 25.2999L141.846 24.8512C141.701 24.9958 141.497 25.0812 141.2 25.0812V25.7159ZM142.297 25.2999C142.585 25.0139 142.715 24.6382 142.715 24.2085H142.077C142.077 24.5042 141.991 24.7064 141.846 24.8512L142.297 25.2999ZM142.715 24.2085V21.2333H142.077V24.2085H142.715ZM142.715 21.2333C142.715 20.8038 142.585 20.4279 142.297 20.142L141.846 20.5908C141.991 20.7354 142.077 20.9377 142.077 21.2333H142.715ZM142.297 20.142C142.01 19.8559 141.632 19.726 141.2 19.726V20.3608C141.497 20.3608 141.701 20.4461 141.846 20.5908L142.297 20.142ZM141.2 19.726H138.619V20.3608H141.2V19.726ZM138.3 20.0433V25.3986H138.938V20.0433H138.3ZM103.257 52.5889L103.401 52.3058L102.938 52.0725V52.5889H103.257ZM104.607 53.2689H104.926V53.0738L104.751 52.9858L104.607 53.2689ZM108.385 49.6988H108.704V49.3813H108.385V49.6988ZM103.291 41.6744V41.3571H102.972V41.6744H103.291ZM104.641 41.6744H104.96V41.3571H104.641V41.6744ZM108.385 48.3557V48.6731H108.704V48.3557H108.385ZM108.385 41.6744V41.3571H108.065V41.6744H108.385ZM109.735 41.6744H110.054V41.3571H109.735V41.6744ZM103.576 53.8979V52.5889H102.938V53.8979H103.576ZM103.112 52.8721L104.463 53.552L104.751 52.9858L103.401 52.3058L103.112 52.8721ZM104.288 53.2689V53.915H104.926V53.2689H104.288ZM104.288 53.915C104.288 54.3444 104.419 54.7203 104.706 55.0063L105.157 54.5575C105.012 54.4128 104.926 54.2106 104.926 53.915H104.288ZM104.706 55.0063C104.994 55.2924 105.372 55.4223 105.804 55.4223V54.7877C105.506 54.7877 105.303 54.7022 105.157 54.5575L104.706 55.0063ZM105.804 55.4223H107.188V54.7877H105.804V55.4223ZM107.188 55.4223C107.62 55.4223 107.998 55.2924 108.285 55.0063L107.834 54.5575C107.689 54.7022 107.485 54.7877 107.188 54.7877V55.4223ZM108.285 55.0063C108.573 54.7203 108.704 54.3444 108.704 53.915H108.065C108.065 54.2106 107.98 54.4128 107.834 54.5575L108.285 55.0063ZM108.704 53.915V49.6988H108.065V53.915H108.704ZM108.385 49.3813H105.855V50.0162H108.385V49.3813ZM105.855 49.3813C105.149 49.3813 104.614 49.1722 104.217 48.7772L103.766 49.2261C104.303 49.7607 105.011 50.0162 105.855 50.0162V49.3813ZM104.217 48.7772C103.82 48.3824 103.61 47.8508 103.61 47.1487H102.972C102.972 47.9878 103.229 48.6917 103.766 49.2261L104.217 48.7772ZM103.61 47.1487V41.6744H102.972V47.1487H103.61ZM103.291 41.9919H104.641V41.3571H103.291V41.9919ZM104.322 41.6744V47.1657H104.96V41.6744H104.322ZM104.322 47.1657C104.322 47.5953 104.453 47.9711 104.74 48.257L105.192 47.8084C105.046 47.6636 104.96 47.4613 104.96 47.1657H104.322ZM104.74 48.257C105.028 48.5431 105.406 48.6731 105.838 48.6731V48.0384C105.54 48.0384 105.337 47.953 105.192 47.8084L104.74 48.257ZM105.838 48.6731H108.385V48.0384H105.838V48.6731ZM108.704 48.3557V41.6744H108.065V48.3557H108.704ZM108.385 41.9919H109.735V41.3571H108.385V41.9919ZM109.416 41.6744V53.8979H110.054V41.6744H109.416ZM109.416 53.8979C109.416 54.6001 109.206 55.1317 108.808 55.5265L109.26 55.9753C109.797 55.4409 110.054 54.7371 110.054 53.8979H109.416ZM108.808 55.5265C108.412 55.9215 107.877 56.1306 107.171 56.1306V56.7654C108.015 56.7654 108.722 56.5098 109.26 55.9753L108.808 55.5265ZM107.171 56.1306H105.821V56.7654H107.171V56.1306ZM105.821 56.1306C105.115 56.1306 104.58 55.9215 104.183 55.5265L103.732 55.9753C104.269 56.5098 104.977 56.7654 105.821 56.7654V56.1306ZM104.183 55.5265C103.786 55.1317 103.576 54.6001 103.576 53.8979H102.938C102.938 54.7371 103.194 55.4409 103.732 55.9753L104.183 55.5265ZM118.669 41.6744H118.988V41.3571H118.669V41.6744ZM118.669 56.363V56.6803H118.988V56.363H118.669ZM117.319 56.363H117V56.6803H117.319V56.363ZM117.319 43.0005H117.638V42.6831H117.319V43.0005ZM113.37 43.0005V42.6831H113.051V43.0005H113.37ZM113.37 56.363V56.6803H113.689V56.363H113.37ZM112.02 56.363H111.701V56.6803H112.02V56.363ZM112.02 41.6744V41.3571H111.701V41.6744H112.02ZM118.35 41.6744V56.363H118.988V41.6744H118.35ZM118.669 56.0456H117.319V56.6803H118.669V56.0456ZM117.638 56.363V43.0005H117V56.363H117.638ZM117.319 42.6831H113.37V43.318H117.319V42.6831ZM113.051 43.0005V56.363H113.689V43.0005H113.051ZM113.37 56.0456H112.02V56.6803H113.37V56.0456ZM112.339 56.363V41.6744H111.701V56.363H112.339ZM112.02 41.9919H118.669V41.3571H112.02V41.9919ZM122.254 49.6818V49.3645H121.935V49.6818H122.254ZM122.254 56.363V56.6803H122.573V56.363H122.254ZM120.903 56.363H120.584V56.6803H120.903V56.363ZM120.903 41.6744V41.3571H120.584V41.6744H120.903ZM122.254 48.3557H121.935V48.6731H122.254V48.3557ZM122.254 43.0005V42.6831H121.935V43.0005H122.254ZM124.818 41.9919C125.524 41.9919 126.058 42.201 126.455 42.596L126.907 42.1472C126.369 41.6126 125.662 41.3571 124.818 41.3571V41.9919ZM126.455 42.596C126.853 42.9908 127.063 43.5224 127.063 44.2245H127.701C127.701 43.3854 127.444 42.6816 126.907 42.1472L126.455 42.596ZM127.063 44.2245V47.1317H127.701V44.2245H127.063ZM127.063 47.1317C127.063 47.8338 126.853 48.3654 126.455 48.7604L126.907 49.2092C127.444 48.6746 127.701 47.9709 127.701 47.1317H127.063ZM126.455 48.7604C126.058 49.1552 125.524 49.3645 124.818 49.3645V49.9991C125.662 49.9991 126.369 49.7436 126.907 49.2092L126.455 48.7604ZM124.818 49.3645H122.254V49.9991H124.818V49.3645ZM121.935 49.6818V56.363H122.573V49.6818H121.935ZM122.254 56.0456H120.903V56.6803H122.254V56.0456ZM121.223 56.363V41.6744H120.584V56.363H121.223ZM120.903 41.9919H124.818V41.3571H120.903V41.9919ZM122.254 48.6731H124.835V48.0384H122.254V48.6731ZM124.835 48.6731C125.267 48.6731 125.645 48.5431 125.932 48.257L125.481 47.8084C125.336 47.953 125.132 48.0384 124.835 48.0384V48.6731ZM125.932 48.257C126.22 47.9711 126.351 47.5953 126.351 47.1657H125.712C125.712 47.4613 125.627 47.6636 125.481 47.8084L125.932 48.257ZM126.351 47.1657V44.1905H125.712V47.1657H126.351ZM126.351 44.1905C126.351 43.761 126.22 43.3851 125.932 43.0992L125.481 43.548C125.627 43.6926 125.712 43.8949 125.712 44.1905H126.351ZM125.932 43.0992C125.645 42.8131 125.267 42.6831 124.835 42.6831V43.318C125.132 43.318 125.336 43.4032 125.481 43.548L125.932 43.0992ZM124.835 42.6831H122.254V43.318H124.835V42.6831ZM121.935 43.0005V48.3557H122.573V43.0005H121.935ZM130.622 42.8476L130.935 42.9094L130.935 42.9079L130.622 42.8476ZM132.537 41.6744L132.85 41.6126L132.799 41.3571H132.537V41.6744ZM135.477 56.363V56.6803H135.866L135.79 56.301L135.477 56.363ZM134.041 56.363L133.728 56.424L133.778 56.6803H134.041V56.363ZM133.374 52.9798L133.688 52.9189L133.637 52.6625H133.374V52.9798ZM130.007 52.9798V52.6625H129.744L129.694 52.9189L130.007 52.9798ZM129.34 56.363V56.6803H129.603L129.653 56.424L129.34 56.363ZM127.921 56.363L127.608 56.3011L127.533 56.6803H127.921V56.363ZM133.169 51.6369V51.9542H133.556L133.482 51.5768L133.169 51.6369ZM131.699 44.0546L132.013 43.9945L131.386 43.9937L131.699 44.0546ZM130.212 51.6369L129.899 51.576L129.825 51.9542H130.212V51.6369ZM130.935 42.9079C130.991 42.6243 131.12 42.4078 131.321 42.2421L130.915 41.7528C130.592 42.018 130.39 42.3681 130.309 42.7871L130.935 42.9079ZM131.321 42.2421C131.522 42.0773 131.762 41.9919 132.058 41.9919V41.3571C131.625 41.3571 131.238 41.4869 130.915 41.7528L131.321 42.2421ZM132.058 41.9919H132.537V41.3571H132.058V41.9919ZM132.224 41.7364L135.164 56.425L135.79 56.301L132.85 41.6126L132.224 41.7364ZM135.477 56.0456H134.041V56.6803H135.477V56.0456ZM134.354 56.3019L133.688 52.9189L133.061 53.0409L133.728 56.424L134.354 56.3019ZM133.374 52.6625H130.007V53.2973H133.374V52.6625ZM129.694 52.9189L129.027 56.3019L129.653 56.424L130.32 53.0409L129.694 52.9189ZM129.34 56.0456H127.921V56.6803H129.34V56.0456ZM128.235 56.4248L130.935 42.9094L130.309 42.7856L127.608 56.3011L128.235 56.4248ZM133.482 51.5768L132.013 43.9945L131.386 44.1146L132.856 51.6969L133.482 51.5768ZM131.386 43.9937L129.899 51.576L130.525 51.6977L132.012 44.1154L131.386 43.9937ZM130.212 51.9542H133.169V51.3194H130.212V51.9542ZM141.857 49.0187V48.7013H141.538V49.0187H141.857ZM141.857 49.0357H141.538V49.3531H141.857V49.0357ZM137.088 56.363H136.769V56.6803H137.088V56.363ZM137.088 41.6744V41.3571H136.769V41.6744H137.088ZM138.438 48.3557H138.119V48.6731H138.438V48.3557ZM138.438 43.0005V42.6831H138.119V43.0005H138.438ZM138.438 55.0369H138.119V55.3542H138.438V55.0369ZM138.438 49.6818V49.3645H138.119V49.6818H138.438ZM141.003 41.9919C141.708 41.9919 142.243 42.201 142.64 42.596L143.091 42.1472C142.554 41.6126 141.846 41.3571 141.003 41.3571V41.9919ZM142.64 42.596C143.037 42.9908 143.247 43.5224 143.247 44.2245H143.886C143.886 43.3854 143.629 42.6816 143.091 42.1472L142.64 42.596ZM143.247 44.2245V47.3356H143.886V44.2245H143.247ZM143.247 47.3356C143.247 47.7778 143.117 48.0993 142.879 48.3353L143.331 48.7841C143.709 48.4081 143.886 47.9136 143.886 47.3356H143.247ZM142.879 48.3353C142.642 48.5713 142.319 48.7013 141.874 48.7013V49.3362C142.455 49.3362 142.953 49.1602 143.331 48.7841L142.879 48.3353ZM141.874 48.7013H141.857V49.3362H141.874V48.7013ZM141.538 49.0187V49.0357H142.176V49.0187H141.538ZM141.857 49.3531H141.874V48.7184H141.857V49.3531ZM141.874 49.3531C142.319 49.3531 142.642 49.4831 142.879 49.7191L143.331 49.2703C142.953 48.8942 142.455 48.7184 141.874 48.7184V49.3531ZM142.879 49.7191C143.117 49.9551 143.247 50.2768 143.247 50.7188H143.886C143.886 50.1408 143.709 49.6463 143.331 49.2703L142.879 49.7191ZM143.247 50.7188V53.8128H143.886V50.7188H143.247ZM143.247 53.8128C143.247 54.5151 143.037 55.0466 142.64 55.4415L143.091 55.8904C143.629 55.356 143.886 54.6521 143.886 53.8128H143.247ZM142.64 55.4415C142.243 55.8365 141.708 56.0456 141.003 56.0456V56.6803C141.846 56.6803 142.554 56.4248 143.091 55.8904L142.64 55.4415ZM141.003 56.0456H137.088V56.6803H141.003V56.0456ZM137.407 56.363V41.6744H136.769V56.363H137.407ZM137.088 41.9919H141.003V41.3571H137.088V41.9919ZM138.438 48.6731H141.02V48.0384H138.438V48.6731ZM141.02 48.6731C141.452 48.6731 141.829 48.5431 142.117 48.257L141.666 47.8084C141.52 47.953 141.317 48.0384 141.02 48.0384V48.6731ZM142.117 48.257C142.405 47.9711 142.535 47.5953 142.535 47.1657H141.897C141.897 47.4613 141.811 47.6636 141.666 47.8084L142.117 48.257ZM142.535 47.1657V44.1905H141.897V47.1657H142.535ZM142.535 44.1905C142.535 43.761 142.405 43.3851 142.117 43.0992L141.666 43.548C141.811 43.6926 141.897 43.8949 141.897 44.1905H142.535ZM142.117 43.0992C141.829 42.8131 141.452 42.6831 141.02 42.6831V43.318C141.317 43.318 141.52 43.4032 141.666 43.548L142.117 43.0992ZM141.02 42.6831H138.438V43.318H141.02V42.6831ZM138.119 43.0005V48.3557H138.758V43.0005H138.119ZM138.438 55.3542H141.02V54.7196H138.438V55.3542ZM141.02 55.3542C141.452 55.3542 141.829 55.2243 142.117 54.9384L141.666 54.4895C141.52 54.6341 141.317 54.7196 141.02 54.7196V55.3542ZM142.117 54.9384C142.405 54.6523 142.535 54.2765 142.535 53.8469H141.897C141.897 54.1427 141.811 54.3449 141.666 54.4895L142.117 54.9384ZM142.535 53.8469V50.8718H141.897V53.8469H142.535ZM142.535 50.8718C142.535 50.4422 142.405 50.0664 142.117 49.7803L141.666 50.2292C141.811 50.3738 141.897 50.576 141.897 50.8718H142.535ZM142.117 49.7803C141.829 49.4944 141.452 49.3645 141.02 49.3645V49.9991C141.317 49.9991 141.52 50.0846 141.666 50.2292L142.117 49.7803ZM141.02 49.3645H138.438V49.9991H141.02V49.3645ZM138.119 49.6818V55.0369H138.758V49.6818H138.119ZM144.762 56.363L144.476 56.2226L144.248 56.6803H144.762V56.363ZM145.428 55.0199V54.7025H145.23L145.142 54.8795L145.428 55.0199ZM152.505 41.6744H152.824V41.3571H152.505V41.6744ZM152.505 56.363V56.6803H152.824V56.363H152.505ZM151.172 56.363H150.853V56.6803H151.172V56.363ZM151.172 43.0005H151.491V42.6831H151.172V43.0005ZM145.048 56.5035L145.715 55.1604L145.142 54.8795L144.476 56.2226L145.048 56.5035ZM145.428 55.3374H145.941V54.7025H145.428V55.3374ZM145.941 55.3374C146.104 55.3374 146.285 55.2966 146.423 55.1593C146.561 55.0222 146.602 54.8422 146.602 54.6799H145.964C145.964 54.7111 145.96 54.7255 145.959 54.7283C145.959 54.7294 145.959 54.7275 145.961 54.7238C145.964 54.72 145.967 54.7152 145.972 54.7105C145.977 54.7058 145.981 54.7022 145.985 54.7C145.989 54.6977 145.991 54.6972 145.99 54.6975C145.987 54.6986 145.972 54.7025 145.941 54.7025V55.3374ZM146.602 54.6799V44.2245H145.964V54.6799H146.602ZM146.602 44.2245C146.602 43.5224 146.812 42.9908 147.21 42.596L146.758 42.1472C146.221 42.6816 145.964 43.3854 145.964 44.2245H146.602ZM147.21 42.596C147.607 42.201 148.141 41.9919 148.847 41.9919V41.3571C148.003 41.3571 147.296 41.6126 146.758 42.1472L147.21 42.596ZM148.847 41.9919H152.505V41.3571H148.847V41.9919ZM152.186 41.6744V56.363H152.824V41.6744H152.186ZM152.505 56.0456H151.172V56.6803H152.505V56.0456ZM151.491 56.363V43.0005H150.853V56.363H151.491ZM151.172 42.6831H148.813V43.318H151.172V42.6831ZM148.813 42.6831C148.381 42.6831 148.003 42.8131 147.715 43.0992L148.167 43.548C148.312 43.4032 148.516 43.318 148.813 43.318V42.6831ZM147.715 43.0992C147.428 43.3851 147.297 43.761 147.297 44.1905H147.935C147.935 43.8949 148.021 43.6926 148.167 43.548L147.715 43.0992ZM147.297 44.1905V54.8329H147.935V44.1905H147.297ZM147.297 54.8329C147.297 55.2281 147.179 55.5163 146.963 55.7306L147.415 56.1795C147.769 55.827 147.935 55.3672 147.935 54.8329H147.297ZM146.963 55.7306C146.762 55.931 146.479 56.0456 146.078 56.0456V56.6803C146.611 56.6803 147.069 56.523 147.415 56.1795L146.963 55.7306ZM146.078 56.0456H144.762V56.6803H146.078V56.0456ZM154.735 41.6744V41.3571H154.416V41.6744H154.735ZM160.701 41.6744H161.02V41.3571H160.701V41.6744ZM160.701 43.0005V43.318H161.02V43.0005H160.701ZM156.085 43.0005V42.6831H155.766V43.0005H156.085ZM156.085 48.3557H155.766V48.6731H156.085V48.3557ZM159.299 48.3557H159.618V48.0384H159.299V48.3557ZM156.085 49.6818V49.3645H155.766V49.6818H156.085ZM156.085 55.0369H155.766V55.3542H156.085V55.0369ZM160.701 55.0369H161.02V54.7196H160.701V55.0369ZM160.701 56.363V56.6803H161.02V56.363H160.701ZM154.735 56.363H154.416V56.6803H154.735V56.363ZM154.735 41.9919H160.701V41.3571H154.735V41.9919ZM160.381 41.6744V43.0005H161.02V41.6744H160.381ZM160.701 42.6831H156.085V43.318H160.701V42.6831ZM155.766 43.0005V48.3557H156.404V43.0005H155.766ZM156.085 48.6731H159.299V48.0384H156.085V48.6731ZM158.98 48.3557V48.4918H159.618V48.3557H158.98ZM158.98 48.4918C158.98 48.7874 158.894 48.9896 158.748 49.1343L159.2 49.5831C159.488 49.2971 159.618 48.9214 159.618 48.4918H158.98ZM158.748 49.1343C158.604 49.279 158.399 49.3645 158.103 49.3645V49.9991C158.534 49.9991 158.913 49.8692 159.2 49.5831L158.748 49.1343ZM158.103 49.3645H156.085V49.9991H158.103V49.3645ZM155.766 49.6818V55.0369H156.404V49.6818H155.766ZM156.085 55.3542H160.701V54.7196H156.085V55.3542ZM160.381 55.0369V56.363H161.02V55.0369H160.381ZM160.701 56.0456H154.735V56.6803H160.701V56.0456ZM155.054 56.363V41.6744H154.416V56.363H155.054ZM164.247 41.6744H164.567V41.3571H164.247V41.6744ZM164.247 48.3557H163.928V48.6731H164.247V48.3557ZM168.025 48.3557V48.6731H168.344V48.3557H168.025ZM168.025 41.6744V41.3571H167.706V41.6744H168.025ZM169.375 41.6744H169.694V41.3571H169.375V41.6744ZM169.375 56.363V56.6803H169.694V56.363H169.375ZM168.025 56.363H167.706V56.6803H168.025V56.363ZM168.025 49.6818H168.344V49.3645H168.025V49.6818ZM164.247 49.6818V49.3645H163.928V49.6818H164.247ZM164.247 56.363V56.6803H164.567V56.363H164.247ZM162.898 56.363H162.578V56.6803H162.898V56.363ZM162.898 41.6744V41.3571H162.578V41.6744H162.898ZM163.928 41.6744V48.3557H164.567V41.6744H163.928ZM164.247 48.6731H168.025V48.0384H164.247V48.6731ZM168.344 48.3557V41.6744H167.706V48.3557H168.344ZM168.025 41.9919H169.375V41.3571H168.025V41.9919ZM169.057 41.6744V56.363H169.694V41.6744H169.057ZM169.375 56.0456H168.025V56.6803H169.375V56.0456ZM168.344 56.363V49.6818H167.706V56.363H168.344ZM168.025 49.3645H164.247V49.9991H168.025V49.3645ZM163.928 49.6818V56.363H164.567V49.6818H163.928ZM164.247 56.0456H162.898V56.6803H164.247V56.0456ZM163.217 56.363V41.6744H162.578V56.363H163.217ZM162.898 41.9919H164.247V41.3571H162.898V41.9919ZM171.601 56.363H171.282V56.6803H171.601V56.363ZM171.601 41.6744V41.3571H171.282V41.6744H171.601ZM172.951 41.6744H173.27V41.3571H172.951V41.6744ZM172.951 53.1158H172.632L173.251 53.223L172.951 53.1158ZM176.729 42.6264L177.029 42.7336L177.03 42.7319V42.7303L176.729 42.6264ZM178.591 41.6744H178.912V41.3571H178.591V41.6744ZM178.591 56.363V56.6803H178.912V56.363H178.591ZM177.241 56.363H176.922V56.6803H177.241V56.363ZM177.241 44.9215H177.561L176.941 44.8146L177.241 44.9215ZM173.464 55.4109L173.163 55.304V55.3055V55.3071L173.464 55.4109ZM171.919 56.363V41.6744H171.282V56.363H171.919ZM171.601 41.9919H172.951V41.3571H171.601V41.9919ZM172.632 41.6744V53.1158H173.27V41.6744H172.632ZM173.251 53.223L177.029 42.7336L176.429 42.5195L172.651 53.0089L173.251 53.223ZM177.03 42.7303C177.111 42.4978 177.247 42.3219 177.439 42.1917L177.079 41.6672C176.77 41.877 176.552 42.1659 176.427 42.5227L177.03 42.7303ZM177.439 42.1917C177.635 42.0581 177.852 41.9919 178.097 41.9919V41.3571C177.726 41.3571 177.384 41.4608 177.079 41.6672L177.439 42.1917ZM178.097 41.9919H178.591V41.3571H178.097V41.9919ZM178.272 41.6744V56.363H178.912V41.6744H178.272ZM178.591 56.0456H177.241V56.6803H178.591V56.0456ZM177.561 56.363V44.9215H176.922V56.363H177.561ZM176.941 44.8146L173.163 55.304L173.764 55.5179L177.542 45.0287L176.941 44.8146ZM173.163 55.3071C173.081 55.5396 172.946 55.7155 172.755 55.8457L173.114 56.3701C173.424 56.1604 173.642 55.8716 173.766 55.5148L173.163 55.3071ZM172.755 55.8457C172.557 55.9792 172.342 56.0456 172.097 56.0456V56.6803C172.467 56.6803 172.81 56.5768 173.114 56.3701L172.755 55.8457ZM172.097 56.0456H171.601V56.6803H172.097V56.0456ZM180.483 56.4481L180.183 56.3383L180.025 56.7654H180.483V56.4481ZM182.996 49.6648L183.296 49.7744L183.432 49.4043L183.04 49.3504L182.996 49.6648ZM181.407 48.8658L181.163 49.0713L181.165 49.0746L181.168 49.0777L181.407 48.8658ZM187.303 41.6744H187.622V41.3571H187.303V41.6744ZM187.303 56.363V56.6803H187.622V56.363H187.303ZM185.953 56.363H185.634V56.6803H185.953V56.363ZM185.953 49.6818H186.271V49.3645H185.953V49.6818ZM184.431 49.6818V49.3645H184.206L184.131 49.5747L184.431 49.6818ZM182.398 55.326L182.697 55.4351V55.4342V55.4331L182.398 55.326ZM181.765 56.142L181.583 55.881L181.581 55.8827L181.578 55.8844L181.765 56.142ZM185.953 48.3557V48.6731H186.271V48.3557H185.953ZM185.953 43.0005H186.271V42.6831H185.953V43.0005ZM180.782 56.5577L183.296 49.7744L182.696 49.555L180.183 56.3383L180.782 56.5577ZM183.04 49.3504C182.443 49.2687 181.986 49.0332 181.644 48.6537L181.168 49.0777C181.623 49.5822 182.226 49.8795 182.952 49.9791L183.04 49.3504ZM181.649 48.6601C181.319 48.2742 181.144 47.7734 181.144 47.1317H180.505C180.505 47.8953 180.717 48.5505 181.163 49.0713L181.649 48.6601ZM181.144 47.1317V44.2245H180.505V47.1317H181.144ZM181.144 44.2245C181.144 43.5224 181.355 42.9908 181.751 42.596L181.3 42.1472C180.763 42.6816 180.505 43.3854 180.505 44.2245H181.144ZM181.751 42.596C182.148 42.201 182.683 41.9919 183.388 41.9919V41.3571C182.545 41.3571 181.837 41.6126 181.3 42.1472L181.751 42.596ZM183.388 41.9919H187.303V41.3571H183.388V41.9919ZM186.984 41.6744V56.363H187.622V41.6744H186.984ZM187.303 56.0456H185.953V56.6803H187.303V56.0456ZM186.271 56.363V49.6818H185.634V56.363H186.271ZM185.953 49.3645H184.431V49.9991H185.953V49.3645ZM184.131 49.5747L182.098 55.2188L182.697 55.4331L184.732 49.7888L184.131 49.5747ZM182.098 55.2167C181.996 55.4959 181.824 55.7147 181.583 55.881L181.947 56.4029C182.297 56.1612 182.55 55.836 182.697 55.4351L182.098 55.2167ZM181.578 55.8844C181.35 56.048 181.091 56.1306 180.791 56.1306V56.7654C181.22 56.7654 181.609 56.6441 181.952 56.3995L181.578 55.8844ZM180.791 56.1306H180.483V56.7654H180.791V56.1306ZM183.371 48.6731H185.953V48.0384H183.371V48.6731ZM186.271 48.3557V43.0005H185.634V48.3557H186.271ZM185.953 42.6831H183.371V43.318H185.953V42.6831ZM183.371 42.6831C182.939 42.6831 182.562 42.8131 182.275 43.0992L182.726 43.548C182.872 43.4032 183.074 43.318 183.371 43.318V42.6831ZM182.275 43.0992C181.986 43.3851 181.856 43.761 181.856 44.1905H182.495C182.495 43.8949 182.58 43.6926 182.726 43.548L182.275 43.0992ZM181.856 44.1905V47.1657H182.495V44.1905H181.856ZM181.856 47.1657C181.856 47.5953 181.986 47.9711 182.275 48.257L182.726 47.8084C182.58 47.6636 182.495 47.4613 182.495 47.1657H181.856ZM182.275 48.257C182.562 48.5431 182.939 48.6731 183.371 48.6731V48.0384C183.074 48.0384 182.872 47.953 182.726 47.8084L182.275 48.257ZM103.257 79.164H102.938V79.4813H103.257V79.164ZM103.257 64.4754V64.1581H102.938V64.4754H103.257ZM104.607 64.4754H104.926V64.1581H104.607V64.4754ZM104.607 75.9169H104.288L104.907 76.024L104.607 75.9169ZM108.385 65.4274L108.685 65.5346L108.686 65.5329L108.686 65.5313L108.385 65.4274ZM110.248 64.4754H110.567V64.1581H110.248V64.4754ZM110.248 79.164V79.4813H110.567V79.164H110.248ZM108.897 79.164H108.578V79.4813H108.897V79.164ZM108.897 67.7225H109.217L108.597 67.6156L108.897 67.7225ZM105.12 78.2119L104.819 78.105L104.819 78.1065L104.818 78.1081L105.12 78.2119ZM103.576 79.164V64.4754H102.938V79.164H103.576ZM103.257 64.7929H104.607V64.1581H103.257V64.7929ZM104.288 64.4754V75.9169H104.926V64.4754H104.288ZM104.907 76.024L108.685 65.5346L108.084 65.3205L104.307 75.8099L104.907 76.024ZM108.686 65.5313C108.767 65.2988 108.902 65.1229 109.094 64.9927L108.735 64.4682C108.425 64.678 108.207 64.9669 108.083 65.3238L108.686 65.5313ZM109.094 64.9927C109.291 64.8591 109.508 64.7929 109.752 64.7929V64.1581C109.381 64.1581 109.039 64.2618 108.735 64.4682L109.094 64.9927ZM109.752 64.7929H110.248V64.1581H109.752V64.7929ZM109.929 64.4754V79.164H110.567V64.4754H109.929ZM110.248 78.8466H108.897V79.4813H110.248V78.8466ZM109.217 79.164V67.7225H108.578V79.164H109.217ZM108.597 67.6156L104.819 78.105L105.42 78.3189L109.198 67.8297L108.597 67.6156ZM104.818 78.1081C104.737 78.3406 104.602 78.5165 104.41 78.6467L104.77 79.1711C105.079 78.9614 105.297 78.6726 105.421 78.3158L104.818 78.1081ZM104.41 78.6467C104.213 78.7803 103.997 78.8466 103.752 78.8466V79.4813C104.123 79.4813 104.465 79.3778 104.77 79.1711L104.41 78.6467ZM103.752 78.8466H103.257V79.4813H103.752V78.8466ZM117.386 72.4828V72.1655H117.067V72.4828H117.386ZM117.386 79.164V79.4813H117.705V79.164H117.386ZM116.036 79.164H115.717V79.4813H116.036V79.164ZM116.036 64.4754V64.1581H115.717V64.4754H116.036ZM117.386 71.1567H117.067V71.4741H117.386V71.1567ZM117.386 65.8015V65.4841H117.067V65.8015H117.386ZM119.95 64.7929C120.656 64.7929 121.191 65.002 121.588 65.397L122.039 64.9482C121.502 64.4136 120.794 64.1581 119.95 64.1581V64.7929ZM121.588 65.397C121.985 65.7918 122.195 66.3234 122.195 67.0256H122.833C122.833 66.1864 122.576 65.4826 122.039 64.9482L121.588 65.397ZM122.195 67.0256V69.9327H122.833V67.0256H122.195ZM122.195 69.9327C122.195 70.6348 121.985 71.1664 121.588 71.5614L122.039 72.0102C122.576 71.4757 122.833 70.7719 122.833 69.9327H122.195ZM121.588 71.5614C121.191 71.9562 120.656 72.1655 119.95 72.1655V72.8001C120.794 72.8001 121.502 72.5446 122.039 72.0102L121.588 71.5614ZM119.95 72.1655H117.386V72.8001H119.95V72.1655ZM117.067 72.4828V79.164H117.705V72.4828H117.067ZM117.386 78.8466H116.036V79.4813H117.386V78.8466ZM116.355 79.164V64.4754H115.717V79.164H116.355ZM116.036 64.7929H119.95V64.1581H116.036V64.7929ZM117.386 71.4741H119.967V70.8394H117.386V71.4741ZM119.967 71.4741C120.399 71.4741 120.777 71.3442 121.065 71.0581L120.613 70.6094C120.468 70.754 120.265 70.8394 119.967 70.8394V71.4741ZM121.065 71.0581C121.352 70.7721 121.483 70.3964 121.483 69.9667H120.845C120.845 70.2624 120.759 70.4646 120.613 70.6094L121.065 71.0581ZM121.483 69.9667V66.9915H120.845V69.9667H121.483ZM121.483 66.9915C121.483 66.562 121.352 66.1861 121.065 65.9002L120.613 66.349C120.759 66.4936 120.845 66.6959 120.845 66.9915H121.483ZM121.065 65.9002C120.777 65.6141 120.399 65.4841 119.967 65.4841V66.119C120.265 66.119 120.468 66.2042 120.613 66.349L121.065 65.9002ZM119.967 65.4841H117.386V66.119H119.967V65.4841ZM117.067 65.8015V71.1567H117.705V65.8015H117.067ZM125.755 65.6486L126.068 65.7104L126.068 65.7089L125.755 65.6486ZM127.669 64.4754L127.982 64.4136L127.931 64.1581H127.669V64.4754ZM130.609 79.164V79.4813H130.998L130.922 79.102L130.609 79.164ZM129.173 79.164L128.86 79.225L128.911 79.4813H129.173V79.164ZM128.507 75.7808L128.82 75.7199L128.769 75.4635H128.507V75.7808ZM125.139 75.7808V75.4635H124.877L124.826 75.7199L125.139 75.7808ZM124.473 79.164V79.4813H124.735L124.786 79.225L124.473 79.164ZM123.054 79.164L122.741 79.1021L122.665 79.4813H123.054V79.164ZM128.302 74.4379V74.7552H128.688L128.615 74.3778L128.302 74.4379ZM126.831 66.8556L127.145 66.7955L126.518 66.7947L126.831 66.8556ZM125.344 74.4379L125.031 74.377L124.957 74.7552H125.344V74.4379ZM126.068 65.7089C126.123 65.4253 126.252 65.2088 126.454 65.0431L126.047 64.5538C125.724 64.819 125.523 65.1691 125.441 65.5882L126.068 65.7089ZM126.454 65.0431C126.654 64.8784 126.894 64.7929 127.19 64.7929V64.1581C126.757 64.1581 126.371 64.2879 126.047 64.5538L126.454 65.0431ZM127.19 64.7929H127.669V64.1581H127.19V64.7929ZM127.356 64.5374L130.296 79.226L130.922 79.102L127.982 64.4136L127.356 64.5374ZM130.609 78.8466H129.173V79.4813H130.609V78.8466ZM129.486 79.1029L128.82 75.7199L128.194 75.8419L128.86 79.225L129.486 79.1029ZM128.507 75.4635H125.139V76.0983H128.507V75.4635ZM124.826 75.7199L124.159 79.1029L124.786 79.225L125.452 75.8419L124.826 75.7199ZM124.473 78.8466H123.054V79.4813H124.473V78.8466ZM123.367 79.2258L126.068 65.7104L125.442 65.5866L122.741 79.1021L123.367 79.2258ZM128.615 74.3778L127.145 66.7955L126.518 66.9156L127.988 74.4979L128.615 74.3778ZM126.518 66.7947L125.031 74.377L125.658 74.4987L127.145 66.9164L126.518 66.7947ZM125.344 74.7552H128.302V74.1204H125.344V74.7552ZM136.99 71.8197V71.5024H136.671V71.8197H136.99ZM136.99 71.8367H136.671V72.1541H136.99V71.8367ZM132.22 76.1378L132.076 75.8547L131.901 75.9429V76.1378H132.22ZM133.571 75.4579H133.89V74.9414L133.427 75.1747L133.571 75.4579ZM134.477 72.4828H134.158V72.8001H134.477V72.4828ZM134.477 71.1567V70.8394H134.158V71.1567H134.477ZM133.571 68.1817L133.715 68.4648L133.89 68.3766V68.1817H133.571ZM132.22 68.8617H131.901V69.3781L132.365 69.1448L132.22 68.8617ZM134.784 64.7078H136.135V64.0731H134.784V64.7078ZM136.135 64.7078C136.841 64.7078 137.375 64.9169 137.773 65.3119L138.224 64.863C137.686 64.3286 136.979 64.0731 136.135 64.0731V64.7078ZM137.773 65.3119C138.169 65.7068 138.38 66.2384 138.38 66.9406H139.018C139.018 66.1013 138.761 65.3975 138.224 64.863L137.773 65.3119ZM138.38 66.9406V70.1366H139.018V66.9406H138.38ZM138.38 70.1366C138.38 70.5788 138.249 70.9003 138.012 71.1363L138.463 71.5851C138.841 71.2091 139.018 70.7146 139.018 70.1366H138.38ZM138.012 71.1363C137.775 71.3723 137.451 71.5024 137.007 71.5024V72.1372C137.588 72.1372 138.085 71.9612 138.463 71.5851L138.012 71.1363ZM137.007 71.5024H136.99V72.1372H137.007V71.5024ZM136.671 71.8197V71.8367H137.309V71.8197H136.671ZM136.99 72.1541H137.007V71.5194H136.99V72.1541ZM137.007 72.1541C137.451 72.1541 137.775 72.2842 138.012 72.5201L138.463 72.0713C138.085 71.6952 137.588 71.5194 137.007 71.5194V72.1541ZM138.012 72.5201C138.249 72.7561 138.38 73.0778 138.38 73.5198H139.018C139.018 72.9418 138.841 72.4473 138.463 72.0713L138.012 72.5201ZM138.38 73.5198V76.699H139.018V73.5198H138.38ZM138.38 76.699C138.38 77.4011 138.169 77.9327 137.773 78.3275L138.224 78.7763C138.761 78.2419 139.018 77.5381 139.018 76.699H138.38ZM137.773 78.3275C137.375 78.7225 136.841 78.9316 136.135 78.9316V79.5664C136.979 79.5664 137.686 79.3108 138.224 78.7763L137.773 78.3275ZM136.135 78.9316H134.784V79.5664H136.135V78.9316ZM134.784 78.9316C134.079 78.9316 133.544 78.7225 133.147 78.3275L132.696 78.7763C133.233 79.3108 133.941 79.5664 134.784 79.5664V78.9316ZM133.147 78.3275C132.75 77.9327 132.54 77.4011 132.54 76.699H131.901C131.901 77.5381 132.158 78.2419 132.696 78.7763L133.147 78.3275ZM132.54 76.699V76.1378H131.901V76.699H132.54ZM132.365 76.421L133.715 75.741L133.427 75.1747L132.076 75.8547L132.365 76.421ZM133.252 75.4579V76.7328H133.89V75.4579H133.252ZM133.252 76.7328C133.252 77.1625 133.382 77.5384 133.67 77.8243L134.121 77.3755C133.976 77.2309 133.89 77.0286 133.89 76.7328H133.252ZM133.67 77.8243C133.958 78.1104 134.335 78.2404 134.767 78.2404V77.6055C134.47 77.6055 134.267 77.5201 134.121 77.3755L133.67 77.8243ZM134.767 78.2404H136.152V77.6055H134.767V78.2404ZM136.152 78.2404C136.584 78.2404 136.962 78.1104 137.249 77.8243L136.798 77.3755C136.653 77.5201 136.449 77.6055 136.152 77.6055V78.2404ZM137.249 77.8243C137.537 77.5384 137.668 77.1625 137.668 76.7328H137.029C137.029 77.0286 136.944 77.2309 136.798 77.3755L137.249 77.8243ZM137.668 76.7328V73.6728H137.029V76.7328H137.668ZM137.668 73.6728C137.668 73.2432 137.537 72.8675 137.249 72.5813L136.798 73.0302C136.944 73.1748 137.029 73.377 137.029 73.6728H137.668ZM137.249 72.5813C136.962 72.2954 136.584 72.1655 136.152 72.1655V72.8001C136.449 72.8001 136.653 72.8856 136.798 73.0302L137.249 72.5813ZM136.152 72.1655H134.477V72.8001H136.152V72.1655ZM134.796 72.4828V71.1567H134.158V72.4828H134.796ZM134.477 71.4741H136.152V70.8394H134.477V71.4741ZM136.152 71.4741C136.584 71.4741 136.962 71.3442 137.249 71.0581L136.798 70.6094C136.653 70.754 136.449 70.8394 136.152 70.8394V71.4741ZM137.249 71.0581C137.537 70.7721 137.668 70.3964 137.668 69.9667H137.029C137.029 70.2624 136.944 70.4646 136.798 70.6094L137.249 71.0581ZM137.668 69.9667V66.9065H137.029V69.9667H137.668ZM137.668 66.9065C137.668 66.4769 137.537 66.1012 137.249 65.8151L136.798 66.2639C136.944 66.4087 137.029 66.6108 137.029 66.9065H137.668ZM137.249 65.8151C136.962 65.5291 136.584 65.3992 136.152 65.3992V66.0339C136.449 66.0339 136.653 66.1193 136.798 66.2639L137.249 65.8151ZM136.152 65.3992H134.767V66.0339H136.152V65.3992ZM134.767 65.3992C134.335 65.3992 133.958 65.5291 133.67 65.8151L134.121 66.2639C134.267 66.1193 134.47 66.0339 134.767 66.0339V65.3992ZM133.67 65.8151C133.382 66.1012 133.252 66.4769 133.252 66.9065H133.89C133.89 66.6108 133.976 66.4087 134.121 66.2639L133.67 65.8151ZM133.252 66.9065V68.1817H133.89V66.9065H133.252ZM133.427 67.8985L132.076 68.5785L132.365 69.1448L133.715 68.4648L133.427 67.8985ZM132.54 68.8617V66.9406H131.901V68.8617H132.54ZM132.54 66.9406C132.54 66.2384 132.75 65.7068 133.147 65.3119L132.696 64.863C132.158 65.3975 131.901 66.1013 131.901 66.9406H132.54ZM133.147 65.3119C133.544 64.9169 134.079 64.7078 134.784 64.7078V64.0731C133.941 64.0731 133.233 64.3286 132.696 64.863L133.147 65.3119ZM145.673 71.8197V71.5024H145.354V71.8197H145.673ZM145.673 71.8367H145.354V72.1541H145.673V71.8367ZM140.904 79.164H140.585V79.4813H140.904V79.164ZM140.904 64.4754V64.1581H140.585V64.4754H140.904ZM142.254 71.1567H141.935V71.4741H142.254V71.1567ZM142.254 65.8015V65.4841H141.935V65.8015H142.254ZM142.254 77.8379H141.935V78.1553H142.254V77.8379ZM142.254 72.4828V72.1655H141.935V72.4828H142.254ZM144.818 64.7929C145.524 64.7929 146.059 65.002 146.456 65.397L146.907 64.9482C146.37 64.4136 145.662 64.1581 144.818 64.1581V64.7929ZM146.456 65.397C146.853 65.7918 147.063 66.3234 147.063 67.0256H147.701C147.701 66.1864 147.444 65.4826 146.907 64.9482L146.456 65.397ZM147.063 67.0256V70.1366H147.701V67.0256H147.063ZM147.063 70.1366C147.063 70.5788 146.932 70.9003 146.695 71.1363L147.146 71.5851C147.524 71.2091 147.701 70.7146 147.701 70.1366H147.063ZM146.695 71.1363C146.458 71.3723 146.134 71.5024 145.69 71.5024V72.1372C146.271 72.1372 146.768 71.9612 147.146 71.5851L146.695 71.1363ZM145.69 71.5024H145.673V72.1372H145.69V71.5024ZM145.354 71.8197V71.8367H145.992V71.8197H145.354ZM145.673 72.1541H145.69V71.5194H145.673V72.1541ZM145.69 72.1541C146.134 72.1541 146.458 72.2842 146.695 72.5201L147.146 72.0713C146.768 71.6952 146.271 71.5194 145.69 71.5194V72.1541ZM146.695 72.5201C146.932 72.7561 147.063 73.0778 147.063 73.5198H147.701C147.701 72.9418 147.524 72.4473 147.146 72.0713L146.695 72.5201ZM147.063 73.5198V76.6138H147.701V73.5198H147.063ZM147.063 76.6138C147.063 77.3161 146.853 77.8476 146.456 78.2426L146.907 78.6914C147.444 78.157 147.701 77.4531 147.701 76.6138H147.063ZM146.456 78.2426C146.059 78.6375 145.524 78.8466 144.818 78.8466V79.4813C145.662 79.4813 146.37 79.2258 146.907 78.6914L146.456 78.2426ZM144.818 78.8466H140.904V79.4813H144.818V78.8466ZM141.223 79.164V64.4754H140.585V79.164H141.223ZM140.904 64.7929H144.818V64.1581H140.904V64.7929ZM142.254 71.4741H144.835V70.8394H142.254V71.4741ZM144.835 71.4741C145.267 71.4741 145.645 71.3442 145.933 71.0581L145.481 70.6094C145.336 70.754 145.133 70.8394 144.835 70.8394V71.4741ZM145.933 71.0581C146.22 70.7721 146.351 70.3964 146.351 69.9667H145.713C145.713 70.2624 145.627 70.4646 145.481 70.6094L145.933 71.0581ZM146.351 69.9667V66.9915H145.713V69.9667H146.351ZM146.351 66.9915C146.351 66.562 146.22 66.1861 145.933 65.9002L145.481 66.349C145.627 66.4936 145.713 66.6959 145.713 66.9915H146.351ZM145.933 65.9002C145.645 65.6141 145.267 65.4841 144.835 65.4841V66.119C145.133 66.119 145.336 66.2042 145.481 66.349L145.933 65.9002ZM144.835 65.4841H142.254V66.119H144.835V65.4841ZM141.935 65.8015V71.1567H142.573V65.8015H141.935ZM142.254 78.1553H144.835V77.5206H142.254V78.1553ZM144.835 78.1553C145.267 78.1553 145.645 78.0253 145.933 77.7394L145.481 77.2905C145.336 77.4352 145.133 77.5206 144.835 77.5206V78.1553ZM145.933 77.7394C146.22 77.4533 146.351 77.0775 146.351 76.6479H145.713C145.713 76.9437 145.627 77.1459 145.481 77.2905L145.933 77.7394ZM146.351 76.6479V73.6728H145.713V76.6479H146.351ZM146.351 73.6728C146.351 73.2432 146.22 72.8675 145.933 72.5813L145.481 73.0302C145.627 73.1748 145.713 73.377 145.713 73.6728H146.351ZM145.933 72.5813C145.645 72.2954 145.267 72.1655 144.835 72.1655V72.8001C145.133 72.8001 145.336 72.8856 145.481 73.0302L145.933 72.5813ZM144.835 72.1655H142.254V72.8001H144.835V72.1655ZM141.935 72.4828V77.8379H142.573V72.4828H141.935ZM149.587 79.164H149.268V79.4813H149.587V79.164ZM149.587 64.4754V64.1581H149.268V64.4754H149.587ZM150.937 64.4754H151.256V64.1581H150.937V64.4754ZM150.937 75.9169H150.618L151.238 76.024L150.937 75.9169ZM154.715 65.4274L155.015 65.5346L155.016 65.5329L155.017 65.5313L154.715 65.4274ZM156.578 64.4754H156.897V64.1581H156.578V64.4754ZM156.578 79.164V79.4813H156.897V79.164H156.578ZM155.228 79.164H154.909V79.4813H155.228V79.164ZM155.228 67.7225H155.547L154.927 67.6156L155.228 67.7225ZM151.45 78.2119L151.15 78.105L151.149 78.1065L151.149 78.1081L151.45 78.2119ZM149.906 79.164V64.4754H149.268V79.164H149.906ZM149.587 64.7929H150.937V64.1581H149.587V64.7929ZM150.618 64.4754V75.9169H151.256V64.4754H150.618ZM151.238 76.024L155.015 65.5346L154.415 65.3205L150.637 75.8099L151.238 76.024ZM155.017 65.5313C155.098 65.2988 155.233 65.1229 155.425 64.9927L155.065 64.4682C154.756 64.678 154.538 64.9669 154.413 65.3238L155.017 65.5313ZM155.425 64.9927C155.622 64.8591 155.838 64.7929 156.083 64.7929V64.1581C155.712 64.1581 155.37 64.2618 155.065 64.4682L155.425 64.9927ZM156.083 64.7929H156.578V64.1581H156.083V64.7929ZM156.259 64.4754V79.164H156.897V64.4754H156.259ZM156.578 78.8466H155.228V79.4813H156.578V78.8466ZM155.547 79.164V67.7225H154.909V79.164H155.547ZM154.927 67.6156L151.15 78.105L151.751 78.3189L155.528 67.8297L154.927 67.6156ZM151.149 78.1081C151.068 78.3406 150.933 78.5165 150.74 78.6467L151.1 79.1711C151.409 78.9614 151.627 78.6726 151.752 78.3158L151.149 78.1081ZM150.74 78.6467C150.543 78.7803 150.327 78.8466 150.083 78.8466V79.4813C150.454 79.4813 150.796 79.3778 151.1 79.1711L150.74 78.6467ZM150.083 78.8466H149.587V79.4813H150.083V78.8466ZM158.192 65.8015H157.873V66.119H158.192V65.8015ZM158.192 64.4754V64.1581H157.873V64.4754H158.192ZM164.944 64.4754H165.263V64.1581H164.944V64.4754ZM164.944 65.8015V66.119H165.263V65.8015H164.944ZM162.243 65.8015V65.4841H161.925V65.8015H162.243ZM162.243 79.164V79.4813H162.564V79.164H162.243ZM160.893 79.164H160.574V79.4813H160.893V79.164ZM160.893 65.8015H161.213V65.4841H160.893V65.8015ZM158.513 65.8015V64.4754H157.873V65.8015H158.513ZM158.192 64.7929H164.944V64.1581H158.192V64.7929ZM164.625 64.4754V65.8015H165.263V64.4754H164.625ZM164.944 65.4841H162.243V66.119H164.944V65.4841ZM161.925 65.8015V79.164H162.564V65.8015H161.925ZM162.243 78.8466H160.893V79.4813H162.243V78.8466ZM161.213 79.164V65.8015H160.574V79.164H161.213ZM160.893 65.4841H158.192V66.119H160.893V65.4841ZM166.312 79.164H165.993V79.4813H166.312V79.164ZM166.312 64.4754V64.1581H165.993V64.4754H166.312ZM167.662 64.4754H167.983V64.1581H167.662V64.4754ZM167.662 75.9169H167.344L167.964 76.024L167.662 75.9169ZM171.44 65.4274L171.74 65.5346L171.742 65.5329V65.5313L171.44 65.4274ZM173.304 64.4754H173.623V64.1581H173.304V64.4754ZM173.304 79.164V79.4813H173.623V79.164H173.304ZM171.954 79.164H171.633V79.4813H171.954V79.164ZM171.954 67.7225H172.273L171.652 67.6156L171.954 67.7225ZM168.176 78.2119L167.876 78.105L167.874 78.1065V78.1081L168.176 78.2119ZM166.632 79.164V64.4754H165.993V79.164H166.632ZM166.312 64.7929H167.662V64.1581H166.312V64.7929ZM167.344 64.4754V75.9169H167.983V64.4754H167.344ZM167.964 76.024L171.74 65.5346L171.14 65.3205L167.362 75.8099L167.964 76.024ZM171.742 65.5313C171.823 65.2988 171.959 65.1229 172.15 64.9927L171.791 64.4682C171.481 64.678 171.263 64.9669 171.139 65.3238L171.742 65.5313ZM172.15 64.9927C172.346 64.8591 172.563 64.7929 172.808 64.7929V64.1581C172.437 64.1581 172.095 64.2618 171.791 64.4682L172.15 64.9927ZM172.808 64.7929H173.304V64.1581H172.808V64.7929ZM172.984 64.4754V79.164H173.623V64.4754H172.984ZM173.304 78.8466H171.954V79.4813H173.304V78.8466ZM172.273 79.164V67.7225H171.633V79.164H172.273ZM171.652 67.6156L167.876 78.105L168.476 78.3189L172.254 67.8297L171.652 67.6156ZM167.874 78.1081C167.793 78.3406 167.658 78.5165 167.466 78.6467L167.826 79.1711C168.135 78.9614 168.353 78.6726 168.477 78.3158L167.874 78.1081ZM167.466 78.6467C167.27 78.7803 167.053 78.8466 166.808 78.8466V79.4813C167.179 79.4813 167.521 79.3778 167.826 79.1711L167.466 78.6467ZM166.808 78.8466H166.312V79.4813H166.808V78.8466ZM175.195 79.2491L174.895 79.1393L174.736 79.5664H175.195V79.2491ZM177.707 72.4658L178.007 72.5754L178.144 72.2053L177.751 72.1514L177.707 72.4658ZM176.118 71.6668L175.875 71.8723L175.878 71.8756L175.879 71.8787L176.118 71.6668ZM182.014 64.4754H182.335V64.1581H182.014V64.4754ZM182.014 79.164V79.4813H182.335V79.164H182.014ZM180.664 79.164H180.345V79.4813H180.664V79.164ZM180.664 72.4828H180.984V72.1655H180.664V72.4828ZM179.144 72.4828V72.1655H178.918L178.842 72.3757L179.144 72.4828ZM177.109 78.127L177.409 78.2361V78.2352V78.2341L177.109 78.127ZM176.476 78.943L176.296 78.682L176.292 78.6837L176.291 78.6855L176.476 78.943ZM180.664 71.1567V71.4741H180.984V71.1567H180.664ZM180.664 65.8015H180.984V65.4841H180.664V65.8015ZM175.495 79.3587L178.007 72.5754L177.407 72.356L174.895 79.1393L175.495 79.3587ZM177.751 72.1514C177.156 72.0697 176.698 71.8342 176.355 71.4547L175.879 71.8787C176.335 72.3832 176.938 72.6805 177.663 72.7801L177.751 72.1514ZM176.362 71.4611C176.032 71.0752 175.856 70.5744 175.856 69.9327H175.217C175.217 70.6964 175.429 71.3515 175.875 71.8723L176.362 71.4611ZM175.856 69.9327V67.0256H175.217V69.9327H175.856ZM175.856 67.0256C175.856 66.3234 176.066 65.7918 176.464 65.397L176.011 64.9482C175.474 65.4826 175.217 66.1864 175.217 67.0256H175.856ZM176.464 65.397C176.859 65.002 177.395 64.7929 178.1 64.7929V64.1581C177.257 64.1581 176.548 64.4136 176.011 64.9482L176.464 65.397ZM178.1 64.7929H182.014V64.1581H178.1V64.7929ZM181.696 64.4754V79.164H182.335V64.4754H181.696ZM182.014 78.8466H180.664V79.4813H182.014V78.8466ZM180.984 79.164V72.4828H180.345V79.164H180.984ZM180.664 72.1655H179.144V72.8001H180.664V72.1655ZM178.842 72.3757L176.809 78.0199L177.409 78.2341L179.444 72.5898L178.842 72.3757ZM176.809 78.0177C176.707 78.2969 176.536 78.5157 176.296 78.682L176.658 79.2039C177.01 78.9622 177.261 78.637 177.409 78.2361L176.809 78.0177ZM176.291 78.6855C176.062 78.849 175.802 78.9316 175.503 78.9316V79.5664C175.931 79.5664 176.322 79.4451 176.663 79.2005L176.291 78.6855ZM175.503 78.9316H175.195V79.5664H175.503V78.9316ZM178.084 71.4741H180.664V70.8394H178.084V71.4741ZM180.984 71.1567V65.8015H180.345V71.1567H180.984ZM180.664 65.4841H178.084V66.119H180.664V65.4841ZM178.084 65.4841C177.651 65.4841 177.274 65.6141 176.986 65.9002L177.437 66.349C177.583 66.2042 177.786 66.119 178.084 66.119V65.4841ZM176.986 65.9002C176.699 66.1861 176.567 66.562 176.567 66.9915H177.206C177.206 66.6959 177.291 66.4936 177.437 66.349L176.986 65.9002ZM176.567 66.9915V69.9667H177.206V66.9915H176.567ZM176.567 69.9667C176.567 70.3964 176.699 70.7721 176.986 71.0581L177.437 70.6094C177.291 70.4646 177.206 70.2624 177.206 69.9667H176.567ZM176.986 71.0581C177.274 71.3442 177.651 71.4741 178.084 71.4741V70.8394C177.786 70.8394 177.583 70.754 177.437 70.6094L176.986 71.0581ZM109.735 91.9719L109.591 92.255L110.054 92.4882V91.9719H109.735ZM108.385 91.2918H108.065V91.4868L108.241 91.5749L108.385 91.2918ZM108.385 98.517L108.529 98.2339L108.065 98.0006V98.517H108.385ZM109.735 99.1971H110.054V99.0021L109.879 98.914L109.735 99.1971ZM103.576 99.6561V89.8978H102.938V99.6561H103.576ZM103.576 89.8978C103.576 89.1956 103.786 88.664 104.183 88.2691L103.732 87.8202C103.194 88.3546 102.938 89.0585 102.938 89.8978H103.576ZM104.183 88.2691C104.58 87.8741 105.115 87.665 105.821 87.665V87.0303C104.977 87.0303 104.269 87.2858 103.732 87.8202L104.183 88.2691ZM105.821 87.665H107.171V87.0303H105.821V87.665ZM107.171 87.665C107.877 87.665 108.412 87.8741 108.808 88.2691L109.26 87.8202C108.722 87.2858 108.015 87.0303 107.171 87.0303V87.665ZM108.808 88.2691C109.206 88.664 109.416 89.1956 109.416 89.8978H110.054C110.054 89.0585 109.797 88.3546 109.26 87.8202L108.808 88.2691ZM109.416 89.8978V91.9719H110.054V89.8978H109.416ZM109.879 91.6887L108.529 91.0086L108.241 91.5749L109.591 92.255L109.879 91.6887ZM108.704 91.2918V89.8808H108.065V91.2918H108.704ZM108.704 89.8808C108.704 89.4511 108.573 89.0754 108.285 88.7893L107.834 89.2381C107.98 89.3827 108.065 89.585 108.065 89.8808H108.704ZM108.285 88.7893C107.998 88.5033 107.62 88.3734 107.188 88.3734V89.0081C107.485 89.0081 107.689 89.0935 107.834 89.2381L108.285 88.7893ZM107.188 88.3734H105.804V89.0081H107.188V88.3734ZM105.804 88.3734C105.372 88.3734 104.994 88.5033 104.706 88.7893L105.157 89.2381C105.303 89.0935 105.506 89.0081 105.804 89.0081V88.3734ZM104.706 88.7893C104.419 89.0754 104.288 89.4511 104.288 89.8808H104.926C104.926 89.585 105.012 89.3827 105.157 89.2381L104.706 88.7893ZM104.288 89.8808V99.6732H104.926V89.8808H104.288ZM104.288 99.6732C104.288 100.103 104.419 100.479 104.706 100.764L105.157 100.316C105.012 100.171 104.926 99.9688 104.926 99.6732H104.288ZM104.706 100.764C104.994 101.051 105.372 101.181 105.804 101.181V100.546C105.506 100.546 105.303 100.46 105.157 100.316L104.706 100.764ZM105.804 101.181H107.188V100.546H105.804V101.181ZM107.188 101.181C107.62 101.181 107.998 101.051 108.285 100.764L107.834 100.316C107.689 100.46 107.485 100.546 107.188 100.546V101.181ZM108.285 100.764C108.573 100.479 108.704 100.103 108.704 99.6732H108.065C108.065 99.9688 107.98 100.171 107.834 100.316L108.285 100.764ZM108.704 99.6732V98.517H108.065V99.6732H108.704ZM108.241 98.8002L109.591 99.4803L109.879 98.914L108.529 98.2339L108.241 98.8002ZM109.416 99.1971V99.6561H110.054V99.1971H109.416ZM109.416 99.6561C109.416 100.358 109.206 100.89 108.808 101.285L109.26 101.734C109.797 101.199 110.054 100.495 110.054 99.6561H109.416ZM108.808 101.285C108.412 101.68 107.877 101.889 107.171 101.889V102.524C108.015 102.524 108.722 102.268 109.26 101.734L108.808 101.285ZM107.171 101.889H105.821V102.524H107.171V101.889ZM105.821 101.889C105.115 101.889 104.58 101.68 104.183 101.285L103.732 101.734C104.269 102.268 104.977 102.524 105.821 102.524V101.889ZM104.183 101.285C103.786 100.89 103.576 100.358 103.576 99.6561H102.938C102.938 100.495 103.194 101.199 103.732 101.734L104.183 101.285ZM118.349 87.4326H118.668V87.1153H118.349V87.4326ZM118.349 102.121V102.438H118.668V102.121H118.349ZM116.998 102.121H116.679V102.438H116.998V102.121ZM116.998 88.7587H117.318V88.4413H116.998V88.7587ZM113.05 88.7587V88.4413H112.731V88.7587H113.05ZM113.05 102.121V102.438H113.369V102.121H113.05ZM111.699 102.121H111.38V102.438H111.699V102.121ZM111.699 87.4326V87.1153H111.38V87.4326H111.699ZM118.03 87.4326V102.121H118.668V87.4326H118.03ZM118.349 101.804H116.998V102.438H118.349V101.804ZM117.318 102.121V88.7587H116.679V102.121H117.318ZM116.998 88.4413H113.05V89.0761H116.998V88.4413ZM112.731 88.7587V102.121H113.369V88.7587H112.731ZM113.05 101.804H111.699V102.438H113.05V101.804ZM112.019 102.121V87.4326H111.38V102.121H112.019ZM111.699 87.7501H118.349V87.1153H111.699V87.7501ZM120.716 89.8978C120.716 89.1956 120.927 88.664 121.324 88.2691L120.873 87.8202C120.335 88.3546 120.078 89.0585 120.078 89.8978H120.716ZM121.324 88.2691C121.721 87.8741 122.255 87.665 122.961 87.665V87.0303C122.118 87.0303 121.41 87.2858 120.873 87.8202L121.324 88.2691ZM122.961 87.665H124.483V87.0303H122.961V87.665ZM124.483 87.665C125.189 87.665 125.723 87.8741 126.12 88.2691L126.572 87.8202C126.034 87.2858 125.327 87.0303 124.483 87.0303V87.665ZM126.12 88.2691C126.517 88.664 126.728 89.1956 126.728 89.8978H127.366C127.366 89.0585 127.109 88.3546 126.572 87.8202L126.12 88.2691ZM126.728 89.8978V99.6561H127.366V89.8978H126.728ZM126.728 99.6561C126.728 100.358 126.517 100.89 126.12 101.285L126.572 101.734C127.109 101.199 127.366 100.495 127.366 99.6561H126.728ZM126.12 101.285C125.723 101.68 125.189 101.889 124.483 101.889V102.524C125.327 102.524 126.034 102.268 126.572 101.734L126.12 101.285ZM124.483 101.889H122.961V102.524H124.483V101.889ZM122.961 101.889C122.255 101.889 121.721 101.68 121.324 101.285L120.873 101.734C121.41 102.268 122.118 102.524 122.961 102.524V101.889ZM121.324 101.285C120.927 100.89 120.716 100.358 120.716 99.6561H120.078C120.078 100.495 120.335 101.199 120.873 101.734L121.324 101.285ZM120.716 99.6561V89.8978H120.078V99.6561H120.716ZM122.944 101.181H124.5V100.546H122.944V101.181ZM124.5 101.181C124.932 101.181 125.31 101.051 125.597 100.764L125.146 100.316C125 100.46 124.797 100.546 124.5 100.546V101.181ZM125.597 100.764C125.885 100.479 126.015 100.103 126.015 99.6732H125.377C125.377 99.9688 125.291 100.171 125.146 100.316L125.597 100.764ZM126.015 99.6732V89.8808H125.377V99.6732H126.015ZM126.015 89.8808C126.015 89.4511 125.885 89.0754 125.597 88.7893L125.146 89.2381C125.291 89.3827 125.377 89.585 125.377 89.8808H126.015ZM125.597 88.7893C125.31 88.5033 124.932 88.3734 124.5 88.3734V89.0081C124.797 89.0081 125 89.0935 125.146 89.2381L125.597 88.7893ZM124.5 88.3734H122.944V89.0081H124.5V88.3734ZM122.944 88.3734C122.512 88.3734 122.135 88.5033 121.847 88.7893L122.298 89.2381C122.444 89.0935 122.647 89.0081 122.944 89.0081V88.3734ZM121.847 88.7893C121.559 89.0754 121.429 89.4511 121.429 89.8808H122.067C122.067 89.585 122.153 89.3827 122.298 89.2381L121.847 88.7893ZM121.429 89.8808V99.6732H122.067V89.8808H121.429ZM121.429 99.6732C121.429 100.103 121.559 100.479 121.847 100.764L122.298 100.316C122.153 100.171 122.067 99.9688 122.067 99.6732H121.429ZM121.847 100.764C122.135 101.051 122.512 101.181 122.944 101.181V100.546C122.647 100.546 122.444 100.46 122.298 100.316L121.847 100.764ZM130.276 95.44V95.1226H129.957V95.44H130.276ZM130.276 102.121V102.438H130.595V102.121H130.276ZM128.926 102.121H128.607V102.438H128.926V102.121ZM128.926 87.4326V87.1153H128.607V87.4326H128.926ZM130.276 94.1139H129.957V94.4313H130.276V94.1139ZM130.276 88.7587V88.4413H129.957V88.7587H130.276ZM132.84 87.7501C133.546 87.7501 134.081 87.9592 134.478 88.3542L134.929 87.9053C134.392 87.3708 133.684 87.1153 132.84 87.1153V87.7501ZM134.478 88.3542C134.875 88.749 135.085 89.2806 135.085 89.9827H135.723C135.723 89.1436 135.466 88.4398 134.929 87.9053L134.478 88.3542ZM135.085 89.9827V92.8899H135.723V89.9827H135.085ZM135.085 92.8899C135.085 93.592 134.875 94.1236 134.478 94.5186L134.929 94.9674C135.466 94.4328 135.723 93.7291 135.723 92.8899H135.085ZM134.478 94.5186C134.081 94.9134 133.546 95.1226 132.84 95.1226V95.7573C133.684 95.7573 134.392 95.5018 134.929 94.9674L134.478 94.5186ZM132.84 95.1226H130.276V95.7573H132.84V95.1226ZM129.957 95.44V102.121H130.595V95.44H129.957ZM130.276 101.804H128.926V102.438H130.276V101.804ZM129.245 102.121V87.4326H128.607V102.121H129.245ZM128.926 87.7501H132.84V87.1153H128.926V87.7501ZM130.276 94.4313H132.857V93.7966H130.276V94.4313ZM132.857 94.4313C133.289 94.4313 133.667 94.3013 133.955 94.0152L133.503 93.5666C133.358 93.7112 133.155 93.7966 132.857 93.7966V94.4313ZM133.955 94.0152C134.242 93.7293 134.373 93.3535 134.373 92.9239H133.735C133.735 93.2195 133.649 93.4218 133.503 93.5666L133.955 94.0152ZM134.373 92.9239V89.9487H133.735V92.9239H134.373ZM134.373 89.9487C134.373 89.5192 134.242 89.1433 133.955 88.8574L133.503 89.3062C133.649 89.4508 133.735 89.6531 133.735 89.9487H134.373ZM133.955 88.8574C133.667 88.5713 133.289 88.4413 132.857 88.4413V89.0761C133.155 89.0761 133.358 89.1614 133.503 89.3062L133.955 88.8574ZM132.857 88.4413H130.276V89.0761H132.857V88.4413ZM129.957 88.7587V94.1139H130.595V88.7587H129.957ZM136.65 88.7587H136.331V89.0761H136.65V88.7587ZM136.65 87.4326V87.1153H136.331V87.4326H136.65ZM143.402 87.4326H143.721V87.1153H143.402V87.4326ZM143.402 88.7587V89.0761H143.721V88.7587H143.402ZM140.701 88.7587V88.4413H140.382V88.7587H140.701ZM140.701 102.121V102.438H141.02V102.121H140.701ZM139.351 102.121H139.032V102.438H139.351V102.121ZM139.351 88.7587H139.67V88.4413H139.351V88.7587ZM136.969 88.7587V87.4326H136.331V88.7587H136.969ZM136.65 87.7501H143.402V87.1153H136.65V87.7501ZM143.083 87.4326V88.7587H143.721V87.4326H143.083ZM143.402 88.4413H140.701V89.0761H143.402V88.4413ZM140.382 88.7587V102.121H141.02V88.7587H140.382ZM140.701 101.804H139.351V102.438H140.701V101.804ZM139.67 102.121V88.7587H139.032V102.121H139.67ZM139.351 88.4413H136.65V89.0761H139.351V88.4413ZM146.006 88.6058L146.319 88.6676L146.319 88.6661L146.006 88.6058ZM147.92 87.4326L148.233 87.3708L148.182 87.1153H147.92V87.4326ZM150.86 102.121V102.438H151.249L151.173 102.059L150.86 102.121ZM149.424 102.121L149.111 102.182L149.162 102.438H149.424V102.121ZM148.758 98.738L149.071 98.6771L149.02 98.4207H148.758V98.738ZM145.39 98.738V98.4207H145.128L145.077 98.6771L145.39 98.738ZM144.724 102.121V102.438H144.986L145.037 102.182L144.724 102.121ZM143.305 102.121L142.992 102.059L142.916 102.438H143.305V102.121ZM148.553 97.3951V97.7124H148.939L148.866 97.335L148.553 97.3951ZM147.083 89.8128L147.396 89.7527L146.769 89.7519L147.083 89.8128ZM145.595 97.3951L145.282 97.3342L145.208 97.7124H145.595V97.3951ZM146.319 88.6661C146.374 88.3824 146.503 88.166 146.705 88.0003L146.298 87.511C145.975 87.7762 145.774 88.1263 145.692 88.5453L146.319 88.6661ZM146.705 88.0003C146.905 87.8355 147.145 87.7501 147.441 87.7501V87.1153C147.008 87.1153 146.622 87.245 146.298 87.511L146.705 88.0003ZM147.441 87.7501H147.92V87.1153H147.441V87.7501ZM147.607 87.4946L150.547 102.183L151.173 102.059L148.233 87.3708L147.607 87.4946ZM150.86 101.804H149.424V102.438H150.86V101.804ZM149.737 102.06L149.071 98.6771L148.445 98.7991L149.111 102.182L149.737 102.06ZM148.758 98.4207H145.39V99.0555H148.758V98.4207ZM145.077 98.6771L144.41 102.06L145.037 102.182L145.703 98.7991L145.077 98.6771ZM144.724 101.804H143.305V102.438H144.724V101.804ZM143.618 102.183L146.319 88.6676L145.693 88.5438L142.992 102.059L143.618 102.183ZM148.866 97.335L147.396 89.7527L146.769 89.8728L148.239 97.4551L148.866 97.335ZM146.769 89.7519L145.282 97.3342L145.909 97.4558L147.396 89.8736L146.769 89.7519ZM145.595 97.7124H148.553V97.0776H145.595V97.7124Z" fill="#EDF2F6" />
    </g>
    <path d="M51.2669 122.258C47.7599 123.234 47.6908 122.912 43.8761 122.912C26.979 122.912 13.2369 115.073 5.86719 100.588C11.1293 103.036 16.9881 104.404 23.1644 104.404C28.5464 104.404 33.688 103.364 38.4035 101.476C42.7714 96.2298 45.8807 89.8841 47.262 82.9126C53.4438 90.156 57.1789 99.5497 57.1789 109.816C57.1789 113.743 56.1495 118.355 54.7117 122.584C53.7405 122.12 51.6001 121.338 51.2669 122.258Z" fill="#EDF2F6" />
    <path d="M31.6931 44.9954L31.1467 44.9772C29.3151 44.9067 23.1959 45.6915 21.5368 45.4989C20.8452 45.4185 22.6359 44.8661 23.8785 44.3058C25.2228 43.653 26.5269 42.9293 27.7853 42.1392C39.102 35.035 46.7636 22.5671 47.27 8.27435C47.2876 7.77315 47.2967 7.26903 47.2967 6.76308L47.2653 5.10818C46.7381 1.05633 55.9238 -0.893606 55.6143 7.53452C55.4899 24.1241 45.7297 38.416 31.6931 44.9954Z" fill="#EDF2F6" />
    <path d="M40.6268 32.5288C41.6285 31.0673 42.8005 29.3499 43.8407 27.831C39.6556 25.9585 35.8365 23.4071 32.522 20.3145C30.3409 21.4932 28.2764 22.8625 26.3516 24.4019C30.4761 28.0023 35.316 30.7915 40.6268 32.5288Z" fill="#EDF2F6" />
    <path d="M26.2938 50.5512C20.7414 50.5512 15.3574 49.8325 10.2266 48.4868C10.6176 46.5952 11.136 44.7507 11.7726 42.9627C15.8584 44.0106 20.1378 44.5694 24.5475 44.5694C44.7218 44.5694 62.1942 32.8959 70.693 15.8951C73.8913 9.03855 80.5441 18.2837 77.8392 23.9629C66.3448 40.0644 47.5377 50.5512 26.2938 50.5512Z" fill="#EDF2F6" />
    <path d="M43.6942 124C31.6342 124 20.7098 119.07 12.7985 111.1C4.89132 103.134 0 92.1342 0 79.9905V44.0095C0 31.8658 4.89132 20.8659 12.7985 12.9002C20.7098 4.93011 31.6342 0 43.6942 0C47.8258 0 51.8241 0.578649 55.6139 1.66007V6.31316L55.6125 6.64954C51.8568 5.43514 47.852 4.77906 43.6942 4.77906C32.9389 4.77906 23.2054 9.16685 16.164 16.2606C9.11857 23.3579 4.76021 33.1689 4.76021 44.0095V79.9905C4.76021 90.8311 9.11857 100.642 16.164 107.739C23.2054 114.833 32.9389 119.221 43.6942 119.221C48.0964 119.221 52.3273 118.484 56.2725 117.128C55.8754 118.996 55.3525 120.818 54.7129 122.584C51.1926 123.508 47.5 124 43.6942 124ZM68.8211 109.956C69.6516 109.248 70.4525 108.505 71.2211 107.73C78.2687 100.626 82.6285 90.8081 82.6285 79.9653V44.0095C82.6285 33.1691 78.2701 23.3584 71.2244 16.2606C71.0702 16.1049 70.9141 15.9507 70.7571 15.7981C70.7945 15.7264 70.9747 15.3673 71.1027 15.0628C71.8622 13.5838 72.2323 12.8074 72.851 11.2502C72.851 11.2502 72.8104 11.2044 72.9592 11.3399C73.5159 11.8456 74.06 12.3662 74.5899 12.9002C82.4974 20.8662 87.3887 31.866 87.3887 44.0095V79.9653C87.3887 92.1108 82.496 103.118 74.5866 111.091C72.9339 112.756 71.1493 114.289 69.2509 115.672C69.2368 113.732 69.0908 111.824 68.8211 109.956Z" fill="#EDF2F6" />
    <path fill-rule="evenodd" clip-rule="evenodd" d="M48.3778 52.3029C58.1601 48.2309 67.9425 44.1589 77.7242 40.0864L77.9368 40.6077C79.7702 45.1041 77.6398 50.2416 73.1766 52.0762C72.5194 52.3462 71.8529 52.5325 71.1871 52.6393C69.423 52.8314 67.5698 52.5776 65.9597 51.8046C65.9564 51.8029 65.957 51.8036 65.9607 51.8066C69.2758 58.9233 74.818 72.4856 75.5988 87.5044C76.2046 99.1592 75.1267 105.8 69.2514 115.672C69.247 115.542 69.2428 115.414 69.2385 115.288C69.153 112.756 69.0927 110.969 68.5257 108.495C64.2731 89.941 47.9763 75.7157 28.3882 75.7157C25.7149 75.7157 23.1017 75.9729 20.57 76.462C17.994 73.498 15.8288 70.1627 14.1641 66.5461C25.5682 61.7978 36.9731 57.0504 48.3778 52.3029ZM39.5001 62.8398L48.0644 59.2693V65.6601C45.3245 64.4776 42.4616 63.529 39.5001 62.8398Z" fill="#EDF2F6" />
</svg>