<svg xmlns="http://www.w3.org/2000/svg" width="81" height="81" viewBox="0 0 81 81" fill="none">
    <path d="M40.5156 0.281738C32.5611 0.281738 24.7852 2.64053 18.1713 7.05982C11.5574 11.4791 6.40243 17.7604 3.35836 25.1094C0.314301 32.4585 -0.482164 40.5451 1.06969 48.3468C2.62153 56.1485 6.452 63.3148 12.0767 68.9394C17.7014 74.5641 24.8677 78.3946 32.6694 79.9465C40.471 81.4983 48.5577 80.7018 55.9067 77.6578C63.2557 74.6137 69.537 69.4588 73.9563 62.8448C78.3756 56.2309 80.7344 48.455 80.7344 40.5005C80.7211 29.8379 76.4795 19.6158 68.9399 12.0762C61.4003 4.53663 51.1782 0.295042 40.5156 0.281738ZM54.6077 43.076L36.0452 55.451C35.5361 55.7885 34.9389 55.9687 34.3281 55.9692C33.5076 55.9692 32.7207 55.6433 32.1405 55.0631C31.5603 54.4829 31.2344 53.696 31.2344 52.8755V28.1255C31.234 27.5653 31.3858 27.0154 31.6735 26.5347C31.9612 26.054 32.374 25.6604 32.8679 25.396C33.3618 25.1316 33.9183 25.0062 34.4779 25.0334C35.0374 25.0605 35.5791 25.239 36.0452 25.5499L54.6077 37.9249C55.032 38.2074 55.38 38.5902 55.6208 39.0396C55.8615 39.4889 55.9874 39.9907 55.9874 40.5005C55.9874 41.0102 55.8615 41.5121 55.6208 41.9614C55.38 42.4107 55.032 42.7936 54.6077 43.076Z" fill="#007AFB" />
</svg>