<svg width="49" height="48" viewBox="0 0 49 48" fill="none" xmlns="http://www.w3.org/2000/svg">
<path d="M48.622 44.6885C45.0524 38.5174 39.5517 34.0924 33.1321 31.9948C36.3075 30.1044 38.7746 27.224 40.1545 23.7958C41.5344 20.3677 41.7508 16.5813 40.7705 13.0183C39.7903 9.45518 37.6675 6.3124 34.7282 4.07255C31.7888 1.8327 28.1956 0.619629 24.5001 0.619629C20.8046 0.619629 17.2113 1.8327 14.272 4.07255C11.3327 6.3124 9.20992 9.45518 8.22963 13.0183C7.24935 16.5813 7.46578 20.3677 8.84568 23.7958C10.2256 27.224 12.6927 30.1044 15.8681 31.9948C9.44852 34.0901 3.94774 38.5151 0.37821 44.6885C0.247309 44.902 0.160483 45.1395 0.122856 45.387C0.0852283 45.6345 0.0975611 45.8871 0.159127 46.1298C0.220692 46.3725 0.330243 46.6004 0.481316 46.8001C0.632389 46.9998 0.821924 47.1671 1.03874 47.2924C1.25555 47.4176 1.49525 47.4982 1.7437 47.5293C1.99214 47.5604 2.2443 47.5414 2.48529 47.4734C2.72628 47.4055 2.95123 47.29 3.14685 47.1337C3.34248 46.9774 3.50482 46.7836 3.6243 46.5635C8.03993 38.9323 15.8446 34.376 24.5001 34.376C33.1556 34.376 40.9603 38.9323 45.3759 46.5635C45.4954 46.7836 45.6577 46.9774 45.8533 47.1337C46.049 47.29 46.2739 47.4055 46.5149 47.4734C46.7559 47.5414 47.008 47.5604 47.2565 47.5293C47.5049 47.4982 47.7446 47.4176 47.9614 47.2924C48.1783 47.1671 48.3678 46.9998 48.5189 46.8001C48.6699 46.6004 48.7795 46.3725 48.841 46.1298C48.9026 45.8871 48.9149 45.6345 48.8773 45.387C48.8397 45.1395 48.7529 44.902 48.622 44.6885ZM11.3751 17.501C11.3751 14.9051 12.1449 12.3675 13.587 10.2091C15.0292 8.05075 17.0791 6.36849 19.4774 5.37509C21.8756 4.38169 24.5147 4.12177 27.0607 4.6282C29.6067 5.13463 31.9453 6.38467 33.7809 8.22023C35.6164 10.0558 36.8665 12.3944 37.3729 14.9404C37.8793 17.4865 37.6194 20.1255 36.626 22.5237C35.6326 24.922 33.9503 26.9719 31.792 28.4141C29.6336 29.8562 27.096 30.626 24.5001 30.626C21.0203 30.6223 17.684 29.2383 15.2234 26.7777C12.7628 24.3171 11.3788 20.9808 11.3751 17.501Z" fill="#076EFF"/>
</svg>
