<svg width="60" height="60" viewBox="0 0 60 60" fill="none" xmlns="http://www.w3.org/2000/svg">
<g clip-path="url(#clip0_300_28725)">
<path d="M20.3122 45.18C22.4725 44.6576 24.5516 43.8435 26.4922 42.76C20.5648 37.6954 16.8419 30.5222 16.1122 22.76C15.5655 15.1272 17.5706 7.5292 21.8122 1.16C16.8827 2.55785 12.3934 5.19498 8.77216 8.82L10.1522 23.4C10.9439 31.6095 14.5306 39.2982 20.3122 45.18Z" fill="#FF5542"/>
<path d="M15.6122 46C10.2521 39.7424 6.95522 31.9821 6.17216 23.78L5.15216 13.18C2.10585 17.6829 0.340385 22.9289 0.0444787 28.3574C-0.251427 33.7858 0.933344 39.1927 3.47216 44C7.32735 45.534 11.4686 46.2162 15.6122 46Z" fill="#FF5542"/>
<path d="M48.5922 29.84C47.0378 28.2973 45.2978 26.9537 43.4122 25.84C42.4659 30.7928 40.2776 35.4241 37.0524 39.3001C33.8271 43.176 29.6705 46.1695 24.9722 48C19.2412 50.2416 12.9657 50.6949 6.97216 49.3C10.7304 53.8124 15.7304 57.1225 21.3522 58.82L34.5722 49.62C41.3919 44.846 46.3464 37.856 48.5922 29.84Z" fill="#FF5542"/>
<path d="M20.8122 13.2C20.278 15.3529 20.0028 17.5619 19.9922 19.78C25.4505 17.8116 31.3645 17.4784 37.0094 18.8212C42.6543 20.1641 47.7849 23.1246 51.7722 27.34C54.8416 30.5404 57.2177 34.3396 58.7522 38.5C59.5735 35.7414 59.9912 32.8783 59.9922 30C59.99 27.2114 59.5927 24.4371 58.8122 21.76L45.2722 15.4C37.6324 11.8089 28.9701 11.0298 20.8122 13.2Z" fill="#FF5542"/>
<path d="M46.9722 11.78L56.6722 16.32C54.156 11.4092 50.3342 7.28748 45.6271 4.40818C40.92 1.52888 35.51 0.00356758 29.9922 0C29.0922 0 28.2122 1.04308e-07 27.3322 0.14C25.2596 2.77229 23.5509 5.67167 22.2522 8.76C30.6028 7.08924 39.2694 8.14802 46.9722 11.78Z" fill="#FF5542"/>
<path d="M36.8522 52.8L26.8522 59.82C27.8947 59.9373 28.943 59.9974 29.9922 60C35.3591 59.9955 40.6266 58.5513 45.2455 55.818C49.8643 53.0847 53.6653 49.1624 56.2522 44.46C55.4812 40.5029 53.8941 36.7498 51.5922 33.44C48.824 41.2758 43.6689 48.0466 36.8522 52.8Z" fill="#FF5542"/>
<path d="M20.3122 24C21.3343 30.5158 24.7945 36.3997 29.9922 40.46C35.2112 36.4154 38.6824 30.5251 39.6922 24C33.4801 21.4689 26.5242 21.4689 20.3122 24Z" fill="#FF5542"/>
</g>
<defs>
<clipPath id="clip0_300_28725">
<rect width="60" height="60" fill="white"/>
</clipPath>
</defs>
</svg>
