<svg xmlns="http://www.w3.org/2000/svg" width="148" height="164" viewBox="0 0 148 164" fill="none">
    <g clip-path="url(#clip0_1458_2512)">
        <path d="M136.066 67.3183C126.557 54.1609 112.489 45.4809 96.4632 42.8863C95.5654 42.7484 94.6443 42.6105 93.7233 42.5186V0.749653L0.496094 24.0109V66.9738L3.05184 66.331V80.6827L0.496094 81.3255V124.312L27.7113 117.515C28.3329 119.949 29.0928 122.337 29.9907 124.656L30.106 124.955C37.9574 144.794 55.9168 159.261 76.9612 162.659C80.1848 163.187 83.4774 163.44 86.7468 163.44C101.022 163.44 114.952 158.342 125.935 149.111C137.056 139.765 144.447 126.746 146.772 112.463C149.374 96.4811 145.575 80.4301 136.043 67.2724L136.066 67.3183Z" fill="black" />
        <path d="M82.0261 92.6455L64.1128 97.192V102.703L76.6384 99.5343L64.0439 114.667C63.0767 115.815 63.3993 117.629 64.7345 118.547C65.8859 119.328 67.3825 119.167 68.2114 118.18L80.921 102.91V114.988L86.6313 113.542V96.3194C86.6313 93.9545 84.3058 92.0943 82.0261 92.6686V92.6455Z" fill="#00C0B3" />
        <path d="M125.202 85.1827V103.782L119.492 105.229V84.7925C119.492 83.5523 120.298 82.519 121.472 82.2207C123.314 81.7614 125.225 83.254 125.225 85.1827H125.202ZM38.0536 103.782V125.827L43.7635 124.38V107.847L55.437 104.885L49.2205 112.348C48.3226 113.427 48.4377 115.126 49.5888 116.113C50.74 117.101 52.4209 117.009 53.3188 115.953L61.0551 106.653C63.8182 103.323 60.3413 98.1566 56.0587 99.2358L38.0304 103.805L38.0536 103.782ZM110.006 85.5732L91.9773 90.1425V112.187L97.6876 110.74V94.2069L109.361 91.2449L101.28 100.935L110.144 107.066C111.295 107.847 112.792 107.686 113.621 106.699C114.588 105.551 114.265 103.737 112.93 102.818L109.039 100.132L114.979 93.0129C117.742 89.6835 114.265 84.5168 109.983 85.596L110.006 85.5732ZM140.767 111.521C136.415 138.295 113.114 157.377 86.7508 157.377C83.8497 157.377 80.9026 157.148 77.9555 156.666C61.6307 154.025 48.1612 144.38 40.1026 131.315L45.1912 130.213C47.7928 134.116 50.9472 137.675 54.5392 140.729C66.1898 142.406 73.834 141.832 77.3338 138.984C66.6503 137.767 55.4831 134.713 45.2372 130.213L49.6578 129.248V129.179L53.4109 128.238C61.7 131.269 70.7486 133.473 79.6593 134.3C79.9584 131.154 78.8765 127.044 76.9194 122.29L81.6622 121.096C83.6886 126.217 84.8169 130.787 84.5175 134.621C88.7079 134.782 92.8294 134.598 96.7897 134.047C97.4804 128.949 97.7566 123.209 97.6186 117.055L102.477 115.815C102.684 122.015 102.454 127.824 101.832 133.083C105.355 132.233 108.717 131.062 111.825 129.455C112.285 127.044 113.505 124.311 114.91 121.234C116.154 118.479 117.581 115.31 118.801 111.682L124.396 110.258C122.946 115.31 121.012 119.604 119.377 123.232C119.124 123.806 118.847 124.38 118.617 124.954C127.067 117.859 131.695 107.043 132.455 92.6687C132.823 85.5041 130.797 78.4089 126.445 72.6909C123.775 69.2008 120.666 66.0319 117.144 63.3453C119.653 67.7999 121.564 72.0253 122.992 76.0437C122.002 75.9518 120.989 76.0437 119.999 76.2732C119.837 76.3192 119.124 76.503 118.018 76.7784C115.877 70.946 112.608 64.6081 107.888 57.7195C103.812 55.8136 99.4375 54.4358 94.7865 53.6779C91.6783 53.1727 88.5929 52.9892 85.5536 53.058C90.5729 61.118 94.6712 71.0608 97.5954 82.0368C96.0527 82.4273 94.4411 82.8407 92.8062 83.2768C89.7669 71.9334 85.4385 61.7148 80.2578 53.8846V35.7902L82.8136 35.1471V14.8022L11.5058 32.5752V52.9432L14.0617 52.3001V89.2471L11.5058 89.8902V110.258L31.906 105.16V110.189L6.60156 116.504V86.0784L9.15745 85.4353V58.523L6.60156 59.1661V28.7635L87.6258 8.55639V38.982L85.1159 39.602V48.2129C88.5236 48.121 92.0005 48.3276 95.5003 48.8788C125.294 53.7011 145.602 81.8073 140.767 111.521ZM95.9377 139.076C93.1749 139.397 90.2967 139.581 87.3264 139.581C85.968 139.581 84.5865 139.535 83.182 139.467C82.9977 139.788 82.8136 140.132 82.6064 140.431C79.8204 144.541 74.3635 146.539 65.7982 146.539C64.9004 146.539 63.9333 146.539 62.9662 146.47C67.7554 149.065 73.0512 150.925 78.7382 151.843C81.4321 152.28 84.103 152.486 86.7508 152.486C88.0631 152.486 89.3525 152.417 90.6419 152.325C92.9445 149.409 94.7404 144.817 95.9377 139.053V139.076ZM120.873 138.961C116.407 138.203 113.805 136.849 112.515 134.667C112.515 134.621 112.469 134.598 112.469 134.552C108.993 136.16 105.171 137.4 101.072 138.227C100.128 143.416 98.7237 147.894 96.9509 151.407C106 149.501 114.265 145.138 120.897 138.938L120.873 138.961ZM136.53 100.407C134.366 114.368 128.172 124.816 117.972 131.521C117.581 131.774 117.19 132.027 116.775 132.256C117.259 132.945 119.008 134.047 125.041 134.552C130.567 127.939 134.458 119.81 135.932 110.717C136.507 107.227 136.668 103.782 136.507 100.384L136.53 100.407ZM63.795 25.8243L76.62 22.6096V30.4167L74.0641 31.0598V80.5671L76.62 79.9243V87.7545L63.795 90.9695V83.1389L66.3509 82.4961V61.646L58.6607 63.5748V84.4249L61.2163 83.782V91.5894L48.3916 94.8041V86.9967L50.9472 86.3539V39.51L56.0819 35.5835L48.3916 37.4894V29.682L61.2163 26.4674V34.2745L58.6607 34.9176V55.7677L66.3509 53.8386V32.9886L63.795 33.6317V25.8243ZM32.9882 41.324L35.5438 40.6812V61.5313L27.8535 63.46V42.6099L30.4094 41.9671V34.1597L17.5844 37.3744V45.1818L25.2747 43.2759L20.1403 47.2024V94.0462L17.5844 94.6893V102.496L30.4094 99.2818V91.4744L27.8535 92.1175V71.2674L35.5438 69.3384V90.1885L32.9882 90.8316V98.6618L45.8128 95.4472V87.6167L43.2569 88.2598V38.7522L45.8128 38.1094V30.302L32.9882 33.5169V41.324Z" fill="white" />
    </g>
    <defs>
        <clipPath id="clip0_1458_2512">
            <rect width="147.267" height="162.933" fill="white" transform="translate(0.367188 0.533333)" />
        </clipPath>
    </defs>
</svg>