<svg xmlns="http://www.w3.org/2000/svg" width="85" height="117" viewBox="0 0 85 117" fill="none">
    <g clip-path="url(#clip0_13_1970)">
        <g filter="url(#filter0_d_13_1970)">
            <path d="M0.260742 22.9519V-0.471191H84.533V22.9519C84.533 73.7001 73.7968 90.0708 42.3969 116.972C11.0033 90.0772 0.260742 73.7259 0.260742 22.9519Z" fill="white" />
            <path d="M82.6234 1.44092V22.9517C82.6234 72.4486 72.1566 88.9603 42.3996 114.45C12.6488 88.9603 2.17578 72.4486 2.17578 22.9517V1.44092H82.6169H82.6234Z" fill="#002F6C" />
            <path d="M45.2477 11.0215C46.775 11.0215 47.8659 12.5167 47.3912 13.967L43.9579 24.5364H40.1075L42.5139 17.1308L31.5595 24.5235C30.8409 25.0048 29.8783 24.87 29.3199 24.209C28.6782 23.439 28.8386 22.2839 29.6665 21.7255L40.5246 14.4034H32.0921L33.1896 11.0215H45.2477Z" fill="#41B6E6" />
            <path d="M73.6168 13.1393L69.914 24.5428H66.0636L70.1322 12.0098C70.376 11.259 71.0819 10.7456 71.8712 10.7456C73.1162 10.7456 73.9954 11.9585 73.6103 13.1393H73.6168ZM15.662 11.0215L11.2725 24.5365H15.1229L18.4149 14.4035H26.2763L20.9242 18.0164C20.1477 18.5362 19.891 19.5951 20.4043 20.3781C20.9177 21.1609 21.9894 21.3727 22.7594 20.8529L29.4271 16.3544C31.8079 14.7501 30.6721 11.0215 27.797 11.028H15.662V11.0215ZM64.087 11.0215H51.952L47.5624 24.5365H51.4129L54.7049 14.4035H62.5661L55.6098 19.0946L59.9093 24.2283C60.4677 24.8894 61.4302 25.0241 62.1491 24.5428C62.9832 23.9846 63.1437 22.823 62.4954 22.0593L60.6024 19.8004L65.7171 16.3544C68.0979 14.7501 66.9621 11.0215 64.087 11.028V11.0215Z" fill="white" />
            <path d="M38.5684 29.3248H28.9938V43.6097L21.3315 48.7758V29.3185H11.7568V47.3768C11.7568 51.2978 12.1482 55.2123 12.9505 59.0435L38.5684 41.7617V29.312V29.3248Z" fill="white" />
            <path d="M12.9492 59.0558C13.0712 59.6463 13.2059 60.2302 13.3471 60.8142C14.5663 65.8454 16.1321 70.3182 18.0702 74.4445C19.052 76.5431 20.143 78.5581 21.3367 80.5218V58.0162L28.999 52.8503V90.9242C31.8418 94.2163 35.0312 97.4572 38.5736 100.775V41.7676L12.9555 59.0494L12.9492 59.0558Z" fill="#41B6E6" />
            <path d="M73.0524 29.3242H63.4713V43.6156L55.809 48.7817V29.3242H46.2344V59.8579L73.0524 41.7739V29.3242Z" fill="white" />
            <path d="M46.2344 59.858V100.781C49.7768 97.4634 52.9662 94.2227 55.809 90.9306V58.0226L63.4713 52.8566V80.5282C64.6649 78.5643 65.7494 76.5493 66.7378 74.4509C68.6757 70.3246 70.2351 65.8453 71.4609 60.8205C72.5326 56.4245 73.0524 51.9133 73.0524 47.389V41.7803L46.2409 59.8643L46.2344 59.858Z" fill="#41B6E6" />
        </g>
    </g>
    <defs>
        <filter id="filter0_d_13_1970" x="-16.5218" y="-24.6768" width="123.001" height="156.172" filterUnits="userSpaceOnUse" color-interpolation-filters="sRGB">
            <feFlood flood-opacity="0" result="BackgroundImageFix" />
            <feColorMatrix in="SourceAlpha" type="matrix" values="0 0 0 0 0 0 0 0 0 0 0 0 0 0 0 0 0 0 127 0" result="hardAlpha" />
            <feOffset dx="2.58193" dy="-4.84111" />
            <feGaussianBlur stdDeviation="9.68223" />
            <feComposite in2="hardAlpha" operator="out" />
            <feColorMatrix type="matrix" values="0 0 0 0 1 0 0 0 0 1 0 0 0 0 1 0 0 0 0.2 0" />
            <feBlend mode="normal" in2="BackgroundImageFix" result="effect1_dropShadow_13_1970" />
            <feBlend mode="normal" in="SourceGraphic" in2="effect1_dropShadow_13_1970" result="shape" />
        </filter>
        <clipPath id="clip0_13_1970">
            <rect width="84.7241" height="117" fill="white" />
        </clipPath>
    </defs>
  </svg>