<svg xmlns="http://www.w3.org/2000/svg" width="100" height="116" viewBox="0 0 100 116" fill="none">
    <g clip-path="url(#clip0_1_2238)">
        <path d="M17.9931 108.04C18.6385 106.892 18.8002 106.026 18.4893 105.393C18.3642 105.133 18.1933 105.064 18.0716 105.052C17.8916 105.035 17.722 105.127 17.5728 105.324C16.8952 106.208 15.9153 107.924 14.578 110.567C14.1845 110.599 13.6739 110.673 13.054 110.787C12.7332 110.846 12.459 110.895 12.2319 110.934C12.4178 110.592 12.6383 110.19 12.8917 109.728C13.3074 108.97 13.5843 108.464 13.7388 108.176C14.3292 107.035 14.4575 106.183 14.1315 105.571C14.0038 105.329 13.8363 105.266 13.7185 105.256C13.5443 105.241 13.382 105.326 13.2386 105.51L13.2307 105.519C12.9093 105.968 12.4276 106.779 11.7998 107.929C11.2094 109.009 10.6615 110.074 10.1698 111.094C10.1247 111.091 10.0736 111.087 10.0186 111.081C9.81244 111.061 9.74498 111.057 9.71155 111.056C9.56361 111.045 9.35742 111.051 9.22716 111.203C9.15779 111.283 9.06478 111.462 9.21999 111.739C9.32148 111.931 9.46081 112.093 9.63692 112.222C9.17355 113.259 9.08114 113.518 9.05499 113.618C8.80557 114.492 8.84557 115.141 9.17677 115.602C9.30572 115.791 9.45103 115.837 9.56039 115.837C9.57341 115.837 9.58594 115.837 9.59764 115.834C9.76981 115.819 9.90401 115.7 9.99499 115.486C10.4094 114.532 10.863 113.563 11.3436 112.599C11.6224 112.578 12.2475 112.512 13.7348 112.331C13.5403 112.747 13.395 113.095 13.3008 113.369C13.0167 114.216 13.0461 114.889 13.3839 115.36C13.5326 115.584 13.6995 115.617 13.814 115.605C13.9286 115.594 14.0876 115.528 14.1891 115.283C14.6545 114.228 15.1652 113.169 15.7065 112.131C15.9428 112.126 16.1549 112.142 16.3362 112.18L16.3552 112.184C16.5293 112.209 16.6674 112.172 16.767 112.073C16.8645 111.975 16.9018 111.838 16.8776 111.666L16.8684 111.623C16.78 111.319 16.6131 111.077 16.3723 110.902C16.6014 110.49 16.8822 109.996 17.2101 109.428C17.6101 108.735 17.8739 108.268 17.9944 108.041" fill="#006628" />
        <path d="M26.2439 107.222C26.0416 106.44 25.5958 105.884 24.9182 105.568C24.3291 104.992 23.5141 104.875 22.4897 105.222C22.3306 105.28 22.1676 105.351 21.9999 105.437C21.6505 105.616 21.2838 105.857 20.9055 106.156C20.3556 106.591 19.8228 107.118 19.3213 107.724C18.8147 108.336 18.3898 109.063 18.0593 109.883C17.7255 110.711 17.5565 111.551 17.5565 112.381C17.5565 114.033 18.2294 115.117 19.5564 115.603C19.9478 115.745 20.336 115.817 20.7203 115.817C21.153 115.817 21.5804 115.726 21.9999 115.547C22.2606 115.435 22.5185 115.29 22.7732 115.111C23.753 114.417 24.6165 113.395 25.3411 112.073C25.7627 111.298 26.0697 110.482 26.2543 109.647C26.4422 108.793 26.439 107.978 26.2439 107.222ZM24.5739 108.979C24.3972 109.749 24.0863 110.544 23.6496 111.341C23.1553 112.245 22.6023 112.978 22.0007 113.532C21.8514 113.67 21.6995 113.796 21.5445 113.91C20.8223 114.443 20.2404 114.623 19.8103 114.437C19.5577 114.334 19.3861 114.051 19.3017 113.597C19.2055 113.078 19.2513 112.433 19.4399 111.679C19.6303 110.915 19.9622 110.161 20.4244 109.441C20.9075 108.697 21.4357 108.075 21.9999 107.582C22.2161 107.393 22.4366 107.223 22.6625 107.073C23.412 106.575 23.8598 106.455 24.1177 106.455C24.206 106.455 24.2722 106.47 24.3199 106.487C24.5026 106.552 24.6321 106.778 24.7049 107.158C24.7913 107.61 24.7468 108.223 24.5733 108.978L24.5739 108.979Z" fill="#006628" />
        <path d="M33.9568 109.565C34.6167 108.535 34.7862 107.543 34.4609 106.617C34.1021 105.595 33.35 105.075 32.2758 105.11C32.0159 105.125 31.6742 105.189 31.2402 105.304C31.0084 105.365 30.7505 105.441 30.4658 105.532C29.7038 105.775 29.1121 105.918 28.7055 105.957C28.4608 105.973 28.3422 106.088 28.286 106.182C28.2283 106.277 28.1832 106.441 28.2924 106.673C28.4529 107.021 28.72 107.267 29.076 107.402C28.4595 108.388 27.8584 109.464 27.2877 110.606C26.6402 111.9 26.2088 112.923 26.0047 113.651C25.7756 114.479 25.8476 115.099 26.218 115.494L26.2252 115.502C26.3555 115.631 26.4786 115.667 26.5761 115.667C26.6082 115.667 26.637 115.663 26.6625 115.657C26.7646 115.635 26.9021 115.563 26.9813 115.349C27.4657 114.199 27.9102 113.222 28.3029 112.437C28.5753 112.53 28.8738 112.55 29.1972 112.495C29.9211 112.358 30.6052 112.135 31.2402 111.829C31.5112 111.699 31.773 111.553 32.0257 111.392C32.8747 110.853 33.5241 110.238 33.9568 109.565ZM31.2409 109.851C30.6582 110.223 29.984 110.51 29.222 110.711C29.351 110.483 29.4989 110.223 29.6679 109.93C30.0769 109.22 30.1882 109.029 30.2105 108.991C30.581 108.36 30.7885 107.817 30.8389 107.34C30.9509 107.304 31.0844 107.258 31.2409 107.204L31.3095 107.179C31.5996 107.076 31.845 106.993 32.0394 106.932C32.2234 106.875 32.4257 106.828 32.6416 106.793C32.8158 106.766 32.9606 106.771 33.06 106.809C33.1091 106.827 33.1641 106.86 33.2047 106.968C33.3997 107.483 33.0724 108.183 32.2306 109.048C31.938 109.349 31.6074 109.618 31.2402 109.851L31.2409 109.851Z" fill="#006628" />
        <path d="M43.9598 105.403C43.7719 105.216 43.5913 105.19 43.4755 105.201C43.3033 105.217 43.154 105.316 43.0264 105.502C42.4994 106.324 41.5534 107.593 40.2134 109.273C39.4836 110.189 38.8591 111.006 38.3432 111.722C38.7171 110.436 39.1026 109.201 39.4947 108.03C39.6997 107.35 39.767 106.838 39.6997 106.467C39.6296 106.079 39.4018 105.717 39.0182 105.385C38.8185 105.218 38.6359 105.204 38.5187 105.221C38.3432 105.246 38.1908 105.352 38.0658 105.537C37.203 106.699 36.2394 108.154 35.1992 109.862C34.1394 111.604 33.4814 112.824 33.1882 113.591C32.8406 114.497 32.8707 115.177 33.2779 115.615C33.4134 115.77 33.547 115.811 33.6504 115.811C33.6733 115.811 33.6942 115.809 33.7139 115.806C33.8206 115.788 33.9673 115.721 34.0588 115.498C34.65 114.17 35.6142 112.451 36.9346 110.372C36.5995 111.55 36.3591 112.585 36.2158 113.465C36.0835 114.312 36.2394 114.973 36.6779 115.433L36.6615 115.493L36.691 115.446C36.7657 115.522 36.8474 115.593 36.9385 115.659C37.1002 115.776 37.2461 115.77 37.3397 115.748C37.4831 115.71 37.597 115.606 37.6775 115.439C38.3387 114.21 39.318 112.75 40.6004 111.077C40.0787 112.196 39.7467 113.044 39.5962 113.641C39.3422 114.64 39.4313 115.3 39.8679 115.659C40.0388 115.809 40.1926 115.813 40.2927 115.79C40.3922 115.767 40.5271 115.695 40.6076 115.49L40.6108 115.48C41.2962 113.516 42.4569 111.018 44.0593 108.056C44.6544 106.967 44.6217 106.074 43.9591 105.402" fill="#006628" />
        <path d="M50.7926 106.023C50.6997 105.792 50.5655 105.554 50.392 105.312C50.2447 105.113 50.0739 105.054 49.9567 105.039C49.7681 105.016 49.5757 105.084 49.3819 105.242C48.8092 105.712 48.1827 106.358 47.5117 107.169C47.2545 107.48 46.9906 107.816 46.7209 108.175C45.8012 109.401 44.9921 110.607 44.3139 111.766C44.1712 111.752 44.0056 111.731 43.819 111.704L43.8021 111.702C43.7104 111.693 43.4675 111.672 43.3248 111.842C43.1677 112.03 43.2673 112.275 43.3019 112.362C43.3876 112.561 43.5218 112.735 43.7026 112.877C43.5848 113.107 43.4806 113.336 43.3916 113.562C43.0656 114.427 43.0532 115.044 43.3523 115.451L43.3602 115.461C43.4596 115.585 43.5985 115.655 43.7496 115.655C43.931 115.655 44.0868 115.544 44.1628 115.367C44.4534 114.74 44.8219 114.042 45.2592 113.286C45.58 113.281 46.067 113.244 46.7393 113.173C47.0378 113.142 47.2957 113.116 47.5117 113.095C47.6538 113.082 47.7782 113.07 47.8835 113.06C47.862 113.357 47.8508 113.646 47.8508 113.924C47.8626 114.835 48.1205 115.409 48.6122 115.625C48.709 115.67 48.7934 115.687 48.8654 115.687C48.961 115.687 49.0343 115.657 49.0868 115.624C49.1764 115.567 49.2838 115.449 49.2857 115.214C49.3138 114.596 49.38 113.861 49.4834 113.023C49.6012 113.038 49.708 113.058 49.8016 113.083C50.0281 113.16 50.1707 113.094 50.2506 113.023C50.3318 112.953 50.4175 112.819 50.3685 112.593C50.2912 112.176 50.0627 111.86 49.7014 111.665C49.9587 110.239 50.3279 108.798 50.7991 107.381C50.9707 106.88 50.9681 106.42 50.7933 106.023M48.0806 111.479C47.9228 111.491 47.7342 111.508 47.5124 111.531C47.3461 111.548 47.1609 111.568 46.9559 111.592C46.7033 111.621 46.4814 111.647 46.2903 111.667C46.6941 111.056 47.1019 110.47 47.5124 109.908C47.9176 109.354 48.3254 108.826 48.7351 108.323C48.4819 109.237 48.2632 110.293 48.0806 111.479V111.479Z" fill="#006628" />
        <path d="M59.9391 108.041C60.5846 106.892 60.7462 106.025 60.4352 105.394C60.3102 105.134 60.1393 105.065 60.0177 105.053C59.8376 105.035 59.6681 105.127 59.5188 105.325C58.8413 106.209 57.8614 107.925 56.5239 110.567C56.1312 110.6 55.62 110.673 55.0001 110.788C54.6793 110.847 54.4044 110.896 54.1772 110.935C54.3651 110.589 54.5857 110.186 54.8364 109.728C55.2619 108.953 55.5303 108.461 55.6835 108.176C56.2746 107.036 56.4029 106.183 56.0762 105.571C55.9486 105.33 55.781 105.267 55.6632 105.257C55.4884 105.241 55.3267 105.327 55.1826 105.511L55.1749 105.521C54.8527 105.969 54.371 106.78 53.7432 107.929C53.1541 109.009 52.6062 110.072 52.1132 111.095C52.0674 111.091 52.017 111.087 51.9621 111.081C51.7636 111.062 51.6916 111.057 51.655 111.056C51.507 111.045 51.3008 111.051 51.1706 111.203C51.1005 111.284 51.0082 111.462 51.1634 111.74C51.2642 111.932 51.4042 112.094 51.5803 112.222C51.1215 113.248 51.0266 113.511 50.9984 113.618C50.749 114.492 50.789 115.141 51.1202 115.602C51.2491 115.79 51.3944 115.837 51.5038 115.837C51.5168 115.837 51.5294 115.837 51.5411 115.834C51.7132 115.819 51.8474 115.7 51.9384 115.486C52.3541 114.531 52.8071 113.56 53.287 112.599C53.5665 112.578 54.1909 112.512 55.6782 112.331C55.4845 112.747 55.3384 113.095 55.2442 113.369C54.9608 114.216 54.9903 114.889 55.3273 115.36C55.4766 115.584 55.6442 115.616 55.7581 115.605C55.8726 115.594 56.0317 115.528 56.1331 115.283C56.5985 114.228 57.1085 113.168 57.6505 112.131C57.8875 112.126 58.099 112.142 58.2802 112.18L58.2992 112.183C58.4727 112.208 58.6116 112.172 58.711 112.073C58.8086 111.975 58.8459 111.837 58.821 111.665L58.8118 111.623C58.7234 111.318 58.5572 111.077 58.3163 110.902C58.5447 110.491 58.8256 109.996 59.1535 109.428C59.5542 108.736 59.8173 108.269 59.9378 108.041" fill="#006628" />
        <path d="M66.8655 105.568C66.2757 104.992 65.4613 104.875 64.4369 105.222C64.2778 105.28 64.1148 105.351 63.9479 105.437C63.5983 105.616 63.2317 105.857 62.8528 106.156C62.3028 106.591 61.77 107.119 61.2686 107.724C60.7619 108.336 60.3377 109.063 60.0065 109.883C59.6727 110.711 59.5037 111.551 59.5037 112.381C59.5037 114.033 60.176 115.117 61.5036 115.603C61.8951 115.745 62.2839 115.817 62.6682 115.817C63.1009 115.817 63.5276 115.726 63.9479 115.547C64.2078 115.435 64.4657 115.29 64.7204 115.111C65.7002 114.417 66.5637 113.395 67.2883 112.073C67.7099 111.298 68.0176 110.482 68.2016 109.647C68.3901 108.793 68.3862 107.977 68.1911 107.222C67.9888 106.439 67.543 105.883 66.8661 105.568M66.5212 108.979C66.3444 109.749 66.0335 110.544 65.5976 111.341C65.1027 112.245 64.5495 112.978 63.9486 113.532C63.7993 113.67 63.6468 113.796 63.4923 113.91C62.7703 114.443 62.1883 114.623 61.7583 114.437C61.5055 114.334 61.3347 114.051 61.2496 113.597C61.1527 113.078 61.1991 112.434 61.3877 111.679C61.5782 110.915 61.9101 110.162 62.3729 109.441C62.856 108.698 63.3843 108.076 63.9492 107.582C64.1646 107.394 64.3858 107.224 64.6117 107.074C65.3606 106.575 65.809 106.456 66.0669 106.456C66.1545 106.456 66.2207 106.47 66.2692 106.487C66.4518 106.553 66.5814 106.779 66.6541 107.158C66.7398 107.61 66.696 108.223 66.5218 108.979L66.5212 108.979Z" fill="#006628" />
        <path d="M77.0859 106.137C77.0859 105.911 77.0466 105.698 76.9693 105.506C76.8274 105.153 76.6159 105.078 76.4627 105.078C76.21 105.078 75.9481 105.078 73.7958 109.035C73.3364 109.88 72.9088 110.528 72.5259 110.965C72.1842 111.354 71.8314 111.542 71.4484 111.542C71.2914 111.542 71.1414 111.482 70.9929 111.355C70.8573 111.241 70.7944 111.089 70.7944 110.875C70.7944 110.725 70.8305 110.556 70.9005 110.373C70.9764 110.173 71.0655 109.994 71.1637 109.84C71.2743 109.667 71.4406 109.405 71.6618 109.053C71.8818 108.705 72.0788 108.383 72.2517 108.094C72.6765 107.359 72.8919 106.702 72.8919 106.137C72.8919 105.91 72.8526 105.698 72.7753 105.505C72.6326 105.151 72.4218 105.078 72.2693 105.078C72.1508 105.078 71.978 105.126 71.8301 105.347C71.7757 105.422 71.6559 105.596 71.4635 105.879C71.2743 106.156 71.1401 106.352 71.0615 106.467C70.983 106.582 70.8566 106.769 70.6826 107.025C70.5025 107.291 70.3722 107.495 70.2839 107.648C70.2001 107.794 70.0901 107.981 69.9546 108.209C69.8099 108.452 69.7033 108.654 69.63 108.823C69.5625 108.977 69.4892 109.152 69.4061 109.356C69.3197 109.567 69.258 109.765 69.2234 109.946C69.1887 110.127 69.1704 110.297 69.1704 110.451C69.1704 111.134 69.4355 111.685 69.9591 112.089C70.4593 112.476 71.0773 112.672 71.7953 112.672C71.872 112.672 71.9492 112.669 72.0265 112.662C71.6716 113.547 71.504 114.138 71.504 114.5C71.504 114.804 71.5649 115.064 71.6854 115.277C71.7483 115.389 71.9152 115.685 72.2058 115.685C72.3079 115.685 72.4938 115.643 72.6005 115.37C73.3514 113.691 74.6455 111.242 76.4464 108.093C76.877 107.349 77.0866 106.709 77.0866 106.136" fill="#006628" />
        <path d="M84.123 107.447C84.6297 106.755 84.811 106.114 84.6611 105.542L84.6453 105.496C84.5446 105.267 84.3927 105.2 84.2833 105.184C84.1734 105.167 84.0059 105.189 83.8356 105.384C82.5166 106.805 80.9855 108.208 79.2697 109.566C79.4923 109.163 79.7561 108.687 80.0611 108.135C80.6679 107.031 80.7858 106.184 80.4199 105.543C80.2792 105.302 80.1083 105.242 79.9898 105.234C79.8726 105.227 79.6972 105.264 79.5257 105.487C79.0281 106.176 78.2845 107.495 77.2542 109.52C76.2219 111.548 75.619 112.871 75.4121 113.564C75.1529 114.422 75.1948 115.092 75.5392 115.562C75.6642 115.727 75.8003 115.768 75.9038 115.768C75.9181 115.768 75.9312 115.766 75.9443 115.766C76.0543 115.756 76.2068 115.693 76.3162 115.461L76.32 115.452C76.7803 114.378 77.2417 113.386 77.6968 112.494C78.3657 113.495 78.9555 114.485 79.4544 115.441L79.4602 115.452C79.5787 115.658 79.7305 115.713 79.836 115.722C79.9407 115.732 80.0972 115.706 80.247 115.528L80.2542 115.518C80.6405 115.018 80.6536 114.33 80.2929 113.469C80.1318 113.099 79.8078 112.523 79.3044 111.711C80.266 111.022 81.2021 110.279 82.0911 109.496C83.073 108.633 83.7367 107.963 84.123 107.446" fill="#006628" />
        <path d="M90.073 106.023C89.98 105.792 89.8458 105.554 89.6724 105.312C89.5244 105.113 89.3535 105.054 89.2371 105.039C89.0499 105.016 88.8561 105.083 88.6623 105.242C88.0895 105.712 87.463 106.358 86.7921 107.169C86.5348 107.48 86.2711 107.816 86.0014 108.175C85.0809 109.401 84.2725 110.608 83.5943 111.766C83.4517 111.752 83.286 111.731 83.0995 111.704L83.0811 111.702C82.9895 111.694 82.7466 111.672 82.6046 111.842C82.4474 112.03 82.5463 112.275 82.5816 112.362C82.6674 112.561 82.8016 112.735 82.9823 112.877C82.8645 113.108 82.7604 113.336 82.6713 113.563C82.3454 114.428 82.3329 115.045 82.632 115.452L82.6399 115.462C82.7401 115.587 82.8782 115.655 83.0294 115.655C83.1164 115.655 83.3312 115.626 83.4425 115.367C83.7325 114.741 84.1009 114.043 84.5383 113.287C84.8584 113.282 85.3461 113.244 86.0183 113.174C86.3168 113.142 86.5747 113.116 86.7908 113.096C86.9329 113.082 87.0566 113.071 87.1626 113.06C87.141 113.358 87.1299 113.647 87.1299 113.925C87.1423 114.836 87.3996 115.409 87.8912 115.626C87.9881 115.672 88.0725 115.688 88.1445 115.688C88.24 115.688 88.3135 115.658 88.3658 115.625C88.4561 115.568 88.5628 115.451 88.5654 115.215C88.5936 114.596 88.6597 113.861 88.7631 113.025C88.881 113.038 88.987 113.058 89.0813 113.084C89.3078 113.16 89.4505 113.094 89.5303 113.025C89.6115 112.953 89.6973 112.82 89.6482 112.595C89.5709 112.177 89.3424 111.86 88.9811 111.666C89.2384 110.24 89.6069 108.799 90.0783 107.382C90.2504 106.881 90.2478 106.421 90.073 106.024M87.3603 111.48C87.2025 111.491 87.014 111.508 86.7921 111.531C86.6258 111.548 86.4406 111.568 86.2356 111.592C85.983 111.622 85.7604 111.647 85.57 111.668C85.9732 111.057 86.3816 110.471 86.7921 109.909C87.1974 109.356 87.6051 108.827 88.0143 108.324C87.7616 109.239 87.5423 110.294 87.3603 111.48Z" fill="#006628" />
        <path d="M4.04944 109.924C3.89172 110.153 3.73065 110.082 3.73065 110.082C3.70785 110.066 3.68684 110.052 3.66785 110.04L3.73531 109.864C3.7968 109.869 3.8368 109.824 3.80993 109.686C3.72612 109.423 3.50153 109.18 3.17236 109.209C3.13308 109.205 3.08914 109.208 3.04855 109.216C2.96151 109.23 2.87578 109.267 2.79662 109.364C2.67937 109.506 2.68797 109.655 2.68797 109.655L2.68988 109.657C2.68916 109.676 2.68916 109.695 2.68988 109.713C2.66039 110.038 2.90265 110.26 3.16448 110.344C3.35754 110.38 3.36805 110.29 3.31504 110.193H3.51144C3.60696 110.344 3.52386 110.447 3.41187 110.559C3.29211 110.677 3.36674 110.723 3.57162 110.717C4.00956 110.599 4.09601 110.337 4.14054 110.173C4.18496 109.97 4.13063 109.854 4.04944 109.924Z" fill="#F4A8BB" />
        <path d="M1.40764 109.084C1.59879 109.024 2.00927 109.233 2.21606 109.369C2.42166 109.506 2.44519 109.453 2.53425 109.369C2.61807 109.278 2.53485 109.21 2.53485 109.21C2.53485 109.21 2.35946 108.999 1.91757 108.554C1.50196 107.997 2.34764 108.721 2.53425 109.051C2.66583 109.284 2.766 109.138 2.85376 109.051C2.93745 108.943 2.86749 108.902 2.85376 108.892C2.31755 108.191 2.69329 107.622 2.69329 107.622C2.56172 107.341 2.3523 107.327 2.21547 107.305C2.07804 107.282 1.67472 107.262 1.17852 107.225C0.965155 107.241 0.78451 107.37 0.76875 107.593C0.739259 108.001 0.850656 108.549 0.859133 108.654C0.896384 109.111 1.27737 109.122 1.40704 109.083" fill="#F4A8BB" />
        <path d="M2.61361 110.559C2.65814 110.305 2.6437 110.157 2.42114 110.21C2.1993 110.261 1.4975 110.558 1.4975 110.558C1.4975 110.558 1.35613 110.433 1.81569 110.242C2.27584 110.051 2.6942 109.979 2.45326 109.766C2.45326 109.766 2.01341 109.267 1.49618 109.29C1.3633 109.294 1.12248 109.283 0.896578 109.438C0.736827 109.548 0.593552 109.772 0.459949 110.004C0.217814 110.487 0.0180652 110.964 0.539228 111.195C1.06612 111.425 1.79467 111.679 2.14558 111.365C2.36682 111.158 2.55606 110.824 2.61301 110.56" fill="#F4A8BB" />
        <path d="M3.33292 109.051C3.32695 109.051 3.40288 109.026 3.45004 108.935C3.5489 108.746 3.68048 108.384 3.81145 108.099C4.10003 107.495 3.71713 108.819 3.65098 109.052C3.58615 109.284 3.65098 109.21 3.65098 109.21C3.65098 109.21 3.79569 109.196 4.36915 108.972C5.30653 108.644 4.93867 107.861 4.69844 107.216C4.48365 106.497 4.10075 106.73 4.04965 106.75C3.88405 106.785 3.3519 107.008 3.09269 107.226C2.27041 108.055 3.09269 108.972 3.09269 108.972C3.2183 109.066 3.26737 109.057 3.33292 109.051Z" fill="#F4A8BB" />
        <path d="M6.20309 109.051C5.94245 108.795 5.61124 108.652 5.40505 108.576C5.19885 108.499 5.0791 108.662 5.08626 108.735C4.95791 109.178 4.05002 109.29 4.05002 109.29C3.92502 109.326 3.97015 109.42 3.96955 109.529C3.96955 109.639 4.04943 109.608 4.04943 109.608C4.04943 109.608 4.30792 109.598 4.76747 109.529C5.18118 109.505 4.90227 109.694 4.44869 109.688C4.20846 109.684 4.34326 110.127 4.28894 110.323C4.26339 110.418 4.33872 110.472 4.60772 110.482C5.00245 110.486 5.20673 110.422 5.5648 110.164C6.45239 109.42 6.24882 109.079 6.20369 109.053" fill="#F4A8BB" />
        <path d="M3.80997 110.797C3.62216 110.909 3.25227 110.876 3.25227 110.876C3.17634 110.852 3.13706 110.932 3.09252 111.194C3.04417 111.5 2.87785 111.434 3.01205 110.798C3.12786 110.25 2.77242 110.56 2.77242 110.56C2.77242 110.56 2.64419 110.877 2.62783 110.979C2.59046 111.176 2.43143 111.462 2.294 111.513C2.04518 111.546 2.00065 111.626 1.9751 111.671C1.9751 111.987 2.08578 112.216 2.37376 112.544C2.66317 112.871 2.90209 112.733 3.33155 112.385C3.75959 112.038 3.95408 111.437 3.96972 111.115C3.98417 110.794 3.85319 110.773 3.80997 110.797Z" fill="#F4A8BB" />
        <path d="M97.5389 109.924C97.381 110.153 97.22 110.082 97.22 110.082C97.1971 110.066 97.1768 110.052 97.1571 110.04L97.2246 109.864C97.2861 109.869 97.3254 109.824 97.2992 109.686C97.2161 109.423 96.9909 109.18 96.6617 109.209C96.6224 109.205 96.5784 109.208 96.538 109.216C96.4515 109.23 96.3651 109.267 96.2859 109.364C96.1687 109.506 96.1773 109.655 96.1773 109.655L96.1792 109.657C96.1786 109.676 96.1786 109.695 96.1798 109.713C96.1504 110.038 96.3925 110.26 96.6538 110.344C96.8468 110.38 96.8573 110.29 96.8043 110.193H97.0007C97.0963 110.344 97.0132 110.447 96.9012 110.559C96.7821 110.677 96.856 110.723 97.0609 110.717C97.4983 110.599 97.5846 110.337 97.6298 110.173C97.6742 109.97 97.6199 109.854 97.5389 109.924Z" fill="#F4A8BB" />
        <path d="M94.8965 109.084C95.0876 109.024 95.4974 109.233 95.7049 109.369C95.9105 109.506 95.934 109.453 96.0231 109.369C96.1069 109.278 96.0237 109.21 96.0237 109.21C96.0237 109.21 95.8483 108.999 95.4064 108.554C94.9914 107.997 95.8365 108.721 96.0237 109.051C96.1552 109.284 96.2554 109.138 96.3432 109.051C96.427 108.943 96.3569 108.902 96.3432 108.892C95.8071 108.191 96.1828 107.622 96.1828 107.622C96.0512 107.341 95.8417 107.327 95.7049 107.305C95.5675 107.282 95.1643 107.262 94.668 107.225C94.4546 107.241 94.2739 107.37 94.2583 107.593C94.2294 108.001 94.3401 108.549 94.3485 108.654C94.3852 109.111 94.7669 109.122 94.8965 109.083" fill="#F4A8BB" />
        <path d="M96.1039 110.559C96.1491 110.305 96.1341 110.157 95.9114 110.21C95.6896 110.261 94.9877 110.558 94.9877 110.558C94.9877 110.558 94.8464 110.433 95.3059 110.242C95.7661 110.051 96.1844 109.979 95.9442 109.766C95.9442 109.766 95.5037 109.267 94.9871 109.29C94.8549 109.294 94.6133 109.283 94.3875 109.438C94.2278 109.548 94.0844 109.772 93.9509 110.004C93.7087 110.487 93.509 110.964 94.0301 111.195C94.5564 111.425 95.2856 111.679 95.6365 111.365C95.8584 111.158 96.0476 110.824 96.1046 110.56" fill="#F4A8BB" />
        <path d="M96.8222 109.051C96.8164 109.051 96.8917 109.026 96.9395 108.935C97.0376 108.746 97.1692 108.384 97.3008 108.099C97.5895 107.495 97.2066 108.819 97.141 109.052C97.0756 109.284 97.141 109.21 97.141 109.21C97.141 109.21 97.2851 109.196 97.8585 108.972C98.796 108.644 98.4287 107.861 98.1878 107.216C97.9731 106.497 97.5902 106.73 97.5391 106.75C97.3735 106.785 96.8412 107.008 96.582 107.226C95.7599 108.055 96.582 108.972 96.582 108.972C96.7077 109.066 96.7568 109.057 96.8222 109.051Z" fill="#F4A8BB" />
        <path d="M99.6942 109.051C99.4337 108.795 99.1024 108.652 98.8962 108.576C98.6901 108.499 98.5702 108.662 98.5767 108.735C98.4484 109.178 97.5405 109.29 97.5405 109.29C97.4155 109.326 97.4614 109.42 97.4606 109.529C97.4606 109.639 97.5405 109.608 97.5405 109.608C97.5405 109.608 97.7984 109.598 98.2586 109.529C98.6724 109.505 98.3935 109.694 97.9398 109.688C97.6995 109.684 97.8345 110.127 97.7801 110.323C97.7546 110.418 97.8292 110.472 98.0989 110.482C98.4936 110.486 98.6978 110.422 99.0559 110.164C99.9436 109.42 99.74 109.079 99.6948 109.053" fill="#F4A8BB" />
        <path d="M97.3008 110.797C97.1129 110.909 96.743 110.876 96.743 110.876C96.6671 110.852 96.6272 110.932 96.5834 111.194C96.5349 111.5 96.3686 111.434 96.5028 110.798C96.6187 110.25 96.2633 110.56 96.2633 110.56C96.2633 110.56 96.1349 110.877 96.1186 110.979C96.0812 111.176 95.9222 111.462 95.7847 111.513C95.5359 111.546 95.4908 111.626 95.4659 111.671C95.4659 111.987 95.5759 112.216 95.8646 112.544C96.1539 112.871 96.3928 112.733 96.8223 112.385C97.2503 112.038 97.4448 111.437 97.4605 111.115C97.4749 110.794 97.3439 110.773 97.3008 110.797Z" fill="#F4A8BB" />
        <path d="M53.8115 99.0499L52.6535 98.8232C52.4329 98.7796 47.2006 97.6911 41.8524 93.2C35.9746 88.264 33.8642 82.263 33.1298 79.1262C32.4797 76.3488 32.5452 73.4293 32.646 71.9019C32.0496 71.868 31.3002 71.8108 30.6619 71.7143C29.4089 71.5254 28.7832 71.3711 28.7576 71.3645L28.355 71.2649L28.1423 70.9106C28.0755 70.7986 26.4914 68.1469 25.5448 65.5102C24.6316 62.9653 24.4319 61.4085 24.809 59.7664C25.1035 58.4853 26.1817 54.8585 27.1931 52.4967C27.8156 51.0435 28.4186 49.8613 28.7832 49.1799C28.6345 48.9181 28.5291 48.597 28.5082 48.2186C28.4911 47.9156 28.5206 47.6525 28.5731 47.4291C27.7515 46.5673 26.2852 44.6733 25.9736 41.8841C25.7059 39.4864 25.7922 38.0385 25.8924 37.2992C24.9262 36.2922 22.349 33.4653 21.1714 30.8045C18.7382 25.3084 19.2258 20.1717 19.4327 18.7283C19.7712 16.3685 21.5326 11.7856 21.5326 11.7856C21.5326 11.7856 23.2118 16.7828 23.507 17.4972C23.5476 17.5963 23.5895 17.6966 23.6314 17.7976C23.6883 17.7097 23.7427 17.6255 23.7917 17.5468C24.0614 17.1221 24.3193 16.7925 24.5046 16.575C24.5596 15.6011 25.0289 12.9364 25.9631 10.5375C27.8406 5.71415 31.6988 3.94837 31.6988 3.94837C31.6988 3.94837 30.1794 9.05951 29.9792 10.3212C31.4703 8.89996 33.5199 7.00589 35.1132 5.89853C39.6124 2.77071 43.1989 2.73423 43.1989 2.73423C43.1989 2.73423 35.2697 10.2946 31.7609 15.7093C28.7792 20.3111 26.945 23.9914 26.4318 25.0582C26.676 25.9284 27.4975 28.4348 29.2669 30.2228C30.1029 31.0676 30.8563 31.7321 31.4742 32.2348C31.3139 29.8418 31.4128 26.0379 32.5465 22.9361C34.5091 17.5637 38.4662 15.7236 38.4662 15.7236C38.4662 15.7236 36.4257 22.699 36.9789 26.9283C37.3009 29.3924 37.7232 30.9152 38.0164 31.751C38.6081 31.4962 39.4192 31.1862 40.322 30.9524C41.2135 30.7212 42.0894 30.6026 42.7558 30.542C42.585 29.3402 42.4566 27.2748 42.6484 24.5781C43.125 17.8575 47.0081 14.5831 47.0081 14.5831L46.9341 17.5025C46.9335 17.5585 46.8726 23.1686 47.7086 26.045C48.5733 29.0204 49.51 30.4678 50.7649 31.7815C51.8254 32.8921 52.0552 32.866 52.537 32.8374L52.7928 32.8354C53.1928 32.812 56.3049 32.3091 58.7485 31.9554C58.8782 31.7314 59.3141 30.8787 59.5956 30.0606C59.8639 29.279 59.9799 28.5293 60.027 28.3424C58.8951 27.6975 56.9313 26.385 55.0356 23.1288C51.4098 16.9019 54.5158 11.3823 54.5158 11.3823C54.5158 11.3823 55.353 16.872 58.7295 19.551C59.6539 20.2838 60.0551 20.6036 60.5781 20.9782C60.5231 19.5914 60.4551 17.8092 60.2109 16.1659C59.6192 12.192 57.9551 8.36523 57.9551 8.36523C57.9551 8.36523 63.7981 9.90182 66.0906 18.484C67.5739 24.0389 67.2047 26.6156 67.0476 28.9637C68.1853 28.429 69.6091 27.6981 71.3045 26.3212C73.6794 24.3926 74.7209 23.3744 75.2002 22.7628C74.9579 20.6133 73.8183 15.5712 69.905 10.8359C65.7365 5.79042 57.2527 0.564557 57.2527 0.564557C57.2527 0.564557 64.5746 0.601029 70.5891 4.83226C72.8671 6.43457 74.3792 7.84808 75.3389 8.87192C75.4384 8.19392 75.4849 7.41813 75.4849 6.66908C75.4849 2.6248 74.7079 0.012207 74.7079 0.012207C74.7079 0.012207 78.8123 2.77201 79.3615 8.11123C79.6633 11.0508 79.4728 13.8659 79.3897 14.7674C79.5887 15.1764 79.9735 15.99 80.2276 16.6629C80.2924 16.8348 80.3539 17.0121 80.4122 17.1872C80.7964 16.8172 81.2441 16.3489 81.7004 15.794C82.9677 14.2529 83.5825 13.2902 83.5889 13.2803L85.4591 10.3343L85.4311 13.8184C85.4298 14.0131 85.3676 18.6338 83.2427 22.5941C80.9777 26.8149 78.7423 29.6047 75.7671 31.9236C73.8078 33.4497 72.3199 34.4195 71.4695 34.9374C71.9644 36.2413 72.6379 38.85 71.7902 42.03C70.6192 46.4195 69.2151 48.1346 68.2613 49.0426C67.8757 49.4099 67.4836 49.72 67.1543 49.9583C67.7953 51.1145 68.9951 53.3233 69.9529 55.3314L70.1642 55.773C71.4767 58.5074 72.8338 61.3356 71.4741 65.2783C70.2427 68.849 67.8849 72.1677 63.9789 77.6646C63.6246 78.1628 63.2575 78.6794 62.8771 79.216C58.2621 85.7277 56.5065 88.5396 55.2038 92.3565C53.9208 96.1169 53.8514 97.8592 53.8514 97.8761L53.8141 99.0506L53.8115 99.0499ZM30.5028 47.8434L30.4969 47.8499C30.4969 47.8499 30.5008 47.846 30.5028 47.8434Z" fill="#D8D9DF" />
        <path d="M29.7577 47.1821C29.7577 47.1821 27.354 45.2502 26.9658 41.7732C26.5777 38.2963 26.9658 36.9714 26.9658 36.9714C26.9658 36.9714 23.4591 33.5081 22.0851 30.4031C20.0329 25.7668 20.0885 21.1858 20.421 18.8676C20.7536 16.5494 21.475 14.0658 21.475 14.0658C21.475 14.0658 22.1963 16.9363 22.5845 17.8743C22.9727 18.8122 23.4166 19.9162 23.4166 19.9162C23.4166 19.9162 24.1929 18.7757 24.6367 18.0768C25.0806 17.3779 25.487 16.9728 25.487 16.9728C25.487 16.9728 25.561 13.6977 26.6706 10.9015C27.7801 8.10522 30.4058 5.45545 30.4058 5.45545C30.4058 5.45545 29.1483 8.80342 28.963 10.3862C28.7784 11.9683 28.7411 12.9253 28.7411 12.9253C28.7411 12.9253 32.9934 8.62035 35.6931 6.70739C38.392 4.79367 41.0917 3.69028 41.0917 3.69028C41.0917 3.69028 34.5462 9.5779 30.9223 15.1704C27.2984 20.7631 25.3751 24.9578 25.3751 24.9578C25.3751 24.9578 26.1514 28.4901 28.5552 30.919C30.9583 33.3472 32.697 34.3406 32.697 34.3406C32.697 34.3406 31.662 27.8283 33.4733 23.302C35.2852 18.7764 37.0233 17.8567 37.0233 17.8567C37.0233 17.8567 35.3965 22.5295 35.9876 27.0558C36.5793 31.5815 37.5037 33.09 37.5037 33.09C37.5037 33.09 38.8719 32.3539 40.5731 31.9123C42.2738 31.4708 43.9378 31.4708 43.9378 31.4708C43.9378 31.4708 43.2721 28.8582 43.642 24.6634C44.0118 20.4687 45.9345 17.488 45.9345 17.488C45.9345 17.488 45.8605 23.2649 46.748 26.3191C47.6357 29.3733 48.4121 30.9926 49.8176 32.4641C51.2224 33.9354 51.9994 33.8618 52.6284 33.8253C53.2569 33.7882 59.5804 32.8685 59.5804 32.8685C59.5804 32.8685 60.3941 31.618 60.8379 30.2931C61.2817 28.9682 61.4663 27.9749 61.4663 27.9749C61.4663 27.9749 58.5454 26.8708 55.8825 22.6025C53.2202 18.3341 54.3664 14.1393 54.3664 14.1393C54.3664 14.1393 55.0322 17.8554 58.1016 20.3208C61.1704 22.7862 61.9101 23.007 61.9101 23.007C61.9101 23.007 61.9101 19.0701 61.3924 16.0524C60.8746 13.0353 59.6544 10.2018 59.6544 10.2018C59.6544 10.2018 63.0198 12.52 64.6838 18.1127C66.3478 23.7058 65.83 28.8939 65.7193 29.8137C65.608 30.7333 65.608 30.9542 65.608 30.9542C65.608 30.9542 68.6774 29.9609 71.8949 27.3483C75.1117 24.7357 76.4797 22.7484 76.4797 22.7484C76.4797 22.7484 76.1472 16.8243 70.6741 10.2013C65.2015 3.57824 60.0242 1.66455 60.0242 1.66455C60.0242 1.66455 65.5341 2.47419 70.0089 5.63852C74.4832 8.80283 75.8887 11.121 75.8887 11.121C75.8887 11.121 76.5545 8.80283 76.4804 6.63183C76.4071 4.46084 75.9626 2.36346 75.9626 2.36346C75.9626 2.36346 77.9965 4.79173 78.3664 8.21392C78.7362 11.6356 78.3664 14.9471 78.3664 14.9471C78.3664 14.9471 78.9581 16.1248 79.2907 17.0073C79.6232 17.8905 79.8825 18.9575 79.8825 18.9575C79.8825 18.9575 81.14 18.0377 82.4708 16.4184C83.8023 14.7999 84.4306 13.8059 84.4306 13.8059C84.4306 13.8059 84.3934 18.3315 82.3601 22.1211C80.3256 25.9114 78.2185 28.7441 75.1489 31.1358C72.0801 33.5277 70.1942 34.521 70.1942 34.521C70.1942 34.521 71.9322 37.6124 70.8226 41.77C69.7131 45.9282 68.419 47.5104 67.5686 48.3201C66.7183 49.1297 65.8306 49.6351 65.8306 49.6351C65.8306 49.6351 67.6792 52.8821 69.0481 55.7527C70.4161 58.6225 71.8216 61.1987 70.5268 64.9512C69.2326 68.7043 66.5704 72.2731 62.0587 78.6388C57.5471 85.0039 55.6246 88.0216 54.2565 92.032C52.8883 96.043 52.8511 97.8454 52.8511 97.8454C52.8511 97.8454 47.7111 96.8156 42.4971 92.4365C37.2825 88.0581 34.9901 82.6857 34.1024 78.8961C33.2147 75.1065 33.7325 70.9482 33.7325 70.9482C33.7325 70.9482 32.0312 70.9111 30.811 70.7273C29.5908 70.5431 28.999 70.3965 28.999 70.3965C28.999 70.3965 27.409 67.7474 26.4841 65.1713C25.5597 62.5959 25.4857 61.271 25.7817 59.9833C26.0775 58.6955 27.1497 55.1261 28.1113 52.8815C29.0731 50.637 29.9973 49.0366 29.9973 49.0366C29.9973 49.0366 29.5417 48.821 29.5044 48.1585C29.4678 47.4961 29.7571 47.1781 29.7571 47.1781" fill="#100E09" />
        <path d="M31.1532 45.0855C31.1532 45.0855 31.5414 44.2576 31.8464 43.4571C32.1515 42.6566 32.789 41.4705 32.789 41.4705C32.789 41.4705 31.957 41.2496 31.3194 40.9461C30.6812 40.6425 29.156 39.8694 29.156 39.8694C29.156 39.8694 28.8509 40.8627 29.5723 42.6566C30.293 44.4504 31.1532 45.0855 31.1532 45.0855ZM67.9009 37.6893C67.9009 37.6893 65.7931 38.7653 63.4634 39.5385C61.1336 40.3111 59.4145 40.808 56.2253 40.918C53.036 41.0282 50.8444 39.8694 50.8444 39.8694C50.8444 39.8694 52.1759 40.0622 52.8691 40.0902C53.5623 40.1183 54.2006 39.8974 54.2006 39.5385C54.2006 39.1796 53.7293 39.0415 52.4253 39.0695C51.122 39.0975 50.0125 39.0695 50.0125 39.0695C50.0125 39.0695 48.0152 38.3518 46.5738 36.9168C45.131 35.4819 44.6321 33.6327 44.6321 33.6327C44.6321 33.6327 44.0222 33.4945 42.885 33.6327C41.748 33.7707 39.1132 34.295 37.2548 35.73C35.3963 37.1649 34.8837 38.9862 34.8837 38.9862C34.8837 38.9862 35.5632 38.848 36.3953 38.7653C37.2272 38.6826 37.9762 38.9034 37.9762 38.9034C37.9762 38.9034 37.4492 39.0689 36.6171 39.3451C35.7852 39.6212 34.7587 40.2556 33.5385 42.4774C32.3184 44.6986 31.7914 47.8726 31.7914 47.8726L34.1211 47.2102C34.1211 47.2102 32.7622 48.3142 31.3758 51.074C29.9892 53.8339 28.7966 57.0073 28.2139 58.9666C28.0607 59.4831 27.9502 59.9344 27.8703 60.3221C28.3789 60.1944 29.0421 59.8765 29.6285 59.104C30.7748 57.5955 31.1074 56.9519 31.1074 56.9519C31.1074 56.9519 31.3666 58.7367 32.9932 59.6563C34.62 60.5761 36.6355 60.7968 37.7725 61.3486C38.9096 61.9003 39.2055 62.6364 39.2055 62.6364C39.2055 62.6364 40.9992 60.7968 44.1609 59.1222C47.3226 57.4483 50.6782 58 50.6782 58C50.6782 58 51.5102 57.2274 52.4253 55.102C53.3405 52.9766 53.146 50.7418 53.146 50.7418C53.146 50.7418 53.9781 52.2048 53.9781 53.8326C53.9781 55.4603 53.8118 57.3922 52.8966 59.1033C52.8319 59.2245 52.7586 59.343 52.6885 59.4629L52.693 59.4661C52.693 59.4661 50.3358 65.0646 49.5221 68.707C48.7084 72.35 48.4132 74.263 48.2646 76.2133C48.1167 78.1634 48.0427 79.7455 48.0427 79.7455L45.2691 76.6913C45.2691 76.6913 45.1586 79.782 45.7496 83.6824C46.3414 87.5827 47.5615 90.7105 47.5615 90.7105C47.5615 90.7105 43.7897 89.1648 40.9795 84.3447C38.1693 79.5248 37.9847 77.4273 37.9847 77.4273L36.7795 79.9611C37.4387 82.1211 38.5614 84.5662 40.4708 87.1144C44.2983 92.2197 50.2055 94.4272 50.2055 94.4272C50.2055 94.4272 50.9544 90.8948 52.0639 87.997C53.1729 85.0997 55.1426 81.5393 59.3027 76.3513C63.4626 71.1632 64.6829 69.5622 64.8766 66.3888C65.071 63.2154 62.7138 57.6411 62.7138 57.6411L64.156 57.9446C64.156 57.9446 63.6846 56.4542 62.9357 54.4949C62.1869 52.5358 61.2161 50.5211 61.2161 50.5211C61.2161 50.5211 60.3009 50.4931 59.1632 50.3283C58.0262 50.1628 56.9172 49.9967 55.2526 48.8998C53.5886 47.8029 53.0341 46.6304 53.0341 46.6304C53.0341 46.6304 56.2509 48.7279 59.9677 48.8933C63.684 49.0588 66.0137 46.2163 67.2895 43.1809C68.5654 40.1449 67.8996 37.6893 67.8996 37.6893H67.9009ZM38.9875 43.5809C40.5959 42.3523 42.8707 42.394 42.8707 42.394C42.8707 42.394 40.6934 43.291 39.2788 44.7259C37.8642 46.1608 37.4898 46.8232 37.4898 46.8232L37.1154 45.6229C37.1154 45.6229 37.3791 44.8086 38.9875 43.5809ZM33.8986 46.2716C33.8986 46.2716 34.3149 45.4164 34.5369 44.0915C34.7587 42.7666 34.7587 42.4774 34.7587 42.4774C34.7587 42.4774 35.2857 43.6778 35.2857 44.5331C35.2857 45.3883 35.2164 45.7609 35.2164 45.7609C35.2164 45.7609 34.9113 45.9264 34.5925 46.0645C34.273 46.2025 33.8986 46.2716 33.8986 46.2716ZM38.9835 51.745C38.9835 51.745 37.4302 53.0327 36.3212 54.3204C35.2117 55.6081 34.1395 56.9513 34.1395 56.9513C34.1395 56.9513 34.7738 53.9029 37.5133 50.8995C37.04 49.7453 36.9497 48.3963 36.9497 48.3963L38.3702 50.0306C38.4023 50.0012 38.4324 49.9713 38.4651 49.9413C40.9952 47.6076 43.6274 47.2272 44.9314 47.2004C45.1101 46.68 45.2783 46.1759 45.3614 45.8939C45.5834 45.1396 45.768 44.0908 45.768 44.0908C45.768 44.0908 46.0266 44.6797 46.2118 45.9492C46.3963 47.2186 46.3963 48.8008 46.3963 48.8008L44.9765 49.0092C44.5641 49.7401 43.9763 50.5752 43.179 51.2662C41.3114 52.8855 38.9816 51.7443 38.9816 51.7443L38.9835 51.745ZM46.6569 53.9159C46.6569 53.9159 46.0279 54.891 44.1053 55.2408C42.1826 55.5899 40.9625 54.891 40.9625 54.891C40.9625 54.891 42.7561 54.891 44.4011 53.6769C46.0469 52.4627 46.5646 51.4323 46.5646 51.4323C46.5646 51.4323 46.6569 52.6465 46.6569 53.1616V53.9159ZM63.0202 43.2082C61.0236 44.257 58.8418 44.0915 58.8418 44.0915C58.8418 44.0915 59.2299 44.6113 60.3945 44.6086C61.5597 44.6067 61.7999 44.496 61.7999 44.496C61.7999 44.496 61.5414 45.4157 59.0637 46.0416C56.586 46.667 56.0316 46.0416 56.0316 46.0416C56.0316 46.0416 56.0688 45.4529 57.6772 43.7788C59.2856 42.1049 60.8017 41.9759 61.9669 41.884C63.1314 41.7922 64.241 41.4606 64.7032 41.3323C65.1653 41.2034 65.8311 40.8907 65.8311 40.8907C65.8311 40.8907 65.0174 42.1602 63.0209 43.2089L63.0202 43.2082Z" fill="#006628" />
        <path d="M27.6185 14.4808C27.6185 14.4808 27.4922 13.763 27.4922 12.7971C27.4922 11.8312 27.6185 11.0859 27.6185 11.0859C27.6185 11.0859 27.0581 12.3184 26.9095 13.3123C26.7616 14.3056 26.8264 15.3088 26.8264 15.3088L27.6185 14.4808Z" fill="white" />
        <path d="M77.608 11.0032C77.58 9.45821 77.2749 8.16064 77.2749 8.16064C77.2749 8.16064 77.18 9.82555 76.9423 10.8514C76.7624 11.6259 76.5541 12.162 76.5541 12.162L77.4418 13.5416C77.4418 13.5416 77.6362 12.5483 77.608 11.0025" fill="white" />
        <path d="M33.7047 36.6407C33.7047 36.6407 28.8788 34.5706 26.521 31.1211C24.1638 27.6715 24.1081 26.0437 23.7199 25.7949C23.3317 25.5467 22.971 25.3259 22.971 25.3259C22.971 25.3259 23.4424 25.2432 23.8305 24.6636C24.2187 24.0838 24.8288 22.5661 25.7446 20.745C26.6597 18.9237 27.4642 17.6816 28.7401 15.7223C30.0159 13.763 31.4024 11.9692 31.4024 11.9692C31.4024 11.9692 29.2389 13.8457 27.6862 15.777C26.1328 17.709 24.9683 19.392 24.1362 20.7169C23.3042 22.0411 22.7498 22.9244 22.7498 22.9244C22.7498 22.9244 22.4172 21.6268 22.1115 20.4407C21.8064 19.254 21.612 18.3434 21.612 18.3434C21.612 18.3434 21.2521 22.1793 22.0558 25.3389C22.8597 28.4987 23.6924 31.3478 26.1327 33.9903C28.9378 37.0276 32.7888 38.7094 32.7888 38.7094L33.704 36.6393L33.7047 36.6407Z" fill="white" />
        <path d="M34.5914 35.5093C34.5914 35.5093 34.8592 35.1504 35.1923 34.8194C35.5255 34.4885 35.8398 34.1941 35.8398 34.1941C35.8398 34.1941 34.9148 32.7038 34.5914 30.5146C34.2681 28.3254 34.194 26.6143 34.194 26.6143C34.194 26.6143 33.51 28.9142 33.7044 31.545C33.8982 34.1758 34.5921 35.5099 34.5921 35.5099" fill="white" />
        <path d="M81.2875 19.1811C80.3631 20.2662 80.1039 20.4323 80.1039 20.4323L80.4364 22.2906C80.4364 22.2906 80.5471 22.2535 81.379 20.8004C82.2111 19.3472 82.6549 17.5625 82.6549 17.5625C82.6549 17.5625 82.2111 18.0959 81.2867 19.1818" fill="white" />
        <path d="M77.0258 15.7503C75.3061 12.1073 72.2 9.8999 72.2 9.8999C72.2 9.8999 74.0304 12.5769 75.8888 16.1919C77.7466 19.807 77.8028 23.3119 77.8028 23.3119C77.8028 23.3119 75.5837 26.0991 73.6146 27.6722C71.6456 29.2452 68.7607 30.9837 66.681 31.9217C64.6006 32.8602 62.1878 33.5709 62.1878 33.5709C62.1878 33.5709 62.4928 33.3012 62.9648 32.6941C63.4362 32.087 63.9631 30.2659 64.2406 26.1538C64.5182 22.0418 63.3529 19.7236 63.3529 19.7236C63.3529 19.7236 63.3805 20.7169 63.3529 22.318C63.3249 23.9184 63.2142 25.6295 63.2142 25.6295C63.2142 25.6295 62.8535 25.6295 60.7457 24.5808C58.6379 23.5322 56.5856 21.6829 56.5856 21.6829C56.5856 21.6829 57.1682 23.1733 59.4706 25.0772C61.7727 26.981 62.9648 27.2299 62.9648 27.2299C62.9648 27.2299 62.9648 28.3059 62.1328 30.7621C61.3008 33.2185 60.5519 34.0183 60.2187 34.1565C59.8856 34.2945 58.1109 34.6534 56.53 34.9016C54.9492 35.1498 53.0914 35.3432 51.9536 35.3432C50.8159 35.3432 49.0413 34.5427 47.3773 32.5834C45.7133 30.6241 44.8538 25.7943 44.8538 25.7943C44.8538 25.7943 44.7149 27.2292 44.8538 28.8857C44.9925 30.5414 45.2976 32.3346 46.6565 34.7909C48.0155 37.2471 50.1227 37.7161 51.5373 37.6887C52.9519 37.6608 54.2552 37.7161 57.7776 36.9709C61.3002 36.2258 62.7697 35.8122 66.6804 34.1011C70.591 32.39 73.3639 30.3206 75.2779 28.6368C77.1914 26.9531 79.1886 24.304 79.1886 24.304C79.1886 24.304 79.2161 24.0551 79.1886 23.2273C79.1612 22.3994 78.7448 19.3914 77.0258 15.749" fill="white" />
        <path d="M38.5584 66.003C39.973 63.9609 40.6938 62.9676 43.6892 60.4006C46.6847 57.8342 50.6785 57.9997 50.6785 57.9997C50.6785 57.9997 47.323 57.448 44.1605 59.1221C40.9988 60.796 39.2057 62.6361 39.2057 62.6361C39.2057 62.6361 38.9099 61.9 37.7729 61.3483C36.6357 60.7967 34.6202 60.5759 32.9929 59.6561C31.3662 58.7364 31.107 56.9517 31.107 56.9517C31.107 56.9517 30.7745 57.5959 29.6282 59.1045C29.0417 59.8769 28.3779 60.1949 27.87 60.3224C27.6454 61.4044 27.6591 61.975 27.6591 61.975C27.6591 61.975 28.935 62.4719 30.7935 62.4446C32.6519 62.4172 34.2046 62.0304 34.2046 62.0304L35.2029 64.7621C35.2029 64.7621 34.4264 64.7621 33.3176 65.3972C32.2081 66.0322 32.1805 67.1083 32.1805 67.1083L32.0418 67.1364C32.0418 67.1364 31.7367 66.6947 31.0435 66.0603C30.3503 65.4259 29.4351 64.9562 28.7968 64.8735C28.1586 64.7907 28.575 65.4532 28.9631 66.4465C29.352 67.4398 30.017 68.4058 30.017 68.4058C30.017 68.4058 30.6828 68.6266 32.9569 68.792C35.2311 68.9575 36.5624 68.8474 36.5624 68.8474C36.5624 68.8474 37.1451 68.0476 38.5591 66.0049" fill="white" />
        <path d="M48.7372 64C46.9344 65.6114 45.686 66.5279 43.7451 68.4045C41.8035 70.281 41.1934 71.7439 41.1934 71.7439C41.1934 71.7439 40.8053 71.3304 40.3333 69.9774C39.862 68.6252 39.6951 66.9421 39.6951 66.9421C39.6951 66.9421 39.2237 67.4665 38.6136 68.4872C38.0035 69.5085 37.3934 70.8054 37.3934 70.8054L35.9514 70.8881C35.9514 70.8881 35.757 71.6885 35.8683 74.5031C35.9239 75.9133 36.119 77.7938 36.7801 79.9621L37.9853 77.4284C37.9853 77.4284 38.1698 79.5264 40.9808 84.3458C43.791 89.1665 47.5628 90.7115 47.5628 90.7115C47.5628 90.7115 46.3426 87.5844 45.7509 83.6834C45.1592 79.7831 45.2704 76.6923 45.2704 76.6923L48.044 79.7466C48.044 79.7466 48.1179 78.1644 48.2658 76.2142C48.4138 74.2641 48.7097 72.351 49.5227 68.708C50.3364 65.0655 52.6936 59.4672 52.6936 59.4672L52.6897 59.4639C51.7707 61.0363 50.413 62.5025 48.7378 64" fill="#EF7C00" />
    </g>
    <defs>
        <clipPath id="clip0_1_2238">
            <rect width="100" height="116" fill="white" />
        </clipPath>
    </defs>
  </svg>