<svg xmlns="http://www.w3.org/2000/svg" width="79" height="121" viewBox="0 0 79 121" fill="none">
    <g clip-path="url(#clip0_1_1595)">
        <path d="M79 9.6906L75.8139 7.05574C74.7735 10.5394 73.4713 13.6813 71.6528 16.1471C70.782 14.2612 69.5375 12.3946 67.9732 10.6316C67.7304 7.55891 67.1177 4.46313 66.0738 1.49412L62.8488 0C62.8104 1.82827 62.5407 3.74103 62.0937 5.51169C59.2155 3.48371 55.96 1.98191 52.3651 0.952554L49.1211 3.26861C55.9946 6.59099 62.8104 15.3021 62.9452 24.5471C61.3155 25.6957 59.5277 26.8056 57.6012 27.8658C56.8153 21.2249 53.8524 13.5508 49.6143 10.0785L46.9865 11.6418C48.0731 14.2229 48.7974 16.9001 49.044 19.6538L44.8367 18.8935C44.8944 22.8612 45.904 26.6598 48.2811 30.2086C48.05 31.0153 47.7764 31.7835 47.4642 32.5094C45.7344 33.1739 43.9275 33.8116 42.0742 34.4146C39.4196 30.4775 38.645 22.8612 39.7161 16.2163L36.3835 15.6017C32.4536 21.1212 30.816 27.7352 30.45 35.9355C29.3829 35.9279 28.3387 35.8511 27.337 35.7051C25.2719 29.6863 24.7055 21.9315 25.5686 16.3585L22.2434 15.7132C19.1072 20.0956 17.4274 25.9606 16.6607 32.7553C14.792 31.4493 13.0698 29.794 11.521 27.8082C12.2336 18.5592 18.6218 8.55754 26.0463 3.59124L23.5688 1.36737C20.2169 2.35064 17.3888 3.84859 14.8459 5.64997C14.6263 3.96766 14.5609 1.86284 14.7458 0.00384987L10.6579 2.26997C9.8026 4.77809 8.65044 9.36029 8.33082 12.1834C7.42909 13.3701 6.57764 14.6416 5.77628 15.9859C5.07126 13.7467 4.5857 10.3512 4.5163 7.23242L1.32614 10.2936C-1.75601 20.1648 0.721296 32.3981 6.82042 39.1926C5.57976 48.3878 7.77204 55.7814 12.1836 60.4598C10.1222 64.0048 8.39619 68.0379 6.93206 72.474L11.0624 85.1491H16.3408C16.6568 101.139 25.2371 113.345 38.179 121C43.3725 100.977 54.022 88.0528 67.3722 78.3583L61.3115 59.8566C65.4456 51.8522 67.0908 42.9144 67.0524 35.2365C73.5715 29.5942 78.9962 21.271 78.9962 9.6906H79Z" fill="#C1C5C8" />
        <path d="M77.6981 10.7951L76.746 9.99644C75.717 13.5324 73.8476 16.7612 71.2999 19.6982C70.575 16.8648 68.9022 14.0738 66.5704 11.5551C66.4046 8.81779 65.7764 5.2473 65.0632 2.97831L64.2501 2.60205C64.2501 3.84981 63.9225 6.36067 63.2979 8.5337C60.3185 6.16871 56.7494 4.20687 52.9335 2.92072L52.151 3.47741C59.1468 7.42415 65.3216 17.4485 64.7087 25.649C62.2034 27.4728 59.3973 29.1504 56.3524 30.69C56.1751 24.4705 53.3151 15.7169 49.6648 12.2847L49.1136 12.611C50.4126 15.6478 51.2221 20.3087 50.9677 25.0117C49.3682 23.668 48.3621 22.3319 47.7763 21.2838L46.6353 21.0765C47.0054 24.0788 48.2695 27.6225 50.2238 30.1448C49.8884 31.4963 49.4412 32.7977 48.8631 34.011C46.5428 34.9169 44.1299 35.7615 41.6439 36.5448C38.0669 32.3716 37.3268 24.0903 38.0939 17.7786L37.2998 17.6327C33.4878 23.2112 32.2776 31.1161 32.2082 37.7505C30.146 37.8617 28.165 37.7426 26.2646 37.3702C24.5495 32.4369 23.1965 25.4149 23.9674 17.9091L23.1733 17.7556C19.9819 22.6584 18.6136 29.4537 18.2165 35.7387C14.8864 33.9879 12.1653 31.4272 10.0105 28.5361C10.6774 18.6886 16.9794 8.77941 23.8827 3.93043L23.1619 3.28543C19.6851 4.57542 16.5323 6.47586 13.7109 9.05968C13.3292 6.75228 13.2676 4.13776 13.3986 2.90535L12.0882 3.64633C11.2171 6.568 10.346 10.2076 10.0453 13.0486C8.39548 15.1641 6.89614 17.5904 5.55094 20.347C4.13652 16.65 3.47348 13.1215 3.49662 10.6146L2.64483 11.6012C1.00283 19.5831 -0.608394 37.2243 18.9414 45.2523C18.6715 45.7207 18.39 46.2312 18.1626 46.669C14.5935 45.3674 11.3133 43.3941 8.33773 40.6912C7.45515 48.0433 9.41308 55.8639 14.2351 60.4865C11.853 64.245 10.0954 68.0843 8.66533 72.6913L12.3117 83.8713H17.9545C17.9777 99.2436 25.3164 111.245 37.4502 118.831C42.1488 101.159 52.1896 88.2594 65.7879 78.0509L59.8368 59.899C64.011 51.7023 65.5836 44.1581 65.6223 37.0016C62.2225 39.5049 58.5224 41.6742 54.4791 43.467L53.9626 41.8852C72.6489 33.1739 77.3051 21.1379 77.6904 10.7951H77.6981Z" fill="#002856" />
        <path d="M48.6235 57.8887H57.1049C59.2302 54.388 61.4824 47.9399 61.9176 42.8562C56.8277 46.0494 50.8373 48.3781 45.1007 50.0151L46.991 44.2087C42.7215 45.7344 35.9684 47.2944 30.5476 47.1945L28.7728 41.6343L24.6302 46.7758C23.6946 46.6374 22.732 46.449 21.7427 46.2185C20.0025 48.9045 18.3507 53.3121 17.3884 57.0279H20.3836C16.5798 61.4777 13.646 66.8689 11.7018 72.7483H20.58L21.504 75.5841L16.5183 77.494L12.8839 76.3872L14.366 80.9371H23.248C27.9682 74.8693 33.4813 70.6771 40.65 68.4828C42.9677 66.2233 44.2112 63.2338 44.5964 59.6677C46.6638 63.6679 45.2508 67.2764 42.8292 71.1305C35.8953 72.6484 29.304 77.3941 25.0883 83.942H20.8419C21.2268 96.7919 26.2587 107.321 35.645 114.061C40.5692 98.2329 50.5754 86.0669 62.0715 77.052L57.3282 62.5614L48.6195 57.8887H48.6235ZM29.9508 60.7783L25.0037 64.3213L27.7101 59.5333L25.2001 57.0279C31.641 57.0279 36.6538 55.6099 40.5423 52.6126C39.0139 57.0279 35.6143 60.7783 29.9508 60.7783ZM54.587 54.3918H48.0768L48.3501 53.6618C51.5341 52.5897 53.9827 51.5215 56.3466 50.1304C56.0232 51.5329 55.2186 53.3043 54.5832 54.3918H54.587ZM10.8626 46.3108C12.5874 47.5519 14.9051 48.6316 16.9456 49.3041C16.0409 51.1563 15.1129 53.8538 14.6086 57.0279C12.0562 54.6801 10.6932 50.1495 10.8665 46.3069L10.8626 46.3108Z" fill="#EA0029" />
        <path d="M35.259 90.4626C35.7852 88.0153 36.6303 85.7682 37.7635 83.7026H20.835C20.9041 85.9996 21.1346 88.2234 21.4957 90.3238L24.3651 89.1638C25.2717 95.2569 27.7377 100.799 31.6904 105.821C30.3728 100.294 30.0656 94.7406 30.7533 89.1638L35.259 90.4664V90.4626Z" fill="white" />
        <path d="M12.9056 76.1083L14.3978 80.6665H23.3388C24.8114 78.7801 26.1407 77.3365 27.7802 75.7735L25.7647 69.6142H19.7227L18.374 65.4873L12.7583 69.6142C12.3437 70.642 12.0762 71.3888 11.7197 72.4666H20.6569L21.587 75.3077L16.568 77.221L12.9094 76.1124L12.9056 76.1083Z" fill="white" />
        <path d="M17.3627 56.8135H20.4012L18.0384 54.645C17.8001 55.3367 17.5581 56.0715 17.3666 56.8135H17.3627Z" fill="white" />
        <path d="M30.715 54.7754L30.1812 53.1485L25.1757 56.8135C31.5538 56.8135 36.5173 55.4207 40.368 52.4766L30.715 54.7754Z" fill="white" />
        <path fill-rule="evenodd" clip-rule="evenodd" d="M69.5124 24.7554C68.9624 19.411 67.0086 15.1892 63.6241 12.1436C65.6549 15.9088 67.924 20.4677 67.4047 26.729C63.7087 29.9409 59.0858 32.8162 54.0553 35.1537C54.3476 31.6748 54.1322 27.9558 53.3285 24.6895C53.2285 28.5206 52.4823 33.0021 50.8325 36.5546C47.021 38.1064 43.048 39.3447 39.1291 40.1884C36.9253 37.3054 36.2177 32.7233 35.6061 28.4085C34.9062 32.41 34.8947 38.7101 36.5522 43.3694C51.2939 40.8191 68.1278 32.6653 72.489 21.2608C71.6315 22.4528 70.6277 23.6177 69.5086 24.7515L69.5124 24.7554Z" fill="white" />
        <path fill-rule="evenodd" clip-rule="evenodd" d="M24.3079 39.9629C22.8027 36.4758 22.0346 31.8977 21.8989 27.5233C21.4604 29.482 20.7854 35.2236 21.3675 39.8207C15.1063 37.7084 10.8235 34.1597 7.86368 29.8429C8.15471 22.546 10.3464 18.5249 11.8206 14.7456C9.39212 17.2345 7.12286 21.7931 6.09485 26.8897C5.22198 25.2189 4.50039 23.4677 3.9068 21.6626C4.27154 29.8738 8.42629 38.4114 21.5574 42.9356C22.5194 41.8332 23.5474 40.7234 24.3079 39.9629Z" fill="white" />
    </g>
    <defs>
        <clipPath id="clip0_1_1595">
            <rect width="79" height="121" fill="white" />
        </clipPath>
    </defs>
  </svg>