<svg xmlns="http://www.w3.org/2000/svg" width="120" height="190" viewBox="0 0 120 190" fill="none">
  <path d="M4.76462 29C3.23773 29 2 30.2344 2 31.761V73.1624C2 74.689 3.23773 75.9302 4.76462 75.9302H7.60085C9.12145 75.9302 10.84 74.7801 11.4183 73.3704C11.4183 73.3704 17.0813 59.7702 18.4035 59.1594C19.7095 58.5487 33.6993 58.2954 33.6993 58.2954C35.2133 58.2629 37.3805 58.2371 38.514 58.2371C39.6478 58.2371 40.5836 59.4844 40.5836 60.9978V132.013C40.5836 133.534 40.4634 136.002 40.3108 137.522C40.3108 137.522 40.0475 140.147 38.9688 140.927C37.8998 141.732 29.2775 144.142 29.2775 144.142C27.8255 144.551 26.62 146.13 26.62 147.644V158.096C26.62 159.604 27.8576 160.844 29.3879 160.844H90.2071C91.7277 160.844 92.9618 159.604 92.9618 158.096V147.644C92.9618 146.13 91.7668 144.551 90.3112 144.142C90.3112 144.142 81.6819 141.732 80.6096 140.927C79.5376 140.147 79.2778 137.522 79.2778 137.522C79.1348 136.002 79.0178 133.534 79.0178 132.013V60.9978C79.0178 59.4844 79.954 58.2371 81.0842 58.2371C82.2083 58.2371 84.3853 58.2629 85.8991 58.2954C85.8991 58.2954 99.876 58.5487 101.188 59.1594C102.514 59.7702 108.167 73.3704 108.167 73.3704C108.758 74.7801 110.473 75.9302 112.001 75.9302H114.821C116.354 75.9302 117.589 74.689 117.589 73.1624V31.761C117.589 30.2344 116.354 29 114.821 29H4.76462Z" fill="#CF142B" />
  <path d="M4.76462 29C3.23773 29 2 30.2344 2 31.761V73.1624C2 74.689 3.23773 75.9302 4.76462 75.9302H7.60085C9.12145 75.9302 10.84 74.7801 11.4183 73.3704C11.4183 73.3704 17.0813 59.7702 18.4035 59.1594C19.7095 58.5487 33.6993 58.2954 33.6993 58.2954C35.2133 58.2629 37.3805 58.2371 38.514 58.2371C39.6478 58.2371 40.5836 59.4844 40.5836 60.9978V132.013C40.5836 133.534 40.4634 136.002 40.3108 137.522C40.3108 137.522 40.0475 140.147 38.9688 140.927C37.8998 141.732 29.2775 144.142 29.2775 144.142C27.8255 144.551 26.62 146.13 26.62 147.644V158.096C26.62 159.604 27.8576 160.844 29.3879 160.844H90.2071C91.7277 160.844 92.9618 159.604 92.9618 158.096V147.644C92.9618 146.13 91.7668 144.551 90.3112 144.142C90.3112 144.142 81.6819 141.732 80.6096 140.927C79.5376 140.147 79.2778 137.522 79.2778 137.522C79.1348 136.002 79.0178 133.534 79.0178 132.013V60.9978C79.0178 59.4844 79.954 58.2371 81.0842 58.2371C82.2083 58.2371 84.3853 58.2629 85.8991 58.2954C85.8991 58.2954 99.876 58.5487 101.188 59.1594C102.514 59.7702 108.167 73.3704 108.167 73.3704C108.758 74.7801 110.473 75.9302 112.001 75.9302H114.821C116.354 75.9302 117.589 74.689 117.589 73.1624V31.761C117.589 30.2344 116.354 29 114.821 29H4.76462Z" stroke="#FEFEFE" stroke-width="3.33572" />
</svg>