<svg xmlns="http://www.w3.org/2000/svg" width="124" height="96" viewBox="0 0 124 96" fill="none">
    <path d="M26.5649 7.48047C25.5903 7.48047 24.8002 8.2684 24.8002 9.2428V35.6693C24.8002 36.6437 25.5903 37.4359 26.5649 37.4359H28.3752C29.3458 37.4359 30.4428 36.7018 30.8119 35.802C30.8119 35.802 34.4266 27.1211 35.2706 26.7312C36.1042 26.3414 45.0338 26.1796 45.0338 26.1796C46.0002 26.1589 47.3836 26.1424 48.107 26.1424C48.8307 26.1424 49.4281 26.9386 49.4281 27.9046V73.2336C49.4281 74.2041 49.3513 75.7798 49.2539 76.7501C49.2539 76.7501 49.0859 78.4253 48.3973 78.9231C47.715 79.4369 42.2114 80.9755 42.2114 80.9755C41.2846 81.2365 40.5151 82.2444 40.5151 83.2104V89.8823C40.5151 90.8445 41.3051 91.6363 42.2819 91.6363H81.1026C82.0732 91.6363 82.861 90.8445 82.861 89.8823V83.2104C82.861 82.2444 82.0982 81.2365 81.1691 80.9755C81.1691 80.9755 75.661 79.4369 74.9766 78.9231C74.2923 78.4253 74.1265 76.7501 74.1265 76.7501C74.0352 75.7798 73.9605 74.2041 73.9605 73.2336V27.9046C73.9605 26.9386 74.5581 26.1424 75.2795 26.1424C75.997 26.1424 77.3866 26.1589 78.3528 26.1796C78.3528 26.1796 87.2743 26.3414 88.1118 26.7312C88.9581 27.1211 92.5665 35.802 92.5665 35.802C92.9438 36.7018 94.0386 37.4359 95.0135 37.4359H96.8135C97.792 37.4359 98.5802 36.6437 98.5802 35.6693V9.2428C98.5802 8.2684 97.792 7.48047 96.8135 7.48047H26.5649Z" fill="#CF142B" />
    <path d="M26.5649 7.48047C25.5903 7.48047 24.8002 8.2684 24.8002 9.2428V35.6693C24.8002 36.6437 25.5903 37.4359 26.5649 37.4359H28.3752C29.3458 37.4359 30.4428 36.7018 30.8119 35.802C30.8119 35.802 34.4266 27.1211 35.2706 26.7312C36.1042 26.3414 45.0338 26.1796 45.0338 26.1796C46.0002 26.1589 47.3836 26.1424 48.107 26.1424C48.8307 26.1424 49.4281 26.9386 49.4281 27.9046V73.2336C49.4281 74.2041 49.3513 75.7798 49.2539 76.7501C49.2539 76.7501 49.0859 78.4253 48.3973 78.9231C47.715 79.4369 42.2114 80.9755 42.2114 80.9755C41.2846 81.2364 40.5151 82.2444 40.5151 83.2104V89.8823C40.5151 90.8445 41.3051 91.6363 42.2819 91.6363H81.1026C82.0732 91.6363 82.861 90.8445 82.861 89.8823V83.2104C82.861 82.2444 82.0982 81.2364 81.1691 80.9755C81.1691 80.9755 75.661 79.4369 74.9766 78.9231C74.2923 78.4253 74.1265 76.7501 74.1265 76.7501C74.0352 75.7798 73.9605 74.2041 73.9605 73.2336V27.9046C73.9605 26.9386 74.5581 26.1424 75.2795 26.1424C75.997 26.1424 77.3866 26.1589 78.3528 26.1796C78.3528 26.1796 87.2742 26.3414 88.1118 26.7312C88.9581 27.1211 92.5665 35.802 92.5665 35.802C92.9439 36.7018 94.0386 37.4359 95.0135 37.4359H96.8135C97.792 37.4359 98.5802 36.6437 98.5802 35.6693V9.2428C98.5802 8.2684 97.792 7.48047 96.8135 7.48047H26.5649Z" stroke="#FEFEFE" stroke-width="2.12918" />
  </svg>