<svg xmlns="http://www.w3.org/2000/svg" width="90" height="124" viewBox="0 0 90 124" fill="none">
    <g clip-path="url(#clip0_13_1840)">
        <path fill-rule="evenodd" clip-rule="evenodd" d="M68.9371 34.0634C71.0657 30.0731 71.8651 25.8703 71.6266 21.2367C71.4716 18.2237 70.9634 15.3948 70.0835 12.8221C70.9262 14.7329 71.5985 16.7438 72.0325 18.7326C73.3492 24.7462 71.7937 31.0285 68.5095 34.869C68.649 34.6035 68.7915 34.3351 68.9339 34.0666L68.9371 34.0634ZM66.6907 48.0235C63.7163 51.1269 61.8014 48.214 61.9377 45.9845C61.9377 45.9845 61.9533 44.4701 64.119 42.0472C62.1763 46.1313 64.0633 48.929 66.6907 48.0235ZM56.2894 65.5274C56.2894 65.5274 57.6991 62.4113 58.5109 61.178C59.3259 59.9414 60.7634 58.8298 60.7634 58.8298C60.7634 58.8298 61.8603 60.4036 60.8346 62.1644C61.8572 61.2716 62.4706 60.2193 62.4706 60.2193C61.1353 64.4781 56.9834 64.8685 56.9834 64.8685L57.6806 63.8788L56.2894 65.5304V65.5274ZM61.3832 40.7264C61.3832 40.7264 57.1073 46.2406 58.1299 48.1951C59.7286 48.5572 59.3877 51.3268 61.3832 52.5353C58.9572 52.4166 59.2421 50.1934 57.4761 49.3162C55.2267 48.1983 54.8733 46.8712 54.8733 46.8712C54.8733 46.8712 55.6913 47.7143 56.8843 47.8268C56.4691 46.0377 58.954 43.3555 61.38 40.7296L61.3832 40.7264ZM56.7665 49.5534C54.7959 49.2755 51.2049 49.7344 48.6796 48.7978C49.95 49.7781 56.8905 51.611 58.5821 51.302C58.1484 49.8718 56.7665 49.5534 56.7665 49.5534ZM45.0669 1.95312C33.9003 1.95312 24.8158 11.1079 24.8158 22.3608C24.8158 33.6138 33.9003 42.7684 45.0669 42.7684C56.2335 42.7684 65.315 33.6138 65.315 22.3608C65.315 11.1079 56.2335 1.95312 45.0669 1.95312ZM45.0669 44.5295C38.4456 44.5295 32.5028 41.5601 28.4657 36.8797C31.2449 41.2291 34.2565 44.5575 34.238 46.3499C35.905 45.7535 37.4046 44.8886 37.7826 44.0518C38.334 42.834 37.5098 47.4113 34.5943 48.932C37.7021 48.5073 41.6896 49.4316 43.936 46.968C43.0189 51.9701 35.97 50.7149 32.0567 53.3782C31.9327 53.4751 31.8058 53.5655 31.6757 53.6593C32.4069 54.2994 32.9521 55.0956 33.2155 56.1228C34.2782 60.2474 34.7306 59.4045 35.2201 61.5026C35.7098 63.6009 34.8112 64.0973 36.8779 67.3351C38.9476 70.5731 40.2365 72.4902 41.2031 73.3487C42.1699 74.2105 43.397 75.8809 43.5177 76.4462C43.6385 77.0114 42.2165 79.378 40.7477 80.1493C39.558 80.4553 38.3155 79.9837 38.3155 79.9837C38.3155 79.9837 38.173 79.9089 37.9251 79.784C37.104 79.3812 35.1767 78.735 33.5625 78.5599C34.2597 79.1564 34.8297 79.7152 35.0064 80.1275C35.5981 81.4981 34.238 80.7925 33.8227 80.8393C30.8422 81.1922 30.8267 78.9659 25.2774 78.3789C20.3943 77.8605 14.2841 75.5126 12.7692 70.8977L12.7381 70.904C12.2919 69.1555 11.4399 69.1898 11.0867 70.6323C8.55222 83.4964 14.69 105.799 45.0607 115.251C75.4313 105.799 81.5693 83.4964 79.0348 70.6323C78.6816 69.1898 77.8294 69.1523 77.3834 70.904L77.3523 70.8977C75.8403 75.5126 69.7272 77.8637 64.8441 78.3789C59.2948 78.9659 59.2793 81.1952 56.2987 80.8393C55.8835 80.7893 54.5233 81.4981 55.1151 80.1275C55.2947 79.7152 55.8618 79.1532 56.559 78.5599C54.9446 78.735 53.0173 79.3844 52.1964 79.784C51.9485 79.9089 51.806 79.9837 51.806 79.9837C51.806 79.9837 50.5634 80.4553 49.3736 80.1493C47.902 79.375 46.483 77.0114 46.6038 76.4462C46.7245 75.8809 47.9516 74.2105 48.9182 73.3487C49.885 72.4902 51.1771 70.5731 53.2436 67.3351C55.3134 64.0973 54.4117 63.6009 54.9012 61.5026C55.3908 59.4045 55.8431 60.2474 56.906 56.1228C57.1692 55.0986 57.7146 54.2994 58.4458 53.6593C58.3157 53.5687 58.1888 53.4751 58.0648 53.3782C54.1515 50.7149 47.1026 51.9701 46.1855 46.968C48.4319 49.4316 52.4226 48.5043 55.5271 48.932C52.6116 47.4113 51.7873 42.834 52.3389 44.0518C52.7201 44.8886 54.2165 45.7535 55.8835 46.3499C55.868 44.5575 58.8766 41.2323 61.6558 36.8829C57.6185 41.5634 51.6759 44.5327 45.0546 44.5327L45.0669 44.5295ZM50.486 79.784C50.486 79.784 48.2212 79.7277 47.2946 76.8771C48.184 76.0215 48.407 75.4252 48.407 75.4252L47.0035 76.4211C47.0035 76.4211 48.9369 73.9077 49.8199 72.9459C50.7029 71.9843 49.73 74.7539 49.73 74.7539C49.73 74.7539 50.8424 75.6842 49.95 75.6907C49.0576 75.6969 49.2467 77.8044 50.4086 78.2539C49.95 77.9512 50.0057 76.9051 50.0057 76.9051C50.0057 76.9051 50.7061 78.3446 51.6448 78.2415C53.5472 78.0354 55.9486 77.7483 58.2258 77.7982C53.1477 78.2415 51.7905 79.6434 50.4644 79.4718L50.486 79.787V79.784ZM40.1808 75.6907C39.2884 75.6842 40.4007 74.7539 40.4007 74.7539C40.4007 74.7539 39.4309 71.9875 40.3109 72.9459C41.1908 73.9077 43.1242 76.4211 43.1242 76.4211L41.7206 75.4252C41.7206 75.4252 41.9437 76.0215 42.8329 76.8771C41.9065 79.7277 39.6416 79.784 39.6416 79.784L39.6633 79.4686C38.3372 79.6434 36.98 78.2415 31.9017 77.795C34.1791 77.745 36.5805 78.0324 38.4828 78.2385C39.4216 78.3414 40.1219 76.9021 40.1219 76.9021C40.1219 76.9021 40.1776 77.948 39.719 78.2509C40.884 77.8012 41.07 75.6937 40.1776 75.6874L40.1808 75.6907ZM33.1472 64.8685C33.1472 64.8685 28.9955 64.4781 27.6601 60.2193C27.6601 60.2193 28.2767 61.2716 29.296 62.1644C28.2673 60.4036 29.3672 58.8298 29.3672 58.8298C29.3672 58.8298 30.805 59.9446 31.6198 61.178C32.4347 62.4113 33.8414 65.5274 33.8414 65.5274L32.4503 63.8756L33.1472 64.8653V64.8685ZM26.0086 42.0472C28.1776 44.4701 28.1899 45.9845 28.1899 45.9845C28.3262 48.214 26.4113 51.1269 23.4369 48.0235C26.0675 48.929 27.9543 46.1313 26.0086 42.0472ZM28.7444 40.7296C31.1705 43.3523 33.6554 46.0377 33.2404 47.8268C34.4332 47.7143 35.2511 46.8712 35.2511 46.8712C35.2511 46.8712 34.8948 48.1983 32.6484 49.3162C30.8856 50.1934 31.1705 52.4166 28.7415 52.5353C30.7399 51.33 30.3991 48.5604 31.9948 48.1951C33.0171 46.2436 28.7415 40.7264 28.7415 40.7264L28.7444 40.7296ZM41.4481 48.8008C40.1776 49.7813 33.2372 51.6142 31.5455 51.305C31.9793 49.875 33.3579 49.5566 33.3579 49.5566C35.3317 49.2787 38.9197 49.7376 41.4449 48.8008H41.4481ZM18.0984 18.7326C18.5321 16.7438 19.2045 14.7329 20.0473 12.8221C19.1704 15.398 18.6593 18.2267 18.5043 21.2367C18.2687 25.8703 19.065 30.0731 21.1937 34.0634C21.3394 34.3319 21.4787 34.6003 21.6181 34.8658C18.3338 31.0253 16.7784 24.7462 18.0952 18.7296L18.0984 18.7326ZM3.23834 34.0666C5.82554 32.7551 8.69786 31.5655 11.8056 30.5194C12.7475 31.6747 13.8164 32.7146 14.9505 33.67C14.1417 33.7761 13.0511 33.8292 11.4305 33.6074C13.4011 35.3561 17.0574 35.3218 18.4639 36.3239C19.5298 36.9296 20.4779 37.5229 21.3207 38.0912C25.8351 41.7536 26.4641 44.745 25.581 46.0876C25.7235 45.5318 24.9861 43.9019 23.9111 43.162C22.9319 42.4907 22.272 44.67 22.3215 46.1626C22.0581 45.9565 21.7948 45.7004 21.5437 45.3974C21.5531 43.1838 21.2093 40.0427 19.6291 38.1662C18.3803 37.779 16.5026 40.717 15.6879 44.3516C15.8365 43.7302 15.629 42.2908 15.629 42.2908C15.629 42.2908 14.0022 44.9792 14.3896 47.7486C14.3834 48.9695 12.9735 49.3504 11.8273 47.7612C10.749 46.2687 7.28796 40.3705 3.23834 38.2817V34.0634V34.0666ZM19.2665 50.1653C19.2665 50.1653 18.0178 48.8634 17.7142 47.1461C17.4074 45.4319 17.5407 41.8912 19.1147 40.3581C18.8513 43.5179 20.4872 44.1579 19.6135 47.8049C19.7653 47.0587 20.4532 46.2749 20.4253 46.6963C20.3975 47.118 20.4872 48.9258 21.3052 50.0404C20.072 49.6376 18.8978 48.3419 18.8978 48.3419L19.2695 50.1685L19.2665 50.1653ZM9.56219 64.3815C8.79078 63.963 7.6288 63.7539 6.39877 63.6913C8.38787 62.7453 11.3469 61.7773 14.464 61.5619C18.594 61.3309 19.8676 65.5492 26.1944 66.9792C25.4849 66.4296 24.5028 65.2214 23.2758 63.8257C26.1883 66.0613 28.289 68.1127 31.5362 68.712C31.5362 68.712 29.5469 66.4453 29.2309 65.0622C33.9901 66.5451 35.9947 68.1189 38.3403 71.0602C40.7353 74.0607 29.6802 71.6159 29.6802 71.6159L32.8562 73.2521C25.8536 73.5611 23.9606 74.6352 24.8094 76.237C20.5863 76.8428 16.2114 70.5543 16.2114 70.5543C16.2114 70.5543 16.1495 71.4317 16.667 72.6682C13.392 68.7309 14.6126 62.3174 14.6126 62.3174C14.1417 63.0481 13.7636 63.7507 13.4508 64.4282V64.4157C13.4508 64.4157 6.43896 66.1174 3.23535 68.8369C4.34461 66.0956 8.01003 64.6219 9.5592 64.3752L9.56219 64.3815ZM86.3036 81.6948C84.3423 93.7722 76.2709 110.985 45.0701 120.696C13.8659 110.985 5.79768 93.7722 3.83326 81.6948C3.58534 79.8496 3.40269 75.9403 5.8906 74.0014C5.8906 84.2988 8.76591 106.439 45.0701 117.739C81.3741 106.439 84.2494 84.2988 84.2494 74.0014C86.7375 75.9403 86.5546 79.8496 86.3067 81.6948H86.3036ZM76.6832 64.4189C76.6832 64.4189 83.6949 66.1207 86.8985 68.8401C85.7892 66.0988 82.1238 64.6249 80.5746 64.3782C81.3462 63.96 82.508 63.7507 83.7382 63.6883C81.7489 62.7421 78.7901 61.7743 75.673 61.5587C71.5398 61.3277 70.2694 65.546 63.9424 66.976C64.6519 66.4266 65.6342 65.2182 66.861 63.8224C63.9485 66.0581 61.8478 68.1095 58.6008 68.709C58.6008 68.709 60.5899 66.4421 60.9059 65.059C56.1467 66.5421 54.1421 68.1157 51.7967 71.0569C49.4017 74.0575 60.4566 71.6127 60.4566 71.6127L57.2809 73.2489C64.2832 73.5581 66.1764 74.6322 65.3274 76.2338C69.5505 76.8396 73.9255 70.5513 73.9255 70.5513C73.9255 70.5513 73.9905 71.4285 73.47 72.665C76.7451 68.7276 75.5242 62.3144 75.5242 62.3144C75.9951 63.0451 76.3732 63.7477 76.6862 64.4252C76.6862 64.422 76.6862 64.419 76.6862 64.4125L76.6832 64.4189ZM69.7117 46.6933C69.6838 46.2719 70.3685 47.0554 70.5235 47.8017C69.6466 44.1549 71.2857 43.5147 71.0223 40.3549C72.5963 41.8912 72.7294 45.4287 72.4228 47.1429C72.116 48.857 70.8705 50.1623 70.8705 50.1623L71.2424 48.3357C71.2424 48.3357 70.068 49.6346 68.8348 50.0342C69.6528 48.9196 69.7427 47.1118 69.7147 46.6901L69.7117 46.6933ZM86.8985 38.2817V34.0634C84.3113 32.7521 81.4392 31.5625 78.3314 30.5164C77.3895 31.6717 76.3207 32.7114 75.1865 33.6668C75.9951 33.7731 77.0859 33.826 78.7063 33.6044C76.7327 35.3528 73.0765 35.3186 71.6729 36.3209C70.6102 36.9266 69.6621 37.5197 68.8163 38.0882C64.3019 41.7506 63.6729 44.7418 64.556 46.0844C64.4133 45.5286 65.1509 43.8989 66.2259 43.1588C67.2051 42.4875 67.865 44.6668 67.8155 46.1594C68.0787 45.9533 68.3422 45.6972 68.5931 45.3944C68.5839 43.1806 68.9277 40.0395 70.5079 38.163C71.7567 37.7758 73.6342 40.714 74.4492 44.3484C74.2973 43.727 74.508 42.2876 74.508 42.2876C74.508 42.2876 76.1346 44.976 75.7474 47.7456C75.7536 48.9663 77.1603 49.3472 78.3098 47.758C79.388 46.2654 82.8488 40.3673 86.8985 38.2786V38.2817Z" fill="white" />
        <path fill-rule="evenodd" clip-rule="evenodd" d="M88.2705 31.3124C85.7454 30.0322 83.0063 28.8895 80.1062 27.8715C81.1257 25.9825 81.798 23.8094 81.9375 21.2335C80.6794 24.0685 79.2665 26.2572 77.8103 27.9902C77.5655 26.6913 76.6608 25.5454 76.8096 23.6689C74.9164 25.8139 77.361 28.4834 75.468 30.3913C73.7545 31.9025 72.0566 32.9297 70.5477 33.7604C71.8521 31.787 72.4253 29.4671 72.7785 26.8567C73.1255 24.2932 72.9769 21.5082 72.3386 18.5794C71.7839 16.0504 70.8853 13.5398 69.7359 11.2325C68.6762 8.85017 69.8443 7.11727 68.1371 3.64833C67.9853 3.33923 67.7931 3.37045 67.8552 3.66395C68.4748 6.58023 67.2107 6.10876 67.4648 7.4139C67.1487 6.96428 66.8233 6.53339 66.4887 6.11812C66.4485 6.06815 66.4081 6.02132 66.3679 5.97137C66.3028 5.89331 66.2408 5.81525 66.1757 5.7403C66.0426 5.58419 65.9093 5.42807 65.77 5.27196C65.7266 5.22512 65.6862 5.17828 65.6429 5.13145C65.584 5.06588 65.5221 5.00031 65.4632 4.93788C65.4292 4.90353 65.3981 4.86605 65.3641 4.82858C64.1494 3.55779 62.7582 2.43998 61.1812 1.50329C60.2888 0.975597 60.0502 1.3253 60.8403 2.00911C65.1842 5.76216 68.1029 10.8703 69.1626 16.4967C67.3377 10.7111 64.1866 9.41532 65.299 10.9983C67.4895 14.1145 70.5849 22.2108 67.6103 30.8003C66.7861 32.6363 65.6924 34.4317 64.3106 36.2362C66.3462 33.2046 66.7272 29.1547 66.622 26.8287C66.9163 25.383 67.0713 23.8874 67.0713 22.3575C67.0651 10.1366 57.1966 0.191895 45.0664 0.191895C32.9361 0.191895 23.0676 10.1366 23.0676 22.3606C23.0676 23.8906 23.2226 25.3862 23.5168 26.8319C23.4116 29.1579 23.7926 33.2076 25.8283 36.2394C24.4464 34.4379 23.3527 32.6393 22.5285 30.8035C19.5571 22.2138 22.6493 14.1175 24.84 11.0015C25.9522 9.41845 22.8043 10.7111 20.9762 16.4999C22.0327 10.8735 24.9546 5.76842 29.2955 2.01222C30.0856 1.32843 29.847 0.978724 28.9547 1.5064C27.3774 2.43998 25.9862 3.55779 24.7717 4.83171C24.7377 4.86606 24.7067 4.90353 24.6726 4.93788C24.6106 5.00344 24.5519 5.06588 24.493 5.13145C24.4496 5.17828 24.4092 5.22512 24.3658 5.27196C24.2295 5.42495 24.0932 5.58106 23.9599 5.7403C23.8949 5.81836 23.833 5.89331 23.7679 5.97137C23.7275 6.02132 23.6873 6.06815 23.647 6.11812C23.3125 6.53339 22.9872 6.96428 22.671 7.4139C22.9251 6.10876 21.661 6.58334 22.2806 3.66395C22.3425 3.37045 22.1505 3.33923 21.9987 3.64833C20.2945 7.11727 21.4595 8.85017 20.4 11.2325C19.2503 13.5398 18.3488 16.0504 17.7973 18.5794C17.156 21.505 17.0071 24.2902 17.3573 26.8567C17.7105 29.4701 18.2837 31.787 19.5882 33.7604C18.0792 32.9297 16.3812 31.9025 14.6679 30.3913C12.7747 28.4834 15.2194 25.8139 13.3262 23.6689C13.4718 25.5422 12.5703 26.6913 12.3254 27.9902C10.8691 26.2572 9.45624 24.0655 8.19836 21.2335C8.33784 23.8094 9.01016 25.9857 10.0295 27.8715C7.1295 28.8863 4.39048 30.0322 1.86516 31.3124L0.179688 32.1647V74.0011C0.179688 83.3275 2.42605 91.3771 7.04573 98.6146C14.169 109.771 26.6556 118.192 44.1647 123.64L45.0664 123.921L45.968 123.64C63.4771 118.192 75.9636 109.771 83.0869 98.6146C87.7066 91.3771 89.953 83.3245 89.953 74.0011V32.168L88.2675 31.3154L88.2705 31.3124ZM68.9396 34.0631C71.0682 30.0729 71.8676 25.87 71.6291 21.2365C71.4741 18.2235 70.9659 15.3945 70.0861 12.8218C70.9287 14.7327 71.6012 16.7435 72.035 18.7324C73.3517 24.746 71.7964 31.0283 68.512 34.8688C68.6515 34.6033 68.7939 34.3348 68.9364 34.0664L68.9396 34.0631ZM66.6932 48.0232C63.7188 51.1269 61.8039 48.2137 61.9402 45.9843C61.9402 45.9843 61.9558 44.4699 64.1215 42.0469C62.1788 46.1311 64.0658 48.9287 66.6932 48.0232ZM56.2919 65.5271C56.2919 65.5271 57.7016 62.411 58.5134 61.1777C59.3284 59.9412 60.7659 58.8296 60.7659 58.8296C60.7659 58.8296 61.8628 60.4034 60.8372 62.1644C61.8597 61.2714 62.4733 60.2191 62.4733 60.2191C61.1378 64.4781 56.9859 64.8682 56.9859 64.8682L57.6831 63.8785L56.2919 65.5301V65.5271ZM61.3857 40.7262C61.3857 40.7262 57.1099 46.2403 58.1324 48.1949C59.7311 48.5572 59.3902 51.3266 61.3857 52.5351C58.9597 52.4164 59.2446 50.1931 57.4785 49.3159C55.2292 48.1981 54.8758 46.8711 54.8758 46.8711C54.8758 46.8711 55.6938 47.7141 56.8868 47.8266C56.4716 46.0374 58.9565 43.3552 61.3825 40.7294L61.3857 40.7262ZM56.769 49.5531C56.769 49.5531 58.1509 49.8715 58.5846 51.3017C56.893 51.6077 49.9525 49.7749 48.6821 48.7976C51.2074 49.7342 54.7984 49.2752 56.769 49.5531ZM45.0664 1.95291C56.233 1.95291 65.3144 11.1076 65.3144 22.3606C65.3144 33.6136 56.2298 42.7684 45.0664 42.7684C33.9028 42.7684 24.8151 33.6136 24.8151 22.3606C24.8151 11.1076 33.8997 1.95291 45.0664 1.95291ZM45.0664 44.5292C51.6877 44.5292 57.6304 41.5631 61.6677 36.8795C58.8882 41.2289 55.8766 44.5573 55.8953 46.3464C54.2284 45.7501 52.7287 44.8853 52.3507 44.0484C51.7992 42.8307 52.6233 47.4081 55.539 48.9287C52.4343 48.5041 48.4435 49.4282 46.1972 46.9648C47.1144 51.9666 54.1633 50.7114 58.0767 53.375C58.2004 53.4716 58.3275 53.5623 58.4577 53.6559C57.7265 54.2959 57.1811 55.0921 56.9179 56.1195C55.855 60.2442 55.4057 59.401 54.913 61.4993C54.4236 63.5974 55.3221 64.0939 53.2554 67.3319C51.1857 70.5697 49.8968 72.4867 48.93 73.3455C47.9634 74.2073 46.7364 75.8777 46.6156 76.4429C46.4946 77.0079 47.9137 79.3747 49.3855 80.1459C50.5753 80.4519 51.8179 79.9805 51.8179 79.9805C51.8179 79.9805 51.9603 79.9055 52.2082 79.7806C53.0292 79.3777 54.9564 78.7315 56.5707 78.5567C55.8737 79.153 55.3034 79.712 55.1269 80.124C54.535 81.4947 55.8953 80.7891 56.3104 80.836C59.2912 81.1887 59.3067 78.9625 64.8559 78.3756C69.7391 77.8573 75.849 75.5091 77.3642 70.8945L77.3952 70.9007C77.8413 69.1521 78.6933 69.1866 79.0467 70.629C81.5811 83.4931 75.4431 105.796 45.0726 115.247C14.7019 105.796 8.56407 83.4931 11.0985 70.629C11.4517 69.1866 12.3037 69.1491 12.75 70.9007L12.7808 70.8945C14.293 75.5091 20.4061 77.8603 25.2892 78.3756C30.8385 78.9625 30.854 81.1919 33.8346 80.836C34.2498 80.7861 35.61 81.4947 35.0183 80.124C34.8416 79.712 34.2715 79.15 33.5743 78.5567C35.1886 78.7315 37.1158 79.3809 37.937 79.7806C38.1849 79.9055 38.3273 79.9805 38.3273 79.9805C38.3273 79.9805 39.5697 80.4519 40.7595 80.1459C42.2313 79.3715 43.6504 77.0079 43.5296 76.4429C43.4086 75.8777 42.1818 74.2073 41.215 73.3455C40.2484 72.4867 38.9563 70.5697 36.8896 67.3319C34.8199 64.0939 35.7216 63.5974 35.232 61.4993C34.7425 59.401 34.2932 60.2442 33.2273 56.1195C32.9639 55.0953 32.4187 54.2959 31.6873 53.6559C31.8176 53.5653 31.9446 53.4716 32.0685 53.375C35.9819 50.7114 43.0308 51.9666 43.9478 46.9648C41.7015 49.4282 37.7107 48.5009 34.6062 48.9287C37.5217 47.4081 38.3458 42.8307 37.7943 44.0484C37.4164 44.8853 35.9168 45.7501 34.2498 46.3464C34.2654 44.5543 31.2567 41.2289 28.4775 36.8765C32.5146 41.5567 38.4575 44.5262 45.0788 44.5262L45.0664 44.5292ZM50.4854 79.7838C50.4854 79.7838 48.2205 79.7276 47.2941 76.8768C48.1833 76.0212 48.4063 75.4249 48.4063 75.4249L47.0028 76.4211C47.0028 76.4211 48.9362 73.9075 49.8192 72.9459C50.7024 71.984 49.7295 74.7536 49.7295 74.7536C49.7295 74.7536 50.8417 75.684 49.9493 75.6904C49.0572 75.6966 49.2462 77.8042 50.408 78.2537C49.9493 77.9509 50.0052 76.9049 50.0052 76.9049C50.0052 76.9049 50.7054 78.3443 51.6444 78.2413C53.5467 78.0351 55.9479 77.748 58.2253 77.7979C53.147 78.2413 51.7898 79.6432 50.4637 79.4716L50.4854 79.7868V79.7838ZM40.1801 75.6904C39.2878 75.684 40.4002 74.7536 40.4002 74.7536C40.4002 74.7536 39.4304 71.9872 40.3103 72.9459C41.1903 73.9075 43.1237 76.4211 43.1237 76.4211L41.7202 75.4249C41.7202 75.4249 41.9432 76.0212 42.8324 76.8768C41.906 79.7276 39.6411 79.7838 39.6411 79.7838L39.6628 79.4684C38.3367 79.6432 36.9795 78.2413 31.9012 77.7947C34.1786 77.7448 36.5798 78.0321 38.4821 78.2383C39.4211 78.3411 40.1212 76.9019 40.1212 76.9019C40.1212 76.9019 40.1771 77.9477 39.7185 78.2507C40.8835 77.8009 41.0693 75.6934 40.1772 75.6872L40.1801 75.6904ZM33.1468 64.8682C33.1468 64.8682 28.9949 64.4781 27.6596 60.2191C27.6596 60.2191 28.276 61.2714 29.2955 62.1644C28.2668 60.4034 29.3667 58.8296 29.3667 58.8296C29.3667 58.8296 30.8043 59.9444 31.6193 61.1777C32.434 62.411 33.8408 65.5271 33.8408 65.5271L32.4496 63.8753L33.1468 64.8652V64.8682ZM26.0079 42.0469C28.1769 44.4699 28.1892 45.9843 28.1892 45.9843C28.3257 48.2137 26.4108 51.1269 23.4364 48.0232C26.0668 48.9287 27.9538 46.1311 26.0079 42.0469ZM28.744 40.7294C31.17 43.3522 33.6549 46.0374 33.2397 47.8266C34.4327 47.7141 35.2507 46.8711 35.2507 46.8711C35.2507 46.8711 34.8943 48.1981 32.6479 49.3159C30.8849 50.1931 31.17 52.4164 28.7408 52.5351C30.7392 51.3298 30.3984 48.5602 31.9941 48.1949C33.0166 46.2433 28.7408 40.7262 28.7408 40.7262L28.744 40.7294ZM41.4474 48.8006C40.1772 49.7811 33.2367 51.6139 31.5449 51.3047C31.9786 49.8747 33.3575 49.5563 33.3575 49.5563C35.331 49.2784 38.9191 49.7374 41.4444 48.8006H41.4474ZM18.0977 18.7324C18.5316 16.7435 19.204 14.7327 20.0466 12.8218C19.1697 15.3977 18.6586 18.2265 18.5036 21.2365C18.2682 25.87 19.0645 30.0729 21.1931 34.0631C21.3387 34.3316 21.4782 34.6001 21.6177 34.8656C18.3333 31.0251 16.7779 24.746 18.0947 18.7294L18.0977 18.7324ZM3.23785 34.0664C5.82505 32.7548 8.69718 31.5652 11.8049 30.5194C12.7468 31.6745 13.8159 32.7143 14.9498 33.6698C14.1412 33.7758 13.0504 33.829 11.43 33.6072C13.4006 35.3558 17.0567 35.3215 18.4634 36.3237C19.5293 36.9294 20.4774 37.5227 21.3202 38.0909C25.8344 41.7536 26.4636 44.7448 25.5805 46.0874C25.723 45.5315 24.9856 43.9016 23.9104 43.1618C22.9313 42.4905 22.2713 44.6698 22.3208 46.1623C22.0576 45.9562 21.7942 45.7002 21.5432 45.3972C21.5526 43.1836 21.2086 40.0425 19.6284 38.1659C18.3798 37.7787 16.5022 40.717 15.6872 44.3514C15.836 43.73 15.6283 42.2906 15.6283 42.2906C15.6283 42.2906 14.0017 44.979 14.3889 47.7484C14.3827 48.9692 12.973 49.3502 11.8266 47.761C10.7484 46.2684 7.28748 40.3703 3.23785 38.2814V34.0631V34.0664ZM19.2658 50.1651C19.2658 50.1651 18.0173 48.8632 17.7137 47.1458C17.4069 45.4317 17.54 41.8909 19.114 40.3579C18.8508 43.5177 20.4867 44.1577 19.6128 47.8047C19.7647 47.0584 20.4525 46.2746 20.4246 46.6961C20.3968 47.1178 20.4867 48.9255 21.3047 50.0401C20.0715 49.6375 18.8972 48.3417 18.8972 48.3417L19.269 50.1683L19.2658 50.1651ZM9.5617 64.3812C8.7901 63.9628 7.62831 63.7536 6.39828 63.6911C8.38738 62.7451 11.3463 61.7772 14.4633 61.5617C18.5935 61.3307 19.8669 65.549 26.194 66.979C25.4844 66.4294 24.5021 65.2211 23.2753 63.8254C26.1878 66.0611 28.2885 68.1124 31.5355 68.712C31.5355 68.712 29.5464 66.445 29.2304 65.0619C33.9896 66.5449 35.9942 68.1187 38.3397 71.0599C40.7349 74.0605 29.6797 71.6157 29.6797 71.6157L32.8555 73.2518C25.8531 73.5608 23.9599 74.6349 24.8089 76.2368C20.5858 76.8425 16.2109 70.554 16.2109 70.554C16.2109 70.554 16.149 71.4314 16.6663 72.668C13.3913 68.7306 14.6121 62.3174 14.6121 62.3174C14.1412 63.0478 13.7631 63.7504 13.4502 64.4279V64.4155C13.4502 64.4155 6.43848 66.1172 3.23467 68.8367C4.34392 66.0953 8.00934 64.6216 9.55851 64.375L9.5617 64.3812ZM86.3031 81.6946C84.3418 93.7719 76.2704 110.985 45.0694 120.696C13.8654 110.985 5.7972 93.7719 3.83277 81.6946C3.58485 79.8493 3.402 75.94 5.89011 74.0011C5.89011 84.2986 8.76542 106.439 45.0694 117.739C81.3736 106.439 84.2489 84.2986 84.2489 74.0011C86.7368 75.94 86.554 79.8493 86.3063 81.6946H86.3031ZM76.6825 64.4187C76.6825 64.4187 76.6825 64.4249 76.6825 64.4311C76.3695 63.7536 75.9915 63.051 75.5205 62.3204C75.5205 62.3204 76.7414 68.7338 73.4663 72.671C73.9839 71.4346 73.9218 70.5572 73.9218 70.5572C73.9218 70.5572 69.55 76.8425 65.3237 76.2398C66.1757 74.6382 64.2827 73.564 57.2772 73.2549L60.4529 71.6187C60.4529 71.6187 49.398 74.0635 51.793 71.0629C54.1416 68.1217 56.1431 66.5481 60.9022 65.0649C60.5863 66.4482 58.5972 68.715 58.5972 68.715C61.8441 68.1155 63.9449 66.0641 66.8574 63.8286C65.6305 65.2211 64.6482 66.4294 63.9387 66.9822C70.2657 65.552 71.5361 61.3337 75.6693 61.5649C78.7864 61.7802 81.7423 62.7483 83.7346 63.6943C82.5075 63.7566 81.3426 63.9628 80.571 64.3842C82.1201 64.6278 85.7855 66.1048 86.8948 68.8461C83.6912 66.1266 76.6793 64.4249 76.6793 64.4249L76.6825 64.4187ZM69.711 46.6931C69.6831 46.2716 70.368 47.0552 70.5228 47.8015C69.6459 44.1547 71.285 43.5144 71.0218 40.3547C72.5957 41.8909 72.729 45.4285 72.4222 47.1426C72.1155 48.8568 70.8698 50.1621 70.8698 50.1621L71.2417 48.3354C71.2417 48.3354 70.0674 49.6343 68.8341 50.0339C69.6523 48.9193 69.742 47.1115 69.7142 46.6899L69.711 46.6931ZM86.898 38.2814C82.8484 40.3671 79.3875 46.2652 78.3093 47.761C77.1596 49.3502 75.7529 48.9724 75.7467 47.7484C76.1341 44.979 74.5074 42.2906 74.5074 42.2906C74.5074 42.2906 74.2966 43.73 74.4485 44.3514C73.6369 40.72 71.756 37.7819 70.5075 38.1659C68.9273 40.0425 68.5832 43.1836 68.5926 45.3972C68.3417 45.7032 68.0783 45.9562 67.8148 46.1623C67.8644 44.6698 67.2044 42.4905 66.2254 43.1618C65.1502 43.9016 64.4128 45.5315 64.5553 46.0874C63.6723 44.7448 64.3012 41.7536 68.8156 38.0909C69.6615 37.5197 70.6095 36.9294 71.6724 36.3237C73.076 35.3183 76.732 35.3558 78.7058 33.6072C77.0852 33.829 75.9915 33.7728 75.186 33.6698C76.32 32.7143 77.389 31.6745 78.331 30.5194C81.4387 31.5652 84.3108 32.7548 86.898 34.0664V38.2846V38.2814Z" fill="#262424" />
        <path fill-rule="evenodd" clip-rule="evenodd" d="M5.89037 74.0015C5.89037 84.2989 8.76568 106.439 45.0699 117.739V120.699C13.8657 110.989 5.79745 93.7753 3.83302 81.6981C3.58511 79.8527 3.40245 75.9436 5.89037 74.0047V74.0015Z" fill="#8F1E22" />
        <path fill-rule="evenodd" clip-rule="evenodd" d="M61.9387 45.9842C61.9387 45.9842 61.954 44.4698 64.1198 42.0469C62.1773 46.131 64.0641 48.9287 66.6915 48.0232C63.7171 51.1268 61.8022 48.2137 61.9387 45.9842ZM78.3261 30.5191C77.3841 31.6744 76.3153 32.7143 75.1813 33.6697C75.99 33.7758 77.0805 33.8289 78.7011 33.6071C76.7273 35.3558 73.0713 35.3215 71.6677 36.3236C70.6048 36.9293 69.6567 37.5226 68.8109 38.0909C64.2965 41.7535 63.6676 44.7447 64.5506 46.0873C64.4081 45.5315 65.1455 43.9016 66.2205 43.1617C67.1997 42.4904 67.8597 44.6697 67.8101 46.1623C68.0735 45.9562 68.3368 45.7001 68.5879 45.3971C68.5785 43.1835 68.9225 40.0424 70.5026 38.1659C71.7513 37.7787 73.629 40.7169 74.4438 44.3513C74.2919 43.7299 74.5027 42.2905 74.5027 42.2905C74.5027 42.2905 76.1294 44.9789 75.742 47.7483C75.7482 48.9692 77.1549 49.3501 78.3044 47.7609C79.3828 46.2683 82.8437 40.3702 86.8933 38.2813V34.0631C84.3061 32.7518 81.4338 31.5622 78.3261 30.5161V30.5191ZM77.3905 70.9006L77.3595 70.8944C75.8475 75.5091 69.7341 77.8602 64.8512 78.3755C59.302 78.9624 59.2865 81.1919 56.3057 80.836C55.8906 80.786 54.5303 81.4946 55.1222 80.124C55.3019 79.7119 55.869 79.1499 56.5659 78.5566C54.9517 78.7314 53.0245 79.3809 52.2035 79.7805C51.9556 79.9054 51.813 79.9804 51.813 79.9804C51.813 79.9804 50.5706 80.4518 49.3808 80.1458C47.909 79.3715 46.4899 77.0079 46.6109 76.4428C46.7317 75.8776 47.9587 74.2072 48.9253 73.3454C49.8921 72.4866 51.184 70.5696 53.2507 67.3318C55.3204 64.0938 54.4189 63.5974 54.9083 61.4993C55.398 59.401 55.8502 60.2441 56.9129 56.1195C57.1764 55.0953 57.7218 54.2958 58.453 53.6558C58.3228 53.5652 58.1957 53.4716 58.0717 53.3749C54.1586 50.7114 47.1097 51.9666 46.1925 46.9647C48.4388 49.4281 52.4296 48.5008 55.5343 48.9287C52.6186 47.408 51.7945 42.8307 52.346 44.0483C52.727 44.8852 54.2237 45.75 55.8906 46.3463C55.8751 44.5542 58.8835 41.2288 61.663 36.8794C57.6257 41.5598 51.6828 44.5292 45.0615 44.5292V115.25C75.4322 105.799 81.5703 83.4961 79.0356 70.6322C78.6824 69.1895 77.8304 69.152 77.3841 70.9036L77.3905 70.9006Z" fill="#8F1E22" />
        <path fill-rule="evenodd" clip-rule="evenodd" d="M37.9042 20.7617C39.2117 20.412 40.4727 19.9968 41.6688 19.5284C38.7964 13.0869 39.7509 7.33876 40.4851 4.68164C37.9351 5.3623 35.599 6.58628 33.6129 8.22237C33.396 9.2434 32.6337 14.133 35.8624 21.2363C36.5439 21.099 37.2256 20.9398 37.9072 20.7617H37.9042Z" fill="#262424" />
        <path fill-rule="evenodd" clip-rule="evenodd" d="M27.4255 18.0552C27.0786 19.4729 26.8896 20.953 26.8896 22.48C26.8896 24.5097 27.2212 26.4644 27.8283 28.2912C27.7911 25.5213 28.3363 23.3105 28.5376 22.5925C28.2898 21.974 27.6487 20.2098 27.4255 18.0552Z" fill="#262424" />
        <path fill-rule="evenodd" clip-rule="evenodd" d="M49.5535 14.7044C49.0392 13.4241 47.7936 9.56809 48.9958 4.48492C47.7564 4.21638 46.4707 4.07275 45.1537 4.07275C44.0725 4.07275 43.016 4.17267 41.9841 4.35689C41.3552 6.33959 39.9174 12.3438 42.9011 19.0195C45.6093 17.8237 47.9114 16.3435 49.5535 14.7074V14.7044Z" fill="#8F1E22" />
        <path fill-rule="evenodd" clip-rule="evenodd" d="M34.5121 21.4873C32.1167 16.0852 31.9091 11.9414 32.0733 9.64941C30.9114 10.8516 29.9073 12.213 29.1016 13.6995C28.0605 16.947 29.2473 20.6754 29.6936 21.8808C31.2336 21.887 32.8541 21.7558 34.5089 21.4873H34.5121Z" fill="#8F1E22" />
        <path fill-rule="evenodd" clip-rule="evenodd" d="M63.2452 19.9879C62.269 12.744 57.0978 6.83034 50.2875 4.81641C50.08 5.69691 49.953 6.53994 49.8848 7.33303C51.0963 7.69833 54.1172 8.77556 57.0887 11.1267C59.3937 12.9501 61.9375 15.7947 63.2452 19.9911V19.9879Z" fill="#262424" />
        <path fill-rule="evenodd" clip-rule="evenodd" d="M56.3057 12.2127C53.7589 10.1864 51.1128 9.14973 49.8301 8.7251C49.8271 11.6507 50.5894 13.7147 50.8558 14.3485C56.8977 17.1211 60.7861 23.0629 60.7861 29.5636C60.7861 30.5128 60.7024 31.4495 60.5414 32.3707C61.5112 30.847 62.2609 29.1702 62.7536 27.3875C63.1286 21.021 60.9596 15.9159 56.3057 12.2127Z" fill="#262424" />
        <path fill-rule="evenodd" clip-rule="evenodd" d="M44.3392 36.8327C42.4956 37.1698 40.6613 37.3354 38.8829 37.3354C37.1045 37.3354 35.3569 37.1636 33.7363 36.8295C36.8657 39.3617 40.835 40.8824 45.151 40.8824C50.3501 40.8824 55.0442 38.678 58.3719 35.1559C59.0845 33.3732 59.447 31.4966 59.447 29.567C59.447 29.1267 59.4253 28.6865 59.3881 28.2524C56.7917 32.2802 51.0628 35.6119 44.3392 36.8327Z" fill="#262424" />
        <path fill-rule="evenodd" clip-rule="evenodd" d="M39.0993 28.9863C46.6283 27.6156 53.197 24.6806 56.8282 21.0869C55.2822 18.8013 53.1165 16.9059 50.4952 15.6602C47.7469 18.3923 43.3162 20.7121 38.2441 22.0609C35.3656 22.8291 32.4531 23.2287 29.7791 23.2287H29.7483C29.491 24.2497 28.9673 26.8102 29.2431 29.742C32.3633 29.8545 35.7436 29.5984 39.0993 28.9863Z" fill="#262424" />
        <path fill-rule="evenodd" clip-rule="evenodd" d="M44.1039 35.5119C51.3076 34.2004 57.266 30.4225 59.032 26.0698C58.7099 24.7335 58.2079 23.4502 57.5447 22.2544C53.6873 25.9355 46.9731 28.9205 39.3354 30.31C36.4168 30.8407 33.4796 31.1124 30.6972 31.1124C30.2696 31.1124 29.8482 31.1062 29.4268 31.0937C29.495 31.4747 29.5786 31.8555 29.6808 32.2396C30.2664 33.1762 30.9296 34.0598 31.667 34.8749C35.2146 36.102 39.6236 36.3298 44.1071 35.5149L44.1039 35.5119Z" fill="#8F1E22" />
        <path fill-rule="evenodd" clip-rule="evenodd" d="M66.6938 48.0242C63.719 51.1282 61.8041 48.2147 61.9404 45.9851C61.9404 45.9851 61.9559 44.4705 64.1219 42.0474C62.179 46.1319 64.0662 48.9298 66.6938 48.0242Z" fill="white" />
        <path d="M45.0666 103.314C46.9226 103.314 48.4223 104.825 48.4223 106.695V110.904H55.8182L54.929 98.758L55.8182 94.2025H52.1217L45.0698 85.7158L38.0177 94.2025H34.3213L35.2107 98.758L34.3213 110.904H41.7172V106.695C41.7172 104.825 43.2168 103.314 45.0728 103.314H45.0666Z" fill="white" />
        <mask id="mask0_13_1840" style="mask-type:luminance" maskUnits="userSpaceOnUse" x="31" y="77" width="15" height="37">
            <path d="M45.0662 77.9858H31.9443V113.222H45.0662V77.9858Z" fill="white" />
        </mask>
        <g mask="url(#mask0_13_1840)">
            <path d="M45.0657 103.314C46.9217 103.314 48.4213 104.825 48.4213 106.695V110.904H55.8172L54.928 98.7585L55.8172 94.203H52.1207L45.0688 85.7163L38.0168 94.203H34.3203L35.2097 98.7585L34.3203 110.904H41.7162V106.695C41.7162 104.825 43.2158 103.314 45.0718 103.314H45.0657Z" fill="#262424" />
        </g>
    </g>
    <defs>
        <clipPath id="clip0_13_1840">
            <rect width="90" height="124" fill="white" />
        </clipPath>
    </defs>
  </svg>